<svg width="19" height="20" viewBox="0 0 19 20" fill="none" xmlns="http://www.w3.org/2000/svg">
<path d="M1.16667 5.5C0.857247 5.5 0.560501 5.62292 0.341709 5.84171C0.122917 6.0605 0 6.35725 0 6.66667C0 6.97609 0.122917 7.27283 0.341709 7.49162C0.560501 7.71042 0.857247 7.83333 1.16667 7.83333H5.83333C6.14275 7.83333 6.4395 7.71042 6.65829 7.49162C6.87708 7.27283 7 6.97609 7 6.66667C7 6.35725 6.87708 6.0605 6.65829 5.84171C6.4395 5.62292 6.14275 5.5 5.83333 5.5H1.16667ZM1.16667 11.3333C0.857247 11.3333 0.560501 11.4562 0.341709 11.675C0.122917 11.8938 0 12.1906 0 12.5C0 12.8094 0.122917 13.1062 0.341709 13.325C0.560501 13.5438 0.857247 13.6667 1.16667 13.6667H8.16667C8.47609 13.6667 8.77283 13.5438 8.99162 13.325C9.21042 13.1062 9.33333 12.8094 9.33333 12.5C9.33333 12.1906 9.21042 11.8938 8.99162 11.675C8.77283 11.4562 8.47609 11.3333 8.16667 11.3333H1.16667ZM1.16667 17.1667C0.857247 17.1667 0.560501 17.2896 0.341709 17.5084C0.122917 17.7272 0 18.0239 0 18.3333C0 18.6428 0.122917 18.9395 0.341709 19.1583C0.560501 19.3771 0.857247 19.5 1.16667 19.5H12.8333C13.1428 19.5 13.4395 19.3771 13.6583 19.1583C13.8771 18.9395 14 18.6428 14 18.3333C14 18.0239 13.8771 17.7272 13.6583 17.5084C13.4395 17.2896 13.1428 17.1667 12.8333 17.1667H1.16667Z" fill="black"/>
<path d="M14.2744 11.179L14.2683 11.18L14.2327 11.1976L14.2226 11.1996L14.2156 11.1976L14.1799 11.1795C14.1746 11.1782 14.1706 11.1792 14.1679 11.1826L14.1659 11.1876L14.1573 11.4026L14.1598 11.4126L14.1649 11.4192L14.2171 11.4563L14.2246 11.4583L14.2307 11.4563L14.2829 11.4192L14.2889 11.4111L14.291 11.4026L14.2824 11.1881C14.2811 11.1827 14.2784 11.1797 14.2744 11.179ZM14.407 11.1223L14.4 11.1233L14.3075 11.17L14.3025 11.175L14.301 11.1805L14.31 11.3966L14.3126 11.4026L14.3166 11.4066L14.4175 11.4528C14.4239 11.4545 14.4288 11.4532 14.4321 11.4488L14.4341 11.4418L14.417 11.1333C14.4154 11.127 14.412 11.1233 14.407 11.1223ZM14.0478 11.1233C14.0456 11.1219 14.043 11.1215 14.0404 11.1221C14.0379 11.1226 14.0357 11.1241 14.0343 11.1263L14.0312 11.1333L14.0142 11.4418C14.0145 11.4478 14.0173 11.4518 14.0227 11.4538L14.0302 11.4528L14.1312 11.4061L14.1362 11.4021L14.1377 11.3966L14.1468 11.1805L14.1453 11.1745L14.1402 11.1695L14.0478 11.1233Z" fill="#ED1C24"/>
<path d="M12.5226 2.23208C12.823 1.35298 14.0377 1.32636 14.3939 2.15221L14.424 2.23258L14.8294 3.41811C14.9223 3.69 15.0724 3.9388 15.2697 4.14773C15.4669 4.35666 15.7066 4.52086 15.9727 4.62926L16.0817 4.66995L17.2673 5.07484C18.1464 5.37524 18.173 6.58991 17.3476 6.94607L17.2673 6.97621L16.0817 7.3816C15.8097 7.47445 15.5609 7.62455 15.3518 7.82179C15.1428 8.01902 14.9785 8.2588 14.8701 8.52494L14.8294 8.63344L14.4245 9.81948C14.1241 10.6986 12.9094 10.7252 12.5538 9.89985L12.5226 9.81948L12.1177 8.63395C12.0249 8.36197 11.8748 8.11307 11.6776 7.90405C11.4803 7.69503 11.2405 7.53075 10.9744 7.42229L10.8659 7.3816L9.68036 6.97672C8.80076 6.67631 8.77414 5.46165 9.59999 5.10599L9.68036 5.07484L10.8659 4.66995C11.1378 4.57705 11.3866 4.42692 11.5955 4.22968C11.8044 4.03245 11.9686 3.79271 12.077 3.52662L12.1177 3.41811L12.5226 2.23208ZM17.4923 0.5C17.5863 0.5 17.6784 0.526362 17.7581 0.576091C17.8379 0.625819 17.9021 0.69692 17.9434 0.781312L17.9675 0.840087L18.1433 1.35549L18.6593 1.53131C18.7534 1.56331 18.836 1.62254 18.8965 1.70151C18.957 1.78048 18.9926 1.87563 18.999 1.97489C19.0053 2.07416 18.9821 2.17307 18.9321 2.2591C18.8822 2.34513 18.8079 2.4144 18.7185 2.45814L18.6593 2.48225L18.1438 2.65807L17.968 3.17397C17.936 3.26813 17.8767 3.35065 17.7977 3.41108C17.7187 3.47151 17.6235 3.50712 17.5243 3.51342C17.425 3.51971 17.3261 3.4964 17.2401 3.44644C17.1541 3.39647 17.0849 3.3221 17.0412 3.23275L17.0171 3.17397L16.8413 2.65857L16.3254 2.48275C16.2312 2.45075 16.1486 2.39152 16.0881 2.31255C16.0277 2.23358 15.992 2.13843 15.9856 2.03917C15.9793 1.93991 16.0026 1.84099 16.0525 1.75496C16.1024 1.66893 16.1768 1.59966 16.2661 1.55593L16.3254 1.53181L16.8408 1.35599L17.0166 0.840087C17.0505 0.740836 17.1145 0.654676 17.1999 0.593686C17.2852 0.532697 17.3874 0.499937 17.4923 0.5Z" fill="#ED1C24"/>
</svg>
