<svg width="22" height="25" viewBox="0 0 22 25" fill="none" xmlns="http://www.w3.org/2000/svg">
<path d="M0.818604 14.1178C0.818604 15.7264 1.45088 17.2692 2.57633 18.4067C3.70179 19.5442 5.22824 20.1832 6.81987 20.1832M6.81987 20.1832C8.41151 20.1832 9.93795 19.5442 11.0634 18.4067C12.1889 17.2692 12.8211 15.7264 12.8211 14.1178M6.81987 20.1832V23.6492M3.39058 23.6492H10.2492M4.2479 14.1178C4.2479 14.8072 4.51887 15.4684 5.00121 15.9559C5.48355 16.4434 6.13774 16.7173 6.81987 16.7173C7.502 16.7173 8.15619 16.4434 8.63853 15.9559C9.12087 15.4684 9.39184 14.8072 9.39184 14.1178V7.18584C9.39184 6.49642 9.12087 5.83523 8.63853 5.34773C8.15619 4.86024 7.502 4.58636 6.81987 4.58636C6.13774 4.58636 5.48355 4.86024 5.00121 5.34773C4.51887 5.83523 4.2479 6.49642 4.2479 7.18584V14.1178Z" stroke="#050B20" stroke-width="1.5" stroke-linecap="round" stroke-linejoin="round"/>
<path fill-rule="evenodd" clip-rule="evenodd" d="M17.4109 9.51839C17.0762 9.51839 16.7631 9.30268 16.6551 8.98991L16.3744 8.23493C16.0396 7.32895 15.8777 6.9191 15.6509 6.68182C15.435 6.46611 15.0462 6.31512 14.1068 5.96998L13.3618 5.70035C13.2068 5.64245 13.0726 5.53968 12.9765 5.40519C12.8803 5.27069 12.8265 5.11059 12.8219 4.94537C12.8111 4.61102 13.0271 4.29824 13.351 4.1796L14.1068 3.89918C15.0462 3.55404 15.435 3.40305 15.6617 3.17655C15.8885 2.95006 16.0396 2.54021 16.3744 1.62345L16.6551 0.879256C16.7739 0.566478 17.0762 0.350769 17.4109 0.350769C17.7457 0.350769 18.048 0.555692 18.1668 0.879256L18.4475 1.62345C18.7822 2.54021 18.9442 2.95006 19.171 3.18734C19.3869 3.40305 19.7756 3.55404 20.715 3.89918L21.4709 4.1796C21.784 4.29824 21.9999 4.60023 21.9999 4.94537C21.9999 5.2905 21.784 5.58171 21.4601 5.70035L20.7042 5.96998C19.7756 6.31512 19.3869 6.46611 19.1602 6.69261C18.9334 6.9191 18.7822 7.32895 18.4475 8.24571L18.1668 9.00069C18.048 9.31347 17.7457 9.52918 17.4109 9.52918V9.51839ZM15.8777 4.9238C16.2448 5.09636 16.5363 5.27972 16.7847 5.52778C17.0438 5.78663 17.2274 6.08862 17.4001 6.45533C17.5729 6.08862 17.7565 5.79742 18.0048 5.53857C18.2639 5.27972 18.5555 5.09636 18.9226 4.9238C18.5555 4.75123 18.2639 4.56788 18.0156 4.31981C17.7565 4.05017 17.5729 3.75897 17.4001 3.39226C17.2274 3.75897 17.0438 4.05017 16.7955 4.30903C16.5363 4.56788 16.2448 4.75123 15.8777 4.9238Z" fill="#ED1C24"/>
</svg>
