<svg width="22" height="29" viewBox="0 0 22 29" fill="none" xmlns="http://www.w3.org/2000/svg">
<path fill-rule="evenodd" clip-rule="evenodd" d="M16.2674 1.13401C16.2674 1.40804 16.1806 1.98501 16.0744 2.41604C15.4811 4.8248 13.6516 6.69564 11.6819 6.90773L10.9739 6.984V6.38769C10.9739 4.00102 12.9271 1.52914 15.3675 0.827377C16.2477 0.574259 16.2674 0.580965 16.2674 1.13401ZM17.3937 7.55598C18.7354 7.90338 19.8338 8.58344 20.6123 9.54884L20.9448 9.96106L20.0241 10.925C19.0647 11.9293 18.6272 12.6811 18.3343 13.8288C17.9899 15.1783 18.216 17.0143 18.8843 18.2954C19.2951 19.083 20.2797 20.1231 21.0568 20.5907C21.3688 20.7783 21.6404 20.9435 21.6604 20.9576C21.7426 21.0152 21.0155 22.8443 20.5928 23.6432C19.9969 24.7695 18.6523 26.662 18.0341 27.2446C17.2159 28.0159 16.8178 28.1783 15.7633 28.1712C14.9712 28.1658 14.6241 28.0838 13.6207 27.6647C11.9485 26.9663 11.0367 26.9657 9.27242 27.6624C7.08127 28.5276 6.11533 28.415 4.875 27.1496C3.00828 25.2452 1.41971 22.1845 0.667905 19.0443C0.38886 17.8785 0.336807 17.367 0.333656 15.757C0.330379 14.1482 0.375752 13.6809 0.62417 12.7656C1.47618 9.62642 3.97523 7.47314 6.76643 7.47314C7.46959 7.47314 7.94475 7.56834 8.79373 7.87945C9.40362 8.10298 10.1969 8.37148 10.5566 8.47641L11.2107 8.66694L13.0773 8.0062C15.1777 7.26276 15.9505 7.18215 17.3937 7.55598Z" fill="white"/>
</svg>
