<svg width="18" height="20" viewBox="0 0 18 20" fill="none" xmlns="http://www.w3.org/2000/svg">
<path d="M15.5 0.232971C15.6558 0.232971 15.8085 0.276698 15.9408 0.359182C16.073 0.441667 16.1794 0.559601 16.248 0.699581L16.288 0.79707L16.5795 1.65197L17.435 1.9436C17.5912 1.99667 17.7281 2.09493 17.8283 2.22591C17.9286 2.35689 17.9878 2.51471 17.9983 2.67936C18.0088 2.84401 17.9703 3.00808 17.8875 3.15077C17.8047 3.29347 17.6814 3.40837 17.5333 3.48091L17.435 3.52091L16.5804 3.81254L16.2888 4.66827C16.2357 4.82444 16.1374 4.96131 16.0064 5.06155C15.8754 5.16178 15.7176 5.22086 15.553 5.2313C15.3884 5.24174 15.2244 5.20307 15.0818 5.12019C14.9392 5.03732 14.8244 4.91396 14.752 4.76576L14.712 4.66827L14.4205 3.81337L13.565 3.52174C13.4088 3.46867 13.2719 3.37041 13.1717 3.23943C13.0714 3.10844 13.0122 2.95063 13.0017 2.78598C12.9912 2.62133 13.0297 2.45726 13.1125 2.31456C13.1953 2.17187 13.3186 2.05697 13.4667 1.98443L13.565 1.94443L14.4196 1.6528L14.7112 0.79707C14.7673 0.632444 14.8736 0.489531 15.0151 0.388368C15.1565 0.287205 15.3261 0.232867 15.5 0.232971Z" fill="#ED1C24"/>
<path d="M7.05371 4.88196C7.45668 3.79294 8.96066 3.75858 9.43262 4.77942L9.47559 4.88196L10.4756 7.58411C10.7502 8.32586 11.3155 8.92088 12.0371 9.23352L12.1836 9.29211L14.8857 10.2921C15.9745 10.6953 16.0083 12.1993 14.9873 12.671L14.8857 12.714L12.1836 13.714C11.4417 13.9885 10.8469 14.5538 10.5342 15.2755L10.4756 15.422L9.47559 18.1241C9.07248 19.2132 7.56744 19.2469 7.0957 18.2257L7.05371 18.1241L6.05371 15.422C5.77914 14.68 5.21305 14.0853 4.49121 13.7726L4.3457 13.714L1.64355 12.714C0.554492 12.311 0.520055 10.806 1.54102 10.3341L1.64355 10.2921L4.3457 9.29211C5.08765 9.01746 5.68247 8.45146 5.99512 7.72961L6.05371 7.58411L7.05371 4.88196Z" stroke="#333333" stroke-width="1.6"/>
</svg>
