<svg width="20" height="23" viewBox="0 0 20 23" fill="none" xmlns="http://www.w3.org/2000/svg">
<path d="M6.66667 10H4.44444V12.2222H6.66667V10Z" fill="#666666" fill-opacity="0.8"/>
<path d="M6.66667 14.4444H4.44444V16.6667H6.66667V14.4444Z" fill="#666666" fill-opacity="0.8"/>
<path d="M11.1111 10H8.88889V12.2222H11.1111V10Z" fill="#666666" fill-opacity="0.8"/>
<path d="M11.1111 14.4444H8.88889V16.6667H11.1111V14.4444Z" fill="#666666" fill-opacity="0.8"/>
<path d="M15.5556 10H13.3333V12.2222H15.5556V10Z" fill="#666666" fill-opacity="0.8"/>
<path d="M15.5556 14.4444H13.3333V16.6667H15.5556V14.4444Z" fill="#666666" fill-opacity="0.8"/>
<path fill-rule="evenodd" clip-rule="evenodd" d="M17.7778 22.2222H2.22222C0.996667 22.2222 0 21.2256 0 20V4.44444C0 3.21889 0.996667 2.22222 2.22222 2.22222H4.44444V0H6.66667V2.22222H13.3333V0H15.5556V2.22222H17.7778C19.0033 2.22222 20 3.21889 20 4.44444V20C20 21.2256 19.0033 22.2222 17.7778 22.2222ZM17.7789 20L17.7778 6.66667H2.22222V20H17.7789Z" fill="#666666" fill-opacity="0.8"/>
</svg>
