<svg width="98" height="103" viewBox="0 0 98 103" fill="none" xmlns="http://www.w3.org/2000/svg">
<g filter="url(#filter0_d_2858_2955)">
<path d="M53 9C70.6731 9 85 23.3269 85 41V44C85 61.6731 70.6731 76 53 76H45C44.7745 76 44.5496 75.9958 44.3252 75.9912C39.6178 77.1536 35.6007 79.9217 32.2754 82C28.2756 84.5 26.2753 87.4999 23.2754 85C20.2758 82.5 23.2754 78.9998 24.7754 73C25.287 70.9534 25.0122 69.5719 24.4219 68.5039C17.4393 62.6339 13 53.8361 13 44V41C13 23.3269 27.3269 9 45 9H53Z" fill="white"/>
<path d="M85 44H86H85ZM53 76V77V76ZM44.3252 75.9912L44.3459 74.9914L44.2138 74.9887L44.0855 75.0204L44.3252 75.9912ZM32.2754 82L31.7454 81.152L31.7454 81.152L32.2754 82ZM23.2754 85L22.6352 85.7682L22.6352 85.7682L23.2754 85ZM24.7754 73L25.7455 73.2425H25.7455L24.7754 73ZM24.4219 68.5039L25.2971 68.0202L25.2074 67.8578L25.0654 67.7385L24.4219 68.5039ZM13 41H12H13ZM45 9V8V9ZM53 9V10C70.1208 10 84 23.8792 84 41H85H86C86 22.7746 71.2254 8 53 8V9ZM85 41H84V44H85H86V41H85ZM85 44H84C84 61.1208 70.1208 75 53 75V76V77C71.2254 77 86 62.2254 86 44H85ZM53 76V75H45V76V77H53V76ZM45 76V75C44.7857 75 44.5698 74.9961 44.3459 74.9914L44.3252 75.9912L44.3045 76.991C44.5294 76.9957 44.7633 77 45 77V76ZM44.3252 75.9912L44.0855 75.0204C39.1857 76.2303 35.0108 79.1111 31.7454 81.152L32.2754 82L32.8054 82.848C36.1905 80.7323 40.0498 78.077 44.5649 76.9621L44.3252 75.9912ZM32.2754 82L31.7454 81.152C30.705 81.8023 29.7976 82.4833 29.0061 83.0731C28.1959 83.6768 27.5354 84.1622 26.9216 84.4971C26.317 84.8268 25.8483 84.9579 25.4312 84.9385C25.0303 84.9199 24.5443 84.7557 23.9156 84.2318L23.2754 85L22.6352 85.7682C23.5065 86.4943 24.3954 86.8925 25.3383 86.9364C26.265 86.9795 27.1089 86.6731 27.8793 86.2529C28.6405 85.8377 29.4176 85.2606 30.2011 84.6769C31.0033 84.0791 31.8459 83.4477 32.8054 82.848L32.2754 82ZM23.2754 85L23.9156 84.2318C23.3372 83.7498 23.0996 83.2756 23.0221 82.7643C22.9375 82.2057 23.0307 81.5133 23.2984 80.5912C23.5668 79.6667 23.968 78.6425 24.425 77.3997C24.8741 76.1784 25.3574 74.7949 25.7455 73.2425L24.7754 73L23.8052 72.7575C23.4434 74.2049 22.9893 75.5089 22.5478 76.7095C22.1143 77.8886 21.6718 79.0206 21.3777 80.0336C21.083 81.0491 20.895 82.0754 21.0447 83.0638C21.2015 84.0994 21.7138 85.0002 22.6352 85.7682L23.2754 85ZM24.7754 73L25.7455 73.2425C26.3101 70.9841 26.0255 69.3381 25.2971 68.0202L24.4219 68.5039L23.5467 68.9877C23.9988 69.8057 24.264 70.9226 23.8052 72.7575L24.7754 73ZM24.4219 68.5039L25.0654 67.7385C18.299 62.0502 14 53.5282 14 44H13H12C12 54.1439 16.5796 63.2176 23.7784 69.2694L24.4219 68.5039ZM13 44H14V41H13H12V44H13ZM13 41H14C14 23.8792 27.8792 10 45 10V9V8C26.7746 8 12 22.7746 12 41H13ZM45 9V10H53V9V8H45V9Z" fill="#ED1C24"/>
</g>
<path d="M49.2467 52.4195L47.6366 50.9729C45.7675 49.2852 44.2222 47.8293 43.0007 46.6053C41.7793 45.3812 40.8077 44.2823 40.0859 43.3087C39.3642 42.335 38.8599 41.4401 38.573 40.6241C38.2862 39.8081 38.1428 38.9735 38.1428 38.1204C38.1428 36.377 38.7257 34.9211 39.8916 33.7527C41.0575 32.5843 42.5103 32.0001 44.2499 32.0001C45.2123 32.0001 46.1283 32.2041 46.9981 32.6121C47.8679 33.0202 48.6175 33.5951 49.2467 34.3369C49.8759 33.5951 50.6254 33.0202 51.4952 32.6121C52.365 32.2041 53.2811 32.0001 54.2434 32.0001C55.9831 32.0001 57.4358 32.5843 58.6017 33.7527C59.7676 34.9211 60.3506 36.377 60.3506 38.1204C60.3506 38.9735 60.2072 39.8081 59.9203 40.6241C59.6335 41.4401 59.1292 42.335 58.4074 43.3087C57.6857 44.2823 56.7141 45.3812 55.4926 46.6053C54.2712 47.8293 52.7259 49.2852 50.8567 50.9729L49.2467 52.4195Z" fill="#ED1C24"/>
<rect width="4.40873" height="4.40873" rx="0.379119" transform="matrix(-0.707106 -0.707108 -0.707106 0.707108 38.8378 46.5688)" fill="#ED1C24"/>
<rect width="4.40873" height="4.40873" rx="0.379119" transform="matrix(-0.707106 -0.707108 -0.707106 0.707108 49.7087 51.8375)" fill="#ED1C24"/>
<rect width="3.42535" height="3.42535" rx="0.379119" transform="matrix(-0.707106 -0.707108 -0.707106 0.707108 32.4446 46.5688)" fill="#ED1C24"/>
<rect width="3.42535" height="3.42535" rx="0.379119" transform="matrix(-0.707106 -0.707108 -0.707106 0.707108 43.3181 51.8375)" fill="#ED1C24"/>
<rect width="3.42535" height="3.42535" rx="0.379119" transform="matrix(-0.707106 -0.707108 -0.707106 0.707108 35.4286 42.2812)" fill="#ED1C24"/>
<rect width="3.93279" height="3.93279" rx="0.379119" transform="matrix(-0.707106 -0.707108 -0.707106 0.707108 38.702 38.0258)" fill="#ED1C24"/>
<rect width="5.17775" height="5.17775" rx="0.379119" transform="matrix(-0.707106 -0.707108 -0.707106 0.707108 43.0193 42.2812)" fill="#ED1C24"/>
<rect width="2.35502" height="2.35502" rx="0.379119" transform="matrix(-0.707106 -0.707108 -0.707106 0.707108 32.0186 38.0258)" fill="#ED1C24"/>
<rect width="2.35502" height="2.35502" rx="0.379119" transform="matrix(-0.707106 -0.707108 -0.707106 0.707108 38.4941 33.6653)" fill="#ED1C24"/>
<rect width="2.35502" height="2.35502" rx="0.379119" transform="matrix(-0.707106 -0.707108 -0.707106 0.707108 43.0227 47.9436)" fill="#ED1C24"/>
<rect width="1.90306" height="1.90306" rx="0.379119" transform="matrix(-0.707106 -0.707108 -0.707106 0.707108 26.6913 38.0258)" fill="#ED1C24"/>
<rect width="1.90306" height="1.90306" rx="0.379119" transform="matrix(-0.707106 -0.707108 -0.707106 0.707108 26.6913 46.7657)" fill="#ED1C24"/>
<rect width="1.90306" height="1.90306" rx="0.379119" transform="matrix(-0.707106 -0.707108 -0.707106 0.707108 29.4615 51.0346)" fill="#ED1C24"/>
<rect width="3.1915" height="3.1915" rx="0.379119" transform="matrix(-0.707106 -0.707108 -0.707106 0.707108 30.1005 42.4)" fill="#ED1C24"/>
<rect width="0.745232" height="3.42806" transform="matrix(-4.37112e-08 -1 -1 4.37115e-08 33.8195 46.9133)" fill="#ED1C24"/>
<rect width="0.894278" height="3.72615" transform="matrix(-4.37112e-08 -1 -1 4.37115e-08 44.85 52.4214)" fill="#ED1C24"/>
<rect width="0.894278" height="3.42806" transform="matrix(-4.37112e-08 -1 -1 4.37115e-08 33.8195 38.5571)" fill="#ED1C24"/>
<rect width="0.745232" height="3.72615" transform="matrix(-4.37112e-08 -1 -1 4.37115e-08 37.3976 42.7276)" fill="#ED1C24"/>
<rect width="0.745232" height="3.42806" transform="matrix(-4.37112e-08 -1 -1 4.37115e-08 40.8254 33.9453)" fill="#ED1C24"/>
<rect width="0.745232" height="3.5771" transform="matrix(-4.37112e-08 -1 -1 4.37115e-08 45.2964 48.2458)" fill="#ED1C24"/>
<path d="M48.9067 38.1834C52.0974 29.9788 57.9957 33.6253 60.546 36.4741C64.0623 31.9811 68.3056 33.1369 69.9877 34.2764C75.262 40.6577 65.8909 49.1987 60.546 52.6715C53.9043 48.9599 50.0191 41.4663 48.9067 38.1834Z" fill="white"/>
<path d="M60.4654 54.9533L58.6478 53.3271C56.5378 51.43 54.7934 49.7935 53.4146 48.4176C52.0358 47.0416 50.939 45.8064 50.1243 44.7119C49.3095 43.6174 48.7403 42.6115 48.4164 41.6942C48.0926 40.7769 47.9307 39.8388 47.9307 38.8798C47.9307 36.9201 48.5888 35.2836 49.9049 33.9702C51.2211 32.6568 52.861 32.0001 54.8248 32.0001C55.9111 32.0001 56.9452 32.2294 57.9271 32.6881C58.909 33.1467 59.7551 33.793 60.4654 34.6269C61.1757 33.793 62.0218 33.1467 63.0036 32.6881C63.9855 32.2294 65.0196 32.0001 66.106 32.0001C68.0697 32.0001 69.7097 32.6568 71.0258 33.9702C72.3419 35.2836 73 36.9201 73 38.8798C73 39.8388 72.8381 40.7769 72.5143 41.6942C72.1905 42.6115 71.6212 43.6174 70.8065 44.7119C69.9917 45.8064 68.8949 47.0416 67.5161 48.4176C66.1373 49.7935 64.3929 51.43 62.2829 53.3271L60.4654 54.9533ZM60.4654 51.576C62.4709 49.7831 64.1213 48.2456 65.4166 46.9634C66.7118 45.6813 67.7355 44.566 68.4875 43.6174C69.2396 42.6688 69.7619 41.8245 70.0544 41.0844C70.3469 40.3443 70.4931 39.6095 70.4931 38.8798C70.4931 37.629 70.0753 36.5866 69.2396 35.7527C68.404 34.9188 67.3594 34.5018 66.106 34.5018C65.1241 34.5018 64.2153 34.7781 63.3797 35.3305C62.544 35.883 61.9695 36.5866 61.6562 37.4413H59.2746C58.9612 36.5866 58.3867 35.883 57.5511 35.3305C56.7154 34.7781 55.8067 34.5018 54.8248 34.5018C53.5713 34.5018 52.5268 34.9188 51.6911 35.7527C50.8555 36.5866 50.4377 37.629 50.4377 38.8798C50.4377 39.6095 50.5839 40.3443 50.8764 41.0844C51.1688 41.8245 51.6911 42.6688 52.4432 43.6174C53.1953 44.566 54.2189 45.6813 55.5142 46.9634C56.8094 48.2456 58.4598 49.7831 60.4654 51.576Z" fill="#ED1C24"/>
<defs>
<filter id="filter0_d_2858_2955" x="0" y="0" width="98" height="102.94" filterUnits="userSpaceOnUse" color-interpolation-filters="sRGB">
<feFlood flood-opacity="0" result="BackgroundImageFix"/>
<feColorMatrix in="SourceAlpha" type="matrix" values="0 0 0 0 0 0 0 0 0 0 0 0 0 0 0 0 0 0 127 0" result="hardAlpha"/>
<feOffset dy="4"/>
<feGaussianBlur stdDeviation="6"/>
<feColorMatrix type="matrix" values="0 0 0 0 0.219608 0 0 0 0 0.45098 0 0 0 0 0.913725 0 0 0 0.5 0"/>
<feBlend mode="normal" in2="BackgroundImageFix" result="effect1_dropShadow_2858_2955"/>
<feBlend mode="normal" in="SourceGraphic" in2="effect1_dropShadow_2858_2955" result="shape"/>
</filter>
</defs>
</svg>
