<svg width="22" height="22" viewBox="0 0 22 22" fill="none" xmlns="http://www.w3.org/2000/svg">
<g clip-path="url(#clip0_514_1140)">
<rect y="-1.90735e-06" width="22" height="22" rx="11" fill="white"/>
<path fill-rule="evenodd" clip-rule="evenodd" d="M0 -1.90735e-06H13.2V10.2667H0V-1.90735e-06Z" fill="#1A47B8"/>
<path fill-rule="evenodd" clip-rule="evenodd" d="M13.2 -1.90735e-06V1.46667H30.8V-1.90735e-06H13.2ZM13.2 2.93333V4.4H30.8V2.93333H13.2ZM13.2 5.86667V7.33333H30.8V5.86667H13.2ZM13.2 8.8V10.2667H30.8V8.8H13.2ZM0 11.7333V13.2H30.8V11.7333H0ZM0 14.6667V16.1333H30.8V14.6667H0ZM0 17.6V19.0667H30.8V17.6H0ZM0 20.5333V22H30.8V20.5333H0Z" fill="#F93939"/>
<path fill-rule="evenodd" clip-rule="evenodd" d="M1.4668 1.46668V2.93334H2.93346V1.46668H1.4668ZM4.40013 1.46668V2.93334H5.8668V1.46668H4.40013ZM7.33347 1.46668V2.93334H8.80013V1.46668H7.33347ZM10.2668 1.46668V2.93334H11.7335V1.46668H10.2668ZM8.80013 2.93334V4.40001H10.2668V2.93334H8.80013ZM5.8668 2.93334V4.40001H7.33347V2.93334H5.8668ZM2.93346 2.93334V4.40001H4.40013V2.93334H2.93346ZM1.4668 4.40001V5.86668H2.93346V4.40001H1.4668ZM4.40013 4.40001V5.86668H5.8668V4.40001H4.40013ZM7.33347 4.40001V5.86668H8.80013V4.40001H7.33347ZM10.2668 4.40001V5.86668H11.7335V4.40001H10.2668ZM1.4668 7.33334V8.80001H2.93346V7.33334H1.4668ZM4.40013 7.33334V8.80001H5.8668V7.33334H4.40013ZM7.33347 7.33334V8.80001H8.80013V7.33334H7.33347ZM10.2668 7.33334V8.80001H11.7335V7.33334H10.2668ZM8.80013 5.86668V7.33334H10.2668V5.86668H8.80013ZM5.8668 5.86668V7.33334H7.33347V5.86668H5.8668ZM2.93346 5.86668V7.33334H4.40013V5.86668H2.93346Z" fill="white"/>
</g>
<defs>
<clipPath id="clip0_514_1140">
<rect y="-1.90735e-06" width="22" height="22" rx="11" fill="white"/>
</clipPath>
</defs>
</svg>
