<svg width="28" height="28" viewBox="0 0 28 28" fill="none" xmlns="http://www.w3.org/2000/svg">
<path d="M27.3332 14.5811C27.3332 13.6164 27.2466 12.6888 27.0858 11.7982H14.272V17.0672H21.5942C21.2726 18.7617 20.3078 20.1965 18.8607 21.1612V24.5873H23.2763C25.849 22.2126 27.3332 18.7246 27.3332 14.5811Z" fill="#FFFDFF"/>
<path d="M14.2719 27.8775C17.9454 27.8775 21.0252 26.6654 23.2763 24.5874L18.8607 21.1613C17.6485 21.9777 16.1025 22.4724 14.2719 22.4724C10.7345 22.4724 7.72894 20.0853 6.65288 16.8694H2.12598V20.3821C4.36469 24.8224 8.95343 27.8775 14.2719 27.8775Z" fill="#FFFDFF"/>
<path d="M6.6529 16.8571C6.38079 16.0408 6.22 15.175 6.22 14.2721C6.22 13.3692 6.38079 12.5034 6.6529 11.6871V8.17438H2.126C1.19835 10.0049 0.666504 12.0705 0.666504 14.2721C0.666504 16.4737 1.19835 18.5393 2.126 20.3698L5.65104 17.624L6.6529 16.8571Z" fill="#FFFDFF"/>
<path d="M14.2719 6.08413C16.2756 6.08413 18.0567 6.77677 19.4791 8.11257L23.3752 4.21647C21.0128 2.01486 17.9454 0.666687 14.2719 0.666687C8.95343 0.666687 4.36469 3.72173 2.12598 8.17442L6.65288 11.6871C7.72894 8.47126 10.7345 6.08413 14.2719 6.08413Z" fill="#FFFDFF"/>
</svg>
