<svg width="88" height="84" viewBox="0 0 88 84" fill="none" xmlns="http://www.w3.org/2000/svg">
<g opacity="0.2">
<path d="M62.2069 33.8058C62.3127 33.9507 62.5102 33.9908 62.6551 33.8851C62.8033 33.7918 62.8435 33.5942 62.7377 33.4493C62.6444 33.3011 62.4469 33.261 62.302 33.3667C62.1537 33.46 62.1136 33.6576 62.2069 33.8058Z" fill="url(#paint0_linear_0_204)"/>
<path d="M43.5258 17.5932C43.6282 17.7257 43.8257 17.7658 43.9706 17.6601C44.1313 17.5634 44.159 17.3692 44.0657 17.221C43.9724 17.0727 43.7624 17.0359 43.6299 17.1383C43.4692 17.235 43.4449 17.4416 43.5258 17.5932Z" fill="url(#paint1_linear_0_204)"/>
<path d="M46.0992 13.6318C46.1892 13.7676 46.3868 13.8077 46.535 13.7144C46.6957 13.6178 46.72 13.4111 46.6267 13.2629C46.5368 13.1271 46.3234 13.0779 46.1785 13.1836C46.0303 13.2769 45.9935 13.4869 46.0992 13.6318Z" fill="url(#paint2_linear_0_204)"/>
<path d="M36.0686 15.9083C36.1495 16.0599 36.3561 16.0843 36.4919 15.9943C36.6492 15.8852 36.6961 15.7125 36.587 15.5552C36.4812 15.4103 36.2837 15.3702 36.1479 15.4601C36.003 15.5659 35.9595 15.751 36.0686 15.9083Z" fill="url(#paint3_linear_0_204)"/>
<path d="M25.4391 16.9995C25.5324 17.1478 25.73 17.1879 25.8782 17.0946C26.0231 16.9888 26.0632 16.7913 25.9608 16.6588C25.8518 16.5015 25.6666 16.458 25.5342 16.5604C25.3735 16.6571 25.3458 16.8513 25.4391 16.9995Z" fill="url(#paint4_linear_0_204)"/>
<path d="M28.5342 57.0863C28.4284 56.9414 28.2309 56.9013 28.0951 56.9913C27.9377 57.1004 27.91 57.2946 27.9909 57.4462C28.0967 57.5911 28.3066 57.6278 28.4515 57.5221C28.5964 57.4163 28.6275 57.2346 28.5342 57.0863Z" fill="url(#paint5_linear_0_204)"/>
<path d="M41.2867 66.494C41.4192 66.3916 41.4627 66.2065 41.3694 66.0583C41.2636 65.9134 41.0752 65.8575 40.9212 65.979C40.7729 66.0723 40.7328 66.2698 40.8261 66.4181C40.9443 66.5596 41.1419 66.5997 41.2867 66.494Z" fill="url(#paint6_linear_0_204)"/>
<path d="M34.7792 75.2102C34.6984 75.0586 34.4759 75.0252 34.3401 75.1152C34.1952 75.2209 34.1427 75.4218 34.2609 75.5634C34.3666 75.7083 34.5517 75.7517 34.6966 75.646C34.8449 75.5527 34.8725 75.3585 34.7792 75.2102Z" fill="url(#paint7_linear_0_204)"/>
<path d="M45.9055 25.4349C45.7539 25.5157 45.7138 25.7133 45.8229 25.8706C45.9162 26.0188 46.1228 26.0432 46.2462 25.9566C46.3911 25.8508 46.447 25.6624 46.3379 25.505C46.2446 25.3568 46.0504 25.3291 45.9055 25.4349Z" fill="url(#paint8_linear_0_204)"/>
<path d="M18.8068 25.5495C18.9675 25.4528 18.9952 25.2586 18.9143 25.107C18.7995 24.9779 18.5986 24.9254 18.457 25.0435C18.3145 25.1086 18.2777 25.3186 18.3711 25.4669C18.4644 25.6151 18.6653 25.6677 18.8068 25.5495Z" fill="url(#paint9_linear_0_204)"/>
<path d="M13.6163 26.8283C13.5105 26.6834 13.313 26.6433 13.1681 26.749C13.0199 26.8423 12.9797 27.0399 13.0855 27.1848C13.1912 27.3297 13.3797 27.3856 13.5212 27.2674C13.6695 27.1741 13.7062 26.9641 13.6163 26.8283Z" fill="url(#paint10_linear_0_204)"/>
<path d="M16.3145 38.719C16.2212 38.5707 16.0112 38.5339 15.8754 38.6239C15.7305 38.7296 15.6904 38.9272 15.7837 39.0754C15.877 39.2237 16.087 39.2604 16.2194 39.1581C16.3768 39.049 16.4078 38.8672 16.3145 38.719Z" fill="url(#paint11_linear_0_204)"/>
<path d="M20.2519 32.6425C20.4001 32.5492 20.4278 32.355 20.3345 32.2068C20.2412 32.0585 20.047 32.0309 19.9112 32.1208C19.7538 32.2299 19.7104 32.415 19.8161 32.5599C19.9128 32.7206 20.107 32.7483 20.2519 32.6425Z" fill="url(#paint12_linear_0_204)"/>
<path d="M18.667 18.2511C18.7727 18.396 18.9703 18.4361 19.1152 18.3304C19.2634 18.2371 19.3035 18.0395 19.1978 17.8946C19.1078 17.7588 18.9069 17.7062 18.7745 17.8086C18.6138 17.9053 18.577 18.1153 18.667 18.2511Z" fill="url(#paint13_linear_0_204)"/>
<path d="M12.9679 30.6576C12.8746 30.5093 12.6771 30.4692 12.5322 30.575C12.3839 30.6683 12.3438 30.8658 12.4496 31.0107C12.552 31.1432 12.7529 31.1957 12.8887 31.1058C13.0336 31 13.0579 30.7934 12.9679 30.6576Z" fill="url(#paint14_linear_0_204)"/>
<path d="M15.0597 14.3681C14.9239 14.4581 14.8837 14.6556 14.9895 14.8005C15.0828 14.9488 15.2679 14.9922 15.4128 14.8865C15.5768 14.8023 15.6045 14.6081 15.5079 14.4474C15.4146 14.2992 15.2204 14.2715 15.0597 14.3681Z" fill="url(#paint15_linear_0_204)"/>
<path d="M49.6051 63.5584C49.4477 63.6675 49.42 63.8617 49.4976 64.0008C49.6067 64.1582 49.8042 64.1983 49.9491 64.0925C50.1064 63.9834 50.1375 63.8017 50.0442 63.6534C49.9384 63.5086 49.7409 63.4684 49.6051 63.5584Z" fill="url(#paint16_linear_0_204)"/>
<path d="M63.0907 59.7504C62.9458 59.8561 62.8932 60.057 62.999 60.2019C63.0923 60.3502 63.2989 60.3745 63.4347 60.2846C63.583 60.1913 63.6355 59.9904 63.5298 59.8455C63.4241 59.7006 63.2265 59.6604 63.0907 59.7504Z" fill="url(#paint17_linear_0_204)"/>
<path d="M45.7308 71.0579C45.5859 71.1637 45.5424 71.3488 45.6515 71.5061C45.729 71.6453 45.939 71.682 46.0872 71.5887C46.2355 71.4954 46.2723 71.2854 46.1823 71.1496C46.0766 71.0047 45.879 70.9646 45.7308 71.0579Z" fill="url(#paint18_linear_0_204)"/>
<path d="M24.5312 81.1335C24.3954 81.2234 24.3586 81.4334 24.452 81.5817C24.5577 81.7266 24.7552 81.7667 24.9001 81.6609C25.0484 81.5676 25.0885 81.3701 24.9828 81.2252C24.8895 81.0769 24.6953 81.0493 24.5312 81.1335Z" fill="url(#paint19_linear_0_204)"/>
<path d="M18.1216 58.9857C17.9767 59.0915 17.9366 59.289 18.0423 59.4339C18.1356 59.5822 18.3298 59.6099 18.4781 59.5166C18.6263 59.4232 18.6664 59.2257 18.5731 59.0775C18.455 58.9359 18.2665 58.88 18.1216 58.9857Z" fill="url(#paint20_linear_0_204)"/>
<path d="M25.6774 66.2329C25.5291 66.3262 25.4924 66.5361 25.5948 66.6686C25.6972 66.8011 25.8856 66.857 26.0181 66.7546C26.1663 66.6613 26.2189 66.4604 26.1165 66.3279C26.0323 66.1639 25.8223 66.1271 25.6774 66.2329Z" fill="url(#paint21_linear_0_204)"/>
<path d="M26.4802 9.03601C26.5859 9.18091 26.7834 9.22103 26.9317 9.12772C27.0799 9.03441 27.1201 8.83687 27.011 8.67954C26.9177 8.53129 26.711 8.50695 26.5752 8.59691C26.427 8.69022 26.3868 8.88776 26.4802 9.03601Z" fill="url(#paint22_linear_0_204)"/>
<path d="M8.82572 45.1788C8.91902 45.327 9.12901 45.3638 9.2739 45.2581C9.40971 45.1681 9.46227 44.9672 9.34409 44.8257C9.25079 44.6774 9.05659 44.6497 8.92078 44.7397C8.77253 44.833 8.73241 45.0306 8.82572 45.1788Z" fill="url(#paint23_linear_0_204)"/>
<path d="M11.1202 38.9453C11.2102 39.0811 11.4077 39.1213 11.5651 39.0122C11.7009 38.9222 11.741 38.7247 11.6477 38.5764C11.5453 38.444 11.3568 38.388 11.212 38.4938C11.0637 38.5871 11.0145 38.8004 11.1169 38.9329L11.1202 38.9453Z" fill="url(#paint24_linear_0_204)"/>
<path d="M36.3192 12.68C36.1776 12.7982 36.1341 12.9833 36.2399 13.1282C36.3298 13.264 36.5432 13.3132 36.6756 13.2108C36.8239 13.1175 36.864 12.9199 36.7707 12.7717C36.6774 12.6234 36.4798 12.5833 36.3192 12.68Z" fill="url(#paint25_linear_0_204)"/>
<path fill-rule="evenodd" clip-rule="evenodd" d="M63.3499 44.3816C63.6 44.2208 63.9319 44.2647 64.0961 44.5273C64.2693 44.774 64.1971 45.1002 63.9504 45.2734C63.9413 45.2892 63.9289 45.2926 63.9164 45.2959L65.4704 48.7851C66.0223 48.5564 66.6599 48.7446 67.0063 49.2381C67.013 49.263 67.0288 49.2721 67.0288 49.2721L73.5245 45.5607C73.4077 45.3254 73.4775 45.0398 73.7027 44.8857C73.9528 44.725 74.2881 44.7813 74.4613 45.0281C74.6221 45.2782 74.5533 45.6168 74.319 45.7867C74.0689 45.9475 73.7336 45.8911 73.5604 45.6444L67.0805 49.3649C67.3815 49.9373 67.2133 50.6495 66.6577 51.0127C66.0838 51.4075 65.2812 51.2503 64.8864 50.6765C64.5008 50.0869 64.6488 49.3 65.2475 48.8986C65.2906 48.8603 65.3403 48.8469 65.3834 48.8086L63.8203 45.3352C63.6032 45.4204 63.3425 45.3439 63.1918 45.1311C63.0343 44.8934 63.0998 44.5423 63.3499 44.3816ZM67.0002 49.4132L66.4469 49.7357C66.5478 49.9619 66.4781 50.2475 66.2529 50.4016C66.0061 50.5748 65.6674 50.506 65.5067 50.2559C65.3335 50.0091 65.4022 49.6705 65.6523 49.5097C65.6645 49.4887 65.6758 49.4812 65.6863 49.4872L65.4226 48.9047C65.3762 48.9306 65.3265 48.944 65.2959 48.9789C64.7526 49.3387 64.6036 50.0725 64.9759 50.6124C65.3357 51.1556 66.0661 51.2922 66.6093 50.9324C67.1062 50.5984 67.272 49.9268 67.0002 49.4132ZM65.5029 48.8564L65.7824 49.448C65.9996 49.3628 66.2602 49.4392 66.3952 49.643L66.9518 49.3329C66.9485 49.3204 66.9451 49.308 66.9293 49.2989C66.6054 48.8394 66.0242 48.6625 65.5029 48.8564Z" fill="url(#paint26_linear_0_204)"/>
<path d="M28.5116 52.1041C28.3508 51.854 28.0122 51.7852 27.7654 51.9585C27.6387 52.0326 27.566 52.1589 27.5374 52.3L22.6706 51.8111C22.6653 51.6925 22.6509 51.5896 22.5743 51.5036C22.4102 51.241 22.0749 51.1847 21.8406 51.3545C21.5781 51.5187 21.5093 51.8573 21.6949 52.1007C21.8433 52.3542 22.1944 52.4196 22.4287 52.2498C22.5645 52.1598 22.6405 52.0459 22.6658 51.8924L27.5235 52.3971C27.5288 52.5157 27.559 52.6276 27.6197 52.7046C27.793 52.9514 28.1192 53.0235 28.3659 52.8503C28.616 52.6895 28.6848 52.3509 28.5116 52.1041Z" fill="url(#paint27_linear_0_204)"/>
<path d="M61.6324 49.193C61.4592 48.9462 61.133 48.8741 60.8738 49.0506C60.7629 49.1339 60.6902 49.2602 60.6582 49.3889L55.7881 48.8875C55.8019 48.7904 55.7593 48.6818 55.6918 48.58C55.5344 48.3423 55.1958 48.2735 54.949 48.4467C54.6989 48.6075 54.6301 48.9462 54.7909 49.1963C54.9641 49.443 55.2994 49.4994 55.5495 49.3386C55.6729 49.252 55.758 49.1223 55.7776 48.997L60.6444 49.4859C60.6463 49.5921 60.6765 49.704 60.7282 49.7968C60.9014 50.0436 61.2367 50.0999 61.4868 49.9391C61.7369 49.7784 61.8057 49.4397 61.6324 49.193Z" fill="url(#paint28_linear_0_204)"/>
<path d="M72.7197 30.9455C72.5465 30.6987 72.2203 30.6266 71.9702 30.7874C71.8468 30.874 71.7617 31.0036 71.7297 31.1323L66.8753 30.64C66.8858 30.5305 66.8466 30.4344 66.7915 30.3292C66.6183 30.0824 66.283 30.0261 66.0296 30.1744C65.7828 30.3476 65.714 30.6863 65.8906 30.9454C66.0638 31.1922 66.3867 31.2519 66.6368 31.0911C66.7601 31.0045 66.8419 30.8624 66.8739 30.7338L71.7316 31.2385C71.7336 31.3447 71.7604 31.4441 71.8312 31.5584C71.9886 31.7961 72.3239 31.8525 72.5865 31.6883C72.8241 31.5309 72.8805 31.1956 72.7197 30.9455Z" fill="url(#paint29_linear_0_204)"/>
<path d="M14.8296 19.5523C14.6688 19.3022 14.3301 19.2334 14.0867 19.4191C13.9567 19.4808 13.884 19.6071 13.8553 19.7482L8.98854 19.2593C8.99903 19.1498 8.95643 19.0412 8.89232 18.9518C8.72819 18.6892 8.38954 18.6204 8.1337 18.8094C7.89603 18.9669 7.82725 19.3055 7.98467 19.5432C8.16123 19.8024 8.49989 19.8712 8.74664 19.6979C8.8858 19.6204 8.95847 19.4941 8.97469 19.3564L13.8539 19.842C13.8401 19.9391 13.8736 20.0634 13.9377 20.1528C14.1018 20.4154 14.4371 20.4717 14.6748 20.3143C14.9182 20.1286 14.987 19.79 14.8296 19.5523Z" fill="url(#paint30_linear_0_204)"/>
<path d="M35.6959 19.7704C35.8657 20.0048 36.1919 20.0769 36.4545 19.9128C36.6922 19.7553 36.7576 19.4043 36.5844 19.1575C36.436 18.904 36.1007 18.8477 35.8348 18.9994C35.6005 19.1692 35.5317 19.5079 35.6959 19.7704Z" fill="url(#paint31_linear_0_204)"/>
<path fill-rule="evenodd" clip-rule="evenodd" d="M26.4369 33.9633C26.0544 34.2265 25.5339 34.1267 25.2674 33.7317C25.1942 33.658 25.1708 33.571 25.1507 33.4964L17.0642 35.4625C17.2696 36.2741 16.98 37.1791 16.2364 37.6863C15.2857 38.316 14.0033 38.0614 13.377 37.1231C12.7348 36.1758 13.0052 34.9025 13.9152 34.2704C14.8783 33.6374 16.1607 33.892 16.7871 34.8302C16.8995 35 16.9904 35.1889 17.0498 35.3596L25.1272 33.4093C25.0726 33.1573 25.1491 32.8966 25.3236 32.7028L13.9678 21.9452C13.9339 21.9677 13.9248 21.9835 13.9033 22.0026C13.6532 22.1634 13.3145 22.0946 13.1447 21.8603C12.9839 21.6102 13.0493 21.2591 13.2994 21.0983C13.5462 20.9251 13.8848 20.9939 14.0422 21.2316C14.1772 21.4353 14.1696 21.7041 14.0324 21.8878L25.3724 32.6363C25.4154 32.5981 25.4584 32.5598 25.4833 32.5531C25.8874 32.2708 26.4236 32.3797 26.6777 32.778C26.9566 33.1697 26.8444 33.6934 26.4369 33.9633ZM16.9738 35.4735L16.4888 35.6042C16.6612 36.1446 16.4537 36.7607 15.9602 37.1071C15.3491 37.5119 14.5182 37.3491 14.1134 36.7379C13.7086 36.1268 13.8591 35.2993 14.4793 34.8787C15.0904 34.4739 15.9179 34.6243 16.3261 35.2479C16.3744 35.3282 16.4385 35.4177 16.462 35.5047L16.9503 35.3864C16.9034 35.2123 16.8192 35.0483 16.6976 34.8943C16.1062 33.9867 14.8836 33.756 13.9918 34.3565C13.0875 34.9604 12.8568 36.183 13.4697 37.0715C14.0578 37.9667 15.2837 38.2098 16.1756 37.6093C16.8853 37.1246 17.1849 36.2569 16.9738 35.4735Z" fill="url(#paint32_linear_0_204)"/>
<path fill-rule="evenodd" clip-rule="evenodd" d="M39.8448 8.34175C40.4684 7.93359 41.2868 8.09982 41.704 8.70762C42.1122 9.3312 41.9493 10.162 41.3381 10.5669C41.1559 10.6827 40.9603 10.7487 40.7796 10.7708L42.602 28.7661C42.7613 28.7632 42.9282 28.8383 43.0497 28.9923C43.0914 29.0477 43.1081 29.1099 43.1249 29.1721L48.8726 29.3169C48.9323 28.994 49.1297 28.6874 49.4353 28.485C50.0431 28.0677 50.8773 28.243 51.2788 28.8417C51.6994 29.462 51.5365 30.2928 50.9287 30.7101C50.8914 30.7201 50.8608 30.755 50.811 30.7685L54.3605 37.8013C54.822 37.5836 55.3682 37.7298 55.6606 38.1712C55.773 38.3409 55.8357 38.5241 55.8329 38.7116L65.7758 38.8327C65.7943 38.3076 66.0567 37.7967 66.5287 37.4694C67.3221 36.9488 68.3787 37.1575 68.9117 37.9475C69.4572 38.7342 69.236 39.7941 68.446 40.3272C67.6685 40.8569 66.587 40.6548 66.0539 39.8648C65.8707 39.5808 65.7678 39.2484 65.7744 38.9265L55.8315 38.8053C55.8125 39.1306 55.6523 39.4272 55.3716 39.6229C54.8963 39.9377 54.2381 39.8217 53.9199 39.3339C53.5926 38.8619 53.7211 38.2004 54.2089 37.8822C54.2293 37.8589 54.2519 37.8439 54.2768 37.8372L50.7431 30.8134C50.3495 30.9862 49.9215 30.9815 49.5584 30.7726L46.2363 36.5097C46.2588 36.5437 46.3128 36.5958 46.3635 36.6355C46.5052 36.8641 46.4636 37.1554 46.2609 37.3434L52.0498 44.8664C52.5285 44.564 53.1528 44.7025 53.4676 45.1778C53.7949 45.6498 53.6631 46.2989 53.1911 46.6262C52.7033 46.9444 52.07 46.8216 51.7336 46.3654L45.5722 53.4947C45.6139 53.5501 45.6804 53.5989 45.7253 53.6668C46.0311 54.1579 45.9117 54.8037 45.4273 55.1343C44.9644 55.4458 44.3062 55.3298 43.988 54.842C43.8598 54.6631 43.7904 54.4551 43.8023 54.2518L38.9236 53.9662C38.9093 54.2101 38.7855 54.4436 38.5445 54.5885C38.1652 54.8641 37.6415 54.7519 37.3625 54.3602C37.141 54.0331 37.1772 53.6232 37.4187 53.3314L35.9925 52.0485C35.9556 52.0763 35.9144 52.1052 35.8692 52.1351C35.4742 52.4017 34.9289 52.3085 34.6748 51.9102C34.4083 51.5152 34.5172 50.979 34.9122 50.7125C35.2178 50.5101 35.6368 50.5305 35.9094 50.7505L37.5256 48.9277C37.4907 48.8971 37.449 48.8416 37.4074 48.7862C37.1442 48.4036 37.2531 47.8674 37.6481 47.6009C38.0431 47.3344 38.5918 47.4399 38.8459 47.8383C39.0641 48.1529 39.0245 48.5504 38.8079 48.8355L44.0857 53.5219C44.1536 53.4769 44.1933 53.4262 44.2521 53.397C44.4616 53.2338 44.717 53.1917 44.9485 53.2093L45.5126 43.5739L42.0165 42.5288C41.9128 42.8369 41.721 43.1153 41.437 43.2985C40.7364 43.7675 39.8085 43.5907 39.3271 42.8935C38.9099 42.2857 39.0321 41.4525 39.5633 40.9492L35.0368 35.8336C34.9789 35.9159 34.9019 35.9766 34.8092 36.0283C34.4142 36.2948 33.9521 36.3127 33.546 36.142L32.7128 37.9005C32.8358 37.9607 32.9372 38.0401 33.0396 38.1725C33.3028 38.5551 33.1814 39.0947 32.7988 39.3578C32.3914 39.6277 31.8676 39.5154 31.6045 39.1329C31.4471 38.8952 31.4173 38.6364 31.4847 38.3915L29.5723 37.6799C29.5063 37.831 29.393 37.9549 29.2605 38.0573C28.878 38.3205 28.3418 38.2116 28.0628 37.82C27.8087 37.4216 27.9086 36.9012 28.316 36.6313C28.6952 36.3557 29.219 36.468 29.4979 36.8596C29.5046 36.8845 29.5238 36.906 29.5338 36.9433L32.8298 35.4147C32.6886 35.0393 32.7124 34.6328 32.8998 34.2888L26.7426 32.0803C26.6972 32.1592 26.6393 32.2415 26.559 32.2898C26.3089 32.4506 25.9736 32.3943 25.8128 32.1441C25.6272 31.9007 25.6959 31.5621 25.9427 31.3889C26.1034 31.2922 26.2875 31.2826 26.4262 31.3519L27.247 29.5968C27.1331 29.5208 27.0317 29.4414 26.9485 29.3305C26.6786 28.9231 26.8033 28.396 27.1825 28.1203C27.5684 27.8696 28.1137 27.9627 28.3802 28.3577C28.5534 28.6045 28.5683 28.9072 28.4637 29.1622L29.9547 29.8941C29.9853 29.8591 30.0035 29.8276 30.0216 29.796C30.1823 29.6993 30.3765 29.727 30.4856 29.8844C30.5665 30.036 30.5354 30.2177 30.403 30.3201C30.2423 30.4168 30.0605 30.3857 29.9424 30.2442C29.9031 30.1481 29.8921 30.0577 29.9126 29.9854L28.4216 29.2536C28.358 29.3641 28.2662 29.4688 28.1428 29.5555C27.8961 29.7287 27.5933 29.7436 27.335 29.6265L26.5267 31.3782C26.5898 31.4145 26.6563 31.4633 26.708 31.5561C26.7946 31.6795 26.8133 31.8478 26.7722 31.9923L32.9294 34.2008C33.0361 34.052 33.1709 33.909 33.3316 33.8123C33.6338 33.5975 34.0169 33.5342 34.3556 33.603L39.987 10.6509C39.7851 10.5453 39.6229 10.3889 39.4947 10.2101C39.0775 9.60227 39.2403 8.77142 39.8448 8.34175ZM35.2042 34.2279C35.2492 34.2958 35.31 34.3728 35.3334 34.4599L42.1308 32.2143L42.5999 29.8471C42.4497 29.8342 42.2861 29.7716 42.2028 29.6607L35.2042 34.2279ZM35.2534 35.5485L45.6111 41.6133L45.781 38.4331C45.1786 37.7818 44.583 37.1554 44.0696 36.5868L35.3686 35.184C35.349 35.3093 35.317 35.438 35.2534 35.5485ZM45.3668 36.7974L44.2107 36.6155C44.7099 37.1479 45.2346 37.7089 45.7848 38.2987L45.8415 37.4698C45.6755 37.4478 45.5492 37.3751 45.4559 37.2269C45.3693 37.1035 45.3539 36.9476 45.3668 36.7974ZM45.69 41.6587L51.7089 45.185C51.7577 45.1185 51.8189 45.0487 51.8801 44.9788C50.7137 43.7193 48.1263 40.9488 45.8733 38.5282L45.69 41.6587ZM45.692 41.7649L45.5987 43.4973L51.6362 45.3113C51.6453 45.2955 51.6511 45.2673 51.6635 45.2639L45.692 41.7649ZM51.9695 44.9147L46.1805 37.3917C46.1126 37.4367 46.0007 37.4669 45.9352 37.4712L45.8929 38.4029C48.1841 40.8665 50.7749 43.6495 51.9571 44.918L51.9695 44.9147ZM45.4849 36.5922L42.2214 34.4307C42.2247 34.4431 42.2123 34.4465 42.1998 34.4498C42.6682 34.9505 43.328 35.6663 44.1117 36.4955L45.4122 36.7185C45.4395 36.6711 45.4452 36.6429 45.4849 36.5922ZM41.5042 33.6503C41.6027 33.5704 41.7304 33.5493 41.849 33.5441L42.117 32.3114L35.3569 34.5469C35.4038 34.721 35.4134 34.9051 35.4039 35.0677L43.9581 36.4702C43.1711 35.6286 42.5147 34.9252 42.1229 34.5106C42.1262 34.5231 42.1171 34.5388 42.1171 34.5388C41.8546 34.703 41.5317 34.6433 41.3585 34.3965C41.1853 34.1498 41.2665 33.8078 41.5042 33.6503ZM33.4547 36.1C33.2686 36.0034 33.094 35.8504 32.9748 35.6558C32.9207 35.6036 32.904 35.5415 32.8748 35.4826L29.5946 37.0203C29.6573 37.2035 29.6578 37.4034 29.5986 37.5794L31.5268 38.3002C31.5927 38.149 31.6936 38.0285 31.8261 37.9261C32.0728 37.7529 32.388 37.7346 32.6339 37.8551L33.4547 36.1ZM45.4982 43.4711L45.6063 41.6946L35.208 35.6274C35.1683 35.6781 35.141 35.7255 35.1104 35.7604L39.6212 40.8669C39.6551 40.8444 39.714 40.8152 39.7479 40.7927C40.4451 40.3114 41.3764 40.5005 41.8454 41.2011C42.1052 41.5712 42.1603 42.0232 42.0552 42.425L45.4982 43.4711ZM39.6853 40.9563L40.2752 41.6109C40.2752 41.6109 40.2877 41.6076 40.2843 41.5952C40.5378 41.4468 40.8731 41.5032 41.0463 41.7499C41.1329 41.8733 41.1482 42.0292 41.1287 42.1545L41.9705 42.4078C42.0666 42.0218 42.009 41.6105 41.7808 41.2585C41.3286 40.6201 40.4662 40.4391 39.812 40.8821C39.7656 40.908 39.7283 40.918 39.6853 40.9563ZM41.9533 42.4925L41.1024 42.255C41.0603 42.3463 40.99 42.432 40.904 42.5085C40.6538 42.6693 40.3152 42.6005 40.1544 42.3504C40.0195 42.1467 40.0361 41.8621 40.2107 41.6684L39.6241 41.0262C39.1235 41.4946 39.0094 42.2589 39.4199 42.8418C39.8472 43.4869 40.7345 43.6613 41.392 43.2306C41.6636 43.0507 41.8463 42.7881 41.9533 42.4925ZM37.4799 53.2616C37.5229 53.2233 37.5569 53.2008 37.6124 53.1592C37.7357 53.0726 37.8974 53.029 38.0409 53.017L38.0862 49.1767C37.9078 49.1581 37.7442 49.0955 37.6112 48.998L35.9917 50.8083C36.0424 50.848 36.0716 50.9068 36.0941 50.9408C36.3281 51.2645 36.2828 51.6902 36.0537 51.9787L37.4799 53.2616ZM43.8128 54.1423C43.8405 53.9481 43.9088 53.7563 44.0494 53.585L38.7467 48.9054C38.7161 48.9403 38.6606 48.9819 38.6176 49.0202C38.4817 49.1102 38.3325 49.1504 38.1857 49.1499L38.147 53.0151C38.4034 53.026 38.6526 53.1589 38.8101 53.3966C38.8909 53.5482 38.9436 53.694 38.9374 53.8691L43.8128 54.1423ZM45.5148 53.4301L51.6944 46.2693C51.5393 45.991 51.5211 45.6758 51.6224 45.4084L45.6097 43.5877L45.058 53.2198C45.2273 53.2542 45.3909 53.3168 45.5148 53.4301ZM49.4919 30.7239C49.3307 30.6206 49.2034 30.4948 49.0819 30.3408C49.0302 30.2481 48.9785 30.1553 48.9359 30.0467L42.2256 32.2688L41.9652 33.5794C42.0815 33.6148 42.192 33.6784 42.2628 33.7927C42.4001 33.9557 42.3667 34.1781 42.295 34.3575L45.5585 36.519C45.5834 36.5123 45.6049 36.4932 45.6173 36.4898C45.7838 36.3649 46.0086 36.3577 46.1664 36.4485L49.4919 30.7239ZM43.1641 29.2682C43.1737 29.4523 43.0896 29.6351 42.9198 29.7475C42.8519 29.7925 42.7931 29.8217 42.7185 29.8418L42.2676 32.1774L48.9282 29.9688C48.8655 29.7856 48.8559 29.6015 48.887 29.4197L43.1641 29.2682ZM40.6892 10.7818C40.4926 10.7948 40.2859 10.7704 40.1032 10.6863L34.456 33.6293C34.7449 33.7115 34.9918 33.885 35.1808 34.1409L42.1512 29.5679C42.0062 29.3269 42.0783 29.0007 42.3284 28.8399C42.3748 28.814 42.4212 28.7882 42.4743 28.7872L40.3841 25.1891C39.9044 25.4384 39.3209 25.3023 39.0094 24.8394C38.6855 24.3798 38.8264 23.7149 39.2984 23.3877C39.7861 23.0695 40.4319 23.1889 40.7625 23.6733C41.0683 24.1644 40.9489 24.8101 40.4802 25.1499C40.4644 25.1408 40.4644 25.1408 40.4644 25.1408L42.4838 28.6246L40.6892 10.7818Z" fill="url(#paint33_linear_0_204)"/>
<path fill-rule="evenodd" clip-rule="evenodd" d="M55.2246 61.6435C55.3657 61.6721 55.5077 61.7539 55.5977 61.8897C55.7585 62.1398 55.6988 62.4627 55.452 62.6359C55.2053 62.8091 54.8666 62.7403 54.7058 62.4902C54.5326 62.2434 54.6014 61.9048 54.8357 61.7349C54.9285 61.6832 55.0404 61.6531 55.1184 61.6454L54.7392 55.0919C54.3336 55.1212 53.9184 54.9663 53.6189 54.6469L50.33 57.5874C50.3367 57.6123 50.3525 57.6214 50.3558 57.6338C50.5291 57.8806 50.4727 58.2159 50.2226 58.3766C49.9883 58.5465 49.6405 58.4935 49.4673 58.2467C49.2941 58 49.3629 57.6613 49.6097 57.4881C49.8258 57.3498 50.0855 57.3732 50.2692 57.5104L53.5491 54.5857C53.5108 54.5427 53.4883 54.5087 53.45 54.4657C53.0036 53.7991 53.187 52.896 53.8536 52.4496C54.5045 51.994 55.42 52.1741 55.854 52.8441C56.3095 53.4949 56.1294 54.4104 55.4628 54.8569C55.2806 54.9727 55.0635 55.0579 54.842 55.0775L55.2246 61.6435ZM53.6136 54.5283L54.2252 53.9767C54.0802 53.7356 54.1524 53.4094 54.39 53.252C54.6401 53.0912 54.9788 53.16 55.1396 53.4101C55.297 53.6478 55.2406 53.9831 54.9905 54.1438C54.926 54.2013 54.8638 54.218 54.7892 54.2381L54.831 54.9871C55.0389 54.9667 55.2334 54.8965 55.4145 54.7765C56.0347 54.3559 56.1942 53.5126 55.7736 52.8924C55.353 52.2722 54.5222 52.1093 53.8862 52.5208C53.2817 52.9505 53.1222 53.7938 53.527 54.4049C53.557 54.4502 53.5859 54.4913 53.6136 54.5283ZM54.7406 54.9981L54.6955 54.2367C54.5395 54.2521 54.3884 54.1861 54.286 54.0536L53.6835 54.5895C53.9638 54.8874 54.3599 55.0207 54.7406 54.9981Z" fill="url(#paint34_linear_0_204)"/>
<path fill-rule="evenodd" clip-rule="evenodd" d="M33.1285 54.4876C33.2531 55.1476 32.84 55.7925 32.1676 55.9204C31.6262 56.0396 31.0837 55.759 30.8592 55.2727L23.0329 58.9959C23.0363 59.0084 23.0272 59.0242 23.0306 59.0366C23.065 59.214 22.9618 59.3752 22.7877 59.4222C22.6227 59.4533 22.4457 59.3409 22.4112 59.1635C22.3801 58.9985 22.4924 58.8215 22.6699 58.787C22.81 58.7626 22.9329 58.8228 22.9913 58.9405L30.8176 55.2172C30.7997 55.1509 30.7785 55.0721 30.7539 54.9809C30.6179 54.3774 30.9665 53.7899 31.5533 53.5917L31.235 52.7572C31.2383 52.7696 31.2225 52.7605 31.2259 52.773C31.0485 52.8075 30.8839 52.6918 30.8494 52.5143C30.8025 52.3402 30.9182 52.1757 31.0832 52.1445C31.2606 52.1101 31.4218 52.2133 31.4688 52.3874C31.4841 52.5433 31.4272 52.6787 31.2847 52.7438L31.603 53.5783C31.6403 53.5683 31.6685 53.574 31.6776 53.5582C32.3376 53.4337 32.9825 53.8468 33.1285 54.4876ZM30.8922 55.1971L31.468 54.9085C31.458 54.8712 31.4321 54.8248 31.4187 54.7751C31.3732 54.5072 31.531 54.2513 31.7797 54.1843L31.5825 53.6506C31.0296 53.8262 30.6902 54.3979 30.8037 54.9675C30.8271 55.0546 30.8472 55.1292 30.8922 55.1971ZM33.0539 54.5077C32.9394 53.885 32.3228 53.4777 31.7068 53.617C31.6819 53.6237 31.6571 53.6304 31.6198 53.6405L31.817 54.1742C32.0972 54.1254 32.3565 54.2956 32.4054 54.5758C32.4509 54.8437 32.2931 55.0996 32.0286 55.1575C31.8263 55.1987 31.6187 55.1213 31.5096 54.964L30.8932 55.2502C31.1358 55.705 31.6376 55.9832 32.1666 55.8673C32.7859 55.7404 33.1933 55.1237 33.0539 54.5077Z" fill="url(#paint35_linear_0_204)"/>
<path fill-rule="evenodd" clip-rule="evenodd" d="M49.1592 20.2364C49.8133 19.7933 50.6906 19.9303 51.1733 20.5338L52.0915 19.8329C51.9431 19.5794 52.0028 19.2565 52.2529 19.0958C52.503 18.935 52.8417 19.0038 52.9991 19.2414C53.1757 19.5006 53.1035 19.8268 52.8534 19.9876C52.6282 20.1417 52.3245 20.1035 52.1522 19.9099L51.2308 20.5984C51.2465 20.6075 51.2532 20.6323 51.2566 20.6448C51.5614 21.0828 51.5869 21.6228 51.4014 22.0729L58.881 25.5256C58.9264 25.4467 58.9785 25.3926 59.0464 25.3476C59.2898 25.162 59.6285 25.2308 59.8017 25.4775C59.9625 25.7276 59.8937 26.0663 59.647 26.2395C59.4126 26.4094 59.0615 26.3439 58.9008 26.0938C58.795 25.9489 58.7854 25.7648 58.8356 25.6045L51.3594 22.1643C51.248 22.3944 51.0768 22.6006 50.8482 22.7422C50.1601 23.2078 49.2197 23.0344 48.7508 22.3338C48.2852 21.6457 48.471 20.702 49.1592 20.2364ZM51.1605 20.684L50.4609 21.206C50.5633 21.3385 50.5729 21.5226 50.5193 21.6704L51.3101 22.0308C51.4898 21.6089 51.4586 21.0972 51.1796 20.7055C51.1763 20.6931 51.1729 20.6807 51.1605 20.684ZM49.2075 20.3167C48.5624 20.744 48.4005 21.628 48.8311 22.2855C49.2709 22.9273 50.1457 23.1049 50.7965 22.6494C51.0003 22.5145 51.1657 22.3365 51.268 22.1222L50.4773 21.7618C50.4409 21.8249 50.3922 21.8914 50.3118 21.9398C50.0526 22.1163 49.7264 22.0442 49.5532 21.7974C49.3891 21.5349 49.4612 21.2087 49.708 21.0355C49.9241 20.8972 50.2154 20.9387 50.4001 21.129L51.0964 20.5946C50.6361 20.0251 49.8311 19.9086 49.2075 20.3167Z" fill="url(#paint36_linear_0_204)"/>
<path fill-rule="evenodd" clip-rule="evenodd" d="M28.3751 46.3522C27.6745 46.8211 26.7432 46.632 26.2652 45.9472C25.9537 45.4843 25.9464 44.9127 26.1692 44.4525L23.1478 42.8927C23.099 42.9592 23.0594 43.0099 23.0005 43.0391C22.7256 43.2066 22.4151 43.1435 22.2295 42.9001C22.0721 42.6624 22.1318 42.3396 22.3536 42.1731L21.7972 41.296C21.6365 41.3927 21.4174 41.3717 21.2404 41.2593L19.8657 42.7903C19.8724 42.8151 19.8791 42.84 19.9107 42.8582C20.0715 43.1083 20.0027 43.4469 19.765 43.6044C19.5183 43.7776 19.1672 43.7121 19.0188 43.4587C18.8456 43.2119 18.902 42.8766 19.1521 42.7159C19.3524 42.5685 19.6122 42.5918 19.7801 42.72L21.1796 41.1824C21.1605 41.1608 21.1165 41.146 21.1098 41.1212C20.949 40.8711 21.0054 40.5358 21.2679 40.3716C21.5147 40.1984 21.8409 40.2705 22.0107 40.5049C22.1839 40.7516 22.1242 41.0745 21.8899 41.2443L22.434 42.1247C22.6784 41.9922 22.9764 42.0586 23.1338 42.2963C23.2429 42.4536 23.2525 42.6377 23.1899 42.8013L26.2112 44.3612C26.3169 44.1593 26.4699 43.9847 26.686 43.8464C27.3617 43.3842 28.3179 43.5666 28.771 44.2581C29.249 44.9429 29.0632 45.8866 28.3751 46.3522ZM28.3268 46.2719C28.9594 45.8479 29.1462 44.9573 28.6907 44.3065C28.2634 43.6613 27.3761 43.487 26.7219 43.9301C26.5397 44.0459 26.3867 44.2205 26.2902 44.4066L27.0661 44.811C27.1024 44.7479 27.1545 44.6938 27.2224 44.6488C27.4601 44.4914 27.7954 44.5478 27.9686 44.7945C28.1294 45.0446 28.073 45.3799 27.8229 45.5407C27.5762 45.7139 27.2375 45.6451 27.0643 45.3984C26.9676 45.2377 26.958 45.0535 27.0082 44.8933L26.2481 44.498C26.0311 44.9299 26.0656 45.4541 26.3456 45.8989C26.7853 46.5406 27.6692 46.7025 28.3268 46.2719Z" fill="url(#paint37_linear_0_204)"/>
<path fill-rule="evenodd" clip-rule="evenodd" d="M66.6865 36.5201C65.9892 37.0015 65.0455 36.8157 64.5766 36.1151C64.2651 35.6522 64.2487 35.0964 64.4805 34.6205L61.4592 33.0606C61.4228 33.1237 61.3707 33.1778 61.3028 33.2228C61.0561 33.396 60.7174 33.3272 60.5566 33.0771C60.3992 32.8394 60.4465 32.5199 60.6774 32.3376L60.1276 31.4854C59.9478 31.5606 59.7288 31.5396 59.5676 31.4363L58.1804 32.9706C58.1871 32.9955 58.2063 33.017 58.2254 33.0385C58.3986 33.2853 58.3298 33.6239 58.0797 33.7847C57.8296 33.9455 57.4943 33.8891 57.3211 33.6424C57.1603 33.3923 57.2291 33.0536 57.4792 32.8928C57.6705 32.7613 57.9235 32.7598 58.0948 32.9003L59.4943 31.3627C59.4628 31.3445 59.4561 31.3197 59.4369 31.2981C59.2637 31.0514 59.3325 30.7127 59.5826 30.552C59.8294 30.3788 60.168 30.4475 60.3288 30.6976C60.4987 30.932 60.439 31.2548 60.2171 31.4213L60.7578 32.2893C60.9931 32.1725 61.3069 32.248 61.4609 32.4732C61.5576 32.6339 61.5672 32.8181 61.5046 32.9817L64.5135 34.5449C64.6263 34.3366 64.7835 34.1609 64.985 34.0177C65.6764 33.5645 66.6293 33.7345 67.0982 34.4351C67.5637 35.1233 67.3779 36.067 66.6865 36.5201ZM66.6257 36.4431C67.2708 36.0158 67.4485 35.141 67.0088 34.4992C66.5781 33.8417 65.6908 33.6674 65.0491 34.1071C64.8514 34.2315 64.7033 34.3914 64.6049 34.5869L65.3808 34.9914C65.4295 34.9249 65.4692 34.8742 65.5371 34.8292C65.7839 34.656 66.1225 34.7247 66.2833 34.9749C66.4565 35.2216 66.3877 35.5603 66.141 35.7335C65.8909 35.8942 65.5522 35.8255 65.3915 35.5754C65.2824 35.418 65.2603 35.2372 65.3354 35.0703L64.5594 34.6659C64.3458 35.1103 64.3804 35.6345 64.6569 36.0668C65.0967 36.7085 65.9839 36.8829 66.6257 36.4431Z" fill="url(#paint38_linear_0_204)"/>
<path fill-rule="evenodd" clip-rule="evenodd" d="M36.1019 73.7335C34.4324 74.8637 32.1375 74.4152 31.0231 72.7548C29.8929 71.0854 30.3447 68.8028 32.0266 67.6693C32.3321 67.4669 32.676 67.3075 33.049 67.207L31.7415 62.5043C30.8663 62.8202 29.8642 62.5167 29.3312 61.7267C28.6924 60.7918 28.947 59.5095 29.8819 58.8707C30.8326 58.241 32.0992 58.4865 32.7413 59.4338C33.0652 59.8934 33.1505 60.4573 33.0473 60.9652L37.471 62.3339C37.5097 62.2301 37.5676 62.1478 37.6819 62.077C37.9037 61.9105 38.2582 61.9883 38.428 62.2226C38.6012 62.4694 38.5042 62.8023 38.2699 62.9722C38.0356 63.142 37.6969 63.0732 37.5271 62.8389C37.4496 62.6998 37.4127 62.563 37.4414 62.4219L33.0335 61.0623C32.9078 61.5364 32.6162 61.9884 32.1748 62.2808C32.0763 62.3607 31.9462 62.4224 31.8286 62.4808L33.1327 67.1711C34.6067 66.8005 36.2068 67.3429 37.0839 68.6671C38.2141 70.3365 37.7622 72.6191 36.1019 73.7335ZM31.7181 62.4172L31.4007 61.289C31.0616 61.3671 30.7062 61.2361 30.5038 60.9305C30.2372 60.5355 30.3495 60.0118 30.7411 59.7328C31.1395 59.4787 31.6599 59.5786 31.9389 59.9702C32.0771 60.1864 32.1035 60.4327 32.0452 60.6618L32.9627 60.948C33.0568 60.4558 32.9533 59.9235 32.6609 59.4821C32.048 58.5936 30.8503 58.3562 29.9336 58.9635C29.0417 59.564 28.8077 60.7741 29.4206 61.6626C29.9345 62.4311 30.8802 62.7231 31.7181 62.4172ZM32.933 61.036L32.028 60.7464C31.9688 60.9225 31.8558 61.0641 31.689 61.1713C31.646 61.2095 31.5623 61.2454 31.4877 61.2655L31.8142 62.378C31.907 62.3263 32.0246 62.2679 32.1231 62.188C32.5554 61.9114 32.8289 61.4909 32.933 61.036ZM36.0411 73.6565C37.6675 72.5646 38.0988 70.3542 37.0035 68.7154C36.1399 67.441 34.5805 66.9009 33.1595 67.2706L33.6311 68.9708C34.3184 68.7989 35.0574 69.0665 35.478 69.6868C36.0201 70.461 35.7899 71.5367 35.0123 72.0664C34.2348 72.5961 33.1499 72.3816 32.6169 71.5917C32.0996 70.8107 32.2926 69.745 33.095 69.2086C33.2308 69.1187 33.3858 69.0503 33.5441 68.9943L33.0601 67.2974C32.7119 67.3912 32.3929 67.5439 32.0625 67.753C30.4394 68.8573 30.0081 71.0677 31.1125 72.6907C32.192 74.3204 34.4181 74.7608 36.0411 73.6565Z" fill="url(#paint39_linear_0_204)"/>
<path fill-rule="evenodd" clip-rule="evenodd" d="M78.3418 49.1308C76.6723 50.2609 74.4056 49.8182 73.2754 48.1488C72.1576 46.476 72.597 44.1968 74.2698 43.079C74.5845 42.8608 74.9407 42.6981 75.2856 42.5918L73.9938 37.8982C73.1186 38.2141 72.1199 37.9231 71.5835 37.1207C70.9447 36.1858 71.1993 34.9034 72.1342 34.2646C73.0724 33.6383 74.3639 33.8771 74.9936 34.8277C75.3051 35.2907 75.4028 35.8512 75.303 36.3716L79.7233 37.7278C79.762 37.624 79.8323 37.5384 79.9217 37.4743C80.1685 37.301 80.5071 37.3698 80.6803 37.6166C80.8445 37.8791 80.7723 38.2053 80.5222 38.3661C80.2755 38.5393 79.9402 38.483 79.7761 38.2204C79.6894 38.0971 79.6617 37.9445 79.6937 37.8158L75.2858 36.4563C75.1635 36.9427 74.8809 37.379 74.4396 37.6714C74.3203 37.7569 74.1997 37.8205 74.0775 37.8623L75.385 42.565C76.8433 42.1853 78.45 42.7526 79.3486 44.0577C80.4697 45.7429 80.027 48.0096 78.3418 49.1308ZM73.9704 37.8112L73.653 36.6829C73.3263 36.7577 72.9585 36.63 72.7594 36.3369C72.502 35.9261 72.6018 35.4057 72.9968 35.1392C73.3918 34.8727 73.9122 34.9725 74.1912 35.3641C74.3295 35.5803 74.3683 35.8233 74.2975 36.0557L75.2116 36.3295C75.3091 35.8498 75.2214 35.3266 74.9133 34.8761C74.3128 33.9842 73.0902 33.7535 72.195 34.3416C71.294 34.9579 71.06 36.1681 71.6638 37.0723C72.1744 37.8284 73.1449 38.1137 73.9704 37.8112ZM75.1944 36.4142L74.2803 36.1404C74.2177 36.304 74.1145 36.4652 73.9538 36.5619C73.8859 36.6068 73.8146 36.6394 73.7558 36.6686L74.0541 37.7753C74.1751 37.7293 74.2769 37.6618 74.3788 37.5944C74.7953 37.3087 75.0688 36.8882 75.1944 36.4142ZM78.2934 49.0504C79.9322 47.9551 80.3602 45.7324 79.2592 44.1218C78.4046 42.8316 76.8328 42.2949 75.4119 42.6645L75.871 44.3681C76.5583 44.1962 77.3097 44.4605 77.7146 45.0716C78.26 45.8583 78.0547 46.9273 77.2522 47.4637C76.4747 47.9934 75.4023 47.7756 74.8726 46.998C74.3395 46.208 74.5573 45.1356 75.3473 44.6026C75.4832 44.5126 75.6347 44.4318 75.784 44.3915L75.3124 42.6913C74.9676 42.7976 74.6328 42.9412 74.3306 43.156C72.6917 44.2513 72.2604 46.4616 73.3524 48.088C74.4443 49.7144 76.6704 50.1548 78.2934 49.0504Z" fill="url(#paint40_linear_0_204)"/>
<path fill-rule="evenodd" clip-rule="evenodd" d="M20.2168 14.1521C20.9395 14.2107 21.4821 14.8381 21.4301 15.5857C21.3949 16.0487 21.0932 16.4634 20.6905 16.652L21.8865 19.3574C21.9363 19.344 22.0142 19.3363 22.0707 19.3478C22.327 19.3587 22.5251 19.5987 22.5017 19.8585C22.4908 20.1148 22.2723 20.2938 22.0283 20.2795L21.9104 21.1782C22.0922 21.2093 22.2353 21.3441 22.2731 21.534L24.0733 21.2355C24.079 21.2073 24.0757 21.1949 24.0814 21.1667C24.1048 20.9069 24.3324 20.7122 24.5763 20.7265C24.8519 20.7589 25.0308 20.9775 25.0074 21.2372C24.9999 21.506 24.7689 21.6883 24.5092 21.6649C24.2934 21.6564 24.1346 21.5124 24.081 21.3135L22.3023 21.5928C22.2908 21.6493 22.2942 21.6617 22.2851 21.6775C22.2617 21.9372 22.0499 22.141 21.7777 22.121C21.5147 22.0852 21.3324 21.8542 21.3682 21.5912C21.3734 21.363 21.5852 21.1592 21.8291 21.1735L21.9504 20.2872C21.7213 20.2289 21.5457 20.0228 21.5724 19.7755C21.5695 19.6162 21.667 19.4832 21.822 19.4148L20.6068 16.6879C20.4304 16.7755 20.2247 16.8042 19.9932 16.7866C19.2705 16.7279 18.737 16.0848 18.8047 15.3463C18.8509 14.6269 19.4907 14.081 20.2168 14.1521ZM20.2087 14.2209C19.5266 14.1647 18.9208 14.6881 18.8736 15.3544C18.8049 16.0398 19.3283 16.6457 20.0228 16.6986C20.2012 16.7172 20.4035 16.676 20.5585 16.6075L20.2522 15.9165C20.2025 15.9299 20.1403 15.9466 20.0714 15.9385C19.8117 15.9152 19.6136 15.6751 19.6403 15.4278C19.6603 15.1557 19.8913 14.9734 20.151 14.9967C20.3983 15.0235 20.6146 15.2319 20.5788 15.495C20.5602 15.6734 20.4751 15.8031 20.3483 15.8772L20.6297 16.575C21.0324 16.3864 21.3069 16.019 21.3455 15.5685C21.4017 14.8864 20.9065 14.2863 20.2087 14.2209Z" fill="url(#paint41_linear_0_204)"/>
</g>
<path d="M59.9525 37.1213C60.0267 37.248 60.1802 37.2733 60.3036 37.1867C60.4179 37.1159 60.4432 36.9623 60.3724 36.8481C60.2982 36.7213 60.1322 36.6994 60.0179 36.7702C59.907 36.8534 59.8692 37.0103 59.9525 37.1213Z" fill="url(#paint42_linear_0_204)"/>
<path d="M45.2543 24.3565C45.3127 24.4741 45.4753 24.4836 45.593 24.4253C45.6915 24.3453 45.7417 24.1851 45.6584 24.0742C45.5751 23.9632 45.4216 23.9379 45.304 23.9963C45.2055 24.0762 45.1677 24.2331 45.2543 24.3565Z" fill="url(#paint43_linear_0_204)"/>
<path d="M47.269 21.2394C47.3523 21.3503 47.4967 21.3914 47.5952 21.3115C47.7253 21.2498 47.7439 21.0713 47.6855 20.9537C47.5898 20.8461 47.4329 20.8084 47.3344 20.8883C47.2235 20.9715 47.1857 21.1284 47.269 21.2394Z" fill="url(#paint44_linear_0_204)"/>
<path d="M36.4326 15.477C36.5159 15.5879 36.6603 15.629 36.7837 15.5424C36.8856 15.4749 36.9391 15.3271 36.8367 15.1947C36.7817 15.0894 36.6124 15.0551 36.4981 15.1259C36.3871 15.2091 36.3618 15.3627 36.4326 15.477Z" fill="url(#paint45_linear_0_204)"/>
<path d="M31.4297 24.9748C31.488 25.0925 31.6416 25.1178 31.7559 25.047C31.8792 24.9604 31.917 24.8035 31.8213 24.6959C31.7505 24.5816 31.5969 24.5563 31.4984 24.6362C31.3684 24.6979 31.3464 24.8639 31.4297 24.9748Z" fill="url(#paint46_linear_0_204)"/>
<path d="M33.4399 55.4443C33.3691 55.33 33.2031 55.308 33.0764 55.3822C32.9779 55.4621 32.9368 55.6065 33.011 55.7333C33.0942 55.8442 33.2511 55.882 33.3621 55.7987C33.4888 55.7245 33.5141 55.571 33.4399 55.4443Z" fill="url(#paint47_linear_0_204)"/>
<path d="M43.4694 62.8644C43.5804 62.7812 43.609 62.6401 43.5473 62.51C43.4516 62.4024 43.3105 62.3738 43.1962 62.4446C43.0819 62.5154 43.0442 62.6723 43.1184 62.799C43.2016 62.91 43.3551 62.9353 43.4694 62.8644Z" fill="url(#paint48_linear_0_204)"/>
<path d="M38.3653 69.709C38.282 69.5981 38.1285 69.5727 38.0142 69.6436C37.8908 69.7302 37.8655 69.8837 37.9363 69.998C38.0196 70.1089 38.1765 70.1467 38.2874 70.0634C38.4017 69.9926 38.427 69.8391 38.3653 69.709Z" fill="url(#paint49_linear_0_204)"/>
<path d="M47.0916 30.5304C47.0056 30.607 46.9678 30.7639 47.0353 30.8657C47.1219 30.9891 47.2788 31.0269 47.3931 30.956C47.504 30.8728 47.5418 30.7159 47.4551 30.5925C47.3843 30.4782 47.2308 30.4529 47.0916 30.5304Z" fill="url(#paint50_linear_0_204)"/>
<path d="M25.7792 30.6325C25.906 30.5584 25.9279 30.3924 25.8447 30.2815C25.7738 30.1672 25.617 30.1294 25.506 30.2127C25.3826 30.2993 25.3664 30.437 25.4406 30.5638C25.5238 30.6747 25.6683 30.7158 25.7792 30.6325Z" fill="url(#paint51_linear_0_204)"/>
<path d="M21.7019 31.6384C21.6153 31.515 21.4493 31.493 21.3508 31.5729C21.2241 31.6471 21.1988 31.8006 21.282 31.9116C21.3528 32.0259 21.5222 32.0603 21.6207 31.9804C21.7474 31.9062 21.7569 31.7436 21.7019 31.6384Z" fill="url(#paint52_linear_0_204)"/>
<path d="M23.8219 40.9903C23.7387 40.8794 23.5818 40.8416 23.4708 40.9249C23.3566 40.9957 23.3312 41.1493 23.393 41.2793C23.4853 41.3745 23.6298 41.4156 23.7532 41.329C23.8674 41.2582 23.8928 41.1046 23.8219 40.9903Z" fill="url(#paint53_linear_0_204)"/>
<path d="M26.9246 36.2194C27.0355 36.1361 27.0575 35.9702 27.0024 35.865C26.9192 35.754 26.7498 35.7196 26.6513 35.7995C26.5122 35.877 26.4993 36.0272 26.5701 36.1415C26.6567 36.2649 26.8103 36.2902 26.9246 36.2194Z" fill="url(#paint54_linear_0_204)"/>
<path d="M26.0934 25.9596C26.18 26.083 26.3335 26.1083 26.4478 26.0375C26.5712 25.9509 26.5841 25.8007 26.5132 25.6864C26.4266 25.563 26.2731 25.5377 26.1588 25.6085C26.0512 25.7042 26.0259 25.8577 26.0934 25.9596Z" fill="url(#paint55_linear_0_204)"/>
<path d="M18.6017 33.7943C18.5184 33.6834 18.3773 33.6547 18.263 33.7255C18.1363 33.7997 18.111 33.9532 18.1852 34.08C18.2526 34.1818 18.422 34.2162 18.5329 34.133C18.6472 34.0621 18.6725 33.9086 18.6017 33.7943Z" fill="url(#paint56_linear_0_204)"/>
<path d="M22.2223 17.733C22.1047 17.7914 22.0827 17.9573 22.1502 18.0592C22.2368 18.1826 22.3903 18.2079 22.5046 18.1371C22.6189 18.0662 22.6567 17.9093 22.5701 17.786C22.4902 17.6875 22.3457 17.6464 22.2223 17.733Z" fill="url(#paint57_linear_0_204)"/>
<path d="M50.0217 60.5517C49.9074 60.6225 49.8697 60.7794 49.9405 60.8937C50.0271 61.017 50.1931 61.039 50.2916 60.9591C50.4183 60.8849 50.447 60.7438 50.3728 60.6171C50.2895 60.5061 50.1326 60.4684 50.0217 60.5517Z" fill="url(#paint58_linear_0_204)"/>
<path d="M60.6446 57.5552C60.5178 57.6294 60.4925 57.7829 60.5633 57.8972C60.6342 58.0115 60.8035 58.0459 60.9178 57.9751C61.0287 57.8918 61.0665 57.7349 60.9866 57.6364C60.9124 57.5097 60.7431 57.4753 60.6446 57.5552Z" fill="url(#paint59_linear_0_204)"/>
<path d="M46.984 66.4524C46.8573 66.5266 46.8353 66.6925 46.9028 66.7944C47.0019 66.9144 47.143 66.9431 47.2573 66.8723C47.3682 66.789 47.4059 66.6321 47.3227 66.5212C47.2485 66.3945 47.0825 66.3725 46.984 66.4524Z" fill="url(#paint60_linear_0_204)"/>
<path d="M30.303 74.3894C30.1762 74.4636 30.1634 74.6137 30.2342 74.728C30.305 74.8423 30.4619 74.8801 30.5853 74.7935C30.7029 74.7351 30.7124 74.5725 30.6383 74.4457C30.5674 74.3314 30.4139 74.3061 30.303 74.3894Z" fill="url(#paint61_linear_0_204)"/>
<path d="M25.2418 56.9468C25.1433 57.0267 25.0931 57.1869 25.1764 57.2978C25.2472 57.4121 25.4165 57.4465 25.5275 57.3633C25.6418 57.2925 25.6795 57.1356 25.5962 57.0246C25.5254 56.9103 25.3561 56.8759 25.2418 56.9468Z" fill="url(#paint62_linear_0_204)"/>
<path d="M31.1946 62.6515C31.0803 62.7224 31.0426 62.8792 31.1134 62.9935C31.1966 63.1045 31.366 63.1389 31.4678 63.0714C31.5912 62.9848 31.6165 62.8313 31.5333 62.7203C31.4624 62.606 31.3055 62.5683 31.1946 62.6515Z" fill="url(#paint63_linear_0_204)"/>
<path d="M32.246 18.6994C32.3202 18.8261 32.4771 18.8639 32.6004 18.7773C32.7023 18.7098 32.74 18.5529 32.6568 18.442C32.5702 18.3186 32.4257 18.2775 32.3114 18.3483C32.2005 18.4316 32.1694 18.6133 32.246 18.6994Z" fill="url(#paint64_linear_0_204)"/>
<path d="M17.9267 46.0872C17.9942 46.1891 18.1511 46.2268 18.2778 46.1527C18.3888 46.0694 18.4016 45.9192 18.3433 45.8016C18.2442 45.6816 18.1031 45.6529 17.9922 45.7361C17.8779 45.807 17.8401 45.9639 17.9267 46.0872Z" fill="url(#paint65_linear_0_204)"/>
<path d="M15.3348 41.8643C15.4147 41.9628 15.5716 42.0006 15.6826 41.9173C15.7969 41.8465 15.8346 41.6896 15.7638 41.5753C15.6772 41.4519 15.527 41.4391 15.4127 41.5099C15.3108 41.5773 15.2607 41.7376 15.3348 41.8643Z" fill="url(#paint66_linear_0_204)"/>
<path d="M39.5733 20.4991C39.459 20.57 39.4371 20.7359 39.5045 20.8378C39.5787 20.9645 39.7322 20.9898 39.859 20.9157C39.9699 20.8324 39.9986 20.6913 39.9086 20.5555C39.8378 20.4412 39.6843 20.4159 39.5733 20.4991Z" fill="url(#paint67_linear_0_204)"/>
<path fill-rule="evenodd" clip-rule="evenodd" d="M60.8479 45.4427C61.0392 45.3112 61.3056 45.3594 61.4281 45.5665C61.5721 45.7544 61.5114 46.0242 61.3201 46.1558C61.3111 46.1715 61.3077 46.1591 61.2986 46.1749L62.5138 48.9018C62.948 48.7314 63.4536 48.8752 63.7235 49.2827C63.7235 49.2827 63.7393 49.2918 63.7426 49.3042L68.85 46.3804C68.7591 46.1915 68.8207 45.9748 68.9996 45.8466C69.1909 45.715 69.4573 45.7632 69.5889 45.9545C69.7238 46.1582 69.6756 46.4247 69.4843 46.5562C69.2772 46.6787 69.0232 46.6272 68.8916 46.4359L63.7876 49.3721C64.0144 49.8178 63.8749 50.3889 63.4551 50.6622C62.9955 50.9861 62.3746 50.86 62.0665 50.4095C61.7516 49.9342 61.8653 49.3167 62.3282 49.0052C62.3746 48.9793 62.4086 48.9568 62.4583 48.9434L61.2116 46.1983C61.0442 46.2701 60.84 46.2051 60.7275 46.0354C60.5959 45.8441 60.6442 45.5777 60.8479 45.4427ZM63.7197 49.4171L63.2773 49.6563C63.3683 49.8452 63.2975 50.0777 63.1311 50.2026C62.9365 50.3217 62.6701 50.2735 62.5385 50.0822C62.4035 49.8785 62.4676 49.6212 62.6431 49.4805C62.6713 49.4862 62.6679 49.4738 62.6928 49.4671L62.4751 49.0056C62.4411 49.0281 62.4071 49.0506 62.3732 49.0731C61.9567 49.3587 61.8296 49.9265 62.1186 50.3555C62.4076 50.7844 62.9845 50.8957 63.4134 50.6067C63.8084 50.3402 63.9365 49.8255 63.7197 49.4171ZM62.5621 48.9821L62.7516 49.4379C62.9348 49.3752 63.1266 49.4435 63.2481 49.5975L63.6838 49.3334C63.6714 49.3367 63.6714 49.3367 63.6647 49.3119C63.4082 48.9542 62.9466 48.8252 62.5621 48.9821Z" fill="url(#paint68_linear_0_204)"/>
<path d="M33.4248 51.527C33.2932 51.3357 33.0268 51.2875 32.8321 51.4067C32.7427 51.4708 32.6791 51.5813 32.6528 51.6817L28.8283 51.2987C28.8308 51.2091 28.8043 51.1273 28.7488 51.0533C28.6172 50.8621 28.3632 50.8105 28.1562 50.933C27.9649 51.0646 27.9166 51.331 28.0358 51.5256C28.1832 51.726 28.4496 51.7742 28.6409 51.6426C28.7427 51.5752 28.7972 51.4805 28.8202 51.3676L32.6481 51.763C32.6538 51.8504 32.6762 51.9333 32.7151 52.0117C32.8467 52.203 33.1255 52.2479 33.3168 52.1163C33.5081 51.9847 33.5473 51.7341 33.4248 51.527Z" fill="url(#paint69_linear_0_204)"/>
<path d="M60.1611 48.5355C60.0137 48.3352 59.7597 48.2836 59.556 48.4185C59.4666 48.4826 59.3996 48.5807 59.3734 48.6811L55.5488 48.2981C55.566 48.2135 55.5301 48.1298 55.4818 48.0494C55.3502 47.8581 55.0838 47.8099 54.8925 47.9415C54.6888 48.0764 54.6496 48.3271 54.7721 48.5341C54.9037 48.7254 55.1701 48.7736 55.3614 48.6421C55.4633 48.5746 55.5178 48.4799 55.544 48.3794L59.3686 48.7625C59.3763 48.8404 59.3873 48.9308 59.4481 49.0078C59.5796 49.1991 59.837 49.2631 60.0373 49.1157C60.232 48.9966 60.2926 48.7268 60.1611 48.5355Z" fill="url(#paint70_linear_0_204)"/>
<path d="M70.6032 32.0496C70.4683 31.8459 70.2019 31.7977 70.023 31.9259C69.9178 31.9809 69.8542 32.0914 69.8313 32.2043L66.0034 31.8089C66.0082 31.7276 65.9847 31.6405 65.9239 31.5635C65.8048 31.3689 65.535 31.3082 65.3471 31.4522C65.1434 31.5872 65.0951 31.8536 65.2267 32.0449C65.3583 32.2362 65.6123 32.2877 65.816 32.1528C65.9178 32.0853 65.9724 31.9906 65.9986 31.8902L69.8232 32.2732C69.8218 32.367 69.8419 32.4416 69.8902 32.5219C70.0342 32.7098 70.2916 32.7739 70.4953 32.6389C70.6832 32.4949 70.7315 32.2285 70.6032 32.0496Z" fill="url(#paint71_linear_0_204)"/>
<path d="M19.1942 21.7903C19.0751 21.5957 18.8053 21.535 18.6016 21.67C18.5031 21.7499 18.4486 21.8446 18.4132 21.9608L14.582 21.5529C14.6116 21.4649 14.5633 21.3846 14.5274 21.3009C14.3743 21.1287 14.1169 21.0647 13.929 21.2087C13.7219 21.3312 13.6703 21.5852 13.8053 21.7889C13.9493 21.9769 14.2066 22.0409 14.4103 21.9059C14.4964 21.8294 14.5667 21.7438 14.5896 21.6309L18.4051 22.0297C18.4128 22.1076 18.4238 22.198 18.5004 22.2841C18.6004 22.4572 18.8826 22.5146 19.0863 22.3796C19.2651 22.2514 19.3134 21.985 19.1942 21.7903Z" fill="url(#paint72_linear_0_204)"/>
<path d="M36.157 18.5123C36.292 18.716 36.5459 18.7676 36.7463 18.6202C36.9409 18.501 36.9858 18.2222 36.8542 18.0309C36.7317 17.8238 36.4687 17.788 36.2559 17.9388C36.0579 18.0455 36.0221 18.3085 36.157 18.5123Z" fill="url(#paint73_linear_0_204)"/>
<path fill-rule="evenodd" clip-rule="evenodd" d="M29.4492 36.926C29.1436 37.1284 28.7203 37.0425 28.5055 36.7402C28.4763 36.6814 28.4471 36.6226 28.4303 36.5604L22.0699 38.1013C22.2317 38.7513 22.0071 39.452 21.4084 39.8535C20.6615 40.3482 19.6613 40.151 19.1699 39.4165C18.6627 38.6728 18.8566 37.6602 19.6036 37.1655C20.3381 36.6741 21.3507 36.868 21.8297 37.6059C21.9301 37.7477 21.9994 37.8891 22.0374 38.03L28.4102 36.4858C28.3815 36.2801 28.434 36.0792 28.5497 35.9147L19.6167 27.4651C19.5952 27.4843 19.5827 27.4876 19.5737 27.5034C19.3824 27.635 19.1159 27.5868 18.981 27.3831C18.8494 27.1918 18.901 26.9378 19.0923 26.8062C19.296 26.6713 19.5591 26.7071 19.6907 26.8983C19.794 27.0839 19.7788 27.2747 19.6688 27.4111L28.6176 35.8697C28.6392 35.8506 28.6573 35.819 28.6913 35.7965C29.0093 35.5907 29.4326 35.6767 29.635 35.9823C29.8408 36.3003 29.7548 36.7236 29.4492 36.926ZM21.9919 38.109L21.6189 38.2095C21.7486 38.6414 21.5981 39.1221 21.1907 39.392C20.7062 39.7226 20.0605 39.6032 19.7265 39.1064C19.4083 38.6186 19.5435 37.9819 20.0279 37.6513C20.4999 37.324 21.149 37.4559 21.4796 37.9403C21.5371 38.0048 21.5538 38.067 21.5864 38.1383L21.9718 38.0344C21.9259 37.9134 21.8608 37.7709 21.7866 37.6441C21.3053 36.9469 20.3458 36.752 19.6485 37.2334C18.948 37.7023 18.7531 38.6618 19.2253 39.3748C19.7067 40.072 20.6538 40.2703 21.3634 39.7856C21.9158 39.41 22.1471 38.7341 21.9919 38.109Z" fill="url(#paint74_linear_0_204)"/>
<path fill-rule="evenodd" clip-rule="evenodd" d="M42.351 17.0963C42.8321 16.7532 43.4811 16.885 43.796 17.3604C44.1142 17.8482 43.9981 18.5063 43.5262 18.8336C43.3779 18.9269 43.232 18.9796 43.0761 18.9949L44.5034 33.1487C44.6502 33.1492 44.789 33.2185 44.8598 33.3328C44.8856 33.3792 44.9148 33.438 44.9282 33.4877L49.4505 33.5893C49.5021 33.3353 49.6508 33.0952 49.8885 32.9378C50.3763 32.6196 51.0344 32.7356 51.3526 33.2234C51.6708 33.7112 51.5514 34.3569 51.067 34.6875C51.0455 34.7067 51.0115 34.7292 50.9867 34.7359L53.7714 40.2676C54.1243 40.0924 54.5701 40.2123 54.795 40.5519C54.885 40.6877 54.9285 40.8493 54.9281 40.9962L62.7554 41.0873C62.7759 40.6683 62.9747 40.2679 63.3449 40.0081C63.9685 39.5999 64.7993 39.7628 65.2199 40.3831C65.6405 41.0033 65.481 41.8466 64.8574 42.2547C64.2371 42.6753 63.4063 42.5124 62.9857 41.8922C62.8192 41.6703 62.7612 41.4058 62.7631 41.1653L54.9324 41.0617C54.9215 41.3181 54.7852 41.5549 54.56 41.7089C54.1865 41.9563 53.6785 41.8531 53.4187 41.483C53.168 41.0971 53.2712 40.5891 53.6413 40.3293C53.6662 40.3226 53.6752 40.3068 53.7001 40.3001L50.9154 34.7684C50.6179 34.9019 50.2712 34.902 49.9746 34.7419L47.3734 39.2443C47.4241 39.284 47.4466 39.3179 47.4691 39.3519C47.5849 39.5341 47.5548 39.769 47.3918 39.9063L51.9487 45.8273C52.3255 45.5923 52.821 45.6989 53.0651 46.0599C53.3158 46.4458 53.216 46.9662 52.8425 47.2136C52.469 47.461 51.9644 47.3703 51.7079 47.0126L46.8591 52.6277C46.8973 52.6707 46.9198 52.7046 46.9614 52.7601C47.2246 53.1427 47.1339 53.6473 46.7389 53.9138C46.353 54.1646 45.8574 54.058 45.5976 53.6879C45.4794 53.5464 45.4483 53.3814 45.4578 53.2187L41.6113 53.0017C41.596 53.1925 41.4961 53.3662 41.3297 53.4911C41.0241 53.6935 40.5917 53.6233 40.3984 53.3019C40.2094 53.0461 40.2443 52.7299 40.4212 52.4955L39.306 51.4756C39.272 51.4981 39.2538 51.5296 39.2075 51.5555C38.9052 51.7703 38.4695 51.6877 38.2762 51.3663C38.0613 51.0641 38.1507 50.6532 38.4529 50.4384C38.6996 50.2652 39.0249 50.2842 39.2469 50.4645L40.5106 49.0168C40.4915 48.9953 40.4565 48.9647 40.4465 48.9274C40.2159 48.6161 40.2894 48.1961 40.6199 47.987C40.9345 47.7688 41.3487 47.8706 41.5636 48.1728C41.7244 48.4229 41.6895 48.7391 41.5375 48.9668L45.6911 52.649C45.7217 52.6141 45.7771 52.5725 45.8202 52.5342C45.9775 52.4251 46.1798 52.3839 46.3582 52.4025L46.7943 44.8157L44.052 43.9942C43.9722 44.2425 43.8134 44.4453 43.5882 44.5994C43.0483 44.9717 42.3021 44.826 41.9547 44.2794C41.6083 43.7859 41.7028 43.1468 42.1174 42.755L38.5635 38.7244C38.5114 38.7785 38.4468 38.8359 38.3914 38.8775C38.0734 39.0833 37.6927 39.1059 37.3745 38.9648L36.7436 40.3353C36.8383 40.3898 36.8991 40.4668 36.9756 40.5529C37.1814 40.8709 37.1078 41.2909 36.7898 41.4966C36.4876 41.7115 36.0643 41.6255 35.8619 41.3199C35.7336 41.1411 35.7173 40.932 35.7699 40.7312L34.2602 40.1777C34.2091 40.2848 34.1173 40.3896 34.0188 40.4695C33.7132 40.6719 33.2774 40.5893 33.075 40.2837C32.8602 39.9815 32.9462 39.5582 33.2484 39.3433C33.5664 39.1376 33.9864 39.2111 34.1921 39.5291C34.2079 39.5382 34.227 39.5597 34.2213 39.588L36.8205 38.3939C36.7152 38.1022 36.7309 37.7645 36.8605 37.5028L32.0302 35.7636C32.0096 35.8359 31.945 35.8933 31.8896 35.9349C31.6701 36.0608 31.4285 36.0058 31.2845 35.8179C31.1529 35.6266 31.2136 35.3568 31.4173 35.2219C31.5192 35.1544 31.6593 35.13 31.7789 35.1778L32.4223 33.8039C32.3151 33.7528 32.2577 33.6882 32.1812 33.6022C31.9879 33.2808 32.0614 32.8608 32.3794 32.6551C32.6816 32.4403 33.1083 32.5387 33.3231 32.8409C33.4423 33.0355 33.4653 33.2694 33.3755 33.4804L34.5541 34.043C34.5723 34.0114 34.5938 33.9923 34.6278 33.9698C34.7263 33.8899 34.8832 33.9276 34.9664 34.0386C35.0372 34.1529 35.0244 34.3031 34.9134 34.3863C34.7867 34.4605 34.6332 34.4352 34.559 34.3084C34.5016 34.2439 34.5097 34.175 34.5302 34.1028L33.3516 33.5402C33.2971 33.6349 33.2268 33.7205 33.134 33.7722C32.9461 33.9162 32.6964 33.9301 32.5103 33.8336L31.8545 35.2108C31.9018 35.238 31.9559 35.2901 31.9942 35.3332C32.0683 35.4599 32.0861 35.5752 32.054 35.7038L36.8968 37.4397C36.9819 37.31 37.0895 37.2144 37.2129 37.1278C37.463 36.967 37.7557 36.9148 38.0097 36.9663L42.462 18.8937C42.295 18.8186 42.1553 18.6962 42.0587 18.5355C41.7438 18.0602 41.8599 17.402 42.351 17.0963ZM38.7028 37.4598C38.732 37.5186 38.7579 37.565 38.7746 37.6271L44.1406 35.8608L44.5189 33.9982C44.3879 34.0068 44.2649 33.9466 44.176 33.8639L38.7028 37.4598ZM38.728 38.4934L46.8723 43.2741L47.0141 40.7817C46.5391 40.2561 46.074 39.7679 45.6721 39.316L38.8226 38.2011C38.8088 38.2982 38.7734 38.4144 38.728 38.4934ZM46.7062 39.4908L45.785 39.339C46.1768 39.7535 46.5912 40.2021 47.0246 40.6721L47.0594 40.0092C46.9374 40.0021 46.8269 39.9385 46.747 39.84C46.692 39.7348 46.6709 39.6071 46.7062 39.4908ZM46.9512 43.3195L51.6847 46.0852C51.721 46.022 51.769 45.9691 51.8286 45.9263C50.8952 44.9375 48.8686 42.7627 47.084 40.8429L46.9512 43.3195ZM46.9374 43.4166L46.8746 44.7673L51.6211 46.1957C51.6336 46.1923 51.6393 46.1641 51.6517 46.1607L46.9374 43.4166ZM51.8841 45.8847L47.3272 39.9637C47.2717 40.0053 47.1971 40.0254 47.1192 40.0331L47.0887 40.7615C48.8925 42.7029 50.9507 44.8958 51.8717 45.8881C51.8717 45.8881 51.8758 45.8869 51.8841 45.8847ZM46.7598 39.343L44.2167 37.6276C44.2076 37.6434 44.1827 37.6501 44.1861 37.6625C44.5679 38.0398 45.0779 38.5959 45.6836 39.2596L46.7019 39.4253C46.7325 39.3904 46.7416 39.3746 46.7598 39.343ZM43.6244 37.0136C43.7296 36.9586 43.8166 36.9351 43.9137 36.949L44.1144 35.9612L38.7857 37.7175C38.8259 37.8668 38.8379 38.0102 38.8216 38.148L45.5583 39.24C44.9368 38.5672 44.4301 38.0235 44.1273 37.6917C44.134 37.7166 44.1215 37.7199 44.1091 37.7233C43.9054 37.8582 43.6514 37.8066 43.5322 37.612C43.3849 37.4116 43.4207 37.1485 43.6244 37.0136ZM37.3057 38.9567C37.15 38.8742 37.0156 38.7548 36.9024 38.5986C36.8923 38.5613 36.8665 38.5149 36.8282 38.4719L34.2414 39.6626C34.3223 39.8142 34.3252 39.9734 34.2841 40.1179L35.7813 40.6747C35.8325 40.5676 35.8961 40.4571 36.0352 40.3795C36.2299 40.2604 36.4637 40.2374 36.6623 40.3306L37.3057 38.9567ZM46.7775 44.7535L46.8551 43.3588L38.6701 38.5756C38.6553 38.6196 38.6214 38.6421 38.5908 38.6771L42.1604 42.7167C42.1786 42.6852 42.2126 42.6627 42.2589 42.6368C42.8022 42.277 43.545 42.4102 43.9082 42.9659C44.1073 43.2591 44.148 43.6082 44.0759 43.9344L46.7775 44.7535ZM42.1987 42.7598L42.6738 43.2853C42.6705 43.2728 42.6705 43.2728 42.6829 43.2695C42.8742 43.1379 43.1406 43.1861 43.2722 43.3774C43.3396 43.4793 43.3449 43.5979 43.3345 43.7074L43.9879 43.9048C44.0667 43.6034 44.0326 43.2792 43.8494 42.9951C43.4963 42.4767 42.8099 42.355 42.2881 42.6956C42.2666 42.7148 42.2451 42.7339 42.1987 42.7598ZM43.9797 43.9737L43.3139 43.7797C43.2809 43.8552 43.2355 43.9342 43.1518 43.9701C42.9605 44.1017 42.7099 44.0625 42.5625 43.8621C42.4501 43.6924 42.4711 43.4733 42.6059 43.3303L42.159 42.8105C41.7535 43.1865 41.702 43.7873 41.9853 44.2445C42.3384 44.7628 43.0282 44.897 43.5341 44.5473C43.7345 44.3999 43.9215 44.2028 43.9797 43.9737ZM40.4642 52.4572C40.5072 52.4189 40.5254 52.3874 40.5593 52.3649C40.6736 52.2941 40.7856 52.2639 40.9042 52.2586L40.9268 49.2248C40.7924 49.221 40.657 49.1641 40.568 49.0814L39.2885 50.52C39.3358 50.5472 39.3459 50.5845 39.3808 50.6151C39.5483 50.8901 39.5383 51.1995 39.3457 51.4249L40.4642 52.4572ZM45.4377 53.1441C45.4754 52.9872 45.5165 52.8428 45.6174 52.7222L41.4605 49.0276C41.4299 49.0625 41.4117 49.0941 41.3653 49.1199C41.2511 49.1907 41.1391 49.2209 41.0205 49.2262L40.9821 52.2509C41.173 52.2662 41.3624 52.3752 41.5031 52.5507C41.5739 52.665 41.6108 52.8018 41.6194 52.9328L45.4377 53.1441ZM46.7643 52.5732L51.6347 46.9389C51.5247 46.7285 51.4983 46.4822 51.5848 46.2588L46.8541 44.8396L46.4271 52.4106C46.5433 52.446 46.6629 52.4938 46.7643 52.5732ZM49.899 34.7089C49.7727 34.6362 49.677 34.5286 49.5904 34.4053C49.5454 34.3374 49.4971 34.257 49.477 34.1824L44.1823 35.9162L43.995 36.9537C44.0797 36.9709 44.1496 37.0321 44.2137 37.1215C44.3036 37.2574 44.3223 37.4257 44.2372 37.5553L46.8085 39.2765C46.8301 39.2574 46.8549 39.2507 46.8516 39.2382C46.9874 39.1483 47.1591 39.142 47.2978 39.2113L49.899 34.7089ZM44.9235 33.569C44.9321 33.7001 44.8537 33.8546 44.7303 33.9412C44.6715 33.9704 44.6218 33.9838 44.572 33.9972L44.2028 35.844L49.4445 34.1112C49.4076 33.9744 49.3922 33.8185 49.4209 33.6773L44.9235 33.569ZM42.9891 19.0184C42.8174 19.0246 42.6638 18.9993 42.5127 18.9334L38.0728 37.0027C38.2895 37.0643 38.5014 37.2073 38.6488 37.4076L44.1219 33.8118C44.0152 33.6138 44.0543 33.3631 44.2614 33.2406C44.292 33.2057 44.326 33.1832 44.3915 33.1789L42.7248 30.3603C42.3504 30.5546 41.8955 30.4504 41.6672 30.0985C41.3916 29.7192 41.4914 29.1988 41.874 28.9357C42.2633 28.6974 42.7679 28.7881 43.0311 29.1707C43.2785 29.5442 43.1753 30.0521 42.8051 30.3119C42.7927 30.3153 42.7961 30.3277 42.7961 30.3277L44.4111 33.0536L42.9891 19.0184Z" fill="url(#paint75_linear_0_204)"/>
<path fill-rule="evenodd" clip-rule="evenodd" d="M54.4551 59.0367C54.568 59.0596 54.666 59.1265 54.7335 59.2284C54.8775 59.4163 54.8168 59.6861 54.6256 59.8177C54.4343 59.9493 54.1678 59.901 54.0363 59.7097C53.9013 59.506 53.9496 59.2396 54.1566 59.1171C54.2121 59.0755 54.2958 59.0396 54.3647 59.0477L54.0796 53.8826C53.7487 53.8918 53.4124 53.7824 53.1861 53.5366L50.5948 55.8489C50.6073 55.8456 50.614 55.8704 50.6173 55.8829C50.7613 56.0708 50.7007 56.3406 50.5094 56.4721C50.3181 56.6037 50.0517 56.5555 49.9201 56.3642C49.7852 56.1605 49.8367 55.9065 50.0405 55.7716C50.1854 55.6658 50.4011 55.6744 50.5374 55.7844L53.132 53.4845C53.1095 53.4505 53.0746 53.4199 53.0646 53.3826C52.7114 52.8642 52.8389 52.1496 53.3607 51.8089C53.8915 51.4525 54.5937 51.5833 54.9468 52.1017C55.3033 52.6325 55.1633 53.3505 54.6416 53.6912C54.4809 53.7878 54.326 53.8563 54.1452 53.8783L54.4551 59.0367ZM53.1966 53.4271L53.67 53.006C53.5508 52.8114 53.6024 52.5574 53.8061 52.4225C53.9974 52.2909 54.2638 52.3391 54.3863 52.5462C54.5179 52.7375 54.4697 53.0039 54.2784 53.1355C54.232 53.1613 54.1732 53.1905 54.1077 53.1948L54.1624 53.7937C54.3058 53.7817 54.4608 53.7132 54.5966 53.6233C55.0968 53.3017 55.2219 52.6278 54.8913 52.1433C54.5607 51.6589 53.8992 51.5304 53.4114 51.8486C52.927 52.1793 52.8018 52.8532 53.1291 53.3252C53.1392 53.3625 53.1774 53.4055 53.1966 53.4271ZM54.081 53.7889L54.0421 53.1992C53.9235 53.2045 53.8039 53.1567 53.7116 53.0615L53.2382 53.4825C53.4702 53.7001 53.7692 53.8196 54.081 53.7889Z" fill="url(#paint76_linear_0_204)"/>
<path fill-rule="evenodd" clip-rule="evenodd" d="M27.8847 57.4482C27.9814 57.9556 27.6534 58.4709 27.1369 58.5834C26.7074 58.6725 26.2845 58.4397 26.1027 58.0619L19.9426 60.9893C19.9459 61.0017 19.9402 61.0299 19.9402 61.0299C19.977 61.1667 19.8795 61.2997 19.7552 61.3332C19.615 61.3576 19.482 61.2601 19.461 61.1324C19.4241 60.9956 19.5216 60.8626 19.6618 60.8382C19.7612 60.8114 19.8684 60.8625 19.9201 60.9553L26.0802 58.0279C26.0601 57.9533 26.0343 57.9069 26.0141 57.8323C25.915 57.3655 26.1999 56.8886 26.6409 56.743L26.3977 56.0883L26.3853 56.0917C26.261 56.1252 26.1155 56.031 26.0911 55.8909C26.0576 55.7665 26.1518 55.6211 26.2795 55.6C26.4196 55.5756 26.5492 55.6607 26.5737 55.8008C26.6163 55.9094 26.5527 56.0199 26.435 56.0783L26.6906 56.7296C26.7155 56.7229 26.7279 56.7196 26.7528 56.7129C27.2727 56.6128 27.7755 56.9441 27.8847 57.4482ZM26.1108 57.993L26.5972 57.7685C26.578 57.747 26.568 57.7097 26.5421 57.6633C26.5009 57.461 26.6224 57.2682 26.8338 57.2112L26.6667 56.7894C26.2382 56.9316 25.9715 57.377 26.0672 57.8313C26.0716 57.8968 26.1007 57.9557 26.1108 57.993ZM27.8349 57.4616C27.7291 56.9699 27.2579 56.6568 26.7629 56.7502C26.7504 56.7535 26.7131 56.7636 26.7007 56.7669L26.8711 57.2012C27.0734 57.16 27.282 57.2905 27.3265 57.5053C27.371 57.72 27.2281 57.9319 27.0258 57.9731C26.8608 58.0043 26.6972 57.9416 26.623 57.8149L26.1366 58.0394C26.3151 58.4047 26.7222 58.6285 27.1359 58.5303C27.6276 58.4245 27.9408 57.9533 27.8349 57.4616Z" fill="url(#paint77_linear_0_204)"/>
<path fill-rule="evenodd" clip-rule="evenodd" d="M49.6725 26.4467C50.1909 26.0936 50.8863 26.1996 51.2543 26.674L51.9969 26.1137C51.8687 25.9348 51.9169 25.6684 52.1082 25.5368C52.3153 25.4143 52.5693 25.4659 52.7008 25.6572C52.8324 25.8485 52.7842 26.1149 52.5838 26.2623C52.3983 26.3656 52.1759 26.3322 52.0295 26.1849L51.3083 26.7261C51.3117 26.7385 51.3184 26.7634 51.3308 26.76C51.5591 27.112 51.5917 27.53 51.4359 27.8921L57.3273 30.5991C57.3546 30.5518 57.4067 30.4977 57.4622 30.4561C57.6534 30.3245 57.9232 30.3852 58.0424 30.5798C58.1864 30.7677 58.1257 31.0375 57.9344 31.1691C57.7431 31.3007 57.4734 31.24 57.3418 31.0487C57.2619 30.9502 57.259 30.7909 57.3034 30.6589L51.4029 27.9677C51.3154 28.138 51.1839 28.2935 51.0017 28.4093C50.4494 28.7849 49.7157 28.6359 49.3558 28.0926C48.9869 27.5652 49.1417 26.8032 49.6725 26.4467ZM51.2438 26.7835L50.7015 27.1964C50.7757 27.3231 50.7843 27.4542 50.749 27.5704L51.3603 27.8592C51.5104 27.5253 51.4811 27.1197 51.2629 26.805C51.2596 26.7926 51.2596 26.7926 51.2438 26.7835ZM49.7108 26.4898C49.2048 26.8395 49.074 27.5417 49.4113 28.051C49.752 28.5727 50.4508 28.6912 50.9759 28.3629C51.1299 28.2414 51.2523 28.1017 51.3398 27.9314L50.716 27.646C50.6729 27.6843 50.6366 27.7474 50.5811 27.7891C50.3899 27.9206 50.1201 27.86 49.9885 27.6687C49.8536 27.465 49.9051 27.211 50.0964 27.0794C50.2753 26.9512 50.5135 26.9937 50.6474 27.1443L51.1988 26.7156C50.8443 26.291 50.2019 26.184 49.7108 26.4898Z" fill="url(#paint78_linear_0_204)"/>
<path fill-rule="evenodd" clip-rule="evenodd" d="M33.3137 47.0084C32.7705 47.3683 32.0243 47.2226 31.6521 46.6827C31.408 46.3217 31.3936 45.8721 31.5585 45.4942L29.2025 44.2751C29.1753 44.3225 29.1198 44.3641 29.0768 44.4024C28.873 44.5373 28.5908 44.48 28.4875 44.2945C28.3683 44.0998 28.3917 43.8401 28.5672 43.6995L28.1456 43.0261C27.994 43.107 27.8247 43.0726 27.6917 42.9751L26.6082 44.2008C26.6149 44.2256 26.6431 44.2314 26.6465 44.2438C26.7939 44.4442 26.7298 44.7015 26.5386 44.8331C26.3348 44.968 26.0684 44.9198 25.9368 44.7285C25.8143 44.5214 25.8659 44.2675 26.0572 44.1359C26.2145 44.0268 26.4178 44.0387 26.5417 44.152L27.641 42.9354C27.6376 42.923 27.6027 42.8924 27.6152 42.889C27.4678 42.6886 27.5285 42.4189 27.7073 42.2906C27.911 42.1557 28.1899 42.2006 28.2966 42.3986C28.4315 42.6023 28.4015 42.8371 28.2135 42.9812L28.6509 43.6636C28.8273 43.576 29.0813 43.6276 29.1971 43.8098C29.2837 43.9331 29.2709 44.0833 29.2479 44.1962L31.6072 45.4277C31.6981 45.2698 31.808 45.1335 31.9778 45.021C32.521 44.6612 33.2672 44.8069 33.6271 45.3501C33.9993 45.89 33.8536 46.6362 33.3137 47.0084ZM33.2812 46.9372C33.7871 46.5874 33.9089 45.901 33.5716 45.3917C33.2218 44.8858 32.5321 44.7516 32.0103 45.0923C31.8621 45.1856 31.7521 45.3219 31.6579 45.4674L32.276 45.7809C32.319 45.7427 32.3463 45.6953 32.4051 45.6661C32.5964 45.5345 32.8628 45.5828 32.9944 45.7741C33.1169 45.9811 33.0777 46.2318 32.8864 46.3633C32.6827 46.4983 32.4287 46.4467 32.2847 46.2588C32.2106 46.132 32.1952 45.9761 32.2554 45.8532L31.6374 45.5396C31.4749 45.8768 31.4826 46.3015 31.72 46.6377C32.0573 47.147 32.7628 47.2903 33.2812 46.9372Z" fill="url(#paint79_linear_0_204)"/>
<path fill-rule="evenodd" clip-rule="evenodd" d="M65.7089 36.9033C65.1657 37.2631 64.4195 37.1174 64.0597 36.5742C63.8032 36.2165 63.7888 35.7669 63.9695 35.3981L61.5977 34.17C61.5674 34.2226 61.5255 34.265 61.472 34.2973C61.2807 34.4288 61.0143 34.3806 60.8793 34.1769C60.7477 33.9856 60.7993 33.7316 60.9782 33.6034L60.5533 32.9176C60.3983 32.9861 60.2233 32.9799 60.1027 32.879L59.0034 34.0956C59.0162 34.11 59.0342 34.1273 59.0575 34.1477C59.1766 34.3424 59.1284 34.6088 58.9338 34.7279C58.7425 34.8595 58.4636 34.8146 58.332 34.6234C58.2129 34.4287 58.2611 34.1623 58.4524 34.0307C58.6097 33.9216 58.8164 33.946 58.9494 34.0435L60.0486 32.8269C60.0328 32.8178 60.0137 32.7963 59.9946 32.7748C59.8754 32.5801 59.927 32.3261 60.1183 32.1946C60.3187 32.0472 60.576 32.1112 60.7076 32.3025C60.8358 32.4813 60.7876 32.7478 60.6087 32.876L61.0461 33.5584C61.2192 33.4584 61.4641 33.5258 61.5799 33.708C61.6665 33.8313 61.6785 33.9748 61.6307 34.0944L64.0058 35.3349C64.0966 35.1771 64.219 35.0374 64.373 34.9159C64.9287 34.5527 65.6624 34.7017 66.0223 35.245C66.3945 35.7848 66.2488 36.531 65.7089 36.9033ZM65.664 36.8354C66.1857 36.4947 66.3041 35.7959 65.9668 35.2866C65.617 34.7806 64.9273 34.6464 64.418 34.9838C64.2731 35.0895 64.1473 35.2168 64.0656 35.3588L64.6712 35.6758C64.7142 35.6375 64.7539 35.5868 64.7969 35.5485C65.004 35.426 65.258 35.4776 65.402 35.6655C65.5245 35.8726 65.4729 36.1266 65.285 36.2706C65.0813 36.4056 64.8115 36.3449 64.6799 36.1536C64.6058 36.0269 64.5938 35.8834 64.6506 35.748L64.0326 35.4344C63.8701 35.7717 63.8903 36.193 64.1152 36.5326C64.4558 37.0543 65.158 37.1852 65.664 36.8354Z" fill="url(#paint80_linear_0_204)"/>
<path fill-rule="evenodd" clip-rule="evenodd" d="M23.5745 19.236C24.2284 19.2865 24.7078 19.8776 24.6539 20.519C24.6119 20.9571 24.3499 21.3212 23.9937 21.4839L25.0604 23.9573C25.1317 23.9248 25.1939 23.908 25.2379 23.9228C25.4818 23.9371 25.6574 24.1432 25.6273 24.3781C25.6221 24.6062 25.4251 24.766 25.2003 24.7733L25.1087 25.5716C25.2656 25.6093 25.3929 25.7351 25.4207 25.8876L27.0434 25.6237C27.0367 25.5988 27.0334 25.5864 27.0358 25.5457C27.0658 25.3108 27.2753 25.1477 27.5101 25.1778C27.7416 25.1954 27.9172 25.4015 27.8838 25.6239C27.8944 25.8611 27.6759 26.0401 27.4286 26.0134C27.2377 25.9981 27.1071 25.8599 27.0635 25.6983L25.4408 25.9622C25.4441 25.9747 25.435 25.9905 25.4326 26.0311C25.4275 26.2593 25.2214 26.4349 24.965 26.4239C24.7426 26.3905 24.5794 26.1811 24.6004 25.962C24.6056 25.7338 24.815 25.5707 25.0274 25.5668L25.119 24.7685C24.9181 24.716 24.7741 24.528 24.7669 24.3032C24.7955 24.1621 24.8964 24.0416 24.9983 23.9741L23.9257 21.5289C23.7584 21.6006 23.5776 21.6227 23.3776 21.6232C22.7329 21.5569 22.232 20.985 22.2949 20.3278C22.3454 19.674 22.9207 19.1855 23.5745 19.236ZM23.5698 19.3173C22.9566 19.2692 22.4119 19.7227 22.348 20.3268C22.3156 20.9491 22.7817 21.4904 23.3915 21.5261C23.5575 21.5481 23.7225 21.517 23.9056 21.4542L23.6037 20.8287C23.5697 20.8512 23.4951 20.8713 23.4511 20.8565C23.2038 20.8298 23.0158 20.627 23.0549 20.3764C23.0759 20.1573 23.2696 19.9851 23.5135 19.9994C23.745 20.017 23.924 20.2355 23.8939 20.4704C23.8901 20.6048 23.805 20.7344 23.6874 20.7928L23.9645 21.4251C24.3083 21.2657 24.5646 20.9299 24.5884 20.5233C24.649 19.9068 24.183 19.3655 23.5698 19.3173Z" fill="url(#paint81_linear_0_204)"/>
<path fill-rule="evenodd" clip-rule="evenodd" d="M39.4031 68.5621C38.079 69.4392 36.292 69.0939 35.4058 67.7855C34.5163 66.4647 34.8741 64.6744 36.1824 63.7882C36.4416 63.6116 36.7051 63.5006 36.9911 63.4235L35.9517 59.7156C35.2846 59.9621 34.4901 59.736 34.0661 59.1034C33.5747 58.3689 33.7686 57.3562 34.5156 56.8615C35.2501 56.3701 36.2469 56.5549 36.7541 57.2985C36.9982 57.6596 37.0624 58.0958 36.9979 58.4999L40.4793 59.589C40.4965 59.5044 40.5577 59.4345 40.6256 59.3895C40.8135 59.2455 41.0833 59.3062 41.2273 59.4941C41.3464 59.6887 41.2982 59.9552 41.1069 60.0867C40.9032 60.2217 40.6492 60.1701 40.5176 59.9788C40.4377 59.8803 40.4324 59.7617 40.4554 59.6488L36.9807 58.5846C36.8813 58.9582 36.6566 59.3122 36.3047 59.5404C36.2277 59.6012 36.1349 59.6529 36.0388 59.6921L37.0624 63.391C38.1973 63.0984 39.4611 63.5314 40.1673 64.5682C41.0693 65.8856 40.7115 67.676 39.4031 68.5621ZM35.935 59.6534L35.697 58.7705C35.4325 58.8285 35.1618 58.7147 34.9919 58.4804C34.7895 58.1748 34.8631 57.7548 35.1653 57.54C35.4833 57.3343 35.9033 57.4078 36.109 57.7258C36.2181 57.8831 36.2469 58.0888 36.2125 58.2581L36.9133 58.4827C36.9969 58.1001 36.9145 57.6955 36.6862 57.3435C36.2015 56.6338 35.242 56.439 34.5572 56.917C33.8476 57.4017 33.6651 58.3578 34.1216 59.0618C34.5355 59.6571 35.2927 59.8932 35.935 59.6534ZM36.8927 58.555L36.1919 58.3304C36.1351 58.4657 36.0466 58.5829 35.9232 58.6695C35.8768 58.6954 35.818 58.7246 35.7683 58.738L36.0187 59.6175C36.1024 59.5816 36.1827 59.5333 36.263 59.4849C36.615 59.2567 36.8182 58.9218 36.8927 58.555ZM39.3457 68.4976C40.6326 67.6306 40.9789 65.8966 40.1119 64.6098C39.4281 63.607 38.1925 63.1797 37.0701 63.4689L37.4569 64.8052C37.9825 64.6768 38.5704 64.8785 38.901 65.363C39.3216 65.9832 39.1621 66.8265 38.5385 67.2346C37.9183 67.6552 37.0625 67.499 36.6544 66.8755C36.2338 66.2552 36.4091 65.421 37.0293 65.0004C37.1403 64.9172 37.2613 64.8712 37.3698 64.8286L37.0079 63.4857C36.7219 63.5628 36.4742 63.6829 36.215 63.8594C34.9248 64.714 34.61 66.4661 35.4613 67.7439C36.3125 69.0217 38.0713 69.3613 39.3457 68.4976Z" fill="url(#paint82_linear_0_204)"/>
<path fill-rule="evenodd" clip-rule="evenodd" d="M74.0181 46.6015C72.7131 47.5001 70.9227 47.1423 70.0208 45.8248C69.1471 44.5131 69.489 42.7137 70.8132 41.8366C71.0599 41.6634 71.3325 41.5366 71.6061 41.4628L70.5916 37.7482C69.9153 38.0105 69.1175 37.772 68.6935 37.1393C68.2055 36.4173 68.396 35.3922 69.1306 34.9008C69.8775 34.406 70.8901 34.6 71.3849 35.3469C71.6165 35.7113 71.7056 36.1408 71.6162 36.5517L75.1033 37.6125C75.1363 37.537 75.1851 37.4705 75.2654 37.4221C75.4442 37.2939 75.7265 37.3512 75.8456 37.5459C75.9772 37.7371 75.929 38.0036 75.7343 38.1227C75.5306 38.2577 75.28 38.2185 75.145 38.0148C75.0776 37.9129 75.0632 37.8101 75.0861 37.6972L71.6081 36.6206C71.5121 37.0066 71.284 37.3481 70.9354 37.5888C70.8551 37.6371 70.7499 37.6922 70.6538 37.7314L71.6807 41.4427C72.8371 41.131 74.1043 41.5765 74.7947 42.6041C75.6842 43.9249 75.3265 45.7153 74.0181 46.6015ZM70.5748 37.686L70.3244 36.8065C70.06 36.8644 69.7926 36.7631 69.6193 36.5164C69.4169 36.2108 69.4905 35.7908 69.8085 35.5851C70.1232 35.3669 70.534 35.4562 70.7522 35.7709C70.8613 35.9282 70.8743 36.1248 70.8308 36.3099L71.5407 36.5187C71.6118 36.1394 71.5543 35.7281 71.3136 35.3795C70.8447 34.6789 69.8886 34.4964 69.1755 34.9687C68.4625 35.441 68.2801 36.3971 68.7614 37.0944C69.1662 37.7055 69.9201 37.9292 70.5748 37.686ZM71.5359 36.6L70.8227 36.3788C70.7783 36.5108 70.674 36.6189 70.5631 36.7022C70.5076 36.7438 70.4579 36.7572 70.399 36.7864L70.6461 37.6535C70.7298 37.6176 70.8135 37.5817 70.9029 37.5176C71.23 37.296 71.4456 36.9578 71.5359 36.6ZM73.9889 46.5426C75.2633 45.679 75.6063 43.9326 74.7426 42.6582C74.0555 41.643 72.82 41.2157 71.7008 41.5173L72.0752 42.8569C72.6099 42.7128 73.2136 42.9236 73.5284 43.3989C73.9524 44.0316 73.7895 44.8624 73.1693 45.283C72.549 45.7036 71.7057 45.5441 71.2818 44.9114C70.8646 44.3036 71.0365 43.457 71.6568 43.0364C71.7586 42.9689 71.8887 42.9072 72.013 42.8737L71.6386 41.5341C71.3651 41.6078 71.0925 41.7346 70.8582 41.9045C69.5804 42.7557 69.2375 44.5021 70.1011 45.7765C70.9557 47.0667 72.6987 47.3972 73.9889 46.5426Z" fill="url(#paint83_linear_0_204)"/>
<path d="M73.2695 46.312L72.9152 46.1253C72.5034 45.9071 72.1601 45.7156 71.8851 45.5509C71.6101 45.3863 71.3852 45.2325 71.2104 45.0897C71.0356 44.9468 70.903 44.808 70.8125 44.6732C70.722 44.5384 70.6559 44.3934 70.6141 44.2383C70.5286 43.9212 70.5599 43.6288 70.7078 43.361C70.8558 43.0932 71.0828 42.918 71.3891 42.8355C71.5584 42.7898 71.7297 42.7835 71.9028 42.8164C72.0759 42.8493 72.236 42.9183 72.3831 43.0234C72.4575 42.8586 72.5613 42.7185 72.6944 42.603C72.8275 42.4876 72.9787 42.407 73.1481 42.3613C73.4544 42.2788 73.7387 42.3161 74.0012 42.4733C74.2637 42.6305 74.4377 42.8676 74.5231 43.1847C74.565 43.3398 74.5806 43.4984 74.5701 43.6605C74.5596 43.8225 74.5147 44.0091 74.4354 44.2205C74.3561 44.4318 74.2389 44.6777 74.0839 44.9583C73.9289 45.2389 73.7283 45.5769 73.482 45.9726L73.2695 46.312Z" fill="#24FFFF"/>
<path d="M69.3881 38.1336L69.2128 38.0471C69.0091 37.9461 68.8393 37.8573 68.7034 37.7808C68.5675 37.7044 68.4564 37.6327 68.3703 37.566C68.2842 37.4992 68.219 37.4341 68.1748 37.3706C68.1306 37.3071 68.0986 37.2386 68.0788 37.1651C68.0383 37.0149 68.0558 36.8757 68.1313 36.7474C68.2068 36.6191 68.3211 36.5343 68.4742 36.493C68.5589 36.4702 68.6443 36.466 68.7303 36.4805C68.8163 36.4951 68.8956 36.5268 68.9682 36.5758C69.0064 36.497 69.059 36.4296 69.1261 36.3739C69.1932 36.3181 69.2691 36.2788 69.3538 36.2559C69.5069 36.2147 69.6483 36.2305 69.778 36.3035C69.9078 36.3765 69.9929 36.4881 70.0334 36.6383C70.0532 36.7118 70.0599 36.7871 70.0536 36.8642C70.0473 36.9413 70.0237 37.0304 69.9828 37.1314C69.9419 37.2324 69.8819 37.3501 69.8028 37.4845C69.7237 37.6189 69.6215 37.781 69.4962 37.9708L69.3881 38.1336Z" fill="#24FFFF"/>
<defs>
<linearGradient id="paint0_linear_0_204" x1="62.3773" y1="33.1757" x2="62.9265" y2="33.5212" gradientUnits="userSpaceOnUse">
<stop stop-color="#ED0068"/>
<stop offset="0.539" stop-color="#590E91"/>
<stop offset="1" stop-color="#24FFFF"/>
</linearGradient>
<linearGradient id="paint1_linear_0_204" x1="43.7007" y1="16.95" x2="44.2504" y2="17.2959" gradientUnits="userSpaceOnUse">
<stop stop-color="#ED0068"/>
<stop offset="0.539" stop-color="#590E91"/>
<stop offset="1" stop-color="#24FFFF"/>
</linearGradient>
<linearGradient id="paint2_linear_0_204" x1="46.2581" y1="12.993" x2="46.8134" y2="13.3425" gradientUnits="userSpaceOnUse">
<stop stop-color="#ED0068"/>
<stop offset="0.539" stop-color="#590E91"/>
<stop offset="1" stop-color="#24FFFF"/>
</linearGradient>
<linearGradient id="paint3_linear_0_204" x1="36.2212" y1="15.2843" x2="36.7731" y2="15.6315" gradientUnits="userSpaceOnUse">
<stop stop-color="#ED0068"/>
<stop offset="0.539" stop-color="#590E91"/>
<stop offset="1" stop-color="#24FFFF"/>
</linearGradient>
<linearGradient id="paint4_linear_0_204" x1="15.0006" y1="9.71453" x2="62.6177" y2="39.6765" gradientUnits="userSpaceOnUse">
<stop stop-color="#ED0068"/>
<stop offset="0.539" stop-color="#590E91"/>
<stop offset="1" stop-color="#24FFFF"/>
</linearGradient>
<linearGradient id="paint5_linear_0_204" x1="28.1624" y1="56.8111" x2="28.7183" y2="57.1608" gradientUnits="userSpaceOnUse">
<stop stop-color="#ED0068"/>
<stop offset="0.539" stop-color="#590E91"/>
<stop offset="1" stop-color="#24FFFF"/>
</linearGradient>
<linearGradient id="paint6_linear_0_204" x1="40.9977" y1="65.7827" x2="41.5487" y2="66.1295" gradientUnits="userSpaceOnUse">
<stop stop-color="#ED0068"/>
<stop offset="0.539" stop-color="#590E91"/>
<stop offset="1" stop-color="#24FFFF"/>
</linearGradient>
<linearGradient id="paint7_linear_0_204" x1="34.4156" y1="74.9368" x2="34.9678" y2="75.2842" gradientUnits="userSpaceOnUse">
<stop stop-color="#ED0068"/>
<stop offset="0.539" stop-color="#590E91"/>
<stop offset="1" stop-color="#24FFFF"/>
</linearGradient>
<linearGradient id="paint8_linear_0_204" x1="45.9811" y1="25.2371" x2="46.5282" y2="25.5814" gradientUnits="userSpaceOnUse">
<stop stop-color="#ED0068"/>
<stop offset="0.539" stop-color="#590E91"/>
<stop offset="1" stop-color="#24FFFF"/>
</linearGradient>
<linearGradient id="paint9_linear_0_204" x1="9.20139" y1="18.9696" x2="56.893" y2="48.9785" gradientUnits="userSpaceOnUse">
<stop stop-color="#ED0068"/>
<stop offset="0.539" stop-color="#590E91"/>
<stop offset="1" stop-color="#24FFFF"/>
</linearGradient>
<linearGradient id="paint10_linear_0_204" x1="7.01494" y1="22.635" x2="54.6714" y2="52.6217" gradientUnits="userSpaceOnUse">
<stop stop-color="#ED0068"/>
<stop offset="0.539" stop-color="#590E91"/>
<stop offset="1" stop-color="#24FFFF"/>
</linearGradient>
<linearGradient id="paint11_linear_0_204" x1="15.947" y1="38.4413" x2="16.4996" y2="38.789" gradientUnits="userSpaceOnUse">
<stop stop-color="#ED0068"/>
<stop offset="0.539" stop-color="#590E91"/>
<stop offset="1" stop-color="#24FFFF"/>
</linearGradient>
<linearGradient id="paint12_linear_0_204" x1="19.9752" y1="31.9378" x2="20.5196" y2="32.2803" gradientUnits="userSpaceOnUse">
<stop stop-color="#ED0068"/>
<stop offset="0.539" stop-color="#590E91"/>
<stop offset="1" stop-color="#24FFFF"/>
</linearGradient>
<linearGradient id="paint13_linear_0_204" x1="12.6337" y1="13.7238" x2="60.2352" y2="43.6759" gradientUnits="userSpaceOnUse">
<stop stop-color="#ED0068"/>
<stop offset="0.539" stop-color="#590E91"/>
<stop offset="1" stop-color="#24FFFF"/>
</linearGradient>
<linearGradient id="paint14_linear_0_204" x1="5.09144" y1="25.6545" x2="52.6463" y2="55.5771" gradientUnits="userSpaceOnUse">
<stop stop-color="#ED0068"/>
<stop offset="0.539" stop-color="#590E91"/>
<stop offset="1" stop-color="#24FFFF"/>
</linearGradient>
<linearGradient id="paint15_linear_0_204" x1="13.2446" y1="12.9784" x2="60.9212" y2="42.9778" gradientUnits="userSpaceOnUse">
<stop stop-color="#ED0068"/>
<stop offset="0.539" stop-color="#590E91"/>
<stop offset="1" stop-color="#24FFFF"/>
</linearGradient>
<linearGradient id="paint16_linear_0_204" x1="49.6755" y1="63.3819" x2="50.2278" y2="63.7293" gradientUnits="userSpaceOnUse">
<stop stop-color="#ED0068"/>
<stop offset="0.539" stop-color="#590E91"/>
<stop offset="1" stop-color="#24FFFF"/>
</linearGradient>
<linearGradient id="paint17_linear_0_204" x1="63.1613" y1="59.5728" x2="63.7138" y2="59.9204" gradientUnits="userSpaceOnUse">
<stop stop-color="#ED0068"/>
<stop offset="0.539" stop-color="#590E91"/>
<stop offset="1" stop-color="#24FFFF"/>
</linearGradient>
<linearGradient id="paint18_linear_0_204" x1="45.8069" y1="70.8752" x2="46.3583" y2="71.2222" gradientUnits="userSpaceOnUse">
<stop stop-color="#ED0068"/>
<stop offset="0.539" stop-color="#590E91"/>
<stop offset="1" stop-color="#24FFFF"/>
</linearGradient>
<linearGradient id="paint19_linear_0_204" x1="24.6148" y1="80.9501" x2="25.1716" y2="81.3005" gradientUnits="userSpaceOnUse">
<stop stop-color="#ED0068"/>
<stop offset="0.539" stop-color="#590E91"/>
<stop offset="1" stop-color="#24FFFF"/>
</linearGradient>
<linearGradient id="paint20_linear_0_204" x1="18.1999" y1="58.8035" x2="18.7521" y2="59.151" gradientUnits="userSpaceOnUse">
<stop stop-color="#ED0068"/>
<stop offset="0.539" stop-color="#590E91"/>
<stop offset="1" stop-color="#24FFFF"/>
</linearGradient>
<linearGradient id="paint21_linear_0_204" x1="25.7511" y1="66.0437" x2="26.2977" y2="66.3877" gradientUnits="userSpaceOnUse">
<stop stop-color="#ED0068"/>
<stop offset="0.539" stop-color="#590E91"/>
<stop offset="1" stop-color="#24FFFF"/>
</linearGradient>
<linearGradient id="paint22_linear_0_204" x1="18.9617" y1="3.57575" x2="66.5899" y2="33.5448" gradientUnits="userSpaceOnUse">
<stop stop-color="#ED0068"/>
<stop offset="0.539" stop-color="#590E91"/>
<stop offset="1" stop-color="#24FFFF"/>
</linearGradient>
<linearGradient id="paint23_linear_0_204" x1="8.9889" y1="44.5565" x2="9.5391" y2="44.9027" gradientUnits="userSpaceOnUse">
<stop stop-color="#ED0068"/>
<stop offset="0.539" stop-color="#590E91"/>
<stop offset="1" stop-color="#24FFFF"/>
</linearGradient>
<linearGradient id="paint24_linear_0_204" x1="1.0577" y1="31.8749" x2="48.7186" y2="61.8645" gradientUnits="userSpaceOnUse">
<stop stop-color="#ED0068"/>
<stop offset="0.539" stop-color="#590E91"/>
<stop offset="1" stop-color="#24FFFF"/>
</linearGradient>
<linearGradient id="paint25_linear_0_204" x1="36.4037" y1="12.4954" x2="36.955" y2="12.8423" gradientUnits="userSpaceOnUse">
<stop stop-color="#ED0068"/>
<stop offset="0.539" stop-color="#590E91"/>
<stop offset="1" stop-color="#24FFFF"/>
</linearGradient>
<linearGradient id="paint26_linear_0_204" x1="-0.229771" y1="59.5304" x2="58.4938" y2="45.3235" gradientUnits="userSpaceOnUse">
<stop stop-color="#ED0068"/>
<stop offset="0.539" stop-color="#590E91"/>
<stop offset="1" stop-color="#24FFFF"/>
</linearGradient>
<linearGradient id="paint27_linear_0_204" x1="-0.644951" y1="33.7534" x2="46.9363" y2="63.6928" gradientUnits="userSpaceOnUse">
<stop stop-color="#ED0068"/>
<stop offset="0.539" stop-color="#590E91"/>
<stop offset="1" stop-color="#24FFFF"/>
</linearGradient>
<linearGradient id="paint28_linear_0_204" x1="9.51033" y1="16.3896" x2="57.0904" y2="46.3284" gradientUnits="userSpaceOnUse">
<stop stop-color="#ED0068"/>
<stop offset="0.539" stop-color="#590E91"/>
<stop offset="1" stop-color="#24FFFF"/>
</linearGradient>
<linearGradient id="paint29_linear_0_204" x1="20.889" y1="-1.6759" x2="68.4683" y2="28.2626" gradientUnits="userSpaceOnUse">
<stop stop-color="#ED0068"/>
<stop offset="0.539" stop-color="#590E91"/>
<stop offset="1" stop-color="#24FFFF"/>
</linearGradient>
<linearGradient id="paint30_linear_0_204" x1="10.7486" y1="16.9845" x2="58.3116" y2="46.9125" gradientUnits="userSpaceOnUse">
<stop stop-color="#ED0068"/>
<stop offset="0.539" stop-color="#590E91"/>
<stop offset="1" stop-color="#24FFFF"/>
</linearGradient>
<linearGradient id="paint31_linear_0_204" x1="35.9698" y1="18.693" x2="36.912" y2="19.2859" gradientUnits="userSpaceOnUse">
<stop stop-color="#ED0068"/>
<stop offset="0.539" stop-color="#590E91"/>
<stop offset="1" stop-color="#24FFFF"/>
</linearGradient>
<linearGradient id="paint32_linear_0_204" x1="5.79359" y1="22.5357" x2="48.7271" y2="12.1489" gradientUnits="userSpaceOnUse">
<stop stop-color="#ED0068"/>
<stop offset="0.539" stop-color="#590E91"/>
<stop offset="1" stop-color="#24FFFF"/>
</linearGradient>
<linearGradient id="paint33_linear_0_204" x1="1.35736" y1="16.8517" x2="54.4256" y2="4.01303" gradientUnits="userSpaceOnUse">
<stop stop-color="#ED0068"/>
<stop offset="0.539" stop-color="#590E91"/>
<stop offset="1" stop-color="#24FFFF"/>
</linearGradient>
<linearGradient id="paint34_linear_0_204" x1="-5.86763" y1="66.6748" x2="48.6808" y2="53.478" gradientUnits="userSpaceOnUse">
<stop stop-color="#ED0068"/>
<stop offset="0.539" stop-color="#590E91"/>
<stop offset="1" stop-color="#24FFFF"/>
</linearGradient>
<linearGradient id="paint35_linear_0_204" x1="-31.1437" y1="67.2884" x2="58.0065" y2="45.7204" gradientUnits="userSpaceOnUse">
<stop stop-color="#ED0068"/>
<stop offset="0.539" stop-color="#590E91"/>
<stop offset="1" stop-color="#24FFFF"/>
</linearGradient>
<linearGradient id="paint36_linear_0_204" x1="20.5187" y1="26.6217" x2="64.8385" y2="15.8995" gradientUnits="userSpaceOnUse">
<stop stop-color="#ED0068"/>
<stop offset="0.539" stop-color="#590E91"/>
<stop offset="1" stop-color="#24FFFF"/>
</linearGradient>
<linearGradient id="paint37_linear_0_204" x1="-1.05578" y1="45.6104" x2="50.1981" y2="33.2107" gradientUnits="userSpaceOnUse">
<stop stop-color="#ED0068"/>
<stop offset="0.539" stop-color="#590E91"/>
<stop offset="1" stop-color="#24FFFF"/>
</linearGradient>
<linearGradient id="paint38_linear_0_204" x1="11.7721" y1="41.9556" x2="63.1078" y2="29.5362" gradientUnits="userSpaceOnUse">
<stop stop-color="#ED0068"/>
<stop offset="0.539" stop-color="#590E91"/>
<stop offset="1" stop-color="#24FFFF"/>
</linearGradient>
<linearGradient id="paint39_linear_0_204" x1="-1.57282" y1="65.9621" x2="39.5551" y2="56.0121" gradientUnits="userSpaceOnUse">
<stop stop-color="#ED0068"/>
<stop offset="0.539" stop-color="#590E91"/>
<stop offset="1" stop-color="#24FFFF"/>
</linearGradient>
<linearGradient id="paint40_linear_0_204" x1="23.7468" y1="45.4503" x2="64.834" y2="35.5102" gradientUnits="userSpaceOnUse">
<stop stop-color="#ED0068"/>
<stop offset="0.539" stop-color="#590E91"/>
<stop offset="1" stop-color="#24FFFF"/>
</linearGradient>
<linearGradient id="paint41_linear_0_204" x1="15.3242" y1="15.0283" x2="45.0158" y2="7.84509" gradientUnits="userSpaceOnUse">
<stop stop-color="#ED0068"/>
<stop offset="0.539" stop-color="#590E91"/>
<stop offset="1" stop-color="#24FFFF"/>
</linearGradient>
<linearGradient id="paint42_linear_0_204" x1="60.0805" y1="36.6262" x2="60.5162" y2="36.9004" gradientUnits="userSpaceOnUse">
<stop stop-color="#ED0068"/>
<stop offset="0.539" stop-color="#590E91"/>
<stop offset="1" stop-color="#24FFFF"/>
</linearGradient>
<linearGradient id="paint43_linear_0_204" x1="45.3658" y1="23.8601" x2="45.8006" y2="24.1337" gradientUnits="userSpaceOnUse">
<stop stop-color="#ED0068"/>
<stop offset="0.539" stop-color="#590E91"/>
<stop offset="1" stop-color="#24FFFF"/>
</linearGradient>
<linearGradient id="paint44_linear_0_204" x1="47.3924" y1="20.7467" x2="47.8234" y2="21.0179" gradientUnits="userSpaceOnUse">
<stop stop-color="#ED0068"/>
<stop offset="0.539" stop-color="#590E91"/>
<stop offset="1" stop-color="#24FFFF"/>
</linearGradient>
<linearGradient id="paint45_linear_0_204" x1="36.5614" y1="14.9848" x2="36.9946" y2="15.2573" gradientUnits="userSpaceOnUse">
<stop stop-color="#ED0068"/>
<stop offset="0.539" stop-color="#590E91"/>
<stop offset="1" stop-color="#24FFFF"/>
</linearGradient>
<linearGradient id="paint46_linear_0_204" x1="31.5484" y1="24.4839" x2="31.978" y2="24.7542" gradientUnits="userSpaceOnUse">
<stop stop-color="#ED0068"/>
<stop offset="0.539" stop-color="#590E91"/>
<stop offset="1" stop-color="#24FFFF"/>
</linearGradient>
<linearGradient id="paint47_linear_0_204" x1="33.1457" y1="55.2305" x2="33.5844" y2="55.5066" gradientUnits="userSpaceOnUse">
<stop stop-color="#ED0068"/>
<stop offset="0.539" stop-color="#590E91"/>
<stop offset="1" stop-color="#24FFFF"/>
</linearGradient>
<linearGradient id="paint48_linear_0_204" x1="43.2515" y1="62.2989" x2="43.6863" y2="62.5725" gradientUnits="userSpaceOnUse">
<stop stop-color="#ED0068"/>
<stop offset="0.539" stop-color="#590E91"/>
<stop offset="1" stop-color="#24FFFF"/>
</linearGradient>
<linearGradient id="paint49_linear_0_204" x1="38.071" y1="69.5003" x2="38.5024" y2="69.7718" gradientUnits="userSpaceOnUse">
<stop stop-color="#ED0068"/>
<stop offset="0.539" stop-color="#590E91"/>
<stop offset="1" stop-color="#24FFFF"/>
</linearGradient>
<linearGradient id="paint50_linear_0_204" x1="47.1664" y1="30.3772" x2="47.6105" y2="30.6567" gradientUnits="userSpaceOnUse">
<stop stop-color="#ED0068"/>
<stop offset="0.539" stop-color="#590E91"/>
<stop offset="1" stop-color="#24FFFF"/>
</linearGradient>
<linearGradient id="paint51_linear_0_204" x1="25.5623" y1="30.0682" x2="26.0011" y2="30.3443" gradientUnits="userSpaceOnUse">
<stop stop-color="#ED0068"/>
<stop offset="0.539" stop-color="#590E91"/>
<stop offset="1" stop-color="#24FFFF"/>
</linearGradient>
<linearGradient id="paint52_linear_0_204" x1="21.4077" y1="31.4214" x2="21.8372" y2="31.6916" gradientUnits="userSpaceOnUse">
<stop stop-color="#ED0068"/>
<stop offset="0.539" stop-color="#590E91"/>
<stop offset="1" stop-color="#24FFFF"/>
</linearGradient>
<linearGradient id="paint53_linear_0_204" x1="23.5315" y1="40.7722" x2="23.9669" y2="41.0463" gradientUnits="userSpaceOnUse">
<stop stop-color="#ED0068"/>
<stop offset="0.539" stop-color="#590E91"/>
<stop offset="1" stop-color="#24FFFF"/>
</linearGradient>
<linearGradient id="paint54_linear_0_204" x1="26.6992" y1="35.6471" x2="27.1359" y2="35.9218" gradientUnits="userSpaceOnUse">
<stop stop-color="#ED0068"/>
<stop offset="0.539" stop-color="#590E91"/>
<stop offset="1" stop-color="#24FFFF"/>
</linearGradient>
<linearGradient id="paint55_linear_0_204" x1="26.2263" y1="25.4713" x2="26.6634" y2="25.7463" gradientUnits="userSpaceOnUse">
<stop stop-color="#ED0068"/>
<stop offset="0.539" stop-color="#590E91"/>
<stop offset="1" stop-color="#24FFFF"/>
</linearGradient>
<linearGradient id="paint56_linear_0_204" x1="18.3136" y1="33.5785" x2="18.7492" y2="33.8526" gradientUnits="userSpaceOnUse">
<stop stop-color="#ED0068"/>
<stop offset="0.539" stop-color="#590E91"/>
<stop offset="1" stop-color="#24FFFF"/>
</linearGradient>
<linearGradient id="paint57_linear_0_204" x1="13.5685" y1="12.0935" x2="61.196" y2="42.0618" gradientUnits="userSpaceOnUse">
<stop stop-color="#ED0068"/>
<stop offset="0.539" stop-color="#590E91"/>
<stop offset="1" stop-color="#24FFFF"/>
</linearGradient>
<linearGradient id="paint58_linear_0_204" x1="50.0781" y1="60.405" x2="50.5123" y2="60.6782" gradientUnits="userSpaceOnUse">
<stop stop-color="#ED0068"/>
<stop offset="0.539" stop-color="#590E91"/>
<stop offset="1" stop-color="#24FFFF"/>
</linearGradient>
<linearGradient id="paint59_linear_0_204" x1="60.6962" y1="57.4082" x2="61.132" y2="57.6825" gradientUnits="userSpaceOnUse">
<stop stop-color="#ED0068"/>
<stop offset="0.539" stop-color="#590E91"/>
<stop offset="1" stop-color="#24FFFF"/>
</linearGradient>
<linearGradient id="paint60_linear_0_204" x1="47.0361" y1="66.3032" x2="47.4726" y2="66.5779" gradientUnits="userSpaceOnUse">
<stop stop-color="#ED0068"/>
<stop offset="0.539" stop-color="#590E91"/>
<stop offset="1" stop-color="#24FFFF"/>
</linearGradient>
<linearGradient id="paint61_linear_0_204" x1="30.3576" y1="74.2359" x2="30.7986" y2="74.5134" gradientUnits="userSpaceOnUse">
<stop stop-color="#ED0068"/>
<stop offset="0.539" stop-color="#590E91"/>
<stop offset="1" stop-color="#24FFFF"/>
</linearGradient>
<linearGradient id="paint62_linear_0_204" x1="25.3056" y1="56.807" x2="25.7385" y2="57.0794" gradientUnits="userSpaceOnUse">
<stop stop-color="#ED0068"/>
<stop offset="0.539" stop-color="#590E91"/>
<stop offset="1" stop-color="#24FFFF"/>
</linearGradient>
<linearGradient id="paint63_linear_0_204" x1="31.2489" y1="62.5046" x2="31.684" y2="62.7784" gradientUnits="userSpaceOnUse">
<stop stop-color="#ED0068"/>
<stop offset="0.539" stop-color="#590E91"/>
<stop offset="1" stop-color="#24FFFF"/>
</linearGradient>
<linearGradient id="paint64_linear_0_204" x1="32.3673" y1="18.218" x2="32.8074" y2="18.495" gradientUnits="userSpaceOnUse">
<stop stop-color="#ED0068"/>
<stop offset="0.539" stop-color="#590E91"/>
<stop offset="1" stop-color="#24FFFF"/>
</linearGradient>
<linearGradient id="paint65_linear_0_204" x1="18.048" y1="45.5859" x2="18.485" y2="45.8609" gradientUnits="userSpaceOnUse">
<stop stop-color="#ED0068"/>
<stop offset="0.539" stop-color="#590E91"/>
<stop offset="1" stop-color="#24FFFF"/>
</linearGradient>
<linearGradient id="paint66_linear_0_204" x1="15.474" y1="41.3617" x2="15.9006" y2="41.6301" gradientUnits="userSpaceOnUse">
<stop stop-color="#ED0068"/>
<stop offset="0.539" stop-color="#590E91"/>
<stop offset="1" stop-color="#24FFFF"/>
</linearGradient>
<linearGradient id="paint67_linear_0_204" x1="39.6303" y1="20.3508" x2="40.0675" y2="20.6259" gradientUnits="userSpaceOnUse">
<stop stop-color="#ED0068"/>
<stop offset="0.539" stop-color="#590E91"/>
<stop offset="1" stop-color="#24FFFF"/>
</linearGradient>
<linearGradient id="paint68_linear_0_204" x1="-0.970504" y1="60.2182" x2="57.7278" y2="46.0175" gradientUnits="userSpaceOnUse">
<stop stop-color="#ED0068"/>
<stop offset="0.539" stop-color="#590E91"/>
<stop offset="1" stop-color="#24FFFF"/>
</linearGradient>
<linearGradient id="paint69_linear_0_204" x1="0.921159" y1="31.0786" x2="48.4891" y2="61.0098" gradientUnits="userSpaceOnUse">
<stop stop-color="#ED0068"/>
<stop offset="0.539" stop-color="#590E91"/>
<stop offset="1" stop-color="#24FFFF"/>
</linearGradient>
<linearGradient id="paint70_linear_0_204" x1="9.4131" y1="16.6043" x2="56.9877" y2="46.5395" gradientUnits="userSpaceOnUse">
<stop stop-color="#ED0068"/>
<stop offset="0.539" stop-color="#590E91"/>
<stop offset="1" stop-color="#24FFFF"/>
</linearGradient>
<linearGradient id="paint71_linear_0_204" x1="19.8149" y1="0.0829864" x2="67.3841" y2="30.0149" gradientUnits="userSpaceOnUse">
<stop stop-color="#ED0068"/>
<stop offset="0.539" stop-color="#590E91"/>
<stop offset="1" stop-color="#24FFFF"/>
</linearGradient>
<linearGradient id="paint72_linear_0_204" x1="10.8633" y1="16.5454" x2="58.4443" y2="46.4848" gradientUnits="userSpaceOnUse">
<stop stop-color="#ED0068"/>
<stop offset="0.539" stop-color="#590E91"/>
<stop offset="1" stop-color="#24FFFF"/>
</linearGradient>
<linearGradient id="paint73_linear_0_204" x1="36.3658" y1="17.6592" x2="37.1139" y2="18.13" gradientUnits="userSpaceOnUse">
<stop stop-color="#ED0068"/>
<stop offset="0.539" stop-color="#590E91"/>
<stop offset="1" stop-color="#24FFFF"/>
</linearGradient>
<linearGradient id="paint74_linear_0_204" x1="6.26439" y1="29.6111" x2="49.1822" y2="19.2281" gradientUnits="userSpaceOnUse">
<stop stop-color="#ED0068"/>
<stop offset="0.539" stop-color="#590E91"/>
<stop offset="1" stop-color="#24FFFF"/>
</linearGradient>
<linearGradient id="paint75_linear_0_204" x1="1.38336" y1="26.3619" x2="54.4526" y2="13.523" gradientUnits="userSpaceOnUse">
<stop stop-color="#ED0068"/>
<stop offset="0.539" stop-color="#590E91"/>
<stop offset="1" stop-color="#24FFFF"/>
</linearGradient>
<linearGradient id="paint76_linear_0_204" x1="-4.67775" y1="65.6757" x2="49.9499" y2="52.4598" gradientUnits="userSpaceOnUse">
<stop stop-color="#ED0068"/>
<stop offset="0.539" stop-color="#590E91"/>
<stop offset="1" stop-color="#24FFFF"/>
</linearGradient>
<linearGradient id="paint77_linear_0_204" x1="-31.4286" y1="69.6359" x2="57.6141" y2="48.0942" gradientUnits="userSpaceOnUse">
<stop stop-color="#ED0068"/>
<stop offset="0.539" stop-color="#590E91"/>
<stop offset="1" stop-color="#24FFFF"/>
</linearGradient>
<linearGradient id="paint78_linear_0_204" x1="18.2068" y1="33.6245" x2="62.5465" y2="22.8974" gradientUnits="userSpaceOnUse">
<stop stop-color="#ED0068"/>
<stop offset="0.539" stop-color="#590E91"/>
<stop offset="1" stop-color="#24FFFF"/>
</linearGradient>
<linearGradient id="paint79_linear_0_204" x1="-0.169324" y1="48.9074" x2="51.1208" y2="36.499" gradientUnits="userSpaceOnUse">
<stop stop-color="#ED0068"/>
<stop offset="0.539" stop-color="#590E91"/>
<stop offset="1" stop-color="#24FFFF"/>
</linearGradient>
<linearGradient id="paint80_linear_0_204" x1="11.6334" y1="43.7924" x2="62.9152" y2="31.386" gradientUnits="userSpaceOnUse">
<stop stop-color="#ED0068"/>
<stop offset="0.539" stop-color="#590E91"/>
<stop offset="1" stop-color="#24FFFF"/>
</linearGradient>
<linearGradient id="paint81_linear_0_204" x1="15.7918" y1="20.8496" x2="45.5553" y2="13.649" gradientUnits="userSpaceOnUse">
<stop stop-color="#ED0068"/>
<stop offset="0.539" stop-color="#590E91"/>
<stop offset="1" stop-color="#24FFFF"/>
</linearGradient>
<linearGradient id="paint82_linear_0_204" x1="1.54564" y1="64.4224" x2="42.5957" y2="54.4912" gradientUnits="userSpaceOnUse">
<stop stop-color="#ED0068"/>
<stop offset="0.539" stop-color="#590E91"/>
<stop offset="1" stop-color="#24FFFF"/>
</linearGradient>
<linearGradient id="paint83_linear_0_204" x1="22.9304" y1="45.6658" x2="64.0324" y2="35.7221" gradientUnits="userSpaceOnUse">
<stop stop-color="#ED0068"/>
<stop offset="0.539" stop-color="#590E91"/>
<stop offset="1" stop-color="#24FFFF"/>
</linearGradient>
</defs>
</svg>
