<svg width="16" height="16" viewBox="0 0 16 16" fill="none" xmlns="http://www.w3.org/2000/svg">
<path d="M8 0C10.1217 0 12.1566 0.842855 13.6569 2.34315C15.1571 3.84344 16 5.87827 16 8C16 10.1217 15.1571 12.1566 13.6569 13.6569C12.1566 15.1571 10.1217 16 8 16C5.87827 16 3.84344 15.1571 2.34315 13.6569C0.842854 12.1566 0 10.1217 0 8C0 5.87827 0.842854 3.84344 2.34315 2.34315C3.84344 0.842855 5.87827 0 8 0ZM9.19991 4.91165C9.79416 4.91165 10.2764 4.49911 10.2764 3.88772C10.2764 3.27634 9.79301 2.8638 9.19991 2.8638C8.60567 2.8638 8.12571 3.27634 8.12571 3.88772C8.12571 4.49911 8.60567 4.91165 9.19991 4.91165ZM9.40904 11.342C9.40904 11.2198 9.45132 10.9021 9.42733 10.7215L8.48797 11.8026C8.29369 12.0071 8.05028 12.1488 7.936 12.1111C7.88416 12.0921 7.84082 12.0551 7.8138 12.0069C7.78677 11.9587 7.77783 11.9025 7.78859 11.8483L9.35419 6.90236C9.48218 6.27498 9.13021 5.70245 8.38397 5.62931C7.5966 5.62931 6.43783 6.42811 5.73273 7.44175C5.73273 7.56289 5.70988 7.86458 5.73388 8.04514L6.67209 6.96293C6.86637 6.76066 7.09264 6.61781 7.20691 6.65667C7.26322 6.67688 7.30935 6.71835 7.33542 6.77219C7.36148 6.82603 7.3654 6.88795 7.34633 6.94465L5.79444 11.8666C5.61503 12.4425 5.95443 13.0071 6.77723 13.1351C7.98857 13.1351 8.70395 12.3557 9.41018 11.342H9.40904Z" fill="#ED1C24"/>
</svg>
