<svg width="522" height="121" viewBox="0 0 522 121" fill="none" xmlns="http://www.w3.org/2000/svg">
<mask id="path-1-outside-1_13_1020" maskUnits="userSpaceOnUse" x="186.022" y="6.37842" width="336" height="90" fill="black">
<rect fill="white" x="186.022" y="6.37842" width="336" height="90"/>
<path d="M206.864 47.3103L203.764 74.3784H193.502L200.665 23.7548L220.846 54.8866L241.026 23.7548L248.189 74.3784H237.927L234.827 47.3103L220.846 69.9015L206.864 47.3103ZM261.428 64.5292C261.428 65.4475 261.658 66.2511 262.117 66.9398C262.576 67.5827 263.196 68.0878 263.976 68.4551C264.803 68.7765 265.698 68.9372 266.662 68.9372C268.04 68.9372 269.28 68.6617 270.382 68.1107C271.484 67.5138 272.379 66.6873 273.068 65.6312C273.757 64.5292 274.101 63.2206 274.101 61.7053L275.203 65.8378C275.203 67.8582 274.629 69.5571 273.481 70.9346C272.379 72.3121 270.933 73.3453 269.142 74.034C267.397 74.7228 265.56 75.0672 263.632 75.0672C261.658 75.0672 259.821 74.6769 258.122 73.8963C256.423 73.1157 255.045 71.9907 253.989 70.5214C252.979 69.0061 252.474 67.1694 252.474 65.0113C252.474 61.9349 253.553 59.5013 255.711 57.7105C257.869 55.9197 260.923 55.0244 264.872 55.0244C266.892 55.0244 268.66 55.231 270.175 55.6442C271.736 56.0575 273.045 56.5626 274.101 57.1595C275.157 57.7564 275.915 58.3304 276.374 58.8814V63.0139C275.134 62.0956 273.734 61.4068 272.173 60.9477C270.657 60.4885 269.05 60.2589 267.351 60.2589C265.974 60.2589 264.849 60.4426 263.976 60.8099C263.104 61.1313 262.461 61.6135 262.048 62.2563C261.635 62.8532 261.428 63.6109 261.428 64.5292ZM257.984 51.6494L254.678 45.5884C256.331 44.716 258.351 43.8894 260.739 43.1089C263.127 42.2823 265.79 41.8691 268.729 41.8691C271.438 41.8691 273.849 42.2594 275.961 43.04C278.073 43.8206 279.726 44.9685 280.92 46.4838C282.114 47.9531 282.711 49.7668 282.711 51.9249V74.3784H274.101V53.7846C274.101 52.9122 273.963 52.1775 273.688 51.5806C273.412 50.9377 272.976 50.4097 272.379 49.9964C271.828 49.5832 271.162 49.2847 270.382 49.101C269.601 48.9174 268.729 48.8255 267.764 48.8255C266.295 48.8255 264.895 48.9862 263.563 49.3077C262.231 49.6291 261.084 50.0194 260.119 50.4786C259.155 50.9377 258.443 51.328 257.984 51.6494ZM286.945 42.6956H306.506V50.2031H286.945V42.6956ZM292.386 31.6755H300.996V74.3784H292.386V31.6755ZM318.004 58.537C318.004 60.3737 318.418 61.9808 319.244 63.3583C320.071 64.7358 321.173 65.8149 322.55 66.5955C323.974 67.3761 325.535 67.7664 327.234 67.7664C328.611 67.7664 329.943 67.5597 331.229 67.1465C332.514 66.6873 333.662 66.0904 334.672 65.3557C335.728 64.5751 336.532 63.6797 337.083 62.6696V71.83C335.981 72.8402 334.535 73.6437 332.744 74.2407C330.999 74.7917 328.956 75.0672 326.614 75.0672C323.262 75.0672 320.231 74.3784 317.522 73.0009C314.859 71.6234 312.747 69.6949 311.186 67.2153C309.671 64.6899 308.913 61.7971 308.913 58.537C308.913 55.231 309.671 52.3382 311.186 49.8587C312.747 47.3792 314.859 45.4506 317.522 44.0731C320.231 42.6956 323.262 42.0068 326.614 42.0068C328.956 42.0068 330.999 42.3053 332.744 42.9022C334.535 43.4532 335.981 44.2109 337.083 45.1751V54.3356C336.532 53.3254 335.706 52.453 334.604 51.7183C333.547 50.9377 332.377 50.3408 331.091 49.9276C329.805 49.5143 328.519 49.3077 327.234 49.3077C325.535 49.3077 323.974 49.7209 322.55 50.5474C321.173 51.328 320.071 52.4071 319.244 53.7846C318.418 55.1621 318.004 56.7462 318.004 58.537ZM353.906 20.6554V74.3784H344.953V20.6554H353.906ZM365.409 55.0932C365.409 52.981 364.995 51.3739 364.169 50.2719C363.388 49.1699 362.057 48.6189 360.174 48.6189C358.934 48.6189 357.832 48.8944 356.868 49.4454C355.904 49.9505 355.169 50.6852 354.664 51.6494C354.159 52.6137 353.906 53.7616 353.906 55.0932H352.116C352.116 52.5678 352.529 50.2949 353.355 48.2745C354.228 46.2542 355.514 44.6471 357.212 43.4532C358.911 42.2594 361.001 41.6625 363.48 41.6625C365.96 41.6625 368.003 42.1216 369.61 43.04C371.217 43.9583 372.411 45.3358 373.192 47.1725C373.972 48.9633 374.363 51.1673 374.363 53.7846V74.3784H365.409V55.0932ZM391.353 49.9276V45.4506H399.136C400.56 45.4506 401.799 45.221 402.856 44.7619C403.912 44.3027 404.715 43.6369 405.266 42.7645C405.863 41.8921 406.162 40.8589 406.162 39.6651C406.162 37.8284 405.519 36.4279 404.233 35.4637C402.993 34.4994 401.294 34.0173 399.136 34.0173H393.833V66.5266H400.169C401.822 66.5266 403.315 66.297 404.646 65.8378C405.978 65.3327 407.011 64.5522 407.746 63.4961C408.526 62.44 408.917 61.0854 408.917 59.4324C408.917 58.2385 408.687 57.2284 408.228 56.4019C407.815 55.5294 407.195 54.8177 406.368 54.2667C405.588 53.6698 404.669 53.2565 403.613 53.027C402.557 52.7515 401.409 52.6137 400.169 52.6137H391.353V47.2414H401.065C403.407 47.2414 405.634 47.4939 407.746 47.999C409.904 48.5041 411.832 49.3077 413.531 50.4097C415.23 51.4658 416.562 52.8433 417.526 54.5422C418.536 56.2412 419.041 58.2845 419.041 60.6722C419.041 63.8404 418.284 66.4348 416.768 68.4551C415.299 70.4755 413.21 71.9678 410.501 72.932C407.792 73.8963 404.646 74.3784 401.065 74.3784H383.984V26.1654H400.032C403.246 26.1654 406.07 26.6246 408.503 27.543C410.937 28.4154 412.843 29.747 414.22 31.5377C415.598 33.3285 416.286 35.6014 416.286 38.3564C416.286 40.79 415.598 42.8793 414.22 44.6241C412.843 46.369 410.937 47.7006 408.503 48.6189C406.07 49.4913 403.246 49.9276 400.032 49.9276H391.353ZM456.775 42.6956L436.113 89.5311H426.952L434.942 71.2101L421.787 42.6956H431.705L441.898 67.9041L437.49 67.7664L447.477 42.6956H456.775Z"/>
<path d="M464.181 63.4272L465.352 55.6442H488.494L489.665 63.4272H464.181ZM476.785 41.8002L469.554 58.3993L469.76 60.6033L463.424 74.3784H452.335L476.785 23.3415L501.236 74.3784H490.078L483.88 61.0165L484.017 58.537L476.785 41.8002ZM505.227 30.4357C505.227 28.9664 505.755 27.7725 506.811 26.8542C507.867 25.8899 509.13 25.4078 510.599 25.4078C512.068 25.4078 513.308 25.8899 514.318 26.8542C515.375 27.7725 515.903 28.9664 515.903 30.4357C515.903 31.8592 515.375 33.053 514.318 34.0173C513.308 34.9815 512.068 35.4637 510.599 35.4637C509.13 35.4637 507.867 34.9815 506.811 34.0173C505.755 33.053 505.227 31.8592 505.227 30.4357ZM506.191 42.6956H514.869V74.3784H506.191V42.6956Z"/>
</mask>
<path d="M206.864 47.3103L203.764 74.3784H193.502L200.665 23.7548L220.846 54.8866L241.026 23.7548L248.189 74.3784H237.927L234.827 47.3103L220.846 69.9015L206.864 47.3103ZM261.428 64.5292C261.428 65.4475 261.658 66.2511 262.117 66.9398C262.576 67.5827 263.196 68.0878 263.976 68.4551C264.803 68.7765 265.698 68.9372 266.662 68.9372C268.04 68.9372 269.28 68.6617 270.382 68.1107C271.484 67.5138 272.379 66.6873 273.068 65.6312C273.757 64.5292 274.101 63.2206 274.101 61.7053L275.203 65.8378C275.203 67.8582 274.629 69.5571 273.481 70.9346C272.379 72.3121 270.933 73.3453 269.142 74.034C267.397 74.7228 265.56 75.0672 263.632 75.0672C261.658 75.0672 259.821 74.6769 258.122 73.8963C256.423 73.1157 255.045 71.9907 253.989 70.5214C252.979 69.0061 252.474 67.1694 252.474 65.0113C252.474 61.9349 253.553 59.5013 255.711 57.7105C257.869 55.9197 260.923 55.0244 264.872 55.0244C266.892 55.0244 268.66 55.231 270.175 55.6442C271.736 56.0575 273.045 56.5626 274.101 57.1595C275.157 57.7564 275.915 58.3304 276.374 58.8814V63.0139C275.134 62.0956 273.734 61.4068 272.173 60.9477C270.657 60.4885 269.05 60.2589 267.351 60.2589C265.974 60.2589 264.849 60.4426 263.976 60.8099C263.104 61.1313 262.461 61.6135 262.048 62.2563C261.635 62.8532 261.428 63.6109 261.428 64.5292ZM257.984 51.6494L254.678 45.5884C256.331 44.716 258.351 43.8894 260.739 43.1089C263.127 42.2823 265.79 41.8691 268.729 41.8691C271.438 41.8691 273.849 42.2594 275.961 43.04C278.073 43.8206 279.726 44.9685 280.92 46.4838C282.114 47.9531 282.711 49.7668 282.711 51.9249V74.3784H274.101V53.7846C274.101 52.9122 273.963 52.1775 273.688 51.5806C273.412 50.9377 272.976 50.4097 272.379 49.9964C271.828 49.5832 271.162 49.2847 270.382 49.101C269.601 48.9174 268.729 48.8255 267.764 48.8255C266.295 48.8255 264.895 48.9862 263.563 49.3077C262.231 49.6291 261.084 50.0194 260.119 50.4786C259.155 50.9377 258.443 51.328 257.984 51.6494ZM286.945 42.6956H306.506V50.2031H286.945V42.6956ZM292.386 31.6755H300.996V74.3784H292.386V31.6755ZM318.004 58.537C318.004 60.3737 318.418 61.9808 319.244 63.3583C320.071 64.7358 321.173 65.8149 322.55 66.5955C323.974 67.3761 325.535 67.7664 327.234 67.7664C328.611 67.7664 329.943 67.5597 331.229 67.1465C332.514 66.6873 333.662 66.0904 334.672 65.3557C335.728 64.5751 336.532 63.6797 337.083 62.6696V71.83C335.981 72.8402 334.535 73.6437 332.744 74.2407C330.999 74.7917 328.956 75.0672 326.614 75.0672C323.262 75.0672 320.231 74.3784 317.522 73.0009C314.859 71.6234 312.747 69.6949 311.186 67.2153C309.671 64.6899 308.913 61.7971 308.913 58.537C308.913 55.231 309.671 52.3382 311.186 49.8587C312.747 47.3792 314.859 45.4506 317.522 44.0731C320.231 42.6956 323.262 42.0068 326.614 42.0068C328.956 42.0068 330.999 42.3053 332.744 42.9022C334.535 43.4532 335.981 44.2109 337.083 45.1751V54.3356C336.532 53.3254 335.706 52.453 334.604 51.7183C333.547 50.9377 332.377 50.3408 331.091 49.9276C329.805 49.5143 328.519 49.3077 327.234 49.3077C325.535 49.3077 323.974 49.7209 322.55 50.5474C321.173 51.328 320.071 52.4071 319.244 53.7846C318.418 55.1621 318.004 56.7462 318.004 58.537ZM353.906 20.6554V74.3784H344.953V20.6554H353.906ZM365.409 55.0932C365.409 52.981 364.995 51.3739 364.169 50.2719C363.388 49.1699 362.057 48.6189 360.174 48.6189C358.934 48.6189 357.832 48.8944 356.868 49.4454C355.904 49.9505 355.169 50.6852 354.664 51.6494C354.159 52.6137 353.906 53.7616 353.906 55.0932H352.116C352.116 52.5678 352.529 50.2949 353.355 48.2745C354.228 46.2542 355.514 44.6471 357.212 43.4532C358.911 42.2594 361.001 41.6625 363.48 41.6625C365.96 41.6625 368.003 42.1216 369.61 43.04C371.217 43.9583 372.411 45.3358 373.192 47.1725C373.972 48.9633 374.363 51.1673 374.363 53.7846V74.3784H365.409V55.0932ZM391.353 49.9276V45.4506H399.136C400.56 45.4506 401.799 45.221 402.856 44.7619C403.912 44.3027 404.715 43.6369 405.266 42.7645C405.863 41.8921 406.162 40.8589 406.162 39.6651C406.162 37.8284 405.519 36.4279 404.233 35.4637C402.993 34.4994 401.294 34.0173 399.136 34.0173H393.833V66.5266H400.169C401.822 66.5266 403.315 66.297 404.646 65.8378C405.978 65.3327 407.011 64.5522 407.746 63.4961C408.526 62.44 408.917 61.0854 408.917 59.4324C408.917 58.2385 408.687 57.2284 408.228 56.4019C407.815 55.5294 407.195 54.8177 406.368 54.2667C405.588 53.6698 404.669 53.2565 403.613 53.027C402.557 52.7515 401.409 52.6137 400.169 52.6137H391.353V47.2414H401.065C403.407 47.2414 405.634 47.4939 407.746 47.999C409.904 48.5041 411.832 49.3077 413.531 50.4097C415.23 51.4658 416.562 52.8433 417.526 54.5422C418.536 56.2412 419.041 58.2845 419.041 60.6722C419.041 63.8404 418.284 66.4348 416.768 68.4551C415.299 70.4755 413.21 71.9678 410.501 72.932C407.792 73.8963 404.646 74.3784 401.065 74.3784H383.984V26.1654H400.032C403.246 26.1654 406.07 26.6246 408.503 27.543C410.937 28.4154 412.843 29.747 414.22 31.5377C415.598 33.3285 416.286 35.6014 416.286 38.3564C416.286 40.79 415.598 42.8793 414.22 44.6241C412.843 46.369 410.937 47.7006 408.503 48.6189C406.07 49.4913 403.246 49.9276 400.032 49.9276H391.353ZM456.775 42.6956L436.113 89.5311H426.952L434.942 71.2101L421.787 42.6956H431.705L441.898 67.9041L437.49 67.7664L447.477 42.6956H456.775Z" fill="#0C1721"/>
<path d="M464.181 63.4272L465.352 55.6442H488.494L489.665 63.4272H464.181ZM476.785 41.8002L469.554 58.3993L469.76 60.6033L463.424 74.3784H452.335L476.785 23.3415L501.236 74.3784H490.078L483.88 61.0165L484.017 58.537L476.785 41.8002ZM505.227 30.4357C505.227 28.9664 505.755 27.7725 506.811 26.8542C507.867 25.8899 509.13 25.4078 510.599 25.4078C512.068 25.4078 513.308 25.8899 514.318 26.8542C515.375 27.7725 515.903 28.9664 515.903 30.4357C515.903 31.8592 515.375 33.053 514.318 34.0173C513.308 34.9815 512.068 35.4637 510.599 35.4637C509.13 35.4637 507.867 34.9815 506.811 34.0173C505.755 33.053 505.227 31.8592 505.227 30.4357ZM506.191 42.6956H514.869V74.3784H506.191V42.6956Z" fill="#ED1C24"/>
<path d="M206.864 47.3103L211.897 44.1953L202.923 29.6958L200.983 46.6369L206.864 47.3103ZM203.764 74.3784V80.2974H209.044L209.645 75.0518L203.764 74.3784ZM193.502 74.3784L187.641 73.5492L186.687 80.2974H193.502V74.3784ZM200.665 23.7548L205.632 20.5352L197.022 7.25317L194.804 22.9255L200.665 23.7548ZM220.846 54.8866L215.879 58.1062L220.846 65.7682L225.812 58.1062L220.846 54.8866ZM241.026 23.7548L246.887 22.9255L244.669 7.25317L236.059 20.5352L241.026 23.7548ZM248.189 74.3784V80.2974H255.005L254.05 73.5492L248.189 74.3784ZM237.927 74.3784L232.046 75.0518L232.647 80.2974H237.927V74.3784ZM234.827 47.3103L240.708 46.6369L238.768 29.6958L229.794 44.1953L234.827 47.3103ZM220.846 69.9015L215.813 73.0165L220.846 81.1487L225.879 73.0165L220.846 69.9015ZM200.983 46.6369L197.884 73.7051L209.645 75.0518L212.744 47.9836L200.983 46.6369ZM203.764 68.4594H193.502V80.2974H203.764V68.4594ZM199.363 75.2077L206.526 24.5841L194.804 22.9255L187.641 73.5492L199.363 75.2077ZM195.698 26.9744L215.879 58.1062L225.812 51.667L205.632 20.5352L195.698 26.9744ZM225.812 58.1062L245.993 26.9744L236.059 20.5352L215.879 51.667L225.812 58.1062ZM235.166 24.5841L242.329 75.2077L254.05 73.5492L246.887 22.9255L235.166 24.5841ZM248.189 68.4594H237.927V80.2974H248.189V68.4594ZM243.807 73.7051L240.708 46.6369L228.947 47.9836L232.046 75.0518L243.807 73.7051ZM229.794 44.1953L215.813 66.7865L225.879 73.0165L239.86 50.4252L229.794 44.1953ZM225.879 66.7865L211.897 44.1953L201.831 50.4252L215.813 73.0165L225.879 66.7865ZM262.117 66.9398L257.192 70.2231L257.245 70.3025L257.3 70.3802L262.117 66.9398ZM263.976 68.4551L261.456 73.8107L261.641 73.8977L261.831 73.9716L263.976 68.4551ZM270.382 68.1107L273.029 73.4048L273.116 73.3615L273.201 73.3153L270.382 68.1107ZM273.068 65.6312L278.026 68.8646L278.057 68.8167L278.087 68.7683L273.068 65.6312ZM274.101 61.7053L279.82 60.1802L268.182 61.7053H274.101ZM275.203 65.8378H281.122V65.0622L280.922 64.3127L275.203 65.8378ZM273.481 70.9346L268.934 67.1454L268.896 67.1908L268.859 67.2371L273.481 70.9346ZM269.142 74.034L267.017 68.5096L266.993 68.5189L266.969 68.5284L269.142 74.034ZM258.122 73.8963L255.651 79.2748L255.651 79.2748L258.122 73.8963ZM253.989 70.5214L249.064 73.8047L249.122 73.8913L249.183 73.9759L253.989 70.5214ZM255.711 57.7105L259.491 62.2655L259.491 62.2655L255.711 57.7105ZM270.175 55.6442L268.618 61.3547L268.639 61.3605L268.661 61.3662L270.175 55.6442ZM274.101 57.1595L271.189 62.3124L271.189 62.3124L274.101 57.1595ZM276.374 58.8814H282.293V56.7384L280.921 55.0921L276.374 58.8814ZM276.374 63.0139L272.851 67.7702L282.293 74.7644V63.0139H276.374ZM272.173 60.9477L270.456 66.6123L270.479 66.6193L270.502 66.6261L272.173 60.9477ZM263.976 60.8099L266.023 66.364L266.149 66.3174L266.273 66.2651L263.976 60.8099ZM262.048 62.2563L266.914 65.6255L266.972 65.5422L267.027 65.457L262.048 62.2563ZM257.984 51.6494L252.788 54.4838L255.957 60.2936L261.378 56.4985L257.984 51.6494ZM254.678 45.5884L251.915 40.3537L246.608 43.1546L249.482 48.4227L254.678 45.5884ZM260.739 43.1089L262.578 48.7348L262.627 48.719L262.675 48.7022L260.739 43.1089ZM275.961 43.04L273.909 48.592L273.909 48.592L275.961 43.04ZM280.92 46.4838L276.27 50.1469L276.298 50.1818L276.326 50.2162L280.92 46.4838ZM282.711 74.3784V80.2974H288.63V74.3784H282.711ZM274.101 74.3784H268.182V80.2974H274.101V74.3784ZM273.688 51.5806L268.247 53.9122L268.279 53.987L268.314 54.061L273.688 51.5806ZM272.379 49.9964L268.828 54.7316L268.918 54.799L269.01 54.863L272.379 49.9964ZM260.119 50.4786L262.664 55.8226L262.664 55.8226L260.119 50.4786ZM255.509 64.5292C255.509 66.4833 256.014 68.4571 257.192 70.2231L267.042 63.6566C267.155 63.8266 267.24 64.0133 267.291 64.1945C267.342 64.3709 267.347 64.4922 267.347 64.5292H255.509ZM257.3 70.3802C258.401 71.922 259.845 73.0528 261.456 73.8107L266.497 63.0995C266.508 63.1049 266.573 63.1375 266.665 63.2122C266.759 63.2886 266.853 63.3866 266.933 63.4995L257.3 70.3802ZM261.831 73.9716C263.399 74.5814 265.029 74.8562 266.662 74.8562V63.0182C266.368 63.0182 266.207 62.9716 266.122 62.9386L261.831 73.9716ZM266.662 74.8562C268.849 74.8562 271.012 74.4132 273.029 73.4048L267.735 62.8166C267.547 62.9103 267.231 63.0182 266.662 63.0182V74.8562ZM273.201 73.3153C275.174 72.2464 276.803 70.7402 278.026 68.8646L268.11 62.3978C267.956 62.6344 267.793 62.7812 267.563 62.9062L273.201 73.3153ZM278.087 68.7683C279.456 66.5784 280.02 64.1426 280.02 61.7053H268.182C268.182 62.2985 268.057 62.48 268.049 62.4941L278.087 68.7683ZM268.382 63.2304L269.484 67.3629L280.922 64.3127L279.82 60.1802L268.382 63.2304ZM269.284 65.8378C269.284 66.6599 269.083 66.9665 268.934 67.1454L278.028 74.7239C280.175 72.1477 281.122 69.0564 281.122 65.8378H269.284ZM268.859 67.2371C268.47 67.7239 267.917 68.1635 267.017 68.5096L271.267 79.5585C273.949 78.527 276.289 76.9004 278.103 74.6322L268.859 67.2371ZM266.969 68.5284C265.935 68.9363 264.838 69.1482 263.632 69.1482V80.9862C266.283 80.9862 268.859 80.5093 271.315 79.5396L266.969 68.5284ZM263.632 69.1482C262.462 69.1482 261.474 68.9224 260.593 68.5178L255.651 79.2748C258.168 80.4313 260.853 80.9862 263.632 80.9862V69.1482ZM260.593 68.5178C259.794 68.1506 259.233 67.675 258.796 67.0668L249.183 73.9759C250.858 76.3065 253.052 78.0808 255.651 79.2748L260.593 68.5178ZM258.914 67.2381C258.665 66.8636 258.393 66.2212 258.393 65.0113H246.555C246.555 68.1177 247.294 71.1487 249.064 73.8047L258.914 67.2381ZM258.393 65.0113C258.393 63.502 258.83 62.8136 259.491 62.2655L251.932 53.1555C248.276 56.1889 246.555 60.3677 246.555 65.0113H258.393ZM259.491 62.2655C260.226 61.6556 261.748 60.9434 264.872 60.9434V49.1053C260.098 49.1053 255.513 50.1838 251.932 53.1555L259.491 62.2655ZM264.872 60.9434C266.508 60.9434 267.731 61.1128 268.618 61.3547L271.733 49.9338C269.589 49.3492 267.276 49.1053 264.872 49.1053V60.9434ZM268.661 61.3662C269.884 61.69 270.69 62.0304 271.189 62.3124L277.014 52.0066C275.4 51.0947 273.589 50.425 271.69 49.9223L268.661 61.3662ZM271.189 62.3124C271.546 62.5144 271.767 62.6647 271.887 62.7557C272.016 62.8531 271.961 62.8314 271.827 62.6706L280.921 55.0921C279.794 53.7396 278.323 52.7466 277.014 52.0066L271.189 62.3124ZM270.455 58.8814V63.0139H282.293V58.8814H270.455ZM279.897 58.2577C278.069 56.9032 276.034 55.9137 273.843 55.2692L270.502 66.6261C271.433 66.9 272.2 67.288 272.851 67.7702L279.897 58.2577ZM273.889 55.283C271.778 54.6433 269.589 54.3399 267.351 54.3399V66.1779C268.511 66.1779 269.536 66.3336 270.456 66.6123L273.889 55.283ZM267.351 54.3399C265.514 54.3399 263.531 54.5752 261.679 55.3547L266.273 66.2651C266.202 66.2952 266.237 66.2696 266.428 66.2383C266.618 66.2073 266.918 66.1779 267.351 66.1779V54.3399ZM261.93 55.2559C260.118 55.9234 258.318 57.1125 257.069 59.0556L267.027 65.457C266.833 65.758 266.604 65.9883 266.391 66.1478C266.188 66.3003 266.043 66.3566 266.023 66.364L261.93 55.2559ZM257.181 58.8871C255.921 60.7076 255.509 62.7264 255.509 64.5292H267.347C267.347 64.4953 267.348 64.9988 266.914 65.6255L257.181 58.8871ZM263.18 48.8151L259.874 42.7541L249.482 48.4227L252.788 54.4838L263.18 48.8151ZM257.441 50.8231C258.717 50.1497 260.408 49.4443 262.578 48.7348L258.9 37.4829C256.295 38.3346 253.946 39.2822 251.915 40.3537L257.441 50.8231ZM262.675 48.7022C264.348 48.1232 266.344 47.7881 268.729 47.7881V35.9501C265.236 35.9501 261.906 36.4415 258.803 37.5155L262.675 48.7022ZM268.729 47.7881C270.876 47.7881 272.572 48.0978 273.909 48.592L278.013 37.488C275.125 36.4209 272 35.9501 268.729 35.9501V47.7881ZM273.909 48.592C275.171 49.0586 275.858 49.6233 276.27 50.1469L285.569 42.8207C283.594 40.3137 280.974 38.5826 278.013 37.488L273.909 48.592ZM276.326 50.2162C276.544 50.4846 276.792 50.9256 276.792 51.9249H288.63C288.63 48.6081 287.683 45.4216 285.514 42.7513L276.326 50.2162ZM276.792 51.9249V74.3784H288.63V51.9249H276.792ZM282.711 68.4594H274.101V80.2974H282.711V68.4594ZM280.02 74.3784V53.7846H268.182V74.3784H280.02ZM280.02 53.7846C280.02 52.3225 279.794 50.6852 279.062 49.1002L268.314 54.061C268.221 53.8607 268.189 53.7182 268.18 53.6701C268.171 53.624 268.182 53.6553 268.182 53.7846H280.02ZM279.128 49.249C278.397 47.543 277.224 46.1512 275.748 45.1299L269.01 54.863C268.889 54.779 268.739 54.6511 268.591 54.4721C268.442 54.2918 268.327 54.0984 268.247 53.9122L279.128 49.249ZM275.931 45.2612C274.628 44.2841 273.184 43.6797 271.737 43.3394L269.026 54.8627C269.086 54.8768 269.087 54.8825 269.045 54.8638C269.002 54.8442 268.923 54.8033 268.828 54.7316L275.931 45.2612ZM271.737 43.3394C270.434 43.0326 269.097 42.9065 267.764 42.9065V54.7445C268.361 54.7445 268.769 54.8021 269.026 54.8627L271.737 43.3394ZM267.764 42.9065C265.861 42.9065 263.992 43.1151 262.174 43.5539L264.952 55.0614C265.797 54.8574 266.729 54.7445 267.764 54.7445V42.9065ZM262.174 43.5539C260.55 43.946 258.996 44.4579 257.575 45.1345L262.664 55.8226C263.172 55.5809 263.913 55.3122 264.952 55.0614L262.174 43.5539ZM257.575 45.1345C256.528 45.6327 255.46 46.1912 254.59 46.8004L261.378 56.4985C261.373 56.5024 261.466 56.4386 261.708 56.3055C261.94 56.1784 262.254 56.0178 262.664 55.8226L257.575 45.1345ZM286.945 42.6956V36.7766H281.026V42.6956H286.945ZM306.506 42.6956H312.425V36.7766H306.506V42.6956ZM306.506 50.2031V56.1221H312.425V50.2031H306.506ZM286.945 50.2031H281.026V56.1221H286.945V50.2031ZM292.386 31.6755V25.7565H286.467V31.6755H292.386ZM300.996 31.6755H306.915V25.7565H300.996V31.6755ZM300.996 74.3784V80.2974H306.915V74.3784H300.996ZM292.386 74.3784H286.467V80.2974H292.386V74.3784ZM286.945 48.6146H306.506V36.7766H286.945V48.6146ZM300.587 42.6956V50.2031H312.425V42.6956H300.587ZM306.506 44.284H286.945V56.1221H306.506V44.284ZM292.864 50.2031V42.6956H281.026V50.2031H292.864ZM292.386 37.5945H300.996V25.7565H292.386V37.5945ZM295.077 31.6755V74.3784H306.915V31.6755H295.077ZM300.996 68.4594H292.386V80.2974H300.996V68.4594ZM298.305 74.3784V31.6755H286.467V74.3784H298.305ZM322.55 66.5955L319.632 71.7451L319.668 71.7655L319.704 71.7853L322.55 66.5955ZM331.229 67.1465L333.04 72.7815L333.13 72.7525L333.219 72.7206L331.229 67.1465ZM334.672 65.3557L338.154 70.1426L338.172 70.1292L338.191 70.1156L334.672 65.3557ZM337.083 62.6696H343.002L331.887 59.8352L337.083 62.6696ZM337.083 71.83L341.083 76.1932L343.002 74.4338V71.83H337.083ZM332.744 74.2407L334.526 79.8849L334.571 79.8708L334.616 79.8559L332.744 74.2407ZM317.522 73.0009L314.803 78.2583L314.821 78.2677L314.84 78.277L317.522 73.0009ZM311.186 67.2153L306.11 70.2606L306.143 70.3152L306.177 70.3691L311.186 67.2153ZM311.186 49.8587L306.177 46.705L306.156 46.7384L306.135 46.7722L311.186 49.8587ZM317.522 44.0731L314.84 38.797L314.821 38.8063L314.803 38.8158L317.522 44.0731ZM332.744 42.9022L330.828 48.5026L330.915 48.5324L331.003 48.5595L332.744 42.9022ZM337.083 45.1751H343.002V42.4893L340.981 40.7206L337.083 45.1751ZM337.083 54.3356L331.887 57.1699L343.002 54.3356H337.083ZM334.604 51.7183L331.085 56.4782L331.201 56.5636L331.32 56.6432L334.604 51.7183ZM331.091 49.9276L332.902 44.2925L332.902 44.2925L331.091 49.9276ZM322.55 50.5474L325.468 55.6971L325.495 55.6818L325.522 55.6661L322.55 50.5474ZM312.085 58.537C312.085 61.2898 312.715 63.9805 314.169 66.4036L324.32 60.313C324.121 59.9811 323.923 59.4576 323.923 58.537H312.085ZM314.169 66.4036C315.513 68.6436 317.352 70.4533 319.632 71.7451L325.468 61.4458C324.993 61.1764 324.629 60.8281 324.32 60.313L314.169 66.4036ZM319.704 71.7853C322.041 73.0668 324.588 73.6854 327.234 73.6854V61.8473C326.482 61.8473 325.906 61.6853 325.396 61.4056L319.704 71.7853ZM327.234 73.6854C329.214 73.6854 331.157 73.3867 333.04 72.7815L329.417 61.5114C328.729 61.7327 328.009 61.8473 327.234 61.8473V73.6854ZM333.219 72.7206C334.988 72.089 336.647 71.2388 338.154 70.1426L331.191 60.5688C330.678 60.942 330.041 61.2856 329.238 61.5723L333.219 72.7206ZM338.191 70.1156C339.842 68.8953 341.261 67.3704 342.279 65.5039L331.887 59.8352C331.803 59.989 331.615 60.2549 331.154 60.5958L338.191 70.1156ZM331.164 62.6696V71.83H343.002V62.6696H331.164ZM333.083 67.4668C332.733 67.7876 332.074 68.2248 330.872 68.6254L334.616 79.8559C336.995 79.0627 339.229 77.8928 341.083 76.1932L333.083 67.4668ZM330.961 68.5964C329.928 68.9226 328.511 69.1482 326.614 69.1482V80.9862C329.4 80.9862 332.07 80.6607 334.526 79.8849L330.961 68.5964ZM326.614 69.1482C324.097 69.1482 322 68.6376 320.205 67.7248L314.84 78.277C318.463 80.1192 322.427 80.9862 326.614 80.9862V69.1482ZM320.242 67.7435C318.493 66.8388 317.18 65.6269 316.195 64.0616L306.177 70.3691C308.314 73.7629 311.226 76.4079 314.803 78.2583L320.242 67.7435ZM316.261 64.17C315.356 62.6607 314.832 60.8424 314.832 58.537H302.994C302.994 62.7519 303.985 66.7191 306.11 70.2606L316.261 64.17ZM314.832 58.537C314.832 56.1667 315.364 54.3726 316.236 52.9451L306.135 46.7722C303.977 50.3038 302.994 54.2952 302.994 58.537H314.832ZM316.195 53.0124C317.18 51.4472 318.493 50.2352 320.242 49.3305L314.803 38.8158C311.226 40.6661 308.314 43.3111 306.177 46.705L316.195 53.0124ZM320.205 49.3492C322 48.4364 324.097 47.9259 326.614 47.9259V36.0878C322.427 36.0878 318.463 36.9548 314.84 38.797L320.205 49.3492ZM326.614 47.9259C328.471 47.9259 329.841 48.1648 330.828 48.5026L334.66 37.3019C332.157 36.4458 329.44 36.0878 326.614 36.0878V47.9259ZM331.003 48.5595C332.212 48.9316 332.859 49.3439 333.185 49.6296L340.981 40.7206C339.103 39.0778 336.857 37.9749 334.485 37.245L331.003 48.5595ZM331.164 45.1751V54.3356H343.002V45.1751H331.164ZM342.279 51.5013C341.204 49.5305 339.665 47.979 337.887 46.7934L331.32 56.6432C331.746 56.927 331.86 57.1204 331.887 57.1699L342.279 51.5013ZM338.122 46.9584C336.533 45.7844 334.783 44.8971 332.902 44.2925L329.28 55.5626C329.97 55.7846 330.561 56.0911 331.085 56.4782L338.122 46.9584ZM332.902 44.2925C331.061 43.7006 329.165 43.3887 327.234 43.3887V55.2267C327.874 55.2267 328.55 55.328 329.28 55.5626L332.902 44.2925ZM327.234 43.3887C324.526 43.3887 321.934 44.0607 319.578 45.4287L325.522 55.6661C326.013 55.3812 326.544 55.2267 327.234 55.2267V43.3887ZM319.632 45.3978C317.352 46.6896 315.513 48.4993 314.169 50.7393L324.32 56.8299C324.629 56.3148 324.993 55.9665 325.468 55.6971L319.632 45.3978ZM314.169 50.7393C312.729 53.1394 312.085 55.7999 312.085 58.537H323.923C323.923 57.6926 324.107 57.1848 324.32 56.8299L314.169 50.7393ZM353.906 20.6554H359.825V14.7364H353.906V20.6554ZM353.906 74.3784V80.2974H359.825V74.3784H353.906ZM344.953 74.3784H339.034V80.2974H344.953V74.3784ZM344.953 20.6554V14.7364H339.034V20.6554H344.953ZM364.169 50.2719L359.339 53.6932L359.385 53.7589L359.434 53.8233L364.169 50.2719ZM356.868 49.4454L359.615 54.6887L359.711 54.6384L359.805 54.5846L356.868 49.4454ZM354.664 51.6494L359.907 54.3959L359.907 54.3959L354.664 51.6494ZM353.906 55.0932V61.0122H359.825V55.0932H353.906ZM352.116 55.0932H346.197V61.0122H352.116V55.0932ZM353.355 48.2745L347.921 45.928L347.899 45.9805L347.877 46.0334L353.355 48.2745ZM357.212 43.4532L353.809 38.6104L353.809 38.6104L357.212 43.4532ZM369.61 43.04L366.673 48.1791L366.673 48.1791L369.61 43.04ZM373.192 47.1725L367.744 49.4877L367.755 49.5127L367.766 49.5377L373.192 47.1725ZM374.363 74.3784V80.2974H380.282V74.3784H374.363ZM365.409 74.3784H359.49V80.2974H365.409V74.3784ZM347.987 20.6554V74.3784H359.825V20.6554H347.987ZM353.906 68.4594H344.953V80.2974H353.906V68.4594ZM350.872 74.3784V20.6554H339.034V74.3784H350.872ZM344.953 26.5744H353.906V14.7364H344.953V26.5744ZM371.328 55.0932C371.328 52.3439 370.812 49.264 368.904 46.7205L359.434 53.8233C359.297 53.6409 359.314 53.5752 359.366 53.7778C359.421 53.9898 359.49 54.4063 359.49 55.0932H371.328ZM368.999 46.8506C366.709 43.6177 363.161 42.6999 360.174 42.6999V54.5379C360.565 54.5379 360.557 54.5986 360.322 54.5014C360.195 54.4491 360.021 54.3579 359.832 54.21C359.641 54.0603 359.473 53.8828 359.339 53.6932L368.999 46.8506ZM360.174 42.6999C358.027 42.6999 355.891 43.1867 353.931 44.3063L359.805 54.5846C359.806 54.584 359.816 54.5772 359.853 54.5678C359.894 54.5576 359.994 54.5379 360.174 54.5379V42.6999ZM354.122 44.2022C352.09 45.2661 350.485 46.8718 349.421 48.903L359.907 54.3959C359.895 54.4187 359.855 54.4847 359.779 54.5606C359.703 54.6365 359.637 54.6767 359.615 54.6887L354.122 44.2022ZM349.421 48.903C348.383 50.8836 347.987 53.0158 347.987 55.0932H359.825C359.825 54.5074 359.935 54.3438 359.907 54.3959L349.421 48.903ZM353.906 49.1742H352.116V61.0122H353.906V49.1742ZM358.035 55.0932C358.035 53.2171 358.34 51.7221 358.834 50.5157L347.877 46.0334C346.718 48.8677 346.197 51.9185 346.197 55.0932H358.035ZM358.789 50.621C359.256 49.5417 359.865 48.8233 360.616 48.2961L353.809 38.6104C351.162 40.4709 349.2 42.9666 347.921 45.928L358.789 50.621ZM360.616 48.2961C361.137 47.9298 361.977 47.5815 363.48 47.5815V35.7435C360.024 35.7435 356.686 36.589 353.809 38.6104L360.616 48.2961ZM363.48 47.5815C365.267 47.5815 366.214 47.9166 366.673 48.1791L372.547 37.9008C369.792 36.3267 366.652 35.7435 363.48 35.7435V47.5815ZM366.673 48.1791C367.068 48.4044 367.427 48.7424 367.744 49.4877L378.639 44.8574C377.395 41.9292 375.367 39.5123 372.547 37.9008L366.673 48.1791ZM367.766 49.5377C368.131 50.3749 368.444 51.7195 368.444 53.7846H380.282C380.282 50.6151 379.814 47.5516 378.618 44.8074L367.766 49.5377ZM368.444 53.7846V74.3784H380.282V53.7846H368.444ZM374.363 68.4594H365.409V80.2974H374.363V68.4594ZM371.328 74.3784V55.0932H359.49V74.3784H371.328ZM391.353 49.9276H385.434V55.8466H391.353V49.9276ZM391.353 45.4506V39.5316H385.434V45.4506H391.353ZM402.856 44.7619L405.216 50.19L405.216 50.19L402.856 44.7619ZM405.266 42.7645L400.381 39.4221L400.32 39.5118L400.262 39.6038L405.266 42.7645ZM404.233 35.4637L400.599 40.1358L400.64 40.1677L400.682 40.1989L404.233 35.4637ZM393.833 34.0173V28.0983H387.914V34.0173H393.833ZM393.833 66.5266H387.914V72.4456H393.833V66.5266ZM404.646 65.8378L406.576 71.4335L406.661 71.4041L406.745 71.3721L404.646 65.8378ZM407.746 63.4961L402.986 59.9779L402.935 60.0462L402.887 60.1159L407.746 63.4961ZM408.228 56.4019L402.879 58.9357L402.961 59.1089L403.054 59.2764L408.228 56.4019ZM406.368 54.2667L402.773 58.9685L402.925 59.0851L403.085 59.1916L406.368 54.2667ZM403.613 53.027L402.119 58.7543L402.237 58.785L402.356 58.8109L403.613 53.027ZM391.353 52.6137H385.434V58.5327H391.353V52.6137ZM391.353 47.2414V41.3224H385.434V47.2414H391.353ZM407.746 47.999L406.369 53.7557L406.383 53.759L406.397 53.7623L407.746 47.999ZM413.531 50.4097L410.31 55.3755L410.358 55.4065L410.406 55.4366L413.531 50.4097ZM417.526 54.5422L412.378 57.4639L412.408 57.5159L412.438 57.5673L417.526 54.5422ZM416.768 68.4551L412.033 64.9037L412.007 64.9385L411.982 64.9737L416.768 68.4551ZM410.501 72.932L408.516 67.3557L410.501 72.932ZM383.984 74.3784H378.065V80.2974H383.984V74.3784ZM383.984 26.1654V20.2464H378.065V26.1654H383.984ZM408.503 27.543L406.414 33.0808L406.46 33.0981L406.506 33.1147L408.503 27.543ZM414.22 31.5377L418.912 27.9289L418.912 27.9289L414.22 31.5377ZM414.22 44.6241L418.866 48.2918L418.866 48.2918L414.22 44.6241ZM408.503 48.6189L410.501 54.1907L410.547 54.1741L410.593 54.1567L408.503 48.6189ZM397.272 49.9276V45.4506H385.434V49.9276H397.272ZM391.353 51.3696H399.136V39.5316H391.353V51.3696ZM399.136 51.3696C401.185 51.3696 403.261 51.0398 405.216 50.19L400.495 39.3337C400.338 39.4023 399.934 39.5316 399.136 39.5316V51.3696ZM405.216 50.19C407.229 49.3145 409.013 47.9162 410.271 45.9252L400.262 39.6038C400.323 39.5065 400.401 39.421 400.474 39.3604C400.543 39.3033 400.565 39.3035 400.495 39.3337L405.216 50.19ZM410.151 46.1068C411.507 44.1257 412.081 41.8918 412.081 39.6651H400.243C400.243 39.7666 400.23 39.765 400.251 39.6925C400.261 39.6576 400.277 39.613 400.301 39.5628C400.324 39.5126 400.352 39.4649 400.381 39.4221L410.151 46.1068ZM412.081 39.6651C412.081 36.2691 410.788 32.981 407.784 30.7285L400.682 40.1989C400.639 40.1671 400.568 40.1055 400.49 40.0095C400.411 39.9126 400.346 39.8074 400.3 39.7064C400.204 39.4977 400.243 39.4377 400.243 39.6651H412.081ZM407.867 30.7915C405.261 28.7644 402.125 28.0983 399.136 28.0983V39.9363C400.464 39.9363 400.726 40.2344 400.599 40.1358L407.867 30.7915ZM399.136 28.0983H393.833V39.9363H399.136V28.0983ZM387.914 34.0173V66.5266H399.752V34.0173H387.914ZM393.833 72.4456H400.169V60.6076H393.833V72.4456ZM400.169 72.4456C402.368 72.4456 404.526 72.1402 406.576 71.4335L402.717 60.2422C402.103 60.4538 401.277 60.6076 400.169 60.6076V72.4456ZM406.745 71.3721C409.069 70.4909 411.116 69.0161 412.605 66.8762L402.887 60.1159C402.879 60.1278 402.873 60.1348 402.852 60.151C402.826 60.1704 402.739 60.2307 402.547 60.3036L406.745 71.3721ZM412.506 67.0143C414.215 64.7021 414.836 62.0207 414.836 59.4324H402.998C402.998 59.7975 402.954 59.9872 402.936 60.0493C402.922 60.0998 402.928 60.0564 402.986 59.9779L412.506 67.0143ZM414.836 59.4324C414.836 57.492 414.462 55.435 413.402 53.5273L403.054 59.2764C402.986 59.1553 402.97 59.0808 402.973 59.0912C402.976 59.1065 402.998 59.2115 402.998 59.4324H414.836ZM413.577 53.868C412.691 51.997 411.343 50.4698 409.651 49.3418L403.085 59.1916C403.086 59.1923 403.075 59.1852 403.057 59.169C403.038 59.1526 403.015 59.13 402.99 59.1012C402.936 59.0393 402.899 58.9779 402.879 58.9357L413.577 53.868ZM409.964 49.5649C408.426 48.3892 406.69 47.6386 404.871 47.243L402.356 58.8109C402.648 58.8744 402.749 58.9504 402.773 58.9685L409.964 49.5649ZM405.107 47.2996C403.502 46.881 401.846 46.6947 400.169 46.6947V58.5327C400.972 58.5327 401.612 58.6219 402.119 58.7543L405.107 47.2996ZM400.169 46.6947H391.353V58.5327H400.169V46.6947ZM397.272 52.6137V47.2414H385.434V52.6137H397.272ZM391.353 53.1604H401.065V41.3224H391.353V53.1604ZM401.065 53.1604C402.979 53.1604 404.742 53.3665 406.369 53.7557L409.122 42.2423C406.526 41.6214 403.834 41.3224 401.065 41.3224V53.1604ZM406.397 53.7623C407.952 54.1263 409.236 54.6789 410.31 55.3755L416.752 45.4439C414.428 43.9364 411.855 42.8819 409.095 42.2358L406.397 53.7623ZM410.406 55.4366C411.287 55.9839 411.914 56.6459 412.378 57.4639L422.674 51.6206C421.209 49.0407 419.174 46.9476 416.656 45.3828L410.406 55.4366ZM412.438 57.5673C412.801 58.1775 413.122 59.1274 413.122 60.6722H424.96C424.96 57.4415 424.271 54.3048 422.614 51.5172L412.438 57.5673ZM413.122 60.6722C413.122 62.8903 412.603 64.1441 412.033 64.9037L421.504 72.0065C423.964 68.7254 424.96 64.7906 424.96 60.6722H413.122ZM411.982 64.9737C411.316 65.8893 410.276 66.7292 408.516 67.3557L412.486 78.5083C416.143 77.2064 419.283 75.0616 421.555 71.9365L411.982 64.9737ZM408.516 67.3557C406.579 68.0453 404.129 68.4594 401.065 68.4594V80.2974C405.163 80.2974 409.005 79.7473 412.486 78.5083L408.516 67.3557ZM401.065 68.4594H383.984V80.2974H401.065V68.4594ZM389.903 74.3784V26.1654H378.065V74.3784H389.903ZM383.984 32.0844H400.032V20.2464H383.984V32.0844ZM400.032 32.0844C402.694 32.0844 404.785 32.4661 406.414 33.0808L410.593 22.0051C407.355 20.7832 403.797 20.2464 400.032 20.2464V32.0844ZM406.506 33.1147C408.03 33.6611 408.938 34.3791 409.528 35.1466L418.912 27.9289C416.747 25.1148 413.844 23.1697 410.501 21.9712L406.506 33.1147ZM409.528 35.1466C409.948 35.6916 410.367 36.6128 410.367 38.3564H422.205C422.205 34.59 421.247 30.9654 418.912 27.9289L409.528 35.1466ZM410.367 38.3564C410.367 39.5932 410.048 40.3568 409.574 40.9565L418.866 48.2918C421.147 45.4017 422.205 41.9869 422.205 38.3564H410.367ZM409.574 40.9564C408.969 41.7229 408.014 42.477 406.414 43.0811L410.593 54.1567C413.86 52.9241 416.716 51.015 418.866 48.2918L409.574 40.9564ZM406.506 43.0471C404.848 43.6416 402.724 44.0085 400.032 44.0085V55.8466C403.767 55.8466 407.292 55.3411 410.501 54.1907L406.506 43.0471ZM400.032 44.0085H391.353V55.8466H400.032V44.0085ZM456.775 42.6956L462.191 45.0848L465.856 36.7766H456.775V42.6956ZM436.113 89.5311V95.4501H439.971L441.528 91.9202L436.113 89.5311ZM426.952 89.5311L421.527 87.165L417.914 95.4501H426.952V89.5311ZM434.942 71.2101L440.367 73.5762L441.429 71.1419L440.317 68.7306L434.942 71.2101ZM421.787 42.6956V36.7766H412.537L416.412 45.1752L421.787 42.6956ZM431.705 42.6956L437.192 40.4767L435.696 36.7766H431.705V42.6956ZM441.898 67.9041L441.713 73.8202L450.79 74.1039L447.386 65.6852L441.898 67.9041ZM437.49 67.7664L431.992 65.5759L428.867 73.4188L437.305 73.6825L437.49 67.7664ZM447.477 42.6956V36.7766H443.464L441.979 40.5052L447.477 42.6956ZM451.36 40.3065L430.697 87.1419L441.528 91.9202L462.191 45.0848L451.36 40.3065ZM436.113 83.6121H426.952V95.4501H436.113V83.6121ZM432.378 91.8971L440.367 73.5762L429.516 68.8441L421.527 87.165L432.378 91.8971ZM440.317 68.7306L427.161 40.216L416.412 45.1752L429.567 73.6897L440.317 68.7306ZM421.787 48.6146H431.705V36.7766H421.787V48.6146ZM426.217 44.9145L436.411 70.123L447.386 65.6852L437.192 40.4767L426.217 44.9145ZM442.083 61.988L437.675 61.8502L437.305 73.6825L441.713 73.8202L442.083 61.988ZM442.989 69.9568L452.976 44.8861L441.979 40.5052L431.992 65.5759L442.989 69.9568ZM447.477 48.6146H456.775V36.7766H447.477V48.6146ZM464.181 63.4272L458.328 62.5466L457.305 69.3462H464.181V63.4272ZM465.352 55.6442V49.7252H460.257L459.499 54.7637L465.352 55.6442ZM488.494 55.6442L494.347 54.7637L493.589 49.7252H488.494V55.6442ZM489.665 63.4272V69.3462H496.541L495.518 62.5466L489.665 63.4272ZM476.785 41.8002L482.219 39.4524L476.808 26.9298L471.359 39.436L476.785 41.8002ZM469.554 58.3993L464.127 56.0351L463.518 57.4333L463.66 58.9517L469.554 58.3993ZM469.76 60.6033L475.138 63.0769L475.802 61.6331L475.653 60.0508L469.76 60.6033ZM463.424 74.3784V80.2974H467.216L468.801 76.852L463.424 74.3784ZM452.335 74.3784L446.997 71.8211L442.936 80.2974H452.335V74.3784ZM476.785 23.3415L482.124 20.7842L476.785 9.64199L471.447 20.7842L476.785 23.3415ZM501.236 74.3784V80.2974H510.635L506.574 71.8211L501.236 74.3784ZM490.078 74.3784L484.709 76.8694L486.299 80.2974H490.078V74.3784ZM483.88 61.0165L477.97 60.6882L477.888 62.1654L478.51 63.5075L483.88 61.0165ZM484.017 58.537L489.927 58.8653L490.005 57.4711L489.451 56.1892L484.017 58.537ZM470.034 64.3077L471.205 56.5248L459.499 54.7637L458.328 62.5466L470.034 64.3077ZM465.352 61.5632H488.494V49.7252H465.352V61.5632ZM482.641 56.5248L483.812 64.3077L495.518 62.5466L494.347 54.7637L482.641 56.5248ZM489.665 57.5082H464.181V69.3462H489.665V57.5082ZM471.359 39.436L464.127 56.0351L474.98 60.7634L482.212 44.1644L471.359 39.436ZM463.66 58.9517L463.867 61.1558L475.653 60.0508L475.447 57.8468L463.66 58.9517ZM464.383 58.1297L458.046 71.9048L468.801 76.852L475.138 63.0769L464.383 58.1297ZM463.424 68.4594H452.335V80.2974H463.424V68.4594ZM457.673 76.9358L482.124 25.8989L471.447 20.7842L446.997 71.8211L457.673 76.9358ZM471.447 25.8989L495.898 76.9358L506.574 71.8211L482.124 20.7842L471.447 25.8989ZM501.236 68.4594H490.078V80.2974H501.236V68.4594ZM495.448 71.8875L489.249 58.5256L478.51 63.5075L484.709 76.8694L495.448 71.8875ZM489.79 61.3449L489.927 58.8653L478.108 58.2087L477.97 60.6882L489.79 61.3449ZM489.451 56.1892L482.219 39.4524L471.352 44.148L478.584 60.8848L489.451 56.1892ZM506.811 26.8542L510.695 31.3207L510.749 31.2736L510.802 31.2253L506.811 26.8542ZM514.318 26.8542L510.232 31.1357L510.331 31.2306L510.435 31.3207L514.318 26.8542ZM514.318 34.0173L510.327 29.6462L510.279 29.6904L510.232 29.7357L514.318 34.0173ZM506.811 34.0173L502.82 38.3884L502.82 38.3884L506.811 34.0173ZM506.191 42.6956V36.7766H500.272V42.6956H506.191ZM514.869 42.6956H520.788V36.7766H514.869V42.6956ZM514.869 74.3784V80.2974H520.788V74.3784H514.869ZM506.191 74.3784H500.272V80.2974H506.191V74.3784ZM511.146 30.4357C511.146 30.422 511.145 30.586 511.036 30.8326C510.924 31.0866 510.774 31.2516 510.695 31.3207L502.927 22.3877C500.507 24.4925 499.308 27.3505 499.308 30.4357H511.146ZM510.802 31.2253C510.813 31.2156 510.804 31.2252 510.774 31.2435C510.745 31.2621 510.706 31.2822 510.661 31.299C510.617 31.3158 510.583 31.3239 510.565 31.3271C510.547 31.3302 510.556 31.3268 510.599 31.3268V19.4888C507.698 19.4888 504.999 20.4933 502.82 22.4831L510.802 31.2253ZM510.599 31.3268C510.677 31.3268 510.618 31.3373 510.486 31.2859C510.425 31.2622 510.367 31.2324 510.317 31.2003C510.268 31.1686 510.239 31.1434 510.232 31.1357L518.405 22.5726C516.232 20.4984 513.503 19.4888 510.599 19.4888V31.3268ZM510.435 31.3207C510.355 31.2516 510.206 31.0866 510.093 30.8326C509.984 30.586 509.984 30.422 509.984 30.4357H521.822C521.822 27.3505 520.623 24.4925 518.202 22.3877L510.435 31.3207ZM509.984 30.4357C509.984 30.3981 509.995 30.2276 510.093 30.0044C510.192 29.7819 510.308 29.664 510.327 29.6462L518.309 38.3884C520.587 36.3086 521.822 33.5312 521.822 30.4357H509.984ZM510.232 29.7357C510.239 29.7281 510.268 29.7028 510.317 29.6711C510.367 29.639 510.425 29.6092 510.486 29.5855C510.618 29.5341 510.677 29.5447 510.599 29.5447V41.3827C513.503 41.3827 516.232 40.3731 518.405 38.2988L510.232 29.7357ZM510.599 29.5447C510.556 29.5447 510.547 29.5412 510.565 29.5443C510.583 29.5476 510.617 29.5556 510.661 29.5724C510.706 29.5893 510.745 29.6093 510.774 29.628C510.804 29.6462 510.813 29.6558 510.802 29.6462L502.82 38.3884C504.999 40.3782 507.698 41.3827 510.599 41.3827V29.5447ZM510.802 29.6462C510.822 29.664 510.938 29.7819 511.036 30.0044C511.135 30.2276 511.146 30.3981 511.146 30.4357H499.308C499.308 33.5312 500.542 36.3086 502.82 38.3884L510.802 29.6462ZM506.191 48.6146H514.869V36.7766H506.191V48.6146ZM508.95 42.6956V74.3784H520.788V42.6956H508.95ZM514.869 68.4594H506.191V80.2974H514.869V68.4594ZM512.11 74.3784V42.6956H500.272V74.3784H512.11Z" fill="white" mask="url(#path-1-outside-1_13_1020)"/>
<path d="M202.593 92.7748V95.1018H195.212V100.231H200.967V102.558H195.212V110.165H192.36V92.7748H202.593ZM204.286 103.209C204.286 101.824 204.569 100.598 205.137 99.5305C205.72 98.4629 206.504 97.6372 207.489 97.0534C208.489 96.4529 209.59 96.1527 210.791 96.1527C211.876 96.1527 212.818 96.3695 213.619 96.8032C214.436 97.2202 215.087 97.7457 215.57 98.3795V96.3778H218.448V110.165H215.57V108.113C215.087 108.763 214.428 109.305 213.594 109.739C212.76 110.173 211.809 110.39 210.741 110.39C209.557 110.39 208.473 110.089 207.489 109.489C206.504 108.872 205.72 108.021 205.137 106.937C204.569 105.836 204.286 104.593 204.286 103.209ZM215.57 103.259C215.57 102.308 215.37 101.482 214.97 100.782C214.586 100.081 214.077 99.5472 213.444 99.1802C212.81 98.8132 212.126 98.6298 211.392 98.6298C210.658 98.6298 209.974 98.8132 209.34 99.1802C208.706 99.5305 208.189 100.056 207.789 100.757C207.405 101.44 207.213 102.258 207.213 103.209C207.213 104.159 207.405 104.993 207.789 105.711C208.189 106.428 208.706 106.979 209.34 107.362C209.991 107.729 210.675 107.913 211.392 107.913C212.126 107.913 212.81 107.729 213.444 107.362C214.077 106.995 214.586 106.461 214.97 105.761C215.37 105.044 215.57 104.209 215.57 103.259ZM225.047 91.6488V110.165H222.194V91.6488H225.047ZM231.644 91.6488V110.165H228.792V91.6488H231.644ZM243.34 94.5513C242.823 94.5513 242.389 94.3761 242.039 94.0258C241.689 93.6756 241.514 93.2419 241.514 92.7247C241.514 92.2076 241.689 91.7739 242.039 91.4236C242.389 91.0733 242.823 90.8982 243.34 90.8982C243.841 90.8982 244.266 91.0733 244.616 91.4236C244.966 91.7739 245.142 92.2076 245.142 92.7247C245.142 93.2419 244.966 93.6756 244.616 94.0258C244.266 94.3761 243.841 94.5513 243.34 94.5513ZM244.741 96.3778V110.165H241.889V96.3778H244.741ZM255.442 96.1527C256.526 96.1527 257.494 96.3778 258.345 96.8282C259.212 97.2786 259.888 97.9458 260.371 98.8299C260.855 99.714 261.097 100.782 261.097 102.033V110.165H258.27V102.458C258.27 101.224 257.961 100.281 257.344 99.6306C256.727 98.9634 255.884 98.6298 254.817 98.6298C253.749 98.6298 252.898 98.9634 252.264 99.6306C251.647 100.281 251.339 101.224 251.339 102.458V110.165H248.486V96.3778H251.339V97.9542C251.806 97.387 252.398 96.945 253.115 96.6281C253.849 96.3111 254.625 96.1527 255.442 96.1527ZM352.448 97.9542C352.448 98.8383 352.24 99.6723 351.823 100.456C351.406 101.24 350.738 101.883 349.821 102.383C348.903 102.867 347.727 103.109 346.293 103.109H343.14V110.165H340.288V92.7748H346.293C347.627 92.7748 348.753 93.0083 349.671 93.4754C350.605 93.9258 351.297 94.543 351.748 95.327C352.215 96.111 352.448 96.9867 352.448 97.9542ZM346.293 100.782C347.377 100.782 348.186 100.54 348.72 100.056C349.254 99.5555 349.521 98.8549 349.521 97.9542C349.521 96.0526 348.445 95.1018 346.293 95.1018H343.14V100.782H346.293ZM361.149 110.39C359.848 110.39 358.672 110.098 357.621 109.514C356.57 108.913 355.744 108.079 355.144 107.012C354.543 105.928 354.243 104.677 354.243 103.259C354.243 101.857 354.551 100.615 355.169 99.5305C355.786 98.4463 356.628 97.6122 357.696 97.0284C358.763 96.4446 359.956 96.1527 361.274 96.1527C362.592 96.1527 363.784 96.4446 364.852 97.0284C365.919 97.6122 366.762 98.4463 367.379 99.5305C367.996 100.615 368.305 101.857 368.305 103.259C368.305 104.66 367.988 105.903 367.354 106.987C366.72 108.071 365.853 108.913 364.752 109.514C363.667 110.098 362.466 110.39 361.149 110.39ZM361.149 107.913C361.883 107.913 362.567 107.737 363.2 107.387C363.851 107.037 364.376 106.511 364.777 105.811C365.177 105.11 365.377 104.26 365.377 103.259C365.377 102.258 365.185 101.415 364.802 100.732C364.418 100.031 363.909 99.5055 363.275 99.1552C362.642 98.8049 361.958 98.6298 361.224 98.6298C360.49 98.6298 359.806 98.8049 359.172 99.1552C358.555 99.5055 358.063 100.031 357.696 100.732C357.329 101.415 357.145 102.258 357.145 103.259C357.145 104.743 357.521 105.894 358.271 106.712C359.039 107.512 359.998 107.913 361.149 107.913ZM389.64 96.3778L385.362 110.165H382.359L379.582 99.9809L376.804 110.165H373.802L369.498 96.3778H372.401L375.278 107.462L378.206 96.3778H381.183L383.985 107.412L386.838 96.3778H389.64ZM404.408 102.933C404.408 103.451 404.374 103.918 404.308 104.335H393.774C393.857 105.436 394.266 106.32 395 106.987C395.734 107.654 396.634 107.988 397.702 107.988C399.237 107.988 400.321 107.345 400.955 106.061H404.032C403.615 107.329 402.856 108.371 401.755 109.189C400.671 109.989 399.32 110.39 397.702 110.39C396.384 110.39 395.2 110.098 394.149 109.514C393.115 108.913 392.297 108.079 391.697 107.012C391.113 105.928 390.821 104.677 390.821 103.259C390.821 101.841 391.105 100.598 391.672 99.5305C392.256 98.4463 393.065 97.6122 394.099 97.0284C395.15 96.4446 396.351 96.1527 397.702 96.1527C399.003 96.1527 400.162 96.4362 401.18 97.0034C402.197 97.5705 402.99 98.3712 403.557 99.4054C404.124 100.423 404.408 101.599 404.408 102.933ZM401.43 102.033C401.413 100.982 401.038 100.139 400.304 99.5055C399.57 98.8716 398.661 98.5547 397.577 98.5547C396.593 98.5547 395.75 98.8716 395.05 99.5055C394.349 100.123 393.932 100.965 393.799 102.033H401.43ZM410.067 98.3795C410.484 97.679 411.035 97.1368 411.719 96.7532C412.419 96.3528 413.245 96.1527 414.196 96.1527V99.1052H413.47C412.352 99.1052 411.502 99.3887 410.918 99.9559C410.351 100.523 410.067 101.507 410.067 102.908V110.165H407.215V96.3778H410.067V98.3795ZM429.453 102.933C429.453 103.451 429.42 103.918 429.353 104.335H418.819C418.903 105.436 419.311 106.32 420.045 106.987C420.779 107.654 421.68 107.988 422.748 107.988C424.282 107.988 425.367 107.345 426 106.061H429.078C428.661 107.329 427.902 108.371 426.801 109.189C425.717 109.989 424.366 110.39 422.748 110.39C421.43 110.39 420.246 110.098 419.195 109.514C418.16 108.913 417.343 108.079 416.743 107.012C416.159 105.928 415.867 104.677 415.867 103.259C415.867 101.841 416.15 100.598 416.718 99.5305C417.301 98.4463 418.11 97.6122 419.145 97.0284C420.196 96.4446 421.397 96.1527 422.748 96.1527C424.049 96.1527 425.208 96.4362 426.226 97.0034C427.243 97.5705 428.035 98.3712 428.603 99.4054C429.17 100.423 429.453 101.599 429.453 102.933ZM426.476 102.033C426.459 100.982 426.084 100.139 425.35 99.5055C424.616 98.8716 423.707 98.5547 422.623 98.5547C421.638 98.5547 420.796 98.8716 420.095 99.5055C419.395 100.123 418.978 100.965 418.844 102.033H426.476ZM431.31 103.209C431.31 101.824 431.593 100.598 432.16 99.5305C432.744 98.4629 433.528 97.6372 434.512 97.0534C435.513 96.4529 436.622 96.1527 437.84 96.1527C438.741 96.1527 439.625 96.3528 440.492 96.7532C441.377 97.1368 442.077 97.6539 442.594 98.3045V91.6488H445.472V110.165H442.594V108.088C442.127 108.755 441.477 109.305 440.643 109.739C439.825 110.173 438.883 110.39 437.815 110.39C436.614 110.39 435.513 110.089 434.512 109.489C433.528 108.872 432.744 108.021 432.16 106.937C431.593 105.836 431.31 104.593 431.31 103.209ZM442.594 103.259C442.594 102.308 442.394 101.482 441.994 100.782C441.61 100.081 441.101 99.5472 440.467 99.1802C439.834 98.8132 439.15 98.6298 438.416 98.6298C437.682 98.6298 436.998 98.8132 436.364 99.1802C435.73 99.5305 435.213 100.056 434.813 100.757C434.429 101.44 434.237 102.258 434.237 103.209C434.237 104.159 434.429 104.993 434.813 105.711C435.213 106.428 435.73 106.979 436.364 107.362C437.014 107.729 437.698 107.913 438.416 107.913C439.15 107.913 439.834 107.729 440.467 107.362C441.101 106.995 441.61 106.461 441.994 105.761C442.394 105.044 442.594 104.209 442.594 103.259ZM458.57 98.4296C459.054 97.7624 459.713 97.2202 460.547 96.8032C461.398 96.3695 462.34 96.1527 463.374 96.1527C464.592 96.1527 465.693 96.4446 466.677 97.0284C467.661 97.6122 468.437 98.4463 469.004 99.5305C469.571 100.598 469.855 101.824 469.855 103.209C469.855 104.593 469.571 105.836 469.004 106.937C468.437 108.021 467.653 108.872 466.652 109.489C465.668 110.089 464.575 110.39 463.374 110.39C462.307 110.39 461.356 110.181 460.522 109.764C459.705 109.347 459.054 108.813 458.57 108.163V110.165H455.718V91.6488H458.57V98.4296ZM466.952 103.209C466.952 102.258 466.752 101.44 466.352 100.757C465.968 100.056 465.451 99.5305 464.801 99.1802C464.167 98.8132 463.483 98.6298 462.749 98.6298C462.032 98.6298 461.348 98.8132 460.697 99.1802C460.063 99.5472 459.546 100.081 459.146 100.782C458.762 101.482 458.57 102.308 458.57 103.259C458.57 104.209 458.762 105.044 459.146 105.761C459.546 106.461 460.063 106.995 460.697 107.362C461.348 107.729 462.032 107.913 462.749 107.913C463.483 107.913 464.167 107.729 464.801 107.362C465.451 106.979 465.968 106.428 466.352 105.711C466.752 104.993 466.952 104.159 466.952 103.209ZM485.086 96.3778L476.629 116.645H473.676L476.479 109.939L471.049 96.3778H474.227L478.105 106.887L482.134 96.3778H485.086Z" fill="#0C1721"/>
<path d="M274.087 107.863H279.967V110.165H271.235V92.7748H274.087V107.863ZM288.333 110.39C287.032 110.39 285.856 110.098 284.805 109.514C283.754 108.913 282.928 108.079 282.328 107.012C281.727 105.928 281.427 104.677 281.427 103.259C281.427 101.857 281.736 100.615 282.353 99.5305C282.97 98.4463 283.812 97.6122 284.88 97.0284C285.948 96.4446 287.14 96.1527 288.458 96.1527C289.776 96.1527 290.969 96.4446 292.036 97.0284C293.104 97.6122 293.946 98.4463 294.563 99.5305C295.18 100.615 295.489 101.857 295.489 103.259C295.489 104.66 295.172 105.903 294.538 106.987C293.904 108.071 293.037 108.913 291.936 109.514C290.852 110.098 289.651 110.39 288.333 110.39ZM288.333 107.913C289.067 107.913 289.751 107.737 290.385 107.387C291.035 107.037 291.561 106.511 291.961 105.811C292.361 105.11 292.562 104.26 292.562 103.259C292.562 102.258 292.37 101.415 291.986 100.732C291.602 100.031 291.094 99.5055 290.46 99.1552C289.826 98.8049 289.142 98.6298 288.408 98.6298C287.674 98.6298 286.99 98.8049 286.356 99.1552C285.739 99.5055 285.247 100.031 284.88 100.732C284.513 101.415 284.33 102.258 284.33 103.259C284.33 104.743 284.705 105.894 285.456 106.712C286.223 107.512 287.182 107.913 288.333 107.913ZM303.638 107.612L307.542 96.3778H310.569L305.315 110.165H301.912L296.682 96.3778H299.735L303.638 107.612ZM325.361 102.933C325.361 103.451 325.328 103.918 325.261 104.335H314.727C314.81 105.436 315.219 106.32 315.953 106.987C316.687 107.654 317.588 107.988 318.655 107.988C320.19 107.988 321.274 107.345 321.908 106.061H324.986C324.569 107.329 323.81 108.371 322.709 109.189C321.625 109.989 320.273 110.39 318.655 110.39C317.338 110.39 316.153 110.098 315.102 109.514C314.068 108.913 313.251 108.079 312.65 107.012C312.066 105.928 311.775 104.677 311.775 103.259C311.775 101.841 312.058 100.598 312.625 99.5305C313.209 98.4463 314.018 97.6122 315.052 97.0284C316.103 96.4446 317.304 96.1527 318.655 96.1527C319.957 96.1527 321.116 96.4362 322.133 97.0034C323.151 97.5705 323.943 98.3712 324.51 99.4054C325.078 100.423 325.361 101.599 325.361 102.933ZM322.384 102.033C322.367 100.982 321.992 100.139 321.258 99.5055C320.524 98.8716 319.615 98.5547 318.53 98.5547C317.546 98.5547 316.704 98.8716 316.003 99.5055C315.303 100.123 314.886 100.965 314.752 102.033H322.384ZM331.296 106.737L328.268 113.643H326.417L328.193 106.737H331.296ZM504.222 106.612H496.941L495.69 110.165H492.713L498.943 92.7498H502.246L508.476 110.165H505.473L504.222 106.612ZM503.422 104.285L500.594 96.2027L497.742 104.285H503.422ZM512.636 94.5513C512.119 94.5513 511.685 94.3761 511.335 94.0258C510.985 93.6756 510.81 93.2419 510.81 92.7247C510.81 92.2076 510.985 91.7739 511.335 91.4236C511.685 91.0733 512.119 90.8982 512.636 90.8982C513.137 90.8982 513.562 91.0733 513.912 91.4236C514.262 91.7739 514.438 92.2076 514.438 92.7247C514.438 93.2419 514.262 93.6756 513.912 94.0258C513.562 94.3761 513.137 94.5513 512.636 94.5513ZM514.037 96.3778V110.165H511.185V96.3778H514.037Z" fill="#ED1C24"/>
<path d="M91.1386 98.8508L85.3258 93.6283C78.5777 87.5353 72.9988 82.2792 68.5892 77.8601C64.1795 73.441 60.6719 69.4739 58.0661 65.9587C55.4604 62.4435 53.6398 59.2129 52.6042 56.2668C51.5686 53.3208 51.0508 50.3078 51.0508 47.2278C51.0508 40.9339 53.1554 35.6779 57.3646 31.4597C61.5738 27.2414 66.8186 25.1323 73.0991 25.1323C76.5733 25.1323 79.8806 25.8688 83.0208 27.3419C86.161 28.8149 88.8669 30.8905 91.1386 33.5688C93.4102 30.8905 96.1161 28.8149 99.2564 27.3419C102.397 25.8688 105.704 25.1323 109.178 25.1323C115.459 25.1323 120.703 27.2414 124.913 31.4597C129.122 35.6779 131.226 40.9339 131.226 47.2278C131.226 50.3078 130.709 53.3208 129.673 56.2668C128.637 59.2129 126.817 62.4435 124.211 65.9587C121.605 69.4739 118.098 73.441 113.688 77.8601C109.278 82.2792 103.699 87.5353 96.9513 93.6283L91.1386 98.8508Z" fill="#ED1C24"/>
<rect width="15.9166" height="15.9166" rx="1.61427" transform="matrix(-0.707107 -0.707107 -0.707107 0.707107 53.5601 77.7222)" fill="#ED1C24"/>
<rect width="15.9166" height="15.9166" rx="1.61427" transform="matrix(-0.707107 -0.707107 -0.707107 0.707107 92.813 96.7427)" fill="#ED1C24"/>
<rect width="12.3663" height="12.3663" rx="1.61427" transform="matrix(-0.707107 -0.707107 -0.707107 0.707107 30.4854 77.7222)" fill="#ED1C24"/>
<rect width="12.3663" height="12.3663" rx="1.61427" transform="matrix(-0.707107 -0.707107 -0.707107 0.707107 69.7383 96.7427)" fill="#ED1C24"/>
<rect width="12.3663" height="12.3663" rx="1.61427" transform="matrix(-0.707107 -0.707107 -0.707107 0.707107 41.2534 62.2549)" fill="#ED1C24"/>
<rect width="14.1983" height="14.1983" rx="1.61427" transform="matrix(-0.707107 -0.707107 -0.707107 0.707107 53.0728 46.8721)" fill="#ED1C24"/>
<rect width="18.6929" height="18.6929" rx="1.61427" transform="matrix(-0.707107 -0.707107 -0.707107 0.707107 68.6592 62.2549)" fill="#ED1C24"/>
<rect width="8.50218" height="8.50218" rx="1.61427" transform="matrix(-0.707107 -0.707107 -0.707107 0.707107 28.9434 46.8721)" fill="#ED1C24"/>
<rect width="8.50218" height="8.50218" rx="1.61427" transform="matrix(-0.707107 -0.707107 -0.707107 0.707107 52.3262 31.1455)" fill="#ED1C24"/>
<rect width="8.50218" height="8.50218" rx="1.61427" transform="matrix(-0.707107 -0.707107 -0.707107 0.707107 68.6733 82.6978)" fill="#ED1C24"/>
<rect width="6.87048" height="6.87048" rx="1.61427" transform="matrix(-0.707107 -0.707107 -0.707107 0.707107 9.71631 46.8721)" fill="#ED1C24"/>
<rect width="6.87048" height="6.87048" rx="1.61427" transform="matrix(-0.707107 -0.707107 -0.707107 0.707107 9.71631 78.4512)" fill="#ED1C24"/>
<rect width="6.87048" height="6.87048" rx="1.61427" transform="matrix(-0.707107 -0.707107 -0.707107 0.707107 19.7134 93.834)" fill="#ED1C24"/>
<rect width="11.5221" height="11.5221" rx="1.61427" transform="matrix(-0.707107 -0.707107 -0.707107 0.707107 22.0229 62.6826)" fill="#ED1C24"/>
<rect width="2.69046" height="12.3761" transform="matrix(-4.37114e-08 -1 -1 4.37114e-08 35.4473 78.9414)" fill="#ED1C24"/>
<rect width="3.22855" height="13.4523" transform="matrix(-4.37114e-08 -1 -1 4.37114e-08 75.2642 98.8521)" fill="#ED1C24"/>
<rect width="3.22855" height="12.3761" transform="matrix(-4.37114e-08 -1 -1 4.37114e-08 35.4473 48.8062)" fill="#ED1C24"/>
<rect width="2.69046" height="13.4523" transform="matrix(-4.37114e-08 -1 -1 4.37114e-08 48.3599 63.874)" fill="#ED1C24"/>
<rect width="2.69046" height="12.3761" transform="matrix(-4.37114e-08 -1 -1 4.37114e-08 60.7363 32.1265)" fill="#ED1C24"/>
<rect width="2.69046" height="12.9142" transform="matrix(-4.37114e-08 -1 -1 4.37114e-08 76.8799 83.7842)" fill="#ED1C24"/>
<path d="M89.918 47.4644C101.437 17.8442 122.731 31.0087 131.939 41.2935C144.633 25.0729 159.952 29.2456 166.025 33.3595C185.067 56.3974 151.235 87.2321 131.939 99.7698C107.96 86.3702 93.9339 59.3163 89.918 47.4644Z" fill="white"/>
<path d="M131.646 107.999L125.084 102.129C117.467 95.2796 111.169 89.3714 106.191 84.4039C101.213 79.4365 97.2538 74.9771 94.3124 71.0257C91.3709 67.0743 89.3157 63.4428 88.1466 60.1312C86.9776 56.8196 86.3931 53.4327 86.3931 49.9705C86.3931 42.8957 88.7689 36.9874 93.5204 32.2458C98.272 27.5041 104.193 25.1333 111.282 25.1333C115.204 25.1333 118.938 25.9612 122.482 27.617C126.027 29.2728 129.082 31.606 131.646 34.6166C134.21 31.606 137.265 29.2728 140.81 27.617C144.355 25.9612 148.088 25.1333 152.01 25.1333C159.1 25.1333 165.02 27.5041 169.772 32.2458C174.523 36.9874 176.899 42.8957 176.899 49.9705C176.899 53.4327 176.315 56.8196 175.146 60.1312C173.977 63.4428 171.921 67.0743 168.98 71.0257C166.038 74.9771 162.079 79.4365 157.101 84.4039C152.123 89.3714 145.825 95.2796 138.208 102.129L131.646 107.999ZM131.646 95.8065C138.887 89.3337 144.845 83.783 149.521 79.1542C154.197 74.5255 157.893 70.4989 160.608 67.0743C163.323 63.6498 165.209 60.6016 166.265 57.9297C167.321 55.2578 167.849 52.6048 167.849 49.9705C167.849 45.4547 166.34 41.6914 163.323 38.6809C160.306 35.6703 156.535 34.165 152.01 34.165C148.465 34.165 145.184 35.1623 142.167 37.1568C139.151 39.1513 137.076 41.6914 135.945 44.7773H127.347C126.216 41.6914 124.142 39.1513 121.125 37.1568C118.108 35.1623 114.827 34.165 111.282 34.165C106.757 34.165 102.986 35.6703 99.969 38.6809C96.9521 41.6914 95.4437 45.4547 95.4437 49.9705C95.4437 52.6048 95.9716 55.2578 97.0275 57.9297C98.0834 60.6016 99.969 63.6498 102.684 67.0743C105.399 70.4989 109.095 74.5255 113.771 79.1542C118.447 83.783 124.406 89.3337 131.646 95.8065Z" fill="#ED1C24"/>
</svg>
