<svg width="314" height="310" viewBox="0 0 314 310" fill="none" xmlns="http://www.w3.org/2000/svg">
<g opacity="0.2">
<path d="M220.97 132.26C221.349 132.78 222.058 132.924 222.578 132.545C223.11 132.21 223.254 131.501 222.874 130.981C222.54 130.449 221.831 130.305 221.311 130.685C220.779 131.02 220.635 131.728 220.97 132.26Z" fill="url(#paint0_linear_850_5438)"/>
<path d="M153.939 74.0848C154.306 74.5601 155.015 74.7041 155.535 74.3247C156.112 73.9778 156.211 73.281 155.876 72.7491C155.541 72.2171 154.788 72.0852 154.313 72.4526C153.736 72.7994 153.649 73.5409 153.939 74.0848Z" fill="url(#paint1_linear_850_5438)"/>
<path d="M163.175 59.8704C163.497 60.3577 164.206 60.5017 164.738 60.1669C165.315 59.82 165.402 59.0786 165.067 58.5466C164.744 58.0593 163.979 57.8828 163.459 58.2622C162.927 58.597 162.795 59.3505 163.175 59.8704Z" fill="url(#paint2_linear_850_5438)"/>
<path d="M127.183 68.0385C127.473 68.5824 128.214 68.6698 128.702 68.347C129.266 67.9555 129.434 67.3359 129.043 66.7714C128.663 66.2515 127.954 66.1075 127.467 66.4303C126.947 66.8097 126.791 67.4739 127.183 68.0385Z" fill="url(#paint3_linear_850_5438)"/>
<path d="M89.0402 71.958C89.375 72.4899 90.0839 72.6339 90.6158 72.2991C91.1357 71.9197 91.2797 71.2108 90.9123 70.7355C90.5208 70.171 89.8566 70.015 89.3813 70.3824C88.8047 70.7292 88.7054 71.4261 89.0402 71.958Z" fill="url(#paint4_linear_850_5438)"/>
<path d="M100.146 215.795C99.7665 215.275 99.0577 215.131 98.5703 215.454C98.0058 215.845 97.9065 216.542 98.1967 217.086C98.5761 217.606 99.3296 217.738 99.8495 217.358C100.369 216.979 100.481 216.327 100.146 215.795Z" fill="url(#paint5_linear_850_5438)"/>
<path d="M145.905 249.553C146.38 249.185 146.536 248.521 146.201 247.989C145.822 247.469 145.146 247.269 144.593 247.705C144.061 248.04 143.917 248.749 144.252 249.28C144.676 249.788 145.385 249.932 145.905 249.553Z" fill="url(#paint6_linear_850_5438)"/>
<path d="M122.554 280.825C122.264 280.281 121.466 280.161 120.978 280.484C120.458 280.863 120.27 281.584 120.694 282.092C121.073 282.612 121.738 282.768 122.257 282.389C122.789 282.054 122.889 281.357 122.554 280.825Z" fill="url(#paint7_linear_850_5438)"/>
<path d="M162.478 102.222C161.934 102.512 161.79 103.221 162.181 103.786C162.516 104.318 163.257 104.405 163.7 104.094C164.22 103.715 164.421 103.039 164.029 102.474C163.694 101.942 162.997 101.843 162.478 102.222Z" fill="url(#paint8_linear_850_5438)"/>
<path d="M65.2405 102.632C65.8171 102.286 65.9164 101.589 65.6262 101.045C65.2142 100.582 64.4933 100.393 63.9854 100.817C63.4741 101.051 63.3421 101.804 63.6769 102.336C64.0117 102.868 64.7326 103.056 65.2405 102.632Z" fill="url(#paint9_linear_850_5438)"/>
<path d="M46.6183 107.223C46.2389 106.703 45.5301 106.559 45.0102 106.939C44.4782 107.274 44.3342 107.983 44.7137 108.502C45.0931 109.022 45.7693 109.223 46.2772 108.799C46.8092 108.464 46.9411 107.711 46.6183 107.223Z" fill="url(#paint10_linear_850_5438)"/>
<path d="M56.2984 149.89C55.9636 149.358 55.2101 149.226 54.7228 149.549C54.2029 149.929 54.0589 150.638 54.3937 151.169C54.7286 151.701 55.482 151.833 55.9573 151.466C56.5219 151.075 56.6332 150.422 56.2984 149.89Z" fill="url(#paint11_linear_850_5438)"/>
<path d="M70.4263 128.09C70.9582 127.755 71.0576 127.058 70.7228 126.526C70.388 125.994 69.6912 125.895 69.2038 126.218C68.6393 126.609 68.4833 127.274 68.8627 127.793C69.2096 128.37 69.9064 128.469 70.4263 128.09Z" fill="url(#paint12_linear_850_5438)"/>
<path d="M64.7406 76.449C65.12 76.9689 65.8289 77.1129 66.3488 76.7335C66.8807 76.3987 67.0247 75.6898 66.6453 75.1699C66.3225 74.6826 65.6016 74.494 65.1263 74.8614C64.5498 75.2082 64.4178 75.9617 64.7406 76.449Z" fill="url(#paint13_linear_850_5438)"/>
<path d="M44.2895 120.964C43.9547 120.432 43.2459 120.288 42.726 120.667C42.194 121.002 42.0501 121.711 42.4295 122.231C42.7969 122.706 43.5178 122.895 44.0051 122.572C44.525 122.193 44.6123 121.451 44.2895 120.964Z" fill="url(#paint14_linear_850_5438)"/>
<path d="M51.7943 62.5151C51.3069 62.8379 51.163 63.5467 51.5424 64.0667C51.8772 64.5986 52.5414 64.7546 53.0613 64.3752C53.6499 64.0729 53.7493 63.3761 53.4024 62.7996C53.0676 62.2676 52.3708 62.1683 51.7943 62.5151Z" fill="url(#paint15_linear_850_5438)"/>
<path d="M175.752 239.016C175.187 239.408 175.088 240.105 175.366 240.604C175.758 241.168 176.467 241.312 176.986 240.933C177.551 240.542 177.662 239.889 177.328 239.357C176.948 238.837 176.239 238.693 175.752 239.016Z" fill="url(#paint16_linear_850_5438)"/>
<path d="M224.143 225.359C223.623 225.739 223.435 226.459 223.814 226.979C224.149 227.511 224.89 227.599 225.378 227.276C225.91 226.941 226.098 226.22 225.719 225.7C225.339 225.18 224.631 225.036 224.143 225.359Z" fill="url(#paint17_linear_850_5438)"/>
<path d="M161.849 265.926C161.329 266.306 161.173 266.97 161.564 267.535C161.843 268.034 162.596 268.166 163.128 267.831C163.66 267.496 163.792 266.743 163.469 266.255C163.09 265.736 162.381 265.592 161.849 265.926Z" fill="url(#paint18_linear_850_5438)"/>
<path d="M85.7835 302.086C85.2962 302.409 85.1643 303.162 85.4991 303.694C85.8785 304.214 86.5873 304.358 87.1072 303.979C87.6392 303.644 87.7832 302.935 87.4037 302.415C87.0689 301.883 86.3721 301.784 85.7835 302.086Z" fill="url(#paint19_linear_850_5438)"/>
<path d="M62.7822 222.611C62.2623 222.991 62.1183 223.7 62.4977 224.22C62.8325 224.752 63.5294 224.851 64.0613 224.516C64.5932 224.181 64.7372 223.472 64.4024 222.94C63.9783 222.433 63.3021 222.232 62.7822 222.611Z" fill="url(#paint20_linear_850_5438)"/>
<path d="M89.8948 248.616C89.3629 248.951 89.2309 249.704 89.5983 250.18C89.9657 250.655 90.642 250.856 91.1173 250.488C91.6492 250.153 91.8378 249.433 91.4704 248.957C91.1682 248.369 90.4147 248.237 89.8948 248.616Z" fill="url(#paint21_linear_850_5438)"/>
<path d="M92.7736 43.3853C93.153 43.9052 93.8619 44.0492 94.3938 43.7144C94.9257 43.3795 95.0697 42.6707 94.6782 42.1062C94.3434 41.5742 93.602 41.4869 93.1147 41.8097C92.5827 42.1445 92.4388 42.8533 92.7736 43.3853Z" fill="url(#paint22_linear_850_5438)"/>
<path d="M29.4269 173.071C29.7617 173.603 30.5152 173.735 31.0351 173.355C31.5224 173.032 31.711 172.312 31.2869 171.804C30.9521 171.272 30.2553 171.172 29.768 171.495C29.2361 171.83 29.0921 172.539 29.4269 173.071Z" fill="url(#paint23_linear_850_5438)"/>
<path d="M37.6626 150.706C37.9853 151.193 38.6942 151.337 39.2587 150.946C39.746 150.623 39.89 149.914 39.5552 149.382C39.1878 148.907 38.5115 148.706 37.9916 149.086C37.4597 149.42 37.2831 150.186 37.6505 150.661L37.6626 150.706Z" fill="url(#paint24_linear_850_5438)"/>
<path d="M128.08 56.4576C127.572 56.8817 127.416 57.5459 127.796 58.0658C128.119 58.5531 128.884 58.7297 129.359 58.3623C129.891 58.0275 130.035 57.3187 129.701 56.7867C129.366 56.2548 128.657 56.1108 128.08 56.4576Z" fill="url(#paint25_linear_850_5438)"/>
<path fill-rule="evenodd" clip-rule="evenodd" d="M225.071 170.204C225.969 169.628 227.16 169.785 227.749 170.727C228.37 171.613 228.111 172.783 227.226 173.405C227.193 173.461 227.149 173.473 227.104 173.485L232.68 186.005C234.66 185.185 236.948 185.86 238.191 187.631C238.215 187.72 238.272 187.753 238.272 187.753L261.58 174.435C261.161 173.591 261.411 172.566 262.219 172.014C263.117 171.437 264.32 171.639 264.941 172.524C265.518 173.422 265.272 174.637 264.431 175.246C263.533 175.823 262.33 175.621 261.709 174.736L238.457 188.086C239.537 190.14 238.934 192.695 236.94 193.998C234.881 195.415 232.001 194.851 230.585 192.792C229.201 190.676 229.732 187.853 231.88 186.412C232.035 186.275 232.213 186.227 232.368 186.09L226.759 173.626C225.98 173.932 225.045 173.658 224.504 172.894C223.939 172.041 224.174 170.781 225.071 170.204ZM238.169 188.259L236.184 189.416C236.546 190.228 236.296 191.253 235.488 191.806C234.602 192.427 233.387 192.18 232.81 191.283C232.189 190.397 232.435 189.182 233.333 188.605C233.376 188.53 233.417 188.503 233.455 188.525L232.509 186.435C232.342 186.527 232.164 186.575 232.054 186.701C230.105 187.992 229.57 190.625 230.906 192.562C232.197 194.511 234.817 195.001 236.767 193.71C238.55 192.512 239.144 190.102 238.169 188.259ZM232.797 186.261L233.8 188.384C234.579 188.078 235.514 188.352 235.998 189.083L237.996 187.971C237.984 187.926 237.972 187.882 237.915 187.849C236.753 186.2 234.667 185.566 232.797 186.261Z" fill="url(#paint26_linear_850_5438)"/>
<path d="M100.064 197.918C99.487 197.02 98.2718 196.773 97.3864 197.395C96.9317 197.661 96.671 198.114 96.5681 198.621L79.105 196.866C79.086 196.441 79.0344 196.072 78.7597 195.763C78.1708 194.821 76.9677 194.619 76.1269 195.228C75.1849 195.817 74.938 197.032 75.6042 197.905C76.1365 198.815 77.3962 199.05 78.237 198.44C78.7243 198.117 78.9971 197.709 79.0879 197.158L96.5184 198.969C96.5374 199.395 96.6457 199.796 96.8637 200.072C97.4852 200.958 98.6558 201.217 99.5412 200.595C100.439 200.018 100.685 198.803 100.064 197.918Z" fill="url(#paint27_linear_850_5438)"/>
<path d="M218.911 187.474C218.289 186.588 217.119 186.329 216.189 186.963C215.791 187.262 215.53 187.715 215.415 188.176L197.94 186.377C197.99 186.029 197.837 185.639 197.595 185.274C197.03 184.421 195.815 184.174 194.929 184.796C194.032 185.373 193.785 186.588 194.362 187.485C194.983 188.371 196.186 188.573 197.084 187.996C197.527 187.685 197.832 187.22 197.902 186.77L215.365 188.525C215.372 188.906 215.481 189.307 215.666 189.64C216.288 190.526 217.491 190.728 218.388 190.151C219.286 189.574 219.532 188.359 218.911 187.474Z" fill="url(#paint28_linear_850_5438)"/>
<path d="M258.695 121.997C258.073 121.111 256.903 120.852 256.005 121.429C255.562 121.74 255.257 122.205 255.142 122.667L237.724 120.901C237.761 120.508 237.621 120.163 237.423 119.785C236.802 118.9 235.598 118.698 234.689 119.23C233.804 119.851 233.557 121.067 234.19 121.997C234.812 122.882 235.97 123.096 236.868 122.519C237.311 122.208 237.604 121.699 237.719 121.237L255.149 123.048C255.156 123.429 255.252 123.786 255.507 124.196C256.071 125.049 257.275 125.251 258.217 124.662C259.069 124.097 259.272 122.894 258.695 121.997Z" fill="url(#paint29_linear_850_5438)"/>
<path d="M50.9719 81.117C50.395 80.2196 49.1798 79.9728 48.3064 80.6389C47.8397 80.8604 47.5789 81.3136 47.4761 81.8199L30.013 80.0655C30.0506 79.6725 29.8978 79.283 29.6677 78.9621C29.0788 78.02 27.8636 77.7732 26.9456 78.4514C26.0928 79.0163 25.846 80.2314 26.4109 81.0842C27.0444 82.0143 28.2596 82.2611 29.145 81.6395C29.6443 81.3614 29.9051 80.9082 29.9633 80.4139L47.471 82.1563C47.4214 82.5047 47.5416 82.9509 47.7717 83.2718C48.3606 84.2138 49.5637 84.416 50.4166 83.8511C51.2899 83.185 51.5367 81.9698 50.9719 81.117Z" fill="url(#paint30_linear_850_5438)"/>
<path d="M125.843 81.9008C126.452 82.7416 127.623 83.0004 128.565 82.4115C129.417 81.8466 129.652 80.5868 129.031 79.7014C128.498 78.792 127.295 78.5898 126.341 79.1341C125.5 79.7436 125.254 80.9588 125.843 81.9008Z" fill="url(#paint31_linear_850_5438)"/>
<path fill-rule="evenodd" clip-rule="evenodd" d="M92.6184 132.823C91.2457 133.767 89.3783 133.409 88.422 131.992C88.1593 131.728 88.0752 131.415 88.003 131.148L58.9869 138.202C59.724 141.115 58.6848 144.362 56.0166 146.182C52.6053 148.441 48.0039 147.528 45.7564 144.161C43.4523 140.762 44.4224 136.193 47.6878 133.925C51.1437 131.654 55.7451 132.567 57.9926 135.934C58.3961 136.543 58.7223 137.221 58.9353 137.833L87.9188 130.835C87.7229 129.931 87.9973 128.995 88.6235 128.3L47.8765 89.6996C47.7547 89.7803 47.7221 89.8369 47.6449 89.9056C46.7475 90.4825 45.5323 90.2357 44.9228 89.3949C44.3459 88.4975 44.5807 87.2377 45.4781 86.6608C46.3635 86.0393 47.5787 86.2861 48.1436 87.1389C48.6277 87.8699 48.6006 88.8344 48.1082 89.4936L88.7985 128.062C88.9529 127.924 89.1073 127.787 89.1966 127.763C90.6465 126.75 92.5705 127.141 93.4822 128.57C94.4832 129.975 94.0804 131.855 92.6184 132.823ZM58.6626 138.242L56.9224 138.711C57.5408 140.65 56.7966 142.861 55.0257 144.104C52.8328 145.556 49.8515 144.972 48.399 142.779C46.9465 140.586 47.4863 137.617 49.7118 136.108C51.9048 134.655 54.874 135.195 56.3386 137.432C56.512 137.721 56.742 138.042 56.8262 138.354L58.5784 137.93C58.41 137.305 58.1078 136.716 57.6717 136.164C55.5496 132.907 51.1627 132.079 47.9625 134.234C44.7177 136.401 43.8899 140.788 46.0893 143.976C48.1994 147.188 52.5984 148.06 55.7985 145.906C58.3449 144.166 59.4202 141.053 58.6626 138.242Z" fill="url(#paint32_linear_850_5438)"/>
<path fill-rule="evenodd" clip-rule="evenodd" d="M140.731 40.8894C142.968 39.4249 145.905 40.0213 147.402 42.2022C148.867 44.4398 148.282 47.421 146.089 48.8736C145.436 49.2891 144.734 49.5261 144.085 49.6052L150.624 114.177C151.196 114.166 151.795 114.435 152.231 114.988C152.38 115.187 152.44 115.41 152.501 115.633L173.125 116.153C173.339 114.994 174.047 113.894 175.144 113.168C177.325 111.67 180.318 112.3 181.758 114.448C183.268 116.673 182.683 119.655 180.502 121.152C180.368 121.188 180.259 121.313 180.08 121.361L192.816 146.597C194.472 145.815 196.432 146.34 197.481 147.924C197.885 148.533 198.11 149.19 198.1 149.863L233.777 150.298C233.843 148.413 234.785 146.58 236.479 145.406C239.325 143.538 243.117 144.287 245.029 147.121C246.987 149.944 246.193 153.747 243.358 155.66C240.568 157.561 236.688 156.836 234.775 154.001C234.117 152.982 233.748 151.789 233.772 150.634L198.095 150.199C198.026 151.366 197.452 152.431 196.445 153.133C194.739 154.263 192.377 153.846 191.235 152.096C190.061 150.402 190.522 148.029 192.272 146.887C192.346 146.803 192.427 146.75 192.516 146.725L179.837 121.523C178.424 122.143 176.888 122.126 175.585 121.376L163.665 141.962C163.746 142.084 163.94 142.271 164.122 142.413C164.63 143.234 164.481 144.279 163.753 144.954L184.525 171.948C186.243 170.863 188.483 171.36 189.612 173.065C190.787 174.759 190.314 177.088 188.62 178.262C186.87 179.404 184.598 178.964 183.391 177.327L161.282 202.908C161.432 203.107 161.67 203.282 161.832 203.526C162.929 205.288 162.5 207.605 160.762 208.791C159.101 209.909 156.739 209.493 155.598 207.742C155.138 207.101 154.889 206.354 154.931 205.625L137.425 204.6C137.374 205.475 136.93 206.313 136.065 206.833C134.704 207.822 132.825 207.419 131.824 206.014C131.029 204.84 131.159 203.369 132.026 202.322L126.908 197.719C126.775 197.818 126.628 197.922 126.465 198.03C125.048 198.986 123.092 198.652 122.18 197.222C121.223 195.805 121.614 193.881 123.032 192.925C124.128 192.198 125.632 192.272 126.61 193.061L132.409 186.521C132.284 186.411 132.134 186.212 131.985 186.013C131.041 184.64 131.431 182.716 132.849 181.76C134.266 180.803 136.235 181.182 137.147 182.611C137.929 183.741 137.787 185.167 137.01 186.19L155.948 203.005C156.192 202.844 156.334 202.662 156.545 202.557C157.297 201.972 158.213 201.821 159.044 201.884L161.068 167.31L148.523 163.56C148.151 164.665 147.463 165.664 146.444 166.322C143.93 168.005 140.601 167.37 138.873 164.869C137.376 162.688 137.815 159.698 139.721 157.892L123.479 139.536C123.271 139.831 122.995 140.049 122.662 140.235C121.245 141.191 119.587 141.255 118.13 140.643L115.14 146.953C115.581 147.169 115.945 147.453 116.312 147.929C117.257 149.301 116.821 151.237 115.449 152.182C113.987 153.15 112.107 152.747 111.163 151.375C110.598 150.522 110.491 149.593 110.733 148.715L103.871 146.161C103.634 146.703 103.228 147.148 102.752 147.515C101.38 148.46 99.4556 148.069 98.4546 146.664C97.5429 145.234 97.9011 143.367 99.363 142.399C100.724 141.41 102.603 141.812 103.604 143.218C103.628 143.307 103.697 143.384 103.733 143.518L115.56 138.033C115.053 136.686 115.138 135.227 115.811 133.993L93.7173 126.068C93.5544 126.352 93.3468 126.647 93.0585 126.82C92.1611 127.397 90.958 127.195 90.3811 126.298C89.7149 125.424 89.9617 124.209 90.8471 123.588C91.4237 123.241 92.0844 123.206 92.5822 123.455L95.5273 117.157C95.1187 116.884 94.7548 116.6 94.4561 116.202C93.4877 114.74 93.9351 112.848 95.2958 111.859C96.6806 110.96 98.6372 111.294 99.5935 112.711C100.215 113.597 100.269 114.683 99.8929 115.598L105.243 118.224C105.353 118.099 105.418 117.985 105.483 117.872C106.06 117.525 106.757 117.624 107.148 118.189C107.438 118.733 107.327 119.385 106.852 119.753C106.275 120.099 105.623 119.988 105.199 119.48C105.058 119.135 105.018 118.811 105.092 118.552L99.742 115.926C99.5138 116.322 99.1844 116.698 98.7417 117.009C97.8563 117.63 96.7699 117.684 95.8431 117.264L92.9426 123.549C93.1692 123.68 93.4078 123.855 93.5933 124.187C93.904 124.63 93.9711 125.234 93.8237 125.753L115.917 133.677C116.3 133.143 116.784 132.63 117.36 132.283C118.445 131.512 119.819 131.286 121.034 131.532L141.241 49.1752C140.517 48.7961 139.935 48.2351 139.475 47.5933C137.978 45.4124 138.562 42.4312 140.731 40.8894ZM124.08 133.775C124.241 134.018 124.459 134.295 124.543 134.607L148.934 126.549L150.617 118.055C150.078 118.009 149.491 117.784 149.192 117.386L124.08 133.775ZM124.256 138.513L161.422 160.275L162.031 148.864C159.87 146.527 157.733 144.279 155.89 142.239L124.669 137.205C124.599 137.655 124.484 138.117 124.256 138.513ZM160.545 142.995L156.397 142.342C158.188 144.252 160.071 146.265 162.045 148.381L162.248 145.407C161.653 145.328 161.2 145.068 160.865 144.536C160.554 144.093 160.499 143.533 160.545 142.995ZM161.705 160.438L183.302 173.091C183.477 172.852 183.697 172.602 183.916 172.351C179.731 167.832 170.447 157.89 162.363 149.205L161.705 160.438ZM161.712 160.819L161.377 167.035L183.041 173.544C183.074 173.488 183.094 173.386 183.139 173.374L161.712 160.819ZM184.237 172.121L163.465 145.127C163.221 145.288 162.82 145.397 162.585 145.412L162.433 148.755C170.654 157.595 179.95 167.581 184.192 172.133L184.237 172.121ZM160.969 142.258L149.259 134.502C149.271 134.547 149.226 134.559 149.181 134.571C150.862 136.367 153.229 138.936 156.041 141.911L160.708 142.711C160.806 142.541 160.826 142.44 160.969 142.258ZM146.685 131.702C147.039 131.415 147.497 131.34 147.922 131.321L148.884 126.898L124.627 134.919C124.796 135.544 124.83 136.205 124.796 136.788L155.49 141.82C152.666 138.801 150.311 136.277 148.905 134.789C148.917 134.834 148.885 134.89 148.885 134.89C147.942 135.479 146.784 135.265 146.162 134.38C145.541 133.494 145.832 132.267 146.685 131.702ZM117.802 140.492C117.134 140.145 116.507 139.596 116.08 138.898C115.886 138.711 115.826 138.488 115.721 138.277L103.951 143.794C104.176 144.452 104.178 145.169 103.965 145.801L110.884 148.387C111.121 147.844 111.483 147.412 111.958 147.044C112.843 146.423 113.974 146.357 114.857 146.79L117.802 140.492ZM161.017 166.941L161.405 160.567L124.093 138.796C123.951 138.978 123.853 139.148 123.743 139.273L139.929 157.597C140.05 157.516 140.261 157.411 140.383 157.331C142.885 155.603 146.227 156.282 147.909 158.796C148.842 160.124 149.039 161.746 148.662 163.187L161.017 166.941ZM140.159 157.918L142.275 160.267C142.275 160.267 142.32 160.254 142.308 160.21C143.217 159.678 144.421 159.88 145.042 160.765C145.353 161.208 145.408 161.767 145.338 162.217L148.358 163.126C148.703 161.741 148.497 160.265 147.678 159.002C146.055 156.711 142.961 156.062 140.613 157.651C140.447 157.744 140.313 157.78 140.159 157.918ZM148.297 163.43L145.243 162.577C145.092 162.905 144.84 163.213 144.531 163.487C143.634 164.064 142.419 163.817 141.842 162.92C141.358 162.189 141.418 161.168 142.044 160.473L139.939 158.168C138.143 159.849 137.733 162.592 139.206 164.683C140.739 166.998 143.923 167.624 146.283 166.078C147.257 165.433 147.913 164.49 148.297 163.43ZM132.245 202.071C132.4 201.934 132.521 201.853 132.72 201.704C133.163 201.393 133.743 201.237 134.258 201.194L134.421 187.414C133.781 187.347 133.194 187.123 132.716 186.773L126.905 193.269C127.087 193.411 127.192 193.622 127.273 193.744C128.112 194.906 127.95 196.433 127.128 197.468L132.245 202.071ZM154.969 205.232C155.068 204.535 155.313 203.847 155.818 203.232L136.791 186.441C136.681 186.566 136.482 186.715 136.327 186.853C135.84 187.175 135.305 187.32 134.778 187.318L134.639 201.187C135.559 201.226 136.453 201.703 137.018 202.556C137.308 203.1 137.497 203.623 137.475 204.251L154.969 205.232ZM161.076 202.676L183.25 176.982C182.693 175.983 182.628 174.852 182.991 173.893L161.417 167.36L159.437 201.922C160.045 202.045 160.632 202.27 161.076 202.676ZM175.347 121.201C174.768 120.831 174.312 120.379 173.876 119.827C173.69 119.494 173.505 119.161 173.352 118.772L149.274 126.745L148.34 131.448C148.757 131.575 149.153 131.803 149.407 132.213C149.9 132.798 149.78 133.596 149.523 134.24L161.233 141.996C161.322 141.971 161.399 141.903 161.444 141.891C162.041 141.443 162.848 141.417 163.414 141.743L175.347 121.201ZM152.641 115.978C152.676 116.639 152.374 117.295 151.765 117.698C151.521 117.859 151.31 117.964 151.042 118.036L149.425 126.417L173.324 118.492C173.099 117.835 173.065 117.174 173.176 116.522L152.641 115.978ZM143.761 49.6448C143.055 49.6913 142.314 49.604 141.658 49.3021L121.395 131.627C122.431 131.922 123.317 132.544 123.995 133.462L149.007 117.053C148.486 116.189 148.745 115.018 149.643 114.441C149.809 114.348 149.976 114.256 150.166 114.252L142.666 101.341C140.945 102.236 138.851 101.747 137.733 100.086C136.571 98.4374 137.077 96.0518 138.77 94.8774C140.52 93.7356 142.837 94.164 144.024 95.9023C145.121 97.6645 144.693 99.9816 143.011 101.201C142.954 101.168 142.954 101.168 142.954 101.168L150.2 113.669L143.761 49.6448Z" fill="url(#paint33_linear_850_5438)"/>
<path fill-rule="evenodd" clip-rule="evenodd" d="M195.917 232.148C196.423 232.251 196.933 232.544 197.256 233.032C197.833 233.929 197.618 235.088 196.733 235.709C195.848 236.331 194.632 236.084 194.056 235.186C193.434 234.301 193.681 233.086 194.522 232.476C194.855 232.291 195.256 232.183 195.536 232.155L194.175 208.64C192.72 208.745 191.23 208.189 190.156 207.043L178.354 217.594C178.378 217.683 178.435 217.716 178.447 217.761C179.068 218.646 178.866 219.849 177.969 220.426C177.128 221.036 175.88 220.845 175.259 219.96C174.637 219.075 174.884 217.859 175.769 217.238C176.545 216.742 177.477 216.826 178.136 217.318L189.905 206.823C189.768 206.669 189.687 206.547 189.55 206.393C187.948 204.001 188.606 200.76 190.998 199.158C193.333 197.524 196.618 198.17 198.175 200.574C199.81 202.909 199.164 206.195 196.772 207.796C196.118 208.212 195.339 208.518 194.544 208.588L195.917 232.148ZM190.137 206.617L192.331 204.638C191.811 203.773 192.07 202.603 192.922 202.038C193.82 201.461 195.035 201.708 195.612 202.605C196.177 203.458 195.975 204.661 195.077 205.238C194.846 205.444 194.622 205.504 194.355 205.576L194.505 208.264C195.251 208.19 195.949 207.938 196.598 207.508C198.824 205.999 199.396 202.973 197.887 200.748C196.378 198.522 193.397 197.938 191.115 199.414C188.946 200.956 188.373 203.982 189.826 206.175C189.933 206.337 190.037 206.485 190.137 206.617ZM194.18 208.303L194.018 205.571C193.459 205.626 192.916 205.39 192.549 204.914L190.387 206.837C191.393 207.906 192.814 208.384 194.18 208.303Z" fill="url(#paint34_linear_850_5438)"/>
<path fill-rule="evenodd" clip-rule="evenodd" d="M116.631 206.471C117.078 208.84 115.596 211.154 113.183 211.612C111.24 212.04 109.294 211.033 108.488 209.288L80.4058 222.648C80.4179 222.693 80.3853 222.749 80.3973 222.794C80.521 223.431 80.1505 224.009 79.5258 224.178C78.9337 224.289 78.2986 223.886 78.1749 223.249C78.0632 222.657 78.4663 222.022 79.103 221.898C79.6058 221.811 80.047 222.027 80.2565 222.449L108.339 209.089C108.275 208.851 108.199 208.569 108.11 208.241C107.622 206.076 108.873 203.968 110.979 203.257L109.837 200.262C109.849 200.307 109.792 200.274 109.804 200.319C109.167 200.443 108.577 200.027 108.453 199.391C108.285 198.766 108.7 198.176 109.292 198.064C109.929 197.94 110.507 198.311 110.675 198.935C110.73 199.495 110.526 199.981 110.015 200.214L111.157 203.209C111.291 203.173 111.392 203.193 111.425 203.136C113.793 202.69 116.107 204.172 116.631 206.471ZM108.607 209.017L110.673 207.982C110.637 207.848 110.544 207.681 110.496 207.503C110.332 206.542 110.899 205.623 111.791 205.383L111.083 203.468C109.1 204.098 107.882 206.149 108.289 208.193C108.373 208.506 108.445 208.773 108.607 209.017ZM116.363 206.544C115.953 204.309 113.74 202.847 111.53 203.347C111.44 203.372 111.351 203.396 111.217 203.432L111.925 205.347C112.93 205.171 113.861 205.782 114.036 206.788C114.199 207.749 113.633 208.667 112.684 208.875C111.958 209.023 111.214 208.745 110.822 208.181L108.61 209.207C109.481 210.839 111.281 211.838 113.179 211.422C115.402 210.967 116.863 208.754 116.363 206.544Z" fill="url(#paint35_linear_850_5438)"/>
<path fill-rule="evenodd" clip-rule="evenodd" d="M174.154 83.5678C176.501 81.9779 179.649 82.4696 181.381 84.635L184.676 82.1198C184.143 81.2104 184.358 80.0519 185.255 79.475C186.152 78.8981 187.368 79.1449 187.932 79.9977C188.566 80.9277 188.307 82.0983 187.41 82.6752C186.602 83.228 185.512 83.091 184.894 82.3961L181.587 84.8667C181.644 84.8992 181.668 84.9885 181.68 85.0331C182.774 86.6049 182.865 88.5425 182.2 90.1576L209.038 102.547C209.201 102.263 209.388 102.069 209.632 101.908C210.505 101.242 211.72 101.489 212.342 102.374C212.918 103.272 212.672 104.487 211.786 105.108C210.945 105.718 209.686 105.483 209.109 104.585C208.729 104.066 208.695 103.405 208.875 102.83L182.049 90.4855C181.649 91.3111 181.035 92.0509 180.215 92.5592C177.745 94.2297 174.371 93.6077 172.688 91.0938C171.018 88.6246 171.685 85.2383 174.154 83.5678ZM181.335 85.1739L178.825 87.047C179.192 87.5223 179.227 88.183 179.034 88.7134L181.872 90.0067C182.517 88.4928 182.405 86.6565 181.404 85.2511C181.392 85.2065 181.38 85.1619 181.335 85.1739ZM174.327 83.8561C172.012 85.3893 171.431 88.561 172.977 90.9204C174.555 93.2232 177.694 93.8608 180.029 92.2263C180.76 91.7421 181.354 91.1035 181.721 90.3345L178.883 89.0413C178.753 89.2678 178.578 89.5064 178.29 89.6799C177.36 90.3134 176.189 90.0546 175.568 89.1692C174.979 88.2271 175.238 87.0566 176.123 86.4351C176.899 85.9389 177.944 86.0879 178.607 86.7708L181.105 84.8531C179.453 82.8095 176.565 82.3915 174.327 83.8561Z" fill="url(#paint36_linear_850_5438)"/>
<path fill-rule="evenodd" clip-rule="evenodd" d="M99.5755 177.283C97.0617 178.966 93.72 178.287 92.0048 175.83C90.8871 174.169 90.8608 172.118 91.6601 170.467L80.8189 164.87C80.6439 165.108 80.5015 165.29 80.2904 165.395C79.3038 165.996 78.1899 165.77 77.5237 164.896C76.9589 164.044 77.1731 162.885 77.9692 162.288L75.9724 159.141C75.3959 159.487 74.6098 159.412 73.9747 159.009L69.042 164.502C69.0661 164.591 69.0901 164.681 69.2034 164.746C69.7803 165.643 69.5335 166.858 68.6807 167.423C67.7953 168.045 66.5355 167.81 66.0032 166.901C65.3817 166.015 65.5839 164.812 66.4813 164.235C67.2003 163.706 68.1322 163.79 68.7347 164.25L73.7566 158.733C73.688 158.655 73.5301 158.602 73.506 158.513C72.9291 157.616 73.1313 156.412 74.0734 155.824C74.9588 155.202 76.1293 155.461 76.7388 156.302C77.3603 157.187 77.1461 158.346 76.3053 158.955L78.2575 162.114C79.1344 161.638 80.2037 161.877 80.7685 162.73C81.16 163.294 81.1945 163.955 80.9698 164.542L91.8111 170.139C92.1902 169.415 92.7392 168.788 93.5148 168.292C95.9394 166.633 99.3703 167.288 100.996 169.769C102.711 172.226 102.045 175.613 99.5755 177.283ZM99.4021 176.995C101.672 175.474 102.342 172.278 100.708 169.943C99.1747 167.628 95.991 167.002 93.6436 168.592C92.9898 169.008 92.4408 169.634 92.0943 170.302L94.8784 171.753C95.0088 171.527 95.1958 171.333 95.4395 171.171C96.2923 170.606 97.4954 170.808 98.1169 171.694C98.6938 172.591 98.4916 173.794 97.5942 174.371C96.7088 174.993 95.4936 174.746 94.8721 173.861C94.5253 173.284 94.4908 172.623 94.6708 172.048L91.9433 170.63C91.1646 172.18 91.2887 174.061 92.2931 175.656C93.871 177.959 97.0427 178.54 99.4021 176.995Z" fill="url(#paint37_linear_850_5438)"/>
<path fill-rule="evenodd" clip-rule="evenodd" d="M237.044 142.003C234.542 143.73 231.155 143.064 229.473 140.55C228.355 138.889 228.296 136.895 229.128 135.187L218.287 129.59C218.157 129.816 217.97 130.01 217.726 130.171C216.84 130.793 215.625 130.546 215.048 129.649C214.484 128.796 214.653 127.649 215.482 126.995L213.509 123.938C212.864 124.207 212.078 124.132 211.499 123.761L206.522 129.267C206.546 129.356 206.615 129.433 206.684 129.51C207.305 130.396 207.058 131.611 206.161 132.188C205.263 132.765 204.06 132.562 203.439 131.677C202.862 130.78 203.109 129.564 204.006 128.988C204.692 128.515 205.6 128.51 206.215 129.014L211.237 123.497C211.123 123.432 211.099 123.343 211.031 123.265C210.409 122.38 210.656 121.165 211.553 120.588C212.439 119.966 213.654 120.213 214.231 121.111C214.84 121.952 214.626 123.11 213.83 123.708L215.77 126.822C216.614 126.403 217.74 126.674 218.293 127.482C218.64 128.059 218.675 128.719 218.45 129.306L229.247 134.915C229.651 134.168 230.215 133.538 230.938 133.024C233.419 131.398 236.838 132.008 238.521 134.522C240.191 136.991 239.525 140.377 237.044 142.003ZM236.826 141.727C239.14 140.194 239.778 137.054 238.2 134.752C236.655 132.392 233.471 131.767 231.168 133.345C230.459 133.791 229.928 134.365 229.574 135.066L232.358 136.518C232.533 136.279 232.676 136.097 232.92 135.936C233.805 135.314 235.02 135.561 235.597 136.458C236.219 137.344 235.972 138.559 235.086 139.18C234.189 139.757 232.974 139.51 232.397 138.613C232.005 138.049 231.926 137.4 232.196 136.801L229.411 135.35C228.645 136.944 228.769 138.825 229.761 140.376C231.339 142.679 234.523 143.305 236.826 141.727Z" fill="url(#paint38_linear_850_5438)"/>
<path fill-rule="evenodd" clip-rule="evenodd" d="M127.3 275.526C121.31 279.581 113.075 277.972 109.076 272.015C105.021 266.024 106.642 257.834 112.677 253.767C113.774 253.04 115.007 252.468 116.346 252.108L111.654 235.233C108.514 236.367 104.918 235.278 103.005 232.443C100.713 229.089 101.627 224.487 104.981 222.195C108.393 219.936 112.938 220.817 115.242 224.216C116.404 225.865 116.71 227.888 116.34 229.711L132.213 234.622C132.352 234.249 132.559 233.954 132.969 233.7C133.766 233.103 135.037 233.382 135.647 234.223C136.268 235.108 135.92 236.303 135.08 236.912C134.239 237.522 133.024 237.275 132.414 236.434C132.136 235.935 132.004 235.444 132.107 234.938L116.29 230.059C115.839 231.76 114.793 233.382 113.209 234.431C112.855 234.718 112.389 234.94 111.967 235.149L116.646 251.979C121.935 250.649 127.677 252.595 130.824 257.347C134.879 263.337 133.258 271.527 127.3 275.526ZM111.57 234.921L110.431 230.873C109.214 231.153 107.939 230.683 107.213 229.586C106.257 228.169 106.659 226.29 108.065 225.289C109.494 224.377 111.361 224.735 112.362 226.141C112.859 226.916 112.953 227.8 112.744 228.622L116.036 229.649C116.374 227.883 116.002 225.973 114.953 224.389C112.754 221.201 108.456 220.349 105.167 222.528C101.967 224.683 101.127 229.025 103.326 232.213C105.17 234.971 108.564 236.018 111.57 234.921ZM115.93 229.965L112.682 228.926C112.47 229.558 112.064 230.066 111.466 230.45C111.311 230.588 111.011 230.716 110.743 230.789L111.915 234.78C112.248 234.595 112.67 234.385 113.023 234.099C114.575 233.106 115.556 231.597 115.93 229.965ZM127.082 275.25C132.918 271.332 134.465 263.401 130.535 257.52C127.436 252.947 121.841 251.01 116.742 252.336L118.435 258.437C120.901 257.82 123.552 258.78 125.062 261.006C127.007 263.784 126.181 267.644 123.391 269.544C120.601 271.445 116.708 270.676 114.795 267.841C112.939 265.039 113.632 261.215 116.511 259.29C116.998 258.967 117.554 258.722 118.122 258.521L116.385 252.432C115.136 252.769 113.992 253.317 112.806 254.067C106.982 258.03 105.434 265.961 109.397 271.784C113.27 277.632 121.258 279.213 127.082 275.25Z" fill="url(#paint39_linear_850_5438)"/>
<path fill-rule="evenodd" clip-rule="evenodd" d="M278.866 187.254C272.875 191.309 264.742 189.72 260.686 183.73C256.675 177.728 258.252 169.549 264.254 165.539C265.384 164.756 266.662 164.172 267.899 163.791L263.264 146.949C260.124 148.082 256.54 147.038 254.615 144.159C252.323 140.804 253.237 136.203 256.591 133.911C259.958 131.663 264.592 132.52 266.852 135.931C267.969 137.592 268.32 139.604 267.962 141.471L283.823 146.337C283.962 145.965 284.214 145.658 284.535 145.428C285.42 144.806 286.635 145.053 287.257 145.938C287.846 146.88 287.587 148.051 286.69 148.628C285.804 149.249 284.601 149.047 284.012 148.105C283.701 147.662 283.602 147.115 283.717 146.653L267.9 141.775C267.461 143.52 266.447 145.086 264.864 146.135C264.436 146.442 264.003 146.67 263.565 146.82L268.256 163.694C273.489 162.332 279.254 164.368 282.478 169.05C286.501 175.097 284.912 183.231 278.866 187.254ZM263.18 146.636L262.041 142.588C260.869 142.856 259.549 142.398 258.835 141.347C257.911 139.873 258.269 138.005 259.687 137.049C261.104 136.093 262.971 136.451 263.972 137.856C264.469 138.632 264.608 139.503 264.354 140.338L267.634 141.32C267.984 139.599 267.669 137.721 266.563 136.105C264.409 132.905 260.022 132.077 256.81 134.187C253.577 136.398 252.737 140.741 254.904 143.985C256.736 146.698 260.218 147.722 263.18 146.636ZM267.572 141.624L264.292 140.641C264.068 141.228 263.697 141.807 263.121 142.154C262.877 142.315 262.621 142.432 262.41 142.537L263.48 146.508C263.915 146.343 264.28 146.101 264.646 145.859C266.14 144.834 267.121 143.325 267.572 141.624ZM278.692 186.965C284.573 183.035 286.108 175.06 282.157 169.28C279.091 164.651 273.451 162.725 268.352 164.051L270 170.164C272.466 169.547 275.162 170.496 276.615 172.689C278.572 175.511 277.835 179.347 274.956 181.272C272.166 183.173 268.318 182.391 266.417 179.601C264.505 176.766 265.286 172.918 268.121 171.006C268.608 170.683 269.152 170.393 269.688 170.248L267.995 164.148C266.758 164.529 265.557 165.044 264.473 165.815C258.592 169.745 257.044 177.676 260.963 183.512C264.881 189.348 272.868 190.928 278.692 186.965Z" fill="url(#paint40_linear_850_5438)"/>
<path fill-rule="evenodd" clip-rule="evenodd" d="M70.3008 61.736C72.894 61.9464 74.8409 64.1976 74.6545 66.8801C74.528 68.5414 73.4454 70.0297 72.0006 70.7063L76.2921 80.4138C76.4705 80.3657 76.7503 80.3382 76.9528 80.3793C77.8727 80.4186 78.5835 81.2799 78.4996 82.2118C78.4604 83.1318 77.6763 83.7738 76.801 83.7226L76.3779 86.9475C77.0301 87.0589 77.5434 87.5427 77.6792 88.224L84.1388 87.153C84.1594 87.0518 84.1473 87.0072 84.1679 86.9059C84.2517 85.974 85.0685 85.2752 85.9438 85.3265C86.9323 85.4429 87.5744 86.2271 87.4906 87.159C87.4634 88.1235 86.6346 88.7776 85.7027 88.6938C84.9287 88.6631 84.3587 88.1467 84.1663 87.4328L77.7839 88.4351C77.7428 88.6376 77.7548 88.6822 77.7222 88.7389C77.6384 89.6708 76.8783 90.4021 75.9018 90.3303C74.9578 90.2019 74.3037 89.3731 74.4321 88.4291C74.4508 87.6105 75.2109 86.8792 76.0862 86.9304L76.5212 83.7501C75.6991 83.541 75.069 82.8014 75.1649 81.9141C75.1545 81.3426 75.5044 80.8654 76.0604 80.6199L71.7003 70.8351C71.0671 71.1493 70.3291 71.2525 69.4984 71.1892C66.9052 70.9789 64.9909 68.671 65.2339 66.0211C65.3997 63.4399 67.6955 61.481 70.3008 61.736ZM70.2717 61.9832C67.8243 61.7813 65.6503 63.6595 65.4811 66.0502C65.2346 68.5097 67.1127 70.6836 69.6048 70.8734C70.2449 70.9402 70.9709 70.7924 71.5268 70.5468L70.4278 68.0672C70.2493 68.1153 70.0262 68.1754 69.7791 68.1463C68.8471 68.0624 68.1364 67.2011 68.2322 66.3138C68.3041 65.3372 69.1328 64.6831 70.0647 64.767C70.9521 64.8628 71.728 65.6109 71.5996 66.5548C71.5328 67.195 71.2274 67.6602 70.7727 67.9263L71.7825 70.43C73.2274 69.7535 74.2122 68.4351 74.3507 66.8184C74.5526 64.371 72.7757 62.2176 70.2717 61.9832Z" fill="url(#paint41_linear_850_5438)"/>
</g>
<path d="M212.882 144.158C213.148 144.613 213.699 144.704 214.141 144.393C214.551 144.139 214.642 143.588 214.388 143.178C214.122 142.723 213.526 142.644 213.116 142.898C212.718 143.197 212.583 143.76 212.882 144.158Z" fill="url(#paint42_linear_850_5438)"/>
<path d="M160.141 98.3557C160.35 98.7778 160.934 98.812 161.356 98.6025C161.709 98.3158 161.89 97.7408 161.591 97.3427C161.292 96.9446 160.741 96.8538 160.319 97.0633C159.966 97.35 159.83 97.913 160.141 98.3557Z" fill="url(#paint43_linear_850_5438)"/>
<path d="M167.371 87.17C167.669 87.5681 168.188 87.7155 168.541 87.4288C169.008 87.2073 169.075 86.5671 168.865 86.145C168.522 85.7589 167.959 85.6235 167.605 85.9102C167.207 86.2089 167.072 86.7719 167.371 87.17Z" fill="url(#paint44_linear_850_5438)"/>
<path d="M128.487 66.4934C128.786 66.8915 129.304 67.0389 129.747 66.7282C130.113 66.4861 130.305 65.9557 129.937 65.4804C129.74 65.1029 129.132 64.9795 128.722 65.2336C128.324 65.5324 128.233 66.0833 128.487 66.4934Z" fill="url(#paint45_linear_850_5438)"/>
<path d="M110.535 100.579C110.745 101.001 111.296 101.092 111.706 100.838C112.148 100.527 112.284 99.964 111.941 99.578C111.686 99.1678 111.135 99.077 110.782 99.3637C110.315 99.5853 110.236 100.181 110.535 100.579Z" fill="url(#paint46_linear_850_5438)"/>
<path d="M117.748 209.908C117.494 209.498 116.899 209.42 116.444 209.686C116.09 209.972 115.943 210.491 116.209 210.945C116.508 211.344 117.071 211.479 117.469 211.18C117.924 210.914 118.014 210.363 117.748 209.908Z" fill="url(#paint47_linear_850_5438)"/>
<path d="M153.736 236.528C154.134 236.229 154.237 235.723 154.016 235.256C153.672 234.87 153.166 234.767 152.756 235.021C152.346 235.275 152.21 235.838 152.476 236.293C152.775 236.691 153.326 236.782 153.736 236.528Z" fill="url(#paint48_linear_850_5438)"/>
<path d="M135.424 261.089C135.125 260.691 134.574 260.6 134.164 260.854C133.721 261.165 133.63 261.716 133.884 262.126C134.183 262.524 134.746 262.66 135.144 262.361C135.554 262.107 135.645 261.556 135.424 261.089Z" fill="url(#paint49_linear_850_5438)"/>
<path d="M166.736 120.51C166.428 120.785 166.292 121.348 166.534 121.713C166.845 122.156 167.408 122.291 167.818 122.037C168.216 121.739 168.352 121.176 168.041 120.733C167.787 120.323 167.236 120.232 166.736 120.51Z" fill="url(#paint50_linear_850_5438)"/>
<path d="M90.2633 120.877C90.7181 120.611 90.7969 120.016 90.4981 119.618C90.244 119.207 89.681 119.072 89.283 119.371C88.8403 119.681 88.7821 120.176 89.0482 120.63C89.3469 121.029 89.8653 121.176 90.2633 120.877Z" fill="url(#paint51_linear_850_5438)"/>
<path d="M75.6305 124.485C75.3198 124.042 74.7242 123.963 74.3707 124.25C73.916 124.516 73.8252 125.067 74.1239 125.465C74.378 125.875 74.9856 125.999 75.3391 125.712C75.7938 125.446 75.828 124.862 75.6305 124.485Z" fill="url(#paint52_linear_850_5438)"/>
<path d="M83.2395 158.041C82.9408 157.643 82.3778 157.508 81.9797 157.806C81.5696 158.061 81.4788 158.612 81.7003 159.078C82.0317 159.42 82.55 159.567 82.9927 159.256C83.4028 159.002 83.4936 158.451 83.2395 158.041Z" fill="url(#paint53_linear_850_5438)"/>
<path d="M94.372 140.924C94.7701 140.625 94.8489 140.03 94.6514 139.652C94.3527 139.254 93.7451 139.131 93.3916 139.417C92.8923 139.696 92.8461 140.234 93.1002 140.645C93.4109 141.087 93.9619 141.178 94.372 140.924Z" fill="url(#paint54_linear_850_5438)"/>
<path d="M91.3896 104.11C91.7003 104.553 92.2513 104.644 92.6614 104.39C93.1041 104.079 93.1503 103.54 92.8962 103.13C92.5854 102.687 92.0345 102.596 91.6244 102.85C91.2383 103.194 91.1475 103.745 91.3896 104.11Z" fill="url(#paint55_linear_850_5438)"/>
<path d="M64.5079 132.218C64.2092 131.82 63.7029 131.717 63.2928 131.972C62.838 132.238 62.7472 132.789 63.0134 133.243C63.2555 133.609 63.863 133.732 64.2611 133.434C64.6712 133.179 64.762 132.628 64.5079 132.218Z" fill="url(#paint56_linear_850_5438)"/>
<path d="M77.4974 74.5911C77.0753 74.8006 76.9965 75.3961 77.2386 75.7616C77.5493 76.2043 78.1003 76.2951 78.5104 76.041C78.9205 75.7869 79.0559 75.224 78.7451 74.7813C78.4584 74.4278 77.9401 74.2803 77.4974 74.5911Z" fill="url(#paint57_linear_850_5438)"/>
<path d="M177.248 228.234C176.838 228.488 176.702 229.051 176.956 229.461C177.267 229.904 177.863 229.983 178.216 229.696C178.671 229.43 178.774 228.924 178.508 228.469C178.209 228.071 177.646 227.935 177.248 228.234Z" fill="url(#paint58_linear_850_5438)"/>
<path d="M215.366 217.483C214.911 217.749 214.82 218.3 215.074 218.71C215.328 219.12 215.936 219.243 216.346 218.989C216.744 218.69 216.88 218.127 216.593 217.774C216.327 217.319 215.719 217.196 215.366 217.483Z" fill="url(#paint59_linear_850_5438)"/>
<path d="M166.348 249.404C165.893 249.67 165.814 250.266 166.056 250.631C166.412 251.062 166.918 251.165 167.328 250.911C167.726 250.612 167.862 250.049 167.563 249.651C167.297 249.196 166.701 249.117 166.348 249.404Z" fill="url(#paint60_linear_850_5438)"/>
<path d="M106.493 277.882C106.038 278.148 105.992 278.687 106.246 279.097C106.5 279.508 107.063 279.643 107.505 279.332C107.928 279.123 107.962 278.539 107.696 278.084C107.442 277.674 106.891 277.584 106.493 277.882Z" fill="url(#paint61_linear_850_5438)"/>
<path d="M88.3325 215.298C87.979 215.585 87.799 216.16 88.0977 216.558C88.3518 216.968 88.9594 217.092 89.3575 216.793C89.7676 216.539 89.903 215.976 89.6043 215.578C89.3502 215.168 88.7426 215.044 88.3325 215.298Z" fill="url(#paint62_linear_850_5438)"/>
<path d="M109.692 235.769C109.282 236.023 109.147 236.586 109.401 236.996C109.699 237.394 110.307 237.518 110.673 237.276C111.115 236.965 111.206 236.414 110.907 236.016C110.653 235.606 110.09 235.47 109.692 235.769Z" fill="url(#paint63_linear_850_5438)"/>
<path d="M113.464 78.0586C113.731 78.5133 114.294 78.6487 114.736 78.338C115.102 78.0959 115.237 77.5329 114.938 77.1348C114.628 76.6921 114.109 76.5447 113.699 76.7988C113.301 77.0975 113.19 77.7497 113.464 78.0586Z" fill="url(#paint64_linear_850_5438)"/>
<path d="M62.0839 176.333C62.326 176.699 62.889 176.834 63.3437 176.568C63.7418 176.269 63.788 175.73 63.5785 175.308C63.2231 174.878 62.7168 174.775 62.3187 175.074C61.9086 175.328 61.7732 175.891 62.0839 176.333Z" fill="url(#paint65_linear_850_5438)"/>
<path d="M52.7861 161.177C53.0728 161.531 53.6357 161.666 54.0338 161.368C54.4439 161.113 54.5794 160.55 54.3252 160.14C54.0145 159.698 53.4756 159.651 53.0655 159.906C52.7 160.148 52.5199 160.723 52.7861 161.177Z" fill="url(#paint66_linear_850_5438)"/>
<path d="M139.757 84.5124C139.347 84.7665 139.268 85.362 139.51 85.7275C139.776 86.1823 140.327 86.2731 140.782 86.0069C141.18 85.7082 141.283 85.2019 140.96 84.7146C140.706 84.3045 140.155 84.2136 139.757 84.5124Z" fill="url(#paint67_linear_850_5438)"/>
<path fill-rule="evenodd" clip-rule="evenodd" d="M216.097 174.021C216.783 173.549 217.739 173.722 218.178 174.465C218.695 175.139 218.477 176.107 217.791 176.579C217.759 176.636 217.747 176.591 217.714 176.648L222.074 186.433C223.632 185.821 225.446 186.337 226.415 187.799C226.415 187.799 226.471 187.832 226.484 187.876L244.81 177.385C244.484 176.707 244.705 175.93 245.347 175.47C246.033 174.998 246.989 175.171 247.461 175.857C247.945 176.588 247.772 177.544 247.086 178.016C246.343 178.456 245.431 178.271 244.959 177.584L226.645 188.12C227.459 189.719 226.958 191.769 225.452 192.749C223.803 193.911 221.575 193.459 220.469 191.843C219.339 190.137 219.747 187.921 221.408 186.803C221.575 186.711 221.697 186.63 221.875 186.582L217.402 176.732C216.801 176.99 216.068 176.756 215.665 176.147C215.192 175.461 215.366 174.505 216.097 174.021ZM226.401 188.281L224.814 189.14C225.14 189.818 224.886 190.652 224.289 191.1C223.591 191.528 222.635 191.355 222.163 190.668C221.679 189.937 221.908 189.014 222.538 188.509C222.639 188.53 222.627 188.485 222.717 188.461L221.935 186.805C221.813 186.886 221.692 186.966 221.57 187.047C220.075 188.072 219.619 190.109 220.656 191.649C221.693 193.188 223.763 193.587 225.302 192.55C226.72 191.594 227.179 189.747 226.401 188.281ZM222.248 186.721L222.928 188.356C223.585 188.131 224.273 188.376 224.709 188.929L226.272 187.981C226.228 187.993 226.228 187.993 226.204 187.904C225.284 186.62 223.627 186.158 222.248 186.721Z" fill="url(#paint68_linear_850_5438)"/>
<path d="M117.695 195.852C117.223 195.165 116.267 194.992 115.569 195.42C115.248 195.65 115.02 196.046 114.925 196.407L101.202 195.032C101.211 194.711 101.116 194.417 100.917 194.152C100.445 193.466 99.5333 193.28 98.7903 193.72C98.1039 194.192 97.9309 195.148 98.3584 195.847C98.8872 196.566 99.8432 196.739 100.53 196.266C100.895 196.024 101.091 195.684 101.173 195.279L114.908 196.698C114.929 197.012 115.009 197.309 115.149 197.591C115.621 198.277 116.622 198.438 117.308 197.966C117.994 197.494 118.135 196.595 117.695 195.852Z" fill="url(#paint69_linear_850_5438)"/>
<path d="M213.63 185.114C213.101 184.395 212.19 184.21 211.459 184.694C211.138 184.925 210.898 185.276 210.803 185.637L197.08 184.262C197.142 183.959 197.013 183.658 196.839 183.37C196.367 182.684 195.411 182.511 194.725 182.983C193.994 183.467 193.853 184.366 194.293 185.109C194.765 185.796 195.721 185.969 196.407 185.497C196.773 185.254 196.969 184.915 197.063 184.554L210.786 185.929C210.814 186.208 210.853 186.533 211.071 186.809C211.543 187.495 212.467 187.725 213.186 187.196C213.884 186.769 214.102 185.801 213.63 185.114Z" fill="url(#paint70_linear_850_5438)"/>
<path d="M251.101 125.962C250.617 125.231 249.661 125.058 249.019 125.518C248.642 125.715 248.414 126.112 248.331 126.517L234.596 125.098C234.613 124.806 234.529 124.494 234.311 124.217C233.883 123.519 232.915 123.301 232.241 123.818C231.51 124.302 231.337 125.258 231.809 125.945C232.281 126.631 233.193 126.816 233.924 126.332C234.289 126.09 234.485 125.75 234.579 125.39L248.302 126.764C248.297 127.1 248.369 127.368 248.543 127.656C249.06 128.331 249.983 128.56 250.714 128.076C251.388 127.559 251.561 126.603 251.101 125.962Z" fill="url(#paint71_linear_850_5438)"/>
<path d="M66.6321 89.1477C66.2046 88.4493 65.2365 88.2316 64.5056 88.7158C64.1521 89.0025 63.9565 89.3424 63.8296 89.7595L50.0822 88.2959C50.1886 87.98 50.0151 87.6918 49.8863 87.3915C49.337 86.7738 48.4136 86.544 47.7393 87.0608C46.9962 87.5004 46.8111 88.4117 47.2953 89.1427C47.8121 89.8171 48.7355 90.0468 49.4665 89.5626C49.7753 89.2879 50.0275 88.9806 50.1098 88.5756L63.8005 90.0066C63.8281 90.2864 63.8676 90.6107 64.1423 90.9196C64.5012 91.5407 65.5138 91.7464 66.2448 91.2622C66.8865 90.8021 67.0596 89.8461 66.6321 89.1477Z" fill="url(#paint72_linear_850_5438)"/>
<path d="M127.499 77.3847C127.984 78.1157 128.895 78.3008 129.614 77.772C130.312 77.3444 130.473 76.3438 130.001 75.6575C129.562 74.9145 128.618 74.786 127.854 75.3268C127.144 75.7097 127.015 76.6537 127.499 77.3847Z" fill="url(#paint73_linear_850_5438)"/>
<path fill-rule="evenodd" clip-rule="evenodd" d="M103.43 143.458C102.334 144.184 100.815 143.876 100.044 142.791C99.9394 142.58 99.8346 142.369 99.7745 142.146L76.9519 147.675C77.5326 150.007 76.7266 152.522 74.5783 153.962C71.898 155.737 68.3092 155.03 66.5459 152.394C64.726 149.726 65.4218 146.092 68.102 144.317C70.7377 142.554 74.3711 143.25 76.0898 145.897C76.4504 146.406 76.6988 146.914 76.8351 147.419L99.7023 141.878C99.5991 141.14 99.7877 140.419 100.203 139.829L68.1492 109.51C68.072 109.579 68.0274 109.591 67.9948 109.647C67.3084 110.12 66.3524 109.947 65.8682 109.216C65.3961 108.529 65.5812 107.618 66.2676 107.146C66.9985 106.662 67.9425 106.79 68.4147 107.476C68.7855 108.142 68.7308 108.827 68.3362 109.316L100.447 139.668C100.524 139.599 100.589 139.486 100.711 139.405C101.852 138.667 103.371 138.975 104.097 140.072C104.835 141.213 104.527 142.732 103.43 143.458ZM76.6721 147.703L75.3335 148.063C75.7991 149.613 75.2589 151.338 73.797 152.306C72.0587 153.493 69.7417 153.064 68.5433 151.281C67.4015 149.531 67.8866 147.247 69.6248 146.06C71.3184 144.886 73.6475 145.359 74.8339 147.097C75.0399 147.329 75.1 147.552 75.2168 147.808L76.6 147.435C76.4351 147.001 76.2015 146.489 75.9354 146.035C74.2082 143.533 70.7652 142.833 68.2634 144.561C65.7496 146.243 65.0503 149.686 66.745 152.245C68.4722 154.746 71.8705 155.458 74.4169 153.719C76.3988 152.371 77.2288 149.945 76.6721 147.703Z" fill="url(#paint74_linear_850_5438)"/>
<path fill-rule="evenodd" clip-rule="evenodd" d="M149.725 72.303C151.451 71.072 153.78 71.545 154.91 73.2506C156.052 75.0009 155.636 77.3625 153.942 78.5369C153.41 78.8717 152.887 79.0606 152.327 79.1157L157.448 129.903C157.975 129.904 158.473 130.153 158.727 130.563C158.82 130.73 158.925 130.941 158.973 131.119L175.2 131.484C175.385 130.572 175.919 129.711 176.771 129.146C178.522 128.004 180.883 128.42 182.025 130.171C183.167 131.921 182.738 134.238 181 135.424C180.923 135.493 180.801 135.574 180.712 135.598L190.704 155.447C191.97 154.818 193.57 155.248 194.377 156.467C194.7 156.954 194.856 157.534 194.855 158.061L222.941 158.388C223.014 156.885 223.728 155.448 225.056 154.516C227.293 153.051 230.275 153.635 231.784 155.861C233.293 158.087 232.721 161.112 230.483 162.577C228.257 164.086 225.276 163.502 223.767 161.276C223.17 160.48 222.962 159.531 222.968 158.668L194.87 158.296C194.831 159.216 194.342 160.066 193.534 160.619C192.194 161.506 190.371 161.136 189.439 159.808C188.539 158.423 188.909 156.6 190.237 155.668C190.326 155.644 190.359 155.587 190.448 155.563L180.456 135.714C179.389 136.194 178.145 136.194 177.08 135.619L167.747 151.775C167.929 151.917 168.009 152.039 168.09 152.161C168.506 152.815 168.398 153.657 167.813 154.15L184.164 175.396C185.516 174.553 187.294 174.935 188.17 176.231C189.069 177.616 188.711 179.483 187.371 180.371C186.031 181.258 184.22 180.933 183.3 179.649L165.901 199.797C166.038 199.952 166.119 200.074 166.269 200.273C167.213 201.645 166.887 203.456 165.47 204.412C164.085 205.312 162.307 204.93 161.375 203.602C160.951 203.094 160.839 202.502 160.873 201.918L147.071 201.139C147.016 201.824 146.658 202.447 146.061 202.895C144.964 203.622 143.413 203.37 142.719 202.217C142.041 201.299 142.166 200.164 142.801 199.323L138.799 195.663C138.677 195.744 138.612 195.857 138.446 195.95C137.361 196.721 135.798 196.425 135.104 195.271C134.333 194.187 134.654 192.713 135.738 191.942C136.623 191.32 137.79 191.389 138.587 192.035L143.121 186.841C143.053 186.764 142.928 186.654 142.891 186.52C142.064 185.403 142.328 183.896 143.514 183.146C144.643 182.363 146.129 182.728 146.9 183.812C147.477 184.71 147.352 185.844 146.806 186.661L161.71 199.874C161.82 199.749 162.019 199.599 162.173 199.462C162.738 199.07 163.464 198.923 164.104 198.989L165.669 171.766L155.829 168.819C155.542 169.709 154.973 170.437 154.165 170.99C152.227 172.326 149.55 171.803 148.303 169.842C147.06 168.071 147.399 165.778 148.887 164.372L136.135 149.909C135.948 150.103 135.716 150.309 135.517 150.459C134.376 151.197 133.01 151.278 131.869 150.772L129.605 155.69C129.944 155.885 130.162 156.162 130.437 156.47C131.175 157.612 130.912 159.118 129.77 159.857C128.686 160.628 127.167 160.319 126.441 159.223C125.981 158.581 125.922 157.831 126.111 157.11L120.694 155.124C120.51 155.509 120.181 155.885 119.827 156.171C118.731 156.898 117.167 156.601 116.441 155.505C115.67 154.42 115.979 152.901 117.063 152.13C118.204 151.392 119.711 151.656 120.449 152.797C120.506 152.83 120.575 152.907 120.554 153.008L129.881 148.724C129.503 147.677 129.559 146.465 130.024 145.526L112.692 139.286C112.618 139.545 112.386 139.751 112.187 139.9C111.4 140.352 110.533 140.155 110.016 139.48C109.544 138.794 109.762 137.826 110.493 137.342C110.858 137.1 111.361 137.012 111.79 137.183L114.099 132.254C113.714 132.07 113.508 131.839 113.234 131.53C112.54 130.377 112.804 128.87 113.945 128.131C115.029 127.361 116.56 127.714 117.331 128.798C117.759 129.496 117.841 130.336 117.519 131.093L121.748 133.111C121.814 132.998 121.891 132.93 122.013 132.849C122.366 132.562 122.929 132.698 123.228 133.096C123.482 133.506 123.436 134.045 123.038 134.343C122.583 134.61 122.032 134.519 121.766 134.064C121.56 133.832 121.589 133.585 121.663 133.326L117.433 131.307C117.238 131.647 116.986 131.954 116.653 132.14C115.978 132.657 115.082 132.707 114.415 132.36L112.061 137.302C112.231 137.4 112.425 137.587 112.563 137.741C112.829 138.196 112.892 138.609 112.778 139.071L130.154 145.3C130.46 144.834 130.846 144.491 131.288 144.18C132.186 143.603 133.236 143.416 134.148 143.601L150.123 78.7525C149.524 78.4832 149.023 78.044 148.676 77.4674C147.547 75.7618 147.963 73.4001 149.725 72.303ZM136.635 145.372C136.74 145.583 136.832 145.749 136.892 145.972L156.147 139.634L157.504 132.951C157.034 132.982 156.593 132.766 156.274 132.469L136.635 145.372ZM136.725 149.08L165.949 166.235L166.458 157.291C164.753 155.406 163.084 153.654 161.642 152.032L137.065 148.032C137.015 148.38 136.888 148.797 136.725 149.08ZM165.353 152.659L162.047 152.115C163.453 153.602 164.94 155.212 166.495 156.898L166.62 154.52C166.182 154.494 165.786 154.266 165.499 153.912C165.302 153.535 165.226 153.077 165.353 152.659ZM166.232 166.398L183.217 176.321C183.347 176.095 183.519 175.905 183.733 175.751C180.384 172.203 173.112 164.4 166.708 157.511L166.232 166.398ZM166.182 166.746L165.957 171.593L182.988 176.718C183.033 176.706 183.054 176.605 183.098 176.593L166.182 166.746ZM183.932 175.602L167.581 154.356C167.382 154.506 167.114 154.578 166.834 154.605L166.725 157.219C173.197 164.185 180.583 172.054 183.887 175.614C183.887 175.614 183.902 175.61 183.932 175.602ZM165.545 152.129L156.42 145.974C156.387 146.03 156.298 146.054 156.31 146.099C157.68 147.453 159.51 149.448 161.683 151.83L165.337 152.424C165.447 152.299 165.48 152.242 165.545 152.129ZM154.294 143.771C154.672 143.573 154.984 143.489 155.333 143.539L156.053 139.995L136.932 146.297C137.076 146.832 137.119 147.347 137.061 147.841L161.234 151.76C159.004 149.345 157.186 147.395 156.099 146.204C156.123 146.293 156.078 146.305 156.034 146.317C155.303 146.801 154.391 146.616 153.964 145.918C153.435 145.199 153.563 144.255 154.294 143.771ZM131.621 150.743C131.063 150.447 130.581 150.019 130.174 149.458C130.138 149.324 130.046 149.158 129.908 149.003L120.626 153.276C120.916 153.82 120.927 154.391 120.779 154.91L126.152 156.908C126.335 156.523 126.564 156.127 127.063 155.848C127.761 155.421 128.6 155.338 129.313 155.673L131.621 150.743ZM165.609 171.543L165.887 166.538L136.518 149.376C136.464 149.534 136.343 149.614 136.233 149.74L149.041 164.235C149.107 164.121 149.228 164.041 149.395 163.948C151.344 162.657 154.01 163.135 155.313 165.129C156.027 166.181 156.173 167.434 155.914 168.604L165.609 171.543ZM149.179 164.389L150.884 166.275C150.872 166.23 150.872 166.23 150.916 166.218C151.603 165.746 152.558 165.919 153.031 166.605C153.273 166.971 153.292 167.397 153.254 167.79L155.599 168.498C155.882 167.416 155.759 166.253 155.102 165.234C153.835 163.374 151.372 162.937 149.5 164.159C149.422 164.228 149.345 164.296 149.179 164.389ZM155.57 168.745L153.18 168.049C153.062 168.32 152.899 168.603 152.599 168.732C151.912 169.204 151.013 169.064 150.484 168.345C150.081 167.736 150.156 166.95 150.64 166.436L149.036 164.571C147.581 165.92 147.397 168.076 148.413 169.717C149.68 171.577 152.155 172.058 153.971 170.803C154.69 170.274 155.36 169.567 155.57 168.745ZM142.955 199.186C143.109 199.048 143.175 198.935 143.296 198.854C143.707 198.6 144.108 198.492 144.534 198.473L144.615 187.587C144.133 187.573 143.647 187.369 143.328 187.072L138.736 192.234C138.906 192.332 138.942 192.466 139.068 192.576C139.669 193.563 139.633 194.673 138.941 195.481L142.955 199.186ZM160.801 201.651C160.936 201.088 161.084 200.569 161.446 200.137L146.53 186.879C146.42 187.005 146.355 187.118 146.189 187.211C145.778 187.465 145.377 187.573 144.951 187.592L144.813 198.446C145.498 198.5 146.178 198.891 146.683 199.521C146.937 199.931 147.069 200.422 147.1 200.892L160.801 201.651ZM165.561 199.602L183.037 179.385C182.642 178.63 182.548 177.746 182.858 176.945L165.883 171.852L164.351 199.019C164.768 199.145 165.197 199.317 165.561 199.602ZM176.809 135.501C176.356 135.24 176.013 134.854 175.702 134.411C175.54 134.168 175.367 133.879 175.295 133.612L156.296 139.833L155.624 143.556C155.928 143.618 156.179 143.837 156.409 144.158C156.732 144.645 156.799 145.249 156.493 145.715L165.72 151.89C165.797 151.822 165.886 151.798 165.874 151.753C166.362 151.43 166.978 151.408 167.476 151.657L176.809 135.501ZM158.956 131.411C158.987 131.881 158.705 132.436 158.263 132.746C158.052 132.851 157.873 132.899 157.695 132.947L156.37 139.574L175.178 133.356C175.046 132.865 174.991 132.306 175.094 131.799L158.956 131.411ZM152.015 79.1999C151.399 79.2224 150.848 79.1315 150.305 78.8949L134.374 143.732C135.152 143.953 135.912 144.466 136.441 145.185L156.08 132.282C155.697 131.571 155.837 130.672 156.58 130.232C156.69 130.107 156.812 130.026 157.047 130.011L151.067 119.897C149.723 120.594 148.091 120.221 147.272 118.958C146.283 117.597 146.641 115.73 148.014 114.785C149.41 113.93 151.221 114.256 152.165 115.629C153.053 116.969 152.683 118.791 151.355 119.724C151.31 119.736 151.322 119.78 151.322 119.78L157.117 129.561L152.015 79.1999Z" fill="url(#paint75_linear_850_5438)"/>
<path fill-rule="evenodd" clip-rule="evenodd" d="M193.157 222.795C193.562 222.878 193.914 223.118 194.156 223.483C194.673 224.158 194.455 225.126 193.769 225.598C193.083 226.07 192.127 225.897 191.655 225.211C191.17 224.48 191.343 223.524 192.087 223.084C192.286 222.935 192.586 222.806 192.833 222.835L191.81 204.302C190.623 204.335 189.416 203.942 188.604 203.06L179.306 211.357C179.351 211.345 179.375 211.434 179.387 211.479C179.903 212.153 179.686 213.121 178.999 213.593C178.313 214.066 177.357 213.893 176.885 213.206C176.401 212.475 176.586 211.564 177.317 211.08C177.837 210.7 178.611 210.731 179.1 211.126L188.41 202.873C188.329 202.751 188.204 202.641 188.168 202.508C186.901 200.648 187.358 198.083 189.23 196.861C191.135 195.582 193.655 196.051 194.922 197.911C196.201 199.816 195.699 202.392 193.827 203.615C193.25 203.962 192.694 204.207 192.045 204.286L193.157 222.795ZM188.642 202.667L190.34 201.156C189.913 200.458 190.098 199.547 190.829 199.062C191.515 198.59 192.471 198.763 192.911 199.506C193.383 200.193 193.21 201.149 192.523 201.621C192.357 201.714 192.146 201.818 191.911 201.834L192.107 203.982C192.622 203.939 193.178 203.694 193.665 203.371C195.46 202.217 195.909 199.799 194.723 198.061C193.536 196.323 191.163 195.862 189.412 197.003C187.674 198.19 187.225 200.608 188.4 202.302C188.436 202.435 188.573 202.59 188.642 202.667ZM191.815 203.965L191.676 201.849C191.25 201.868 190.821 201.697 190.49 201.355L188.791 202.866C189.624 203.647 190.696 204.076 191.815 203.965Z" fill="url(#paint76_linear_850_5438)"/>
<path fill-rule="evenodd" clip-rule="evenodd" d="M97.8168 217.093C98.1639 218.914 96.9871 220.763 95.1337 221.167C93.5926 221.486 92.0752 220.651 91.4227 219.295L69.3188 229.799C69.3308 229.844 69.3103 229.945 69.3103 229.945C69.4426 230.436 69.0926 230.913 68.6464 231.033C68.1436 231.121 67.6663 230.771 67.5907 230.313C67.4584 229.822 67.8084 229.345 68.3112 229.257C68.6682 229.161 69.0527 229.345 69.2381 229.677L91.342 219.173C91.2698 218.906 91.1771 218.739 91.105 218.471C90.7493 216.796 91.7717 215.085 93.3539 214.563L92.4814 212.214L92.4368 212.226C91.9906 212.346 91.4688 212.008 91.3811 211.505C91.2608 211.059 91.5988 210.537 92.057 210.461C92.5598 210.374 93.025 210.679 93.1127 211.182C93.2655 211.572 93.0374 211.968 92.6153 212.178L93.5324 214.515C93.6216 214.491 93.6662 214.479 93.7555 214.455C95.6209 214.096 97.425 215.284 97.8168 217.093ZM91.4518 219.048L93.197 218.243C93.1283 218.165 93.0922 218.032 92.9995 217.865C92.8517 217.139 93.2875 216.447 94.046 216.243L93.4466 214.729C91.909 215.24 90.9518 216.838 91.2955 218.468C91.311 218.703 91.4157 218.914 91.4518 219.048ZM97.6383 217.141C97.2585 215.377 95.5677 214.253 93.7915 214.589C93.7469 214.601 93.6131 214.637 93.5684 214.649L94.1798 216.207C94.9058 216.059 95.6542 216.527 95.814 217.298C95.9738 218.068 95.4609 218.829 94.7349 218.977C94.1429 219.088 93.5559 218.864 93.2897 218.409L91.5445 219.214C92.185 220.525 93.6458 221.328 95.1302 220.976C96.8944 220.596 98.0181 218.905 97.6383 217.141Z" fill="url(#paint77_linear_850_5438)"/>
<path fill-rule="evenodd" clip-rule="evenodd" d="M175.997 105.856C177.857 104.588 180.353 104.969 181.673 106.671L184.338 104.66C183.877 104.019 184.05 103.063 184.737 102.591C185.48 102.151 186.391 102.336 186.863 103.022C187.336 103.709 187.162 104.665 186.443 105.194C185.778 105.565 184.98 105.445 184.454 104.916L181.867 106.858C181.879 106.903 181.903 106.992 181.947 106.98C182.766 108.243 182.884 109.743 182.324 111.042L203.464 120.755C203.562 120.585 203.749 120.391 203.948 120.242C204.634 119.77 205.602 119.987 206.03 120.686C206.547 121.36 206.329 122.328 205.643 122.8C204.956 123.273 203.988 123.055 203.516 122.368C203.229 122.015 203.219 121.443 203.378 120.97L182.206 111.313C181.892 111.924 181.42 112.482 180.767 112.898C178.785 114.245 176.152 113.711 174.861 111.761C173.537 109.869 174.092 107.135 175.997 105.856ZM181.635 107.064L179.689 108.546C179.955 109 179.986 109.471 179.86 109.888L182.053 110.924C182.592 109.726 182.487 108.27 181.704 107.141C181.692 107.097 181.692 107.097 181.635 107.064ZM176.134 106.01C174.319 107.265 173.849 109.785 175.06 111.612C176.282 113.484 178.79 113.909 180.674 112.731C181.226 112.295 181.666 111.794 181.979 111.183L179.741 110.159C179.587 110.296 179.456 110.523 179.257 110.672C178.571 111.144 177.603 110.927 177.131 110.24C176.647 109.509 176.832 108.598 177.518 108.126C178.16 107.666 179.015 107.818 179.495 108.359L181.474 106.82C180.202 105.297 177.897 104.913 176.134 106.01Z" fill="url(#paint78_linear_850_5438)"/>
<path fill-rule="evenodd" clip-rule="evenodd" d="M117.298 179.634C115.349 180.926 112.671 180.403 111.336 178.466C110.46 177.17 110.408 175.557 111 174.201L102.546 169.827C102.448 169.997 102.249 170.146 102.095 170.283C101.364 170.768 100.351 170.562 99.9803 169.896C99.5528 169.198 99.6366 168.266 100.266 167.761L98.7537 165.345C98.2097 165.635 97.6021 165.512 97.1249 165.162L93.2372 169.56C93.2612 169.649 93.3625 169.67 93.3745 169.714C93.9033 170.433 93.6736 171.357 92.9872 171.829C92.2562 172.313 91.3003 172.14 90.8281 171.454C90.3885 170.711 90.5736 169.799 91.26 169.327C91.8245 168.936 92.5539 168.978 92.9986 169.385L96.943 165.019C96.931 164.975 96.8056 164.865 96.8503 164.853C96.3215 164.134 96.5392 163.166 97.1809 162.706C97.9119 162.222 98.9125 162.383 99.2954 163.093C99.7796 163.824 99.6717 164.667 98.9974 165.184L100.567 167.632C101.2 167.318 102.111 167.503 102.527 168.157C102.837 168.6 102.791 169.139 102.709 169.544L111.175 173.962C111.501 173.396 111.895 172.907 112.504 172.503C114.454 171.212 117.131 171.735 118.422 173.684C119.758 175.621 119.235 178.299 117.298 179.634ZM117.181 179.379C118.997 178.124 119.434 175.661 118.223 173.833C116.968 172.018 114.493 171.536 112.621 172.759C112.089 173.094 111.695 173.583 111.357 174.105L113.574 175.23C113.729 175.093 113.827 174.923 114.038 174.818C114.724 174.346 115.68 174.519 116.152 175.205C116.592 175.948 116.451 176.848 115.765 177.32C115.034 177.804 114.122 177.619 113.606 176.944C113.34 176.49 113.284 175.93 113.501 175.489L111.283 174.364C110.7 175.574 110.728 177.098 111.579 178.304C112.79 180.132 115.321 180.646 117.181 179.379Z" fill="url(#paint79_linear_850_5438)"/>
<path fill-rule="evenodd" clip-rule="evenodd" d="M233.54 143.375C231.591 144.666 228.913 144.144 227.622 142.194C226.702 140.911 226.65 139.298 227.298 137.974L218.788 133.567C218.679 133.756 218.529 133.909 218.337 134.024C217.65 134.496 216.694 134.323 216.21 133.592C215.738 132.906 215.923 131.994 216.565 131.534L215.04 129.074C214.484 129.319 213.856 129.297 213.423 128.935L209.479 133.301C209.525 133.352 209.589 133.414 209.673 133.488C210.1 134.186 209.927 135.142 209.229 135.569C208.543 136.042 207.542 135.881 207.07 135.194C206.642 134.496 206.815 133.54 207.502 133.068C208.066 132.676 208.808 132.764 209.285 133.114L213.229 128.748C213.173 128.716 213.104 128.638 213.035 128.561C212.608 127.863 212.793 126.951 213.479 126.479C214.198 125.95 215.122 126.18 215.594 126.866C216.054 127.508 215.881 128.464 215.239 128.924L216.808 131.373C217.43 131.014 218.308 131.256 218.724 131.91C219.035 132.352 219.078 132.867 218.906 133.296L227.428 137.748C227.754 137.181 228.194 136.68 228.746 136.244C230.74 134.941 233.373 135.475 234.664 137.425C236 139.362 235.477 142.039 233.54 143.375ZM233.378 143.132C235.25 141.909 235.675 139.402 234.465 137.574C233.21 135.759 230.735 135.277 228.908 136.487C228.388 136.867 227.936 137.324 227.643 137.833L229.816 138.971C229.971 138.833 230.113 138.651 230.267 138.514C231.01 138.074 231.922 138.26 232.439 138.934C232.878 139.677 232.693 140.588 232.019 141.105C231.288 141.589 230.32 141.371 229.847 140.685C229.581 140.23 229.538 139.716 229.742 139.23L227.525 138.105C226.942 139.315 227.014 140.827 227.821 142.045C229.043 143.917 231.563 144.387 233.378 143.132Z" fill="url(#paint80_linear_850_5438)"/>
<path fill-rule="evenodd" clip-rule="evenodd" d="M82.3497 79.9842C84.6959 80.1654 86.4161 82.2862 86.2228 84.5878C86.0722 86.1599 85.1321 87.4662 83.8536 88.05L87.6815 96.9253C87.9372 96.8086 88.1603 96.7484 88.3182 96.8016C89.1935 96.8528 89.8236 97.5924 89.7157 98.4351C89.697 99.2537 88.9901 99.8271 88.1835 99.8531L87.8547 102.718C88.4177 102.853 88.8743 103.304 88.974 103.852L94.7969 102.904C94.7729 102.815 94.7609 102.771 94.7694 102.625C94.8773 101.782 95.6288 101.197 96.4715 101.304C97.3022 101.368 97.9323 102.107 97.8124 102.905C97.8503 103.757 97.0662 104.399 96.1789 104.303C95.4941 104.248 95.0254 103.752 94.8691 103.172L89.0462 104.119C89.0582 104.164 89.0256 104.221 89.0171 104.367C88.9984 105.185 88.2589 105.815 87.339 105.776C86.5409 105.656 85.9555 104.905 86.0308 104.119C86.0494 103.3 86.801 102.714 87.563 102.7L87.8917 99.836C87.1708 99.6474 86.6541 98.9731 86.6281 98.1665C86.731 97.6601 87.093 97.2276 87.4584 96.9855L83.61 88.2114C83.0094 88.469 82.3607 88.5481 81.6433 88.5501C79.3297 88.3121 77.5323 86.26 77.7582 83.9019C77.9395 81.5557 80.0036 79.8029 82.3497 79.9842ZM82.3327 80.2759C80.1324 80.1032 78.1781 81.7307 77.9487 83.8984C77.8326 86.1312 79.5047 88.0735 81.6929 88.2017C82.2885 88.2804 82.8806 88.1687 83.5378 87.9437L82.4543 85.6992C82.3324 85.7799 82.0647 85.852 81.9068 85.7989C81.0195 85.703 80.3448 84.9755 80.4853 84.0762C80.5606 83.2901 81.2555 82.6721 82.1308 82.7233C82.9615 82.7866 83.6036 83.5707 83.4957 84.4134C83.4821 84.8957 83.1767 85.3609 82.7546 85.5704L83.7489 87.839C84.9827 87.2671 85.9023 86.0621 85.9877 84.6033C86.205 82.391 84.5329 80.4487 82.3327 80.2759Z" fill="url(#paint81_linear_850_5438)"/>
<path fill-rule="evenodd" clip-rule="evenodd" d="M139.149 256.975C134.397 260.122 127.985 258.883 124.805 254.188C121.614 249.449 122.897 243.025 127.592 239.845C128.522 239.212 129.468 238.813 130.494 238.537L126.764 225.232C124.37 226.116 121.52 225.305 119.998 223.035C118.235 220.399 118.931 216.766 121.611 214.991C124.247 213.227 127.824 213.89 129.643 216.559C130.519 217.854 130.749 219.419 130.518 220.87L143.01 224.777C143.072 224.474 143.291 224.223 143.535 224.062C144.209 223.545 145.177 223.763 145.694 224.437C146.122 225.135 145.949 226.091 145.262 226.563C144.531 227.048 143.62 226.863 143.148 226.176C142.861 225.823 142.842 225.397 142.924 224.992L130.456 221.173C130.1 222.514 129.294 223.784 128.031 224.603C127.754 224.821 127.422 225.007 127.077 225.147L130.75 238.42C134.822 237.37 139.357 238.924 141.891 242.644C145.127 247.371 143.843 253.795 139.149 256.975ZM126.704 225.008L125.85 221.841C124.901 222.048 123.93 221.64 123.32 220.8C122.594 219.703 122.858 218.196 123.942 217.425C125.083 216.687 126.59 216.951 127.329 218.092C127.72 218.656 127.823 219.394 127.7 220.002L130.214 220.808C130.514 219.435 130.219 217.983 129.4 216.72C127.661 214.174 124.218 213.474 121.76 215.19C119.214 216.929 118.559 220.36 120.197 222.886C121.682 225.022 124.399 225.869 126.704 225.008ZM130.141 221.067L127.626 220.261C127.422 220.747 127.105 221.167 126.662 221.478C126.496 221.571 126.284 221.676 126.106 221.724L127.004 224.88C127.305 224.751 127.593 224.577 127.881 224.404C129.144 223.585 129.873 222.384 130.141 221.067ZM138.943 256.743C143.56 253.632 144.803 247.411 141.692 242.793C139.238 239.195 134.805 237.662 130.777 238.699L132.165 243.494C134.051 243.034 136.161 243.757 137.347 245.496C138.856 247.721 138.284 250.747 136.046 252.212C133.821 253.721 130.75 253.16 129.286 250.923C127.776 248.697 128.405 245.704 130.631 244.195C131.029 243.896 131.463 243.731 131.853 243.578L130.554 238.76C129.528 239.036 128.639 239.467 127.709 240.101C123.079 243.167 121.95 249.454 125.004 254.039C128.059 258.624 134.37 259.842 138.943 256.743Z" fill="url(#paint82_linear_850_5438)"/>
<path fill-rule="evenodd" clip-rule="evenodd" d="M263.354 178.174C258.672 181.399 252.247 180.115 249.011 175.388C245.876 170.681 247.103 164.224 251.854 161.077C252.74 160.455 253.718 160 254.7 159.736L251.059 146.407C248.633 147.348 245.77 146.492 244.249 144.222C242.497 141.631 243.181 137.953 245.817 136.19C248.497 134.414 252.13 135.11 253.906 137.79C254.737 139.098 255.056 140.639 254.736 142.113L267.248 145.92C267.367 145.649 267.542 145.41 267.83 145.237C268.472 144.777 269.484 144.982 269.912 145.681C270.384 146.367 270.211 147.323 269.512 147.751C268.781 148.235 267.882 148.094 267.398 147.363C267.156 146.998 267.104 146.629 267.187 146.224L254.707 142.361C254.362 143.746 253.544 144.971 252.293 145.835C252.005 146.008 251.627 146.206 251.282 146.347L254.967 159.664C259.117 158.545 263.663 160.143 266.141 163.831C269.333 168.57 268.049 174.994 263.354 178.174ZM250.999 146.184L250.101 143.028C249.152 143.236 248.192 142.872 247.571 141.987C246.844 140.89 247.108 139.383 248.249 138.645C249.378 137.862 250.853 138.183 251.636 139.312C252.027 139.876 252.074 140.582 251.918 141.246L254.465 141.995C254.72 140.634 254.514 139.158 253.65 137.907C251.967 135.393 248.537 134.739 245.978 136.433C243.42 138.128 242.765 141.559 244.492 144.061C245.945 146.254 248.65 147.056 250.999 146.184ZM254.448 142.287L251.888 141.493C251.729 141.967 251.355 142.355 250.957 142.653C250.758 142.803 250.579 142.851 250.368 142.956L251.255 146.067C251.555 145.938 251.855 145.809 252.176 145.579C253.35 144.784 254.124 143.571 254.448 142.287ZM263.25 177.963C267.822 174.864 269.053 168.598 265.954 164.025C263.488 160.382 259.055 158.849 255.039 159.931L256.383 164.738C258.301 164.221 260.467 164.977 261.597 166.683C263.118 168.953 262.534 171.934 260.308 173.443C258.083 174.953 255.057 174.38 253.536 172.11C252.039 169.929 252.656 166.891 254.881 165.382C255.247 165.14 255.714 164.918 256.16 164.798L254.816 159.991C253.835 160.256 252.857 160.711 252.016 161.32C247.431 164.375 246.2 170.641 249.299 175.214C252.366 179.844 258.62 181.03 263.25 177.963Z" fill="url(#paint83_linear_850_5438)"/>
<path d="M260.665 177.14L259.394 176.47C257.917 175.687 256.684 175 255.698 174.409C254.711 173.818 253.904 173.267 253.277 172.754C252.65 172.242 252.174 171.743 251.849 171.26C251.524 170.776 251.287 170.256 251.137 169.699C250.83 168.561 250.943 167.512 251.473 166.551C252.004 165.59 252.819 164.962 253.918 164.665C254.526 164.502 255.14 164.479 255.761 164.597C256.382 164.715 256.957 164.963 257.485 165.34C257.752 164.749 258.124 164.246 258.602 163.831C259.079 163.417 259.622 163.128 260.23 162.964C261.329 162.668 262.349 162.802 263.291 163.366C264.233 163.93 264.857 164.781 265.164 165.919C265.314 166.475 265.37 167.044 265.332 167.626C265.295 168.207 265.133 168.877 264.849 169.635C264.564 170.393 264.144 171.276 263.588 172.283C263.032 173.289 262.312 174.502 261.428 175.922L260.665 177.14Z" fill="#24FFFF"/>
<path d="M246.739 147.791L246.11 147.481C245.379 147.118 244.77 146.799 244.282 146.525C243.795 146.251 243.396 145.994 243.087 145.754C242.778 145.515 242.544 145.281 242.386 145.053C242.227 144.825 242.112 144.579 242.041 144.316C241.896 143.777 241.959 143.277 242.23 142.817C242.5 142.356 242.911 142.052 243.46 141.904C243.764 141.822 244.07 141.807 244.379 141.859C244.687 141.911 244.972 142.025 245.233 142.201C245.37 141.918 245.558 141.677 245.799 141.477C246.04 141.276 246.312 141.135 246.616 141.053C247.165 140.905 247.673 140.962 248.138 141.224C248.604 141.486 248.909 141.887 249.054 142.425C249.126 142.689 249.15 142.959 249.127 143.236C249.105 143.513 249.02 143.832 248.873 144.195C248.726 144.557 248.511 144.979 248.227 145.462C247.943 145.944 247.577 146.526 247.127 147.206L246.739 147.791Z" fill="#24FFFF"/>
<defs>
<linearGradient id="paint0_linear_850_5438" x1="221.581" y1="129.999" x2="223.552" y2="131.239" gradientUnits="userSpaceOnUse">
<stop stop-color="#ED0068"/>
<stop offset="0.539" stop-color="#590E91"/>
<stop offset="1" stop-color="#24FFFF"/>
</linearGradient>
<linearGradient id="paint1_linear_850_5438" x1="154.567" y1="71.7768" x2="156.539" y2="73.0179" gradientUnits="userSpaceOnUse">
<stop stop-color="#ED0068"/>
<stop offset="0.539" stop-color="#590E91"/>
<stop offset="1" stop-color="#24FFFF"/>
</linearGradient>
<linearGradient id="paint2_linear_850_5438" x1="163.745" y1="57.5783" x2="165.737" y2="58.8321" gradientUnits="userSpaceOnUse">
<stop stop-color="#ED0068"/>
<stop offset="0.539" stop-color="#590E91"/>
<stop offset="1" stop-color="#24FFFF"/>
</linearGradient>
<linearGradient id="paint3_linear_850_5438" x1="127.73" y1="65.7994" x2="129.711" y2="67.0454" gradientUnits="userSpaceOnUse">
<stop stop-color="#ED0068"/>
<stop offset="0.539" stop-color="#590E91"/>
<stop offset="1" stop-color="#24FFFF"/>
</linearGradient>
<linearGradient id="paint4_linear_850_5438" x1="51.5846" y1="45.8179" x2="222.445" y2="153.328" gradientUnits="userSpaceOnUse">
<stop stop-color="#ED0068"/>
<stop offset="0.539" stop-color="#590E91"/>
<stop offset="1" stop-color="#24FFFF"/>
</linearGradient>
<linearGradient id="paint5_linear_850_5438" x1="98.812" y1="214.807" x2="100.807" y2="216.062" gradientUnits="userSpaceOnUse">
<stop stop-color="#ED0068"/>
<stop offset="0.539" stop-color="#590E91"/>
<stop offset="1" stop-color="#24FFFF"/>
</linearGradient>
<linearGradient id="paint6_linear_850_5438" x1="144.867" y1="247.001" x2="146.845" y2="248.245" gradientUnits="userSpaceOnUse">
<stop stop-color="#ED0068"/>
<stop offset="0.539" stop-color="#590E91"/>
<stop offset="1" stop-color="#24FFFF"/>
</linearGradient>
<linearGradient id="paint7_linear_850_5438" x1="121.249" y1="279.844" x2="123.231" y2="281.091" gradientUnits="userSpaceOnUse">
<stop stop-color="#ED0068"/>
<stop offset="0.539" stop-color="#590E91"/>
<stop offset="1" stop-color="#24FFFF"/>
</linearGradient>
<linearGradient id="paint8_linear_850_5438" x1="162.749" y1="101.513" x2="164.712" y2="102.748" gradientUnits="userSpaceOnUse">
<stop stop-color="#ED0068"/>
<stop offset="0.539" stop-color="#590E91"/>
<stop offset="1" stop-color="#24FFFF"/>
</linearGradient>
<linearGradient id="paint9_linear_850_5438" x1="30.7742" y1="79.0225" x2="201.902" y2="186.701" gradientUnits="userSpaceOnUse">
<stop stop-color="#ED0068"/>
<stop offset="0.539" stop-color="#590E91"/>
<stop offset="1" stop-color="#24FFFF"/>
</linearGradient>
<linearGradient id="paint10_linear_850_5438" x1="22.9313" y1="92.1768" x2="193.933" y2="199.775" gradientUnits="userSpaceOnUse">
<stop stop-color="#ED0068"/>
<stop offset="0.539" stop-color="#590E91"/>
<stop offset="1" stop-color="#24FFFF"/>
</linearGradient>
<linearGradient id="paint11_linear_850_5438" x1="54.9799" y1="148.894" x2="56.9625" y2="150.142" gradientUnits="userSpaceOnUse">
<stop stop-color="#ED0068"/>
<stop offset="0.539" stop-color="#590E91"/>
<stop offset="1" stop-color="#24FFFF"/>
</linearGradient>
<linearGradient id="paint12_linear_850_5438" x1="69.4336" y1="125.561" x2="71.3869" y2="126.79" gradientUnits="userSpaceOnUse">
<stop stop-color="#ED0068"/>
<stop offset="0.539" stop-color="#590E91"/>
<stop offset="1" stop-color="#24FFFF"/>
</linearGradient>
<linearGradient id="paint13_linear_850_5438" x1="43.092" y1="60.2041" x2="213.896" y2="167.679" gradientUnits="userSpaceOnUse">
<stop stop-color="#ED0068"/>
<stop offset="0.539" stop-color="#590E91"/>
<stop offset="1" stop-color="#24FFFF"/>
</linearGradient>
<linearGradient id="paint14_linear_850_5438" x1="16.0269" y1="103.012" x2="186.664" y2="210.381" gradientUnits="userSpaceOnUse">
<stop stop-color="#ED0068"/>
<stop offset="0.539" stop-color="#590E91"/>
<stop offset="1" stop-color="#24FFFF"/>
</linearGradient>
<linearGradient id="paint15_linear_850_5438" x1="45.2814" y1="57.5285" x2="216.355" y2="165.173" gradientUnits="userSpaceOnUse">
<stop stop-color="#ED0068"/>
<stop offset="0.539" stop-color="#590E91"/>
<stop offset="1" stop-color="#24FFFF"/>
</linearGradient>
<linearGradient id="paint16_linear_850_5438" x1="176.005" y1="238.383" x2="177.986" y2="239.629" gradientUnits="userSpaceOnUse">
<stop stop-color="#ED0068"/>
<stop offset="0.539" stop-color="#590E91"/>
<stop offset="1" stop-color="#24FFFF"/>
</linearGradient>
<linearGradient id="paint17_linear_850_5438" x1="224.396" y1="224.722" x2="226.379" y2="225.969" gradientUnits="userSpaceOnUse">
<stop stop-color="#ED0068"/>
<stop offset="0.539" stop-color="#590E91"/>
<stop offset="1" stop-color="#24FFFF"/>
</linearGradient>
<linearGradient id="paint18_linear_850_5438" x1="162.122" y1="265.271" x2="164.101" y2="266.516" gradientUnits="userSpaceOnUse">
<stop stop-color="#ED0068"/>
<stop offset="0.539" stop-color="#590E91"/>
<stop offset="1" stop-color="#24FFFF"/>
</linearGradient>
<linearGradient id="paint19_linear_850_5438" x1="86.0833" y1="301.428" x2="88.0814" y2="302.685" gradientUnits="userSpaceOnUse">
<stop stop-color="#ED0068"/>
<stop offset="0.539" stop-color="#590E91"/>
<stop offset="1" stop-color="#24FFFF"/>
</linearGradient>
<linearGradient id="paint20_linear_850_5438" x1="63.063" y1="221.958" x2="65.0445" y2="223.204" gradientUnits="userSpaceOnUse">
<stop stop-color="#ED0068"/>
<stop offset="0.539" stop-color="#590E91"/>
<stop offset="1" stop-color="#24FFFF"/>
</linearGradient>
<linearGradient id="paint21_linear_850_5438" x1="90.1594" y1="247.937" x2="92.1205" y2="249.172" gradientUnits="userSpaceOnUse">
<stop stop-color="#ED0068"/>
<stop offset="0.539" stop-color="#590E91"/>
<stop offset="1" stop-color="#24FFFF"/>
</linearGradient>
<linearGradient id="paint22_linear_850_5438" x1="65.7956" y1="23.7927" x2="236.696" y2="131.328" gradientUnits="userSpaceOnUse">
<stop stop-color="#ED0068"/>
<stop offset="0.539" stop-color="#590E91"/>
<stop offset="1" stop-color="#24FFFF"/>
</linearGradient>
<linearGradient id="paint23_linear_850_5438" x1="30.0125" y1="170.838" x2="31.9867" y2="172.08" gradientUnits="userSpaceOnUse">
<stop stop-color="#ED0068"/>
<stop offset="0.539" stop-color="#590E91"/>
<stop offset="1" stop-color="#24FFFF"/>
</linearGradient>
<linearGradient id="paint24_linear_850_5438" x1="1.55595" y1="125.335" x2="172.574" y2="232.945" gradientUnits="userSpaceOnUse">
<stop stop-color="#ED0068"/>
<stop offset="0.539" stop-color="#590E91"/>
<stop offset="1" stop-color="#24FFFF"/>
</linearGradient>
<linearGradient id="paint25_linear_850_5438" x1="128.384" y1="55.7953" x2="130.362" y2="57.04" gradientUnits="userSpaceOnUse">
<stop stop-color="#ED0068"/>
<stop offset="0.539" stop-color="#590E91"/>
<stop offset="1" stop-color="#24FFFF"/>
</linearGradient>
<linearGradient id="paint26_linear_850_5438" x1="-3.06647" y1="224.562" x2="207.646" y2="173.584" gradientUnits="userSpaceOnUse">
<stop stop-color="#ED0068"/>
<stop offset="0.539" stop-color="#590E91"/>
<stop offset="1" stop-color="#24FFFF"/>
</linearGradient>
<linearGradient id="paint27_linear_850_5438" x1="-4.55615" y1="132.071" x2="166.176" y2="239.501" gradientUnits="userSpaceOnUse">
<stop stop-color="#ED0068"/>
<stop offset="0.539" stop-color="#590E91"/>
<stop offset="1" stop-color="#24FFFF"/>
</linearGradient>
<linearGradient id="paint28_linear_850_5438" x1="31.8853" y1="69.768" x2="202.613" y2="177.195" gradientUnits="userSpaceOnUse">
<stop stop-color="#ED0068"/>
<stop offset="0.539" stop-color="#590E91"/>
<stop offset="1" stop-color="#24FFFF"/>
</linearGradient>
<linearGradient id="paint29_linear_850_5438" x1="72.7147" y1="4.94406" x2="243.44" y2="112.37" gradientUnits="userSpaceOnUse">
<stop stop-color="#ED0068"/>
<stop offset="0.539" stop-color="#590E91"/>
<stop offset="1" stop-color="#24FFFF"/>
</linearGradient>
<linearGradient id="paint30_linear_850_5438" x1="36.3283" y1="71.9033" x2="206.995" y2="179.291" gradientUnits="userSpaceOnUse">
<stop stop-color="#ED0068"/>
<stop offset="0.539" stop-color="#590E91"/>
<stop offset="1" stop-color="#24FFFF"/>
</linearGradient>
<linearGradient id="paint31_linear_850_5438" x1="126.826" y1="78.0349" x2="130.206" y2="80.1622" gradientUnits="userSpaceOnUse">
<stop stop-color="#ED0068"/>
<stop offset="0.539" stop-color="#590E91"/>
<stop offset="1" stop-color="#24FFFF"/>
</linearGradient>
<linearGradient id="paint32_linear_850_5438" x1="18.5456" y1="91.8182" x2="172.6" y2="54.5484" gradientUnits="userSpaceOnUse">
<stop stop-color="#ED0068"/>
<stop offset="0.539" stop-color="#590E91"/>
<stop offset="1" stop-color="#24FFFF"/>
</linearGradient>
<linearGradient id="paint33_linear_850_5438" x1="2.62962" y1="71.4249" x2="193.05" y2="25.357" gradientUnits="userSpaceOnUse">
<stop stop-color="#ED0068"/>
<stop offset="0.539" stop-color="#590E91"/>
<stop offset="1" stop-color="#24FFFF"/>
</linearGradient>
<linearGradient id="paint34_linear_850_5438" x1="-23.2951" y1="250.202" x2="172.436" y2="202.849" gradientUnits="userSpaceOnUse">
<stop stop-color="#ED0068"/>
<stop offset="0.539" stop-color="#590E91"/>
<stop offset="1" stop-color="#24FFFF"/>
</linearGradient>
<linearGradient id="paint35_linear_850_5438" x1="-113.992" y1="252.403" x2="205.898" y2="175.013" gradientUnits="userSpaceOnUse">
<stop stop-color="#ED0068"/>
<stop offset="0.539" stop-color="#590E91"/>
<stop offset="1" stop-color="#24FFFF"/>
</linearGradient>
<linearGradient id="paint36_linear_850_5438" x1="71.3855" y1="106.48" x2="230.415" y2="68.006" gradientUnits="userSpaceOnUse">
<stop stop-color="#ED0068"/>
<stop offset="0.539" stop-color="#590E91"/>
<stop offset="1" stop-color="#24FFFF"/>
</linearGradient>
<linearGradient id="paint37_linear_850_5438" x1="-6.02888" y1="174.621" x2="177.881" y2="130.129" gradientUnits="userSpaceOnUse">
<stop stop-color="#ED0068"/>
<stop offset="0.539" stop-color="#590E91"/>
<stop offset="1" stop-color="#24FFFF"/>
</linearGradient>
<linearGradient id="paint38_linear_850_5438" x1="39.9989" y1="161.507" x2="224.202" y2="116.943" gradientUnits="userSpaceOnUse">
<stop stop-color="#ED0068"/>
<stop offset="0.539" stop-color="#590E91"/>
<stop offset="1" stop-color="#24FFFF"/>
</linearGradient>
<linearGradient id="paint39_linear_850_5438" x1="-7.88489" y1="247.641" x2="139.691" y2="211.938" gradientUnits="userSpaceOnUse">
<stop stop-color="#ED0068"/>
<stop offset="0.539" stop-color="#590E91"/>
<stop offset="1" stop-color="#24FFFF"/>
</linearGradient>
<linearGradient id="paint40_linear_850_5438" x1="82.9671" y1="174.047" x2="230.397" y2="138.38" gradientUnits="userSpaceOnUse">
<stop stop-color="#ED0068"/>
<stop offset="0.539" stop-color="#590E91"/>
<stop offset="1" stop-color="#24FFFF"/>
</linearGradient>
<linearGradient id="paint41_linear_850_5438" x1="52.7451" y1="64.8802" x2="159.285" y2="39.1052" gradientUnits="userSpaceOnUse">
<stop stop-color="#ED0068"/>
<stop offset="0.539" stop-color="#590E91"/>
<stop offset="1" stop-color="#24FFFF"/>
</linearGradient>
<linearGradient id="paint42_linear_850_5438" x1="213.341" y1="142.382" x2="214.904" y2="143.366" gradientUnits="userSpaceOnUse">
<stop stop-color="#ED0068"/>
<stop offset="0.539" stop-color="#590E91"/>
<stop offset="1" stop-color="#24FFFF"/>
</linearGradient>
<linearGradient id="paint43_linear_850_5438" x1="160.541" y1="96.5747" x2="162.101" y2="97.5564" gradientUnits="userSpaceOnUse">
<stop stop-color="#ED0068"/>
<stop offset="0.539" stop-color="#590E91"/>
<stop offset="1" stop-color="#24FFFF"/>
</linearGradient>
<linearGradient id="paint44_linear_850_5438" x1="167.814" y1="85.4023" x2="169.36" y2="86.3753" gradientUnits="userSpaceOnUse">
<stop stop-color="#ED0068"/>
<stop offset="0.539" stop-color="#590E91"/>
<stop offset="1" stop-color="#24FFFF"/>
</linearGradient>
<linearGradient id="paint45_linear_850_5438" x1="128.949" y1="64.7273" x2="130.504" y2="65.7053" gradientUnits="userSpaceOnUse">
<stop stop-color="#ED0068"/>
<stop offset="0.539" stop-color="#590E91"/>
<stop offset="1" stop-color="#24FFFF"/>
</linearGradient>
<linearGradient id="paint46_linear_850_5438" x1="110.961" y1="98.8172" x2="112.503" y2="99.7872" gradientUnits="userSpaceOnUse">
<stop stop-color="#ED0068"/>
<stop offset="0.539" stop-color="#590E91"/>
<stop offset="1" stop-color="#24FFFF"/>
</linearGradient>
<linearGradient id="paint47_linear_850_5438" x1="116.693" y1="209.141" x2="118.267" y2="210.132" gradientUnits="userSpaceOnUse">
<stop stop-color="#ED0068"/>
<stop offset="0.539" stop-color="#590E91"/>
<stop offset="1" stop-color="#24FFFF"/>
</linearGradient>
<linearGradient id="paint48_linear_850_5438" x1="152.954" y1="234.499" x2="154.514" y2="235.48" gradientUnits="userSpaceOnUse">
<stop stop-color="#ED0068"/>
<stop offset="0.539" stop-color="#590E91"/>
<stop offset="1" stop-color="#24FFFF"/>
</linearGradient>
<linearGradient id="paint49_linear_850_5438" x1="134.368" y1="260.34" x2="135.916" y2="261.315" gradientUnits="userSpaceOnUse">
<stop stop-color="#ED0068"/>
<stop offset="0.539" stop-color="#590E91"/>
<stop offset="1" stop-color="#24FFFF"/>
</linearGradient>
<linearGradient id="paint50_linear_850_5438" x1="167.005" y1="119.96" x2="168.598" y2="120.963" gradientUnits="userSpaceOnUse">
<stop stop-color="#ED0068"/>
<stop offset="0.539" stop-color="#590E91"/>
<stop offset="1" stop-color="#24FFFF"/>
</linearGradient>
<linearGradient id="paint51_linear_850_5438" x1="89.485" y1="118.852" x2="91.0593" y2="119.843" gradientUnits="userSpaceOnUse">
<stop stop-color="#ED0068"/>
<stop offset="0.539" stop-color="#590E91"/>
<stop offset="1" stop-color="#24FFFF"/>
</linearGradient>
<linearGradient id="paint52_linear_850_5438" x1="74.575" y1="123.706" x2="76.1162" y2="124.676" gradientUnits="userSpaceOnUse">
<stop stop-color="#ED0068"/>
<stop offset="0.539" stop-color="#590E91"/>
<stop offset="1" stop-color="#24FFFF"/>
</linearGradient>
<linearGradient id="paint53_linear_850_5438" x1="82.1973" y1="157.259" x2="83.7596" y2="158.242" gradientUnits="userSpaceOnUse">
<stop stop-color="#ED0068"/>
<stop offset="0.539" stop-color="#590E91"/>
<stop offset="1" stop-color="#24FFFF"/>
</linearGradient>
<linearGradient id="paint54_linear_850_5438" x1="93.5634" y1="138.87" x2="95.1301" y2="139.856" gradientUnits="userSpaceOnUse">
<stop stop-color="#ED0068"/>
<stop offset="0.539" stop-color="#590E91"/>
<stop offset="1" stop-color="#24FFFF"/>
</linearGradient>
<linearGradient id="paint55_linear_850_5438" x1="91.8665" y1="102.358" x2="93.4349" y2="103.345" gradientUnits="userSpaceOnUse">
<stop stop-color="#ED0068"/>
<stop offset="0.539" stop-color="#590E91"/>
<stop offset="1" stop-color="#24FFFF"/>
</linearGradient>
<linearGradient id="paint56_linear_850_5438" x1="63.4741" y1="131.444" x2="65.0374" y2="132.428" gradientUnits="userSpaceOnUse">
<stop stop-color="#ED0068"/>
<stop offset="0.539" stop-color="#590E91"/>
<stop offset="1" stop-color="#24FFFF"/>
</linearGradient>
<linearGradient id="paint57_linear_850_5438" x1="46.4456" y1="54.3553" x2="217.343" y2="161.888" gradientUnits="userSpaceOnUse">
<stop stop-color="#ED0068"/>
<stop offset="0.539" stop-color="#590E91"/>
<stop offset="1" stop-color="#24FFFF"/>
</linearGradient>
<linearGradient id="paint58_linear_850_5438" x1="177.45" y1="227.708" x2="179.008" y2="228.688" gradientUnits="userSpaceOnUse">
<stop stop-color="#ED0068"/>
<stop offset="0.539" stop-color="#590E91"/>
<stop offset="1" stop-color="#24FFFF"/>
</linearGradient>
<linearGradient id="paint59_linear_850_5438" x1="215.551" y1="216.955" x2="217.115" y2="217.939" gradientUnits="userSpaceOnUse">
<stop stop-color="#ED0068"/>
<stop offset="0.539" stop-color="#590E91"/>
<stop offset="1" stop-color="#24FFFF"/>
</linearGradient>
<linearGradient id="paint60_linear_850_5438" x1="166.535" y1="248.869" x2="168.101" y2="249.854" gradientUnits="userSpaceOnUse">
<stop stop-color="#ED0068"/>
<stop offset="0.539" stop-color="#590E91"/>
<stop offset="1" stop-color="#24FFFF"/>
</linearGradient>
<linearGradient id="paint61_linear_850_5438" x1="106.689" y1="277.332" x2="108.271" y2="278.327" gradientUnits="userSpaceOnUse">
<stop stop-color="#ED0068"/>
<stop offset="0.539" stop-color="#590E91"/>
<stop offset="1" stop-color="#24FFFF"/>
</linearGradient>
<linearGradient id="paint62_linear_850_5438" x1="88.5615" y1="214.797" x2="90.1148" y2="215.774" gradientUnits="userSpaceOnUse">
<stop stop-color="#ED0068"/>
<stop offset="0.539" stop-color="#590E91"/>
<stop offset="1" stop-color="#24FFFF"/>
</linearGradient>
<linearGradient id="paint63_linear_850_5438" x1="109.887" y1="235.242" x2="111.448" y2="236.224" gradientUnits="userSpaceOnUse">
<stop stop-color="#ED0068"/>
<stop offset="0.539" stop-color="#590E91"/>
<stop offset="1" stop-color="#24FFFF"/>
</linearGradient>
<linearGradient id="paint64_linear_850_5438" x1="113.9" y1="76.3313" x2="115.479" y2="77.3251" gradientUnits="userSpaceOnUse">
<stop stop-color="#ED0068"/>
<stop offset="0.539" stop-color="#590E91"/>
<stop offset="1" stop-color="#24FFFF"/>
</linearGradient>
<linearGradient id="paint65_linear_850_5438" x1="62.5189" y1="174.534" x2="64.0872" y2="175.521" gradientUnits="userSpaceOnUse">
<stop stop-color="#ED0068"/>
<stop offset="0.539" stop-color="#590E91"/>
<stop offset="1" stop-color="#24FFFF"/>
</linearGradient>
<linearGradient id="paint66_linear_850_5438" x1="53.2854" y1="159.374" x2="54.8161" y2="160.337" gradientUnits="userSpaceOnUse">
<stop stop-color="#ED0068"/>
<stop offset="0.539" stop-color="#590E91"/>
<stop offset="1" stop-color="#24FFFF"/>
</linearGradient>
<linearGradient id="paint67_linear_850_5438" x1="139.961" y1="83.9801" x2="141.53" y2="84.9672" gradientUnits="userSpaceOnUse">
<stop stop-color="#ED0068"/>
<stop offset="0.539" stop-color="#590E91"/>
<stop offset="1" stop-color="#24FFFF"/>
</linearGradient>
<linearGradient id="paint68_linear_850_5438" x1="-5.72126" y1="227.038" x2="204.901" y2="176.083" gradientUnits="userSpaceOnUse">
<stop stop-color="#ED0068"/>
<stop offset="0.539" stop-color="#590E91"/>
<stop offset="1" stop-color="#24FFFF"/>
</linearGradient>
<linearGradient id="paint69_linear_850_5438" x1="1.06517" y1="122.478" x2="171.749" y2="229.878" gradientUnits="userSpaceOnUse">
<stop stop-color="#ED0068"/>
<stop offset="0.539" stop-color="#590E91"/>
<stop offset="1" stop-color="#24FFFF"/>
</linearGradient>
<linearGradient id="paint70_linear_850_5438" x1="31.535" y1="70.5382" x2="202.243" y2="177.952" gradientUnits="userSpaceOnUse">
<stop stop-color="#ED0068"/>
<stop offset="0.539" stop-color="#590E91"/>
<stop offset="1" stop-color="#24FFFF"/>
</linearGradient>
<linearGradient id="paint71_linear_850_5438" x1="68.8617" y1="11.2584" x2="239.55" y2="118.661" gradientUnits="userSpaceOnUse">
<stop stop-color="#ED0068"/>
<stop offset="0.539" stop-color="#590E91"/>
<stop offset="1" stop-color="#24FFFF"/>
</linearGradient>
<linearGradient id="paint72_linear_850_5438" x1="36.7391" y1="70.3279" x2="207.47" y2="177.757" gradientUnits="userSpaceOnUse">
<stop stop-color="#ED0068"/>
<stop offset="0.539" stop-color="#590E91"/>
<stop offset="1" stop-color="#24FFFF"/>
</linearGradient>
<linearGradient id="paint73_linear_850_5438" x1="128.249" y1="74.3236" x2="130.933" y2="76.013" gradientUnits="userSpaceOnUse">
<stop stop-color="#ED0068"/>
<stop offset="0.539" stop-color="#590E91"/>
<stop offset="1" stop-color="#24FFFF"/>
</linearGradient>
<linearGradient id="paint74_linear_850_5438" x1="20.2382" y1="117.21" x2="174.237" y2="79.9538" gradientUnits="userSpaceOnUse">
<stop stop-color="#ED0068"/>
<stop offset="0.539" stop-color="#590E91"/>
<stop offset="1" stop-color="#24FFFF"/>
</linearGradient>
<linearGradient id="paint75_linear_850_5438" x1="2.72444" y1="105.55" x2="193.148" y2="59.4812" gradientUnits="userSpaceOnUse">
<stop stop-color="#ED0068"/>
<stop offset="0.539" stop-color="#590E91"/>
<stop offset="1" stop-color="#24FFFF"/>
</linearGradient>
<linearGradient id="paint76_linear_850_5438" x1="-19.0241" y1="246.618" x2="176.992" y2="199.196" gradientUnits="userSpaceOnUse">
<stop stop-color="#ED0068"/>
<stop offset="0.539" stop-color="#590E91"/>
<stop offset="1" stop-color="#24FFFF"/>
</linearGradient>
<linearGradient id="paint77_linear_850_5438" x1="-115.012" y1="260.825" x2="204.492" y2="183.529" gradientUnits="userSpaceOnUse">
<stop stop-color="#ED0068"/>
<stop offset="0.539" stop-color="#590E91"/>
<stop offset="1" stop-color="#24FFFF"/>
</linearGradient>
<linearGradient id="paint78_linear_850_5438" x1="63.0911" y1="131.611" x2="222.192" y2="93.1198" gradientUnits="userSpaceOnUse">
<stop stop-color="#ED0068"/>
<stop offset="0.539" stop-color="#590E91"/>
<stop offset="1" stop-color="#24FFFF"/>
</linearGradient>
<linearGradient id="paint79_linear_850_5438" x1="-2.8465" y1="186.448" x2="181.194" y2="141.924" gradientUnits="userSpaceOnUse">
<stop stop-color="#ED0068"/>
<stop offset="0.539" stop-color="#590E91"/>
<stop offset="1" stop-color="#24FFFF"/>
</linearGradient>
<linearGradient id="paint80_linear_850_5438" x1="39.505" y1="168.095" x2="223.515" y2="123.578" gradientUnits="userSpaceOnUse">
<stop stop-color="#ED0068"/>
<stop offset="0.539" stop-color="#590E91"/>
<stop offset="1" stop-color="#24FFFF"/>
</linearGradient>
<linearGradient id="paint81_linear_850_5438" x1="54.4238" y1="85.774" x2="161.222" y2="59.9368" gradientUnits="userSpaceOnUse">
<stop stop-color="#ED0068"/>
<stop offset="0.539" stop-color="#590E91"/>
<stop offset="1" stop-color="#24FFFF"/>
</linearGradient>
<linearGradient id="paint82_linear_850_5438" x1="3.30772" y1="242.121" x2="150.604" y2="206.485" gradientUnits="userSpaceOnUse">
<stop stop-color="#ED0068"/>
<stop offset="0.539" stop-color="#590E91"/>
<stop offset="1" stop-color="#24FFFF"/>
</linearGradient>
<linearGradient id="paint83_linear_850_5438" x1="80.0404" y1="174.817" x2="227.524" y2="139.137" gradientUnits="userSpaceOnUse">
<stop stop-color="#ED0068"/>
<stop offset="0.539" stop-color="#590E91"/>
<stop offset="1" stop-color="#24FFFF"/>
</linearGradient>
</defs>
</svg>
