<svg width="146" height="33" viewBox="0 0 146 33" fill="none" xmlns="http://www.w3.org/2000/svg">
<mask id="path-1-outside-1_992_2788" maskUnits="userSpaceOnUse" x="51.236" y="1.99133" width="95" height="25" fill="black">
<rect fill="white" x="51.236" y="1.99133" width="95" height="25"/>
<path d="M57.6508 13.4477L56.7871 20.9913H53.927L55.9233 6.88304L61.5474 15.5592L67.1715 6.88304L69.1678 20.9913H66.3078L65.444 13.4477L61.5474 19.7437L57.6508 13.4477ZM72.8573 18.2465C72.8573 18.5024 72.9213 18.7263 73.0492 18.9183C73.1772 19.0974 73.35 19.2382 73.5675 19.3406C73.7978 19.4301 74.0474 19.4749 74.3161 19.4749C74.7 19.4749 75.0455 19.3982 75.3526 19.2446C75.6597 19.0782 75.9093 18.8479 76.1012 18.5536C76.2932 18.2465 76.3892 17.8817 76.3892 17.4595L76.6963 18.6112C76.6963 19.1742 76.5363 19.6477 76.2164 20.0316C75.9093 20.4155 75.5062 20.7034 75.0071 20.8954C74.5208 21.0873 74.009 21.1833 73.4715 21.1833C72.9213 21.1833 72.4094 21.0745 71.9359 20.857C71.4625 20.6394 71.0786 20.3259 70.7842 19.9164C70.5027 19.4941 70.3619 18.9823 70.3619 18.3808C70.3619 17.5234 70.6627 16.8452 71.2641 16.3462C71.8655 15.8471 72.7165 15.5976 73.817 15.5976C74.3801 15.5976 74.8728 15.6551 75.295 15.7703C75.7301 15.8855 76.0948 16.0262 76.3892 16.1926C76.6835 16.359 76.8946 16.5189 77.0226 16.6725V17.8242C76.6771 17.5682 76.2868 17.3763 75.8517 17.2483C75.4294 17.1204 74.9815 17.0564 74.5081 17.0564C74.1242 17.0564 73.8106 17.1076 73.5675 17.2099C73.3244 17.2995 73.1452 17.4339 73.03 17.613C72.9149 17.7794 72.8573 17.9905 72.8573 18.2465ZM71.8975 14.657L70.9762 12.9678C71.4369 12.7247 71.9999 12.4944 72.6653 12.2768C73.3308 12.0465 74.073 11.9313 74.892 11.9313C75.647 11.9313 76.3188 12.0401 76.9074 12.2576C77.4961 12.4752 77.9567 12.7951 78.2895 13.2174C78.6222 13.6269 78.7885 14.1323 78.7885 14.7338V20.9913H76.3892V15.252C76.3892 15.0089 76.3508 14.8042 76.274 14.6378C76.1972 14.4586 76.0756 14.3115 75.9093 14.1963C75.7557 14.0811 75.5702 13.998 75.3526 13.9468C75.1351 13.8956 74.892 13.87 74.6232 13.87C74.2137 13.87 73.8234 13.9148 73.4523 14.0044C73.0812 14.0939 72.7613 14.2027 72.4926 14.3307C72.2239 14.4586 72.0255 14.5674 71.8975 14.657ZM79.9687 12.1617H85.4201V14.2539H79.9687V12.1617ZM81.4851 9.09046H83.8845V20.9913H81.4851V9.09046ZM88.6246 16.5765C88.6246 17.0884 88.7398 17.5362 88.9701 17.9201C89.2004 18.304 89.5076 18.6048 89.8915 18.8223C90.2882 19.0398 90.7232 19.1486 91.1967 19.1486C91.5806 19.1486 91.9517 19.091 92.31 18.9759C92.6683 18.8479 92.9882 18.6815 93.2698 18.4768C93.5641 18.2593 93.788 18.0097 93.9416 17.7282V20.2811C93.6345 20.5626 93.2314 20.7866 92.7323 20.9529C92.246 21.1065 91.6766 21.1833 91.024 21.1833C90.0898 21.1833 89.2452 20.9913 88.4902 20.6074C87.748 20.2235 87.1594 19.6861 86.7243 18.9951C86.302 18.2912 86.0909 17.4851 86.0909 16.5765C86.0909 15.6551 86.302 14.8489 86.7243 14.1579C87.1594 13.4669 87.748 12.9295 88.4902 12.5456C89.2452 12.1617 90.0898 11.9697 91.024 11.9697C91.6766 11.9697 92.246 12.0529 92.7323 12.2192C93.2314 12.3728 93.6345 12.5839 93.9416 12.8527V15.4056C93.788 15.1241 93.5577 14.8809 93.2506 14.6762C92.9563 14.4586 92.6299 14.2923 92.2716 14.1771C91.9133 14.062 91.555 14.0044 91.1967 14.0044C90.7232 14.0044 90.2882 14.1195 89.8915 14.3499C89.5076 14.5674 89.2004 14.8681 88.9701 15.252C88.7398 15.6359 88.6246 16.0774 88.6246 16.5765ZM98.6301 6.01927V20.9913H96.1348V6.01927H98.6301ZM101.836 15.6167C101.836 15.0281 101.721 14.5802 101.49 14.2731C101.273 13.966 100.902 13.8124 100.377 13.8124C100.031 13.8124 99.7242 13.8892 99.4555 14.0428C99.1868 14.1835 98.982 14.3883 98.8413 14.657C98.7005 14.9257 98.6301 15.2456 98.6301 15.6167H98.131C98.131 14.9129 98.2462 14.2795 98.4766 13.7164C98.7197 13.1534 99.078 12.7055 99.5515 12.3728C100.025 12.0401 100.607 11.8737 101.298 11.8737C101.989 11.8737 102.559 12.0017 103.007 12.2576C103.454 12.5136 103.787 12.8975 104.005 13.4093C104.222 13.9084 104.331 14.5226 104.331 15.252V20.9913H101.836V15.6167ZM109.066 14.1771V12.9295H111.235C111.632 12.9295 111.977 12.8655 112.272 12.7375C112.566 12.6095 112.79 12.424 112.944 12.1808C113.11 11.9377 113.193 11.6498 113.193 11.3171C113.193 10.8052 113.014 10.4149 112.656 10.1462C112.31 9.87745 111.837 9.74309 111.235 9.74309H109.757V18.8031H111.523C111.984 18.8031 112.4 18.7391 112.771 18.6112C113.142 18.4704 113.43 18.2529 113.635 17.9585C113.852 17.6642 113.961 17.2867 113.961 16.826C113.961 16.4933 113.897 16.2118 113.769 15.9814C113.654 15.7383 113.481 15.54 113.251 15.3864C113.033 15.22 112.777 15.1049 112.483 15.0409C112.189 14.9641 111.869 14.9257 111.523 14.9257H109.066V13.4285H111.773C112.425 13.4285 113.046 13.4989 113.635 13.6397C114.236 13.7804 114.773 14.0044 115.247 14.3115C115.72 14.6058 116.092 14.9897 116.36 15.4632C116.642 15.9367 116.783 16.5061 116.783 17.1715C116.783 18.0545 116.571 18.7775 116.149 19.3406C115.74 19.9036 115.157 20.3195 114.402 20.5882C113.647 20.857 112.771 20.9913 111.773 20.9913H107.012V7.55486H111.485C112.38 7.55486 113.167 7.68283 113.846 7.93876C114.524 8.1819 115.055 8.553 115.439 9.05207C115.823 9.55114 116.015 10.1846 116.015 10.9524C116.015 11.6306 115.823 12.2128 115.439 12.6991C115.055 13.1854 114.524 13.5565 113.846 13.8124C113.167 14.0556 112.38 14.1771 111.485 14.1771H109.066ZM127.299 12.1617L121.54 25.2142H118.987L121.214 20.1084L117.548 12.1617H120.312L123.153 19.187L121.924 19.1486L124.707 12.1617H127.299Z"/>
<path d="M129.363 17.9393L129.689 15.7703H136.138L136.465 17.9393H129.363ZM132.875 11.9121L130.86 16.5381L130.917 17.1523L129.151 20.9913H126.061L132.875 6.76787L139.689 20.9913H136.58L134.852 17.2675L134.891 16.5765L132.875 11.9121ZM140.802 8.74495C140.802 8.33546 140.949 8.00275 141.243 7.74681C141.537 7.47808 141.889 7.34372 142.299 7.34372C142.708 7.34372 143.054 7.47808 143.335 7.74681C143.63 8.00275 143.777 8.33546 143.777 8.74495C143.777 9.14165 143.63 9.47436 143.335 9.74309C143.054 10.0118 142.708 10.1462 142.299 10.1462C141.889 10.1462 141.537 10.0118 141.243 9.74309C140.949 9.47436 140.802 9.14165 140.802 8.74495ZM141.07 12.1617H143.489V20.9913H141.07V12.1617Z"/>
</mask>
<path d="M57.6508 13.4477L56.7871 20.9913H53.927L55.9233 6.88304L61.5474 15.5592L67.1715 6.88304L69.1678 20.9913H66.3078L65.444 13.4477L61.5474 19.7437L57.6508 13.4477ZM72.8573 18.2465C72.8573 18.5024 72.9213 18.7263 73.0492 18.9183C73.1772 19.0974 73.35 19.2382 73.5675 19.3406C73.7978 19.4301 74.0474 19.4749 74.3161 19.4749C74.7 19.4749 75.0455 19.3982 75.3526 19.2446C75.6597 19.0782 75.9093 18.8479 76.1012 18.5536C76.2932 18.2465 76.3892 17.8817 76.3892 17.4595L76.6963 18.6112C76.6963 19.1742 76.5363 19.6477 76.2164 20.0316C75.9093 20.4155 75.5062 20.7034 75.0071 20.8954C74.5208 21.0873 74.009 21.1833 73.4715 21.1833C72.9213 21.1833 72.4094 21.0745 71.9359 20.857C71.4625 20.6394 71.0786 20.3259 70.7842 19.9164C70.5027 19.4941 70.3619 18.9823 70.3619 18.3808C70.3619 17.5234 70.6627 16.8452 71.2641 16.3462C71.8655 15.8471 72.7165 15.5976 73.817 15.5976C74.3801 15.5976 74.8728 15.6551 75.295 15.7703C75.7301 15.8855 76.0948 16.0262 76.3892 16.1926C76.6835 16.359 76.8946 16.5189 77.0226 16.6725V17.8242C76.6771 17.5682 76.2868 17.3763 75.8517 17.2483C75.4294 17.1204 74.9815 17.0564 74.5081 17.0564C74.1242 17.0564 73.8106 17.1076 73.5675 17.2099C73.3244 17.2995 73.1452 17.4339 73.03 17.613C72.9149 17.7794 72.8573 17.9905 72.8573 18.2465ZM71.8975 14.657L70.9762 12.9678C71.4369 12.7247 71.9999 12.4944 72.6653 12.2768C73.3308 12.0465 74.073 11.9313 74.892 11.9313C75.647 11.9313 76.3188 12.0401 76.9074 12.2576C77.4961 12.4752 77.9567 12.7951 78.2895 13.2174C78.6222 13.6269 78.7885 14.1323 78.7885 14.7338V20.9913H76.3892V15.252C76.3892 15.0089 76.3508 14.8042 76.274 14.6378C76.1972 14.4586 76.0756 14.3115 75.9093 14.1963C75.7557 14.0811 75.5702 13.998 75.3526 13.9468C75.1351 13.8956 74.892 13.87 74.6232 13.87C74.2137 13.87 73.8234 13.9148 73.4523 14.0044C73.0812 14.0939 72.7613 14.2027 72.4926 14.3307C72.2239 14.4586 72.0255 14.5674 71.8975 14.657ZM79.9687 12.1617H85.4201V14.2539H79.9687V12.1617ZM81.4851 9.09046H83.8845V20.9913H81.4851V9.09046ZM88.6246 16.5765C88.6246 17.0884 88.7398 17.5362 88.9701 17.9201C89.2004 18.304 89.5076 18.6048 89.8915 18.8223C90.2882 19.0398 90.7232 19.1486 91.1967 19.1486C91.5806 19.1486 91.9517 19.091 92.31 18.9759C92.6683 18.8479 92.9882 18.6815 93.2698 18.4768C93.5641 18.2593 93.788 18.0097 93.9416 17.7282V20.2811C93.6345 20.5626 93.2314 20.7866 92.7323 20.9529C92.246 21.1065 91.6766 21.1833 91.024 21.1833C90.0898 21.1833 89.2452 20.9913 88.4902 20.6074C87.748 20.2235 87.1594 19.6861 86.7243 18.9951C86.302 18.2912 86.0909 17.4851 86.0909 16.5765C86.0909 15.6551 86.302 14.8489 86.7243 14.1579C87.1594 13.4669 87.748 12.9295 88.4902 12.5456C89.2452 12.1617 90.0898 11.9697 91.024 11.9697C91.6766 11.9697 92.246 12.0529 92.7323 12.2192C93.2314 12.3728 93.6345 12.5839 93.9416 12.8527V15.4056C93.788 15.1241 93.5577 14.8809 93.2506 14.6762C92.9563 14.4586 92.6299 14.2923 92.2716 14.1771C91.9133 14.062 91.555 14.0044 91.1967 14.0044C90.7232 14.0044 90.2882 14.1195 89.8915 14.3499C89.5076 14.5674 89.2004 14.8681 88.9701 15.252C88.7398 15.6359 88.6246 16.0774 88.6246 16.5765ZM98.6301 6.01927V20.9913H96.1348V6.01927H98.6301ZM101.836 15.6167C101.836 15.0281 101.721 14.5802 101.49 14.2731C101.273 13.966 100.902 13.8124 100.377 13.8124C100.031 13.8124 99.7242 13.8892 99.4555 14.0428C99.1868 14.1835 98.982 14.3883 98.8413 14.657C98.7005 14.9257 98.6301 15.2456 98.6301 15.6167H98.131C98.131 14.9129 98.2462 14.2795 98.4766 13.7164C98.7197 13.1534 99.078 12.7055 99.5515 12.3728C100.025 12.0401 100.607 11.8737 101.298 11.8737C101.989 11.8737 102.559 12.0017 103.007 12.2576C103.454 12.5136 103.787 12.8975 104.005 13.4093C104.222 13.9084 104.331 14.5226 104.331 15.252V20.9913H101.836V15.6167ZM109.066 14.1771V12.9295H111.235C111.632 12.9295 111.977 12.8655 112.272 12.7375C112.566 12.6095 112.79 12.424 112.944 12.1808C113.11 11.9377 113.193 11.6498 113.193 11.3171C113.193 10.8052 113.014 10.4149 112.656 10.1462C112.31 9.87745 111.837 9.74309 111.235 9.74309H109.757V18.8031H111.523C111.984 18.8031 112.4 18.7391 112.771 18.6112C113.142 18.4704 113.43 18.2529 113.635 17.9585C113.852 17.6642 113.961 17.2867 113.961 16.826C113.961 16.4933 113.897 16.2118 113.769 15.9814C113.654 15.7383 113.481 15.54 113.251 15.3864C113.033 15.22 112.777 15.1049 112.483 15.0409C112.189 14.9641 111.869 14.9257 111.523 14.9257H109.066V13.4285H111.773C112.425 13.4285 113.046 13.4989 113.635 13.6397C114.236 13.7804 114.773 14.0044 115.247 14.3115C115.72 14.6058 116.092 14.9897 116.36 15.4632C116.642 15.9367 116.783 16.5061 116.783 17.1715C116.783 18.0545 116.571 18.7775 116.149 19.3406C115.74 19.9036 115.157 20.3195 114.402 20.5882C113.647 20.857 112.771 20.9913 111.773 20.9913H107.012V7.55486H111.485C112.38 7.55486 113.167 7.68283 113.846 7.93876C114.524 8.1819 115.055 8.553 115.439 9.05207C115.823 9.55114 116.015 10.1846 116.015 10.9524C116.015 11.6306 115.823 12.2128 115.439 12.6991C115.055 13.1854 114.524 13.5565 113.846 13.8124C113.167 14.0556 112.38 14.1771 111.485 14.1771H109.066ZM127.299 12.1617L121.54 25.2142H118.987L121.214 20.1084L117.548 12.1617H120.312L123.153 19.187L121.924 19.1486L124.707 12.1617H127.299Z" fill="#0C1721"/>
<path d="M129.363 17.9393L129.689 15.7703H136.138L136.465 17.9393H129.363ZM132.875 11.9121L130.86 16.5381L130.917 17.1523L129.151 20.9913H126.061L132.875 6.76787L139.689 20.9913H136.58L134.852 17.2675L134.891 16.5765L132.875 11.9121ZM140.802 8.74495C140.802 8.33546 140.949 8.00275 141.243 7.74681C141.537 7.47808 141.889 7.34372 142.299 7.34372C142.708 7.34372 143.054 7.47808 143.335 7.74681C143.63 8.00275 143.777 8.33546 143.777 8.74495C143.777 9.14165 143.63 9.47436 143.335 9.74309C143.054 10.0118 142.708 10.1462 142.299 10.1462C141.889 10.1462 141.537 10.0118 141.243 9.74309C140.949 9.47436 140.802 9.14165 140.802 8.74495ZM141.07 12.1617H143.489V20.9913H141.07V12.1617Z" fill="#ED1C24"/>
<path d="M57.6508 13.4477L59.0535 12.5796L56.5526 8.53873L56.012 13.2601L57.6508 13.4477ZM56.7871 20.9913V22.6409H58.2585L58.4259 21.179L56.7871 20.9913ZM53.927 20.9913L52.2937 20.7602L52.0276 22.6409H53.927V20.9913ZM55.9233 6.88304L57.3075 5.98577L54.908 2.2842L54.29 6.65193L55.9233 6.88304ZM61.5474 15.5592L60.1632 16.4564L61.5474 18.5918L62.9316 16.4564L61.5474 15.5592ZM67.1715 6.88304L68.8048 6.65193L68.1868 2.2842L65.7873 5.98577L67.1715 6.88304ZM69.1678 20.9913V22.6409H71.0672L70.8011 20.7602L69.1678 20.9913ZM66.3078 20.9913L64.6689 21.179L64.8363 22.6409H66.3078V20.9913ZM65.444 13.4477L67.0828 13.2601L66.5422 8.53873L64.0413 12.5796L65.444 13.4477ZM61.5474 19.7437L60.1447 20.6118L61.5474 22.8781L62.9501 20.6118L61.5474 19.7437ZM56.012 13.2601L55.1482 20.8037L58.4259 21.179L59.2897 13.6354L56.012 13.2601ZM56.7871 19.3418H53.927V22.6409H56.7871V19.3418ZM55.5603 21.2224L57.5566 7.11415L54.29 6.65193L52.2937 20.7602L55.5603 21.2224ZM54.5391 7.78031L60.1632 16.4564L62.9316 14.6619L57.3075 5.98577L54.5391 7.78031ZM62.9316 16.4564L68.5557 7.78031L65.7873 5.98577L60.1632 14.6619L62.9316 16.4564ZM65.5382 7.11415L67.5345 21.2224L70.8011 20.7602L68.8048 6.65193L65.5382 7.11415ZM69.1678 19.3418H66.3078V22.6409H69.1678V19.3418ZM67.9466 20.8037L67.0828 13.2601L63.8051 13.6354L64.6689 21.179L67.9466 20.8037ZM64.0413 12.5796L60.1447 18.8756L62.9501 20.6118L66.8466 14.3158L64.0413 12.5796ZM62.9501 18.8756L59.0535 12.5796L56.2482 14.3158L60.1447 20.6118L62.9501 18.8756ZM73.0492 18.9183L71.6767 19.8333L71.6915 19.8554L71.7069 19.8771L73.0492 18.9183ZM73.5675 19.3406L72.8651 20.8331L72.9166 20.8574L72.9696 20.878L73.5675 19.3406ZM75.3526 19.2446L76.0903 20.72L76.1145 20.7079L76.1383 20.695L75.3526 19.2446ZM76.1012 18.5536L77.4829 19.4547L77.4916 19.4413L77.5001 19.4278L76.1012 18.5536ZM76.3892 17.4595L77.983 17.0344L74.7396 17.4595H76.3892ZM76.6963 18.6112H78.3458V18.395L78.2901 18.1861L76.6963 18.6112ZM76.2164 20.0316L74.9492 18.9756L74.9386 18.9882L74.9283 19.0011L76.2164 20.0316ZM75.0071 20.8954L74.415 19.3557L74.4082 19.3583L74.4015 19.361L75.0071 20.8954ZM71.9359 20.857L71.2472 22.3559L71.2472 22.3559L71.9359 20.857ZM70.7842 19.9164L69.4117 20.8314L69.4278 20.8556L69.4448 20.8792L70.7842 19.9164ZM71.2641 16.3462L72.3175 17.6156L72.3175 17.6156L71.2641 16.3462ZM75.295 15.7703L74.861 17.3618L74.8729 17.3649L75.295 15.7703ZM76.3892 16.1926L75.5775 17.6286L75.5775 17.6286L76.3892 16.1926ZM77.0226 16.6725H78.6722V16.0752L78.2898 15.6164L77.0226 16.6725ZM77.0226 17.8242L76.0407 19.1497L78.6722 21.0989V17.8242H77.0226ZM75.8517 17.2483L75.3733 18.827L75.3862 18.8309L75.8517 17.2483ZM73.5675 17.2099L74.1378 18.7578L74.173 18.7448L74.2076 18.7302L73.5675 17.2099ZM73.03 17.613L74.3863 18.552L74.4024 18.5288L74.4176 18.505L73.03 17.613ZM71.8975 14.657L70.4494 15.4469L71.3326 17.066L72.8435 16.0084L71.8975 14.657ZM70.9762 12.9678L70.2062 11.509L68.7272 12.2896L69.528 13.7577L70.9762 12.9678ZM72.6653 12.2768L73.1779 13.8447L73.1915 13.8403L73.2049 13.8356L72.6653 12.2768ZM76.9074 12.2576L76.3356 13.8049L76.3356 13.8049L76.9074 12.2576ZM78.2895 13.2174L76.9937 14.2382L77.0014 14.248L77.0092 14.2576L78.2895 13.2174ZM78.7885 20.9913V22.6409H80.4381V20.9913H78.7885ZM76.3892 20.9913H74.7396V22.6409H76.3892V20.9913ZM76.274 14.6378L74.7578 15.2876L74.7667 15.3085L74.7762 15.3291L76.274 14.6378ZM75.9093 14.1963L74.9195 15.516L74.9446 15.5348L74.9703 15.5526L75.9093 14.1963ZM72.4926 14.3307L73.2018 15.82L73.2018 15.82L72.4926 14.3307ZM71.2077 18.2465C71.2077 18.791 71.3486 19.3411 71.6767 19.8333L74.4218 18.0033C74.4533 18.0506 74.4769 18.1027 74.4914 18.1532C74.5054 18.2024 74.5069 18.2361 74.5069 18.2465H71.2077ZM71.7069 19.8771C72.0138 20.3068 72.4162 20.6219 72.8651 20.8331L74.2699 17.848C74.2731 17.8495 74.2912 17.8586 74.3168 17.8794C74.3429 17.9007 74.3691 17.928 74.3915 17.9595L71.7069 19.8771ZM72.9696 20.878C73.4066 21.0479 73.8608 21.1245 74.3161 21.1245V17.8254C74.234 17.8254 74.1891 17.8124 74.1654 17.8032L72.9696 20.878ZM74.3161 21.1245C74.9255 21.1245 75.5283 21.001 76.0903 20.72L74.6149 17.7692C74.5627 17.7953 74.4745 17.8254 74.3161 17.8254V21.1245ZM76.1383 20.695C76.6882 20.3972 77.142 19.9774 77.4829 19.4547L74.7195 17.6525C74.6765 17.7184 74.6313 17.7593 74.567 17.7941L76.1383 20.695ZM77.5001 19.4278C77.8815 18.8176 78.0387 18.1387 78.0387 17.4595H74.7396C74.7396 17.6248 74.7049 17.6754 74.7024 17.6793L77.5001 19.4278ZM74.7953 17.8845L75.1024 19.0362L78.2901 18.1861L77.983 17.0344L74.7953 17.8845ZM75.0467 18.6112C75.0467 18.8403 74.9907 18.9257 74.9492 18.9756L77.4836 21.0876C78.0819 20.3697 78.3458 19.5081 78.3458 18.6112H75.0467ZM74.9283 19.0011C74.8198 19.1368 74.6657 19.2593 74.415 19.3557L75.5993 22.435C76.3467 22.1475 76.9988 21.6942 77.5045 21.0621L74.9283 19.0011ZM74.4015 19.361C74.1135 19.4747 73.8076 19.5337 73.4715 19.5337V22.8328C74.2104 22.8328 74.9282 22.6999 75.6128 22.4297L74.4015 19.361ZM73.4715 19.5337C73.1454 19.5337 72.87 19.4708 72.6246 19.358L71.2472 22.3559C71.9488 22.6782 72.6971 22.8328 73.4715 22.8328V19.5337ZM72.6246 19.358C72.4019 19.2557 72.2455 19.1232 72.1237 18.9537L69.4448 20.8792C69.9116 21.5287 70.5231 22.0232 71.2472 22.3559L72.6246 19.358ZM72.1568 19.0014C72.0872 18.897 72.0115 18.718 72.0115 18.3808H68.7124C68.7124 19.2465 68.9182 20.0912 69.4117 20.8314L72.1568 19.0014ZM72.0115 18.3808C72.0115 17.9602 72.1334 17.7683 72.3175 17.6156L70.2107 15.0767C69.1919 15.9221 68.7124 17.0867 68.7124 18.3808H72.0115ZM72.3175 17.6156C72.5223 17.4456 72.9464 17.2471 73.817 17.2471V13.948C72.4866 13.948 71.2088 14.2485 70.2107 15.0767L72.3175 17.6156ZM73.817 17.2471C74.273 17.2471 74.6138 17.2943 74.861 17.3617L75.7291 14.1789C75.1317 14.0159 74.4872 13.948 73.817 13.948V17.2471ZM74.8729 17.3649C75.2139 17.4552 75.4385 17.5501 75.5775 17.6286L77.2008 14.7565C76.7512 14.5024 76.2464 14.3158 75.7172 14.1757L74.8729 17.3649ZM75.5775 17.6286C75.6771 17.6849 75.7387 17.7269 75.7722 17.7522C75.808 17.7793 75.7927 17.7733 75.7554 17.7285L78.2898 15.6164C77.9757 15.2395 77.5657 14.9628 77.2008 14.7565L75.5775 17.6286ZM75.373 16.6725V17.8242H78.6722V16.6725H75.373ZM78.0045 16.4986C77.4949 16.1212 76.9279 15.8454 76.3172 15.6658L75.3862 18.8309C75.6457 18.9072 75.8593 19.0153 76.0407 19.1497L78.0045 16.4986ZM76.3301 15.6696C75.7418 15.4914 75.1318 15.4068 74.5081 15.4068V18.7059C74.8313 18.7059 75.117 18.7493 75.3733 18.827L76.3301 15.6696ZM74.5081 15.4068C73.996 15.4068 73.4433 15.4724 72.9274 15.6896L74.2076 18.7302C74.1877 18.7386 74.1974 18.7315 74.2508 18.7228C74.3038 18.7141 74.3874 18.7059 74.5081 18.7059V15.4068ZM72.9972 15.6621C72.4923 15.8481 71.9906 16.1795 71.6425 16.721L74.4176 18.505C74.3637 18.5889 74.2998 18.6531 74.2405 18.6975C74.1838 18.7401 74.1433 18.7557 74.1378 18.7578L72.9972 15.6621ZM71.6738 16.6741C71.3225 17.1814 71.2077 17.744 71.2077 18.2465H74.5069C74.5069 18.237 74.5072 18.3773 74.3863 18.552L71.6738 16.6741ZM73.3457 13.8671L72.4243 12.1779L69.528 13.7577L70.4494 15.4469L73.3457 13.8671ZM71.7461 14.4267C72.1017 14.239 72.5731 14.0425 73.1779 13.8447L72.1528 10.7089C71.4267 10.9463 70.772 11.2104 70.2062 11.509L71.7461 14.4267ZM73.2049 13.8356C73.6711 13.6743 74.2273 13.5809 74.892 13.5809V10.2817C73.9186 10.2817 72.9904 10.4187 72.1257 10.718L73.2049 13.8356ZM74.892 13.5809C75.4903 13.5809 75.963 13.6672 76.3356 13.8049L77.4792 10.7103C76.6746 10.413 75.8036 10.2817 74.892 10.2817V13.5809ZM76.3356 13.8049C76.6875 13.935 76.8788 14.0923 76.9937 14.2382L79.5852 12.1965C79.0347 11.4978 78.3047 11.0154 77.4792 10.7103L76.3356 13.8049ZM77.0092 14.2576C77.07 14.3324 77.139 14.4553 77.139 14.7338H80.4381C80.4381 13.8094 80.1744 12.9214 79.5697 12.1772L77.0092 14.2576ZM77.139 14.7338V20.9913H80.4381V14.7338H77.139ZM78.7885 19.3418H76.3892V22.6409H78.7885V19.3418ZM78.0387 20.9913V15.252H74.7396V20.9913H78.0387ZM78.0387 15.252C78.0387 14.8446 77.9756 14.3883 77.7717 13.9465L74.7762 15.3291C74.7505 15.2732 74.7416 15.2336 74.7391 15.2201C74.7366 15.2073 74.7396 15.216 74.7396 15.252H78.0387ZM77.7902 13.988C77.5864 13.5126 77.2594 13.1247 76.8482 12.8401L74.9703 15.5526C74.9365 15.5292 74.8947 15.4935 74.8535 15.4436C74.812 15.3934 74.78 15.3395 74.7578 15.2876L77.7902 13.988ZM76.899 12.8767C76.536 12.6044 76.1335 12.4359 75.7304 12.3411L74.9748 15.5525C74.9916 15.5564 74.9918 15.558 74.9802 15.5528C74.968 15.5473 74.9462 15.5359 74.9195 15.516L76.899 12.8767ZM75.7304 12.3411C75.3671 12.2556 74.9945 12.2204 74.6232 12.2204V15.5196C74.7895 15.5196 74.903 15.5356 74.9748 15.5525L75.7304 12.3411ZM74.6232 12.2204C74.0927 12.2204 73.5719 12.2786 73.0653 12.4009L73.8394 15.6079C74.0749 15.551 74.3347 15.5196 74.6232 15.5196V12.2204ZM73.0653 12.4009C72.6126 12.5101 72.1794 12.6528 71.7834 12.8414L73.2018 15.82C73.3432 15.7527 73.5499 15.6778 73.8394 15.6079L73.0653 12.4009ZM71.7834 12.8414C71.4918 12.9802 71.1941 13.1358 70.9516 13.3056L72.8435 16.0084C72.8419 16.0095 72.8678 15.9917 72.9354 15.9546C73 15.9192 73.0875 15.8744 73.2018 15.82L71.7834 12.8414ZM79.9687 12.1617V10.5121H78.3191V12.1617H79.9687ZM85.4201 12.1617H87.0697V10.5121H85.4201V12.1617ZM85.4201 14.2539V15.9035H87.0697V14.2539H85.4201ZM79.9687 14.2539H78.3191V15.9035H79.9687V14.2539ZM81.4851 9.09046V7.44089H79.8356V9.09046H81.4851ZM83.8845 9.09046H85.5341V7.44089H83.8845V9.09046ZM83.8845 20.9913V22.6409H85.5341V20.9913H83.8845ZM81.4851 20.9913H79.8356V22.6409H81.4851V20.9913ZM79.9687 13.8112H85.4201V10.5121H79.9687V13.8112ZM83.7705 12.1617V14.2539H87.0697V12.1617H83.7705ZM85.4201 12.6043H79.9687V15.9035H85.4201V12.6043ZM81.6183 14.2539V12.1617H78.3191V14.2539H81.6183ZM81.4851 10.74H83.8845V7.44089H81.4851V10.74ZM82.2349 9.09046V20.9913H85.5341V9.09046H82.2349ZM83.8845 19.3418H81.4851V22.6409H83.8845V19.3418ZM83.1347 20.9913V9.09046H79.8356V20.9913H83.1347ZM89.8915 18.8223L89.0782 20.2575L89.0882 20.2631L89.0983 20.2687L89.8915 18.8223ZM92.31 18.9759L92.8148 20.5463L92.84 20.5382L92.8648 20.5293L92.31 18.9759ZM93.2698 18.4768L94.24 19.8109L94.2503 19.8033L93.2698 18.4768ZM93.9416 17.7282H95.5912L92.4934 16.9383L93.9416 17.7282ZM93.9416 20.2811L95.0562 21.4971L95.5912 21.0068V20.2811H93.9416ZM92.7323 20.9529L93.2291 22.5259L93.2415 22.522L93.254 22.5179L92.7323 20.9529ZM88.4902 20.6074L87.7324 22.0726L87.7426 22.0778L88.4902 20.6074ZM86.7243 18.9951L85.3098 19.8438L85.3189 19.859L85.3284 19.874L86.7243 18.9951ZM86.7243 14.1579L85.3284 13.279L85.3225 13.2884L85.3167 13.2978L86.7243 14.1579ZM88.4902 12.5456L87.7426 11.0751L87.7324 11.0804L88.4902 12.5456ZM92.7323 12.2192L92.1984 13.78L92.2227 13.7883L92.2472 13.7959L92.7323 12.2192ZM93.9416 12.8527H95.5912V12.1042L95.0278 11.6112L93.9416 12.8527ZM93.9416 15.4056L92.4934 16.1955L95.5912 15.4056H93.9416ZM93.2506 14.6762L92.2701 16.0027L92.3023 16.0265L92.3356 16.0487L93.2506 14.6762ZM92.2716 14.1771L92.7764 12.6067L92.7764 12.6067L92.2716 14.1771ZM89.8915 14.3499L90.7047 15.785L90.7123 15.7808L90.7198 15.7764L89.8915 14.3499ZM86.975 16.5765C86.975 17.3437 87.1504 18.0935 87.5556 18.7688L90.3846 17.0714C90.3291 16.9789 90.2742 16.8331 90.2742 16.5765H86.975ZM87.5556 18.7688C87.9302 19.3931 88.4429 19.8974 89.0782 20.2575L90.7047 17.3871C90.5722 17.3121 90.4707 17.215 90.3846 17.0714L87.5556 18.7688ZM89.0983 20.2687C89.7496 20.6258 90.4593 20.7982 91.1967 20.7982V17.4991C90.9871 17.4991 90.8268 17.4539 90.6846 17.3759L89.0983 20.2687ZM91.1967 20.7982C91.7485 20.7982 92.2901 20.715 92.8148 20.5463L91.8052 17.4054C91.6133 17.4671 91.4127 17.4991 91.1967 17.4991V20.7982ZM92.8648 20.5293C93.3577 20.3533 93.82 20.1163 94.24 19.8109L92.2995 17.1427C92.1565 17.2467 91.979 17.3425 91.7552 17.4224L92.8648 20.5293ZM94.2503 19.8033C94.7104 19.4632 95.106 19.0383 95.3897 18.5181L92.4934 16.9383C92.4701 16.9812 92.4178 17.0553 92.2893 17.1503L94.2503 19.8033ZM92.292 17.7282V20.2811H95.5912V17.7282H92.292ZM92.8269 19.0651C92.7294 19.1545 92.5456 19.2764 92.2107 19.388L93.254 22.5179C93.9172 22.2968 94.5395 21.9708 95.0562 21.4971L92.8269 19.0651ZM92.2356 19.3799C91.9477 19.4709 91.5528 19.5337 91.024 19.5337V22.8328C91.8004 22.8328 92.5444 22.7421 93.2291 22.5259L92.2356 19.3799ZM91.024 19.5337C90.3225 19.5337 89.7382 19.3914 89.2379 19.137L87.7426 22.0778C88.7523 22.5912 89.8571 22.8328 91.024 22.8328V19.5337ZM89.2481 19.1423C88.7606 18.8901 88.3949 18.5524 88.1202 18.1161L85.3284 19.874C85.9239 20.8198 86.7354 21.5569 87.7324 22.0726L89.2481 19.1423ZM88.1388 18.1464C87.8864 17.7257 87.7404 17.219 87.7404 16.5765H84.4413C84.4413 17.7511 84.7176 18.8568 85.3098 19.8438L88.1388 18.1464ZM87.7404 16.5765C87.7404 15.9159 87.8887 15.4159 88.1318 15.0181L85.3167 13.2978C84.7153 14.282 84.4413 15.3943 84.4413 16.5765H87.7404ZM88.1202 15.0368C88.3949 14.6006 88.7606 14.2629 89.2481 14.0107L87.7324 11.0804C86.7354 11.596 85.9239 12.3332 85.3284 13.279L88.1202 15.0368ZM89.2379 14.016C89.7382 13.7616 90.3225 13.6193 91.024 13.6193V10.3201C89.8571 10.3201 88.7523 10.5618 87.7426 11.0752L89.2379 14.016ZM91.024 13.6193C91.5416 13.6193 91.9232 13.6859 92.1984 13.78L93.2663 10.6585C92.5689 10.4199 91.8116 10.3201 91.024 10.3201V13.6193ZM92.2472 13.7959C92.5842 13.8996 92.7644 14.0145 92.8553 14.0941L95.0278 11.6112C94.5046 11.1534 93.8786 10.846 93.2174 10.6426L92.2472 13.7959ZM92.292 12.8527V15.4056H95.5912V12.8527H92.292ZM95.3897 14.6157C95.0902 14.0665 94.6612 13.6341 94.1656 13.3037L92.3356 16.0487C92.4542 16.1278 92.4859 16.1817 92.4934 16.1955L95.3897 14.6157ZM94.2311 13.3496C93.7884 13.0225 93.3006 12.7752 92.7764 12.6067L91.7669 15.7476C91.9593 15.8094 92.1241 15.8948 92.2701 16.0027L94.2311 13.3496ZM92.7764 12.6067C92.2632 12.4417 91.7348 12.3548 91.1967 12.3548V15.6539C91.3752 15.6539 91.5634 15.6822 91.7669 15.7476L92.7764 12.6067ZM91.1967 12.3548C90.4421 12.3548 89.7198 12.5421 89.0632 12.9234L90.7198 15.7764C90.8565 15.697 91.0044 15.6539 91.1967 15.6539V12.3548ZM89.0782 12.9147C88.4429 13.2747 87.9302 13.7791 87.5556 14.4033L90.3846 16.1007C90.4707 15.9572 90.5722 15.8601 90.7047 15.785L89.0782 12.9147ZM87.5556 14.4033C87.1543 15.0722 86.975 15.8137 86.975 16.5765H90.2742C90.2742 16.3412 90.3252 16.1997 90.3846 16.1007L87.5556 14.4033ZM98.6301 6.01927H100.28V4.3697H98.6301V6.01927ZM98.6301 20.9913V22.6409H100.28V20.9913H98.6301ZM96.1348 20.9913H94.4852V22.6409H96.1348V20.9913ZM96.1348 6.01927V4.3697H94.4852V6.01927H96.1348ZM101.49 14.2731L100.144 15.2266L100.157 15.2449L100.171 15.2628L101.49 14.2731ZM99.4555 14.0428L100.221 15.504L100.248 15.49L100.274 15.475L99.4555 14.0428ZM98.8413 14.657L100.302 15.4224L100.302 15.4224L98.8413 14.657ZM98.6301 15.6167V17.2663H100.28V15.6167H98.6301ZM98.131 15.6167H96.4815V17.2663H98.131V15.6167ZM98.4766 13.7164L96.9621 13.0625L96.9558 13.0771L96.9498 13.0919L98.4766 13.7164ZM99.5515 12.3728L98.6031 11.0231L98.6031 11.0231L99.5515 12.3728ZM103.007 12.2576L102.188 13.6899L102.188 13.6899L103.007 12.2576ZM104.005 13.4093L102.487 14.0545L102.49 14.0615L102.493 14.0685L104.005 13.4093ZM104.331 20.9913V22.6409H105.981V20.9913H104.331ZM101.836 20.9913H100.186V22.6409H101.836V20.9913ZM96.9805 6.01927V20.9913H100.28V6.01927H96.9805ZM98.6301 19.3418H96.1348V22.6409H98.6301V19.3418ZM97.7843 20.9913V6.01927H94.4852V20.9913H97.7843ZM96.1348 7.66883H98.6301V4.3697H96.1348V7.66883ZM103.485 15.6167C103.485 14.8505 103.341 13.9922 102.81 13.2834L100.171 15.2628C100.132 15.212 100.137 15.1937 100.152 15.2502C100.167 15.3092 100.186 15.4253 100.186 15.6167H103.485ZM102.836 13.3196C102.198 12.4186 101.209 12.1629 100.377 12.1629V15.462C100.486 15.462 100.483 15.4789 100.418 15.4518C100.383 15.4372 100.334 15.4118 100.282 15.3706C100.228 15.3289 100.182 15.2794 100.144 15.2266L102.836 13.3196ZM100.377 12.1629C99.7784 12.1629 99.1831 12.2985 98.6371 12.6105L100.274 15.475C100.274 15.4748 100.277 15.4729 100.287 15.4703C100.299 15.4675 100.327 15.462 100.377 15.462V12.1629ZM98.6901 12.5815C98.124 12.878 97.6765 13.3255 97.38 13.8916L100.302 15.4224C100.299 15.4288 100.288 15.4472 100.267 15.4683C100.246 15.4895 100.227 15.5007 100.221 15.504L98.6901 12.5815ZM97.38 13.8916C97.0909 14.4436 96.9805 15.0378 96.9805 15.6167H100.28C100.28 15.4535 100.31 15.4079 100.302 15.4224L97.38 13.8916ZM98.6301 13.9672H98.131V17.2663H98.6301V13.9672ZM99.7806 15.6167C99.7806 15.0939 99.8658 14.6772 100.003 14.341L96.9498 13.0919C96.6267 13.8818 96.4815 14.732 96.4815 15.6167H99.7806ZM99.991 14.3704C100.121 14.0696 100.291 13.8694 100.5 13.7225L98.6031 11.0231C97.8652 11.5417 97.3185 12.2372 96.9621 13.0625L99.991 14.3704ZM100.5 13.7225C100.645 13.6204 100.879 13.5233 101.298 13.5233V10.2242C100.335 10.2242 99.4047 10.4598 98.6031 11.0231L100.5 13.7225ZM101.298 13.5233C101.796 13.5233 102.06 13.6167 102.188 13.6899L103.825 10.8254C103.057 10.3867 102.182 10.2242 101.298 10.2242V13.5233ZM102.188 13.6899C102.298 13.7526 102.398 13.8468 102.487 14.0545L105.523 12.7641C105.176 11.9481 104.611 11.2745 103.825 10.8254L102.188 13.6899ZM102.493 14.0685C102.594 14.3018 102.681 14.6765 102.681 15.252H105.981C105.981 14.3687 105.85 13.515 105.517 12.7502L102.493 14.0685ZM102.681 15.252V20.9913H105.981V15.252H102.681ZM104.331 19.3418H101.836V22.6409H104.331V19.3418ZM103.485 20.9913V15.6167H100.186V20.9913H103.485ZM109.066 14.1771H107.417V15.8267H109.066V14.1771ZM109.066 12.9295V11.2799H107.417V12.9295H109.066ZM112.272 12.7375L112.929 14.2503L112.929 14.2503L112.272 12.7375ZM112.944 12.1808L111.582 11.2494L111.565 11.2744L111.549 11.3L112.944 12.1808ZM112.656 10.1462L111.643 11.4483L111.654 11.4572L111.666 11.4658L112.656 10.1462ZM109.757 9.74309V8.09352H108.108V9.74309H109.757ZM109.757 18.8031H108.108V20.4527H109.757V18.8031ZM112.771 18.6112L113.309 20.1706L113.332 20.1624L113.356 20.1535L112.771 18.6112ZM113.635 17.9585L112.308 16.978L112.294 16.9971L112.28 17.0165L113.635 17.9585ZM113.769 15.9814L112.278 16.6876L112.301 16.7359L112.327 16.7825L113.769 15.9814ZM113.251 15.3864L112.249 16.6968L112.291 16.7293L112.336 16.7589L113.251 15.3864ZM112.483 15.0409L112.066 16.637L112.099 16.6456L112.132 16.6528L112.483 15.0409ZM109.066 14.9257H107.417V16.5753H109.066V14.9257ZM109.066 13.4285V11.779H107.417V13.4285H109.066ZM113.635 13.6397L113.251 15.244L113.259 15.2458L113.635 13.6397ZM115.247 14.3115L114.349 15.6954L114.363 15.7041L114.376 15.7124L115.247 14.3115ZM116.36 15.4632L114.926 16.2774L114.934 16.2919L114.942 16.3062L116.36 15.4632ZM116.149 19.3406L114.829 18.3508L114.822 18.3605L114.815 18.3703L116.149 19.3406ZM114.402 20.5882L113.849 19.0342L114.402 20.5882ZM107.012 20.9913H105.363V22.6409H107.012V20.9913ZM107.012 7.55486V5.9053H105.363V7.55486H107.012ZM113.846 7.93876L113.263 9.4821L113.276 9.48694L113.289 9.49157L113.846 7.93876ZM115.439 9.05207L116.746 8.04631L116.746 8.04631L115.439 9.05207ZM115.439 12.6991L116.734 13.7213L116.734 13.7213L115.439 12.6991ZM113.846 13.8124L114.402 15.3652L114.415 15.3606L114.428 15.3558L113.846 13.8124ZM110.716 14.1771V12.9295H107.417V14.1771H110.716ZM109.066 14.579H111.235V11.2799H109.066V14.579ZM111.235 14.579C111.806 14.579 112.385 14.4871 112.929 14.2503L111.614 11.2247C111.57 11.2438 111.458 11.2799 111.235 11.2799V14.579ZM112.929 14.2503C113.491 14.0063 113.988 13.6166 114.338 13.0617L111.549 11.3C111.566 11.2729 111.588 11.249 111.608 11.2322C111.627 11.2163 111.633 11.2163 111.614 11.2247L112.929 14.2503ZM114.305 13.1123C114.683 12.5602 114.843 11.9376 114.843 11.3171H111.544C111.544 11.3454 111.54 11.3449 111.546 11.3247C111.549 11.315 111.553 11.3026 111.56 11.2886C111.566 11.2746 111.574 11.2613 111.582 11.2494L114.305 13.1123ZM114.843 11.3171C114.843 10.3706 114.482 9.4543 113.645 8.82653L111.666 11.4658C111.654 11.457 111.634 11.4398 111.612 11.4131C111.59 11.3861 111.572 11.3568 111.56 11.3286C111.533 11.2704 111.544 11.2537 111.544 11.3171H114.843ZM113.668 8.84409C112.942 8.27916 112.068 8.09352 111.235 8.09352V11.3927C111.605 11.3927 111.678 11.4757 111.643 11.4483L113.668 8.84409ZM111.235 8.09352H109.757V11.3927H111.235V8.09352ZM108.108 9.74309V18.8031H111.407V9.74309H108.108ZM109.757 20.4527H111.523V17.1535H109.757V20.4527ZM111.523 20.4527C112.136 20.4527 112.737 20.3676 113.309 20.1706L112.233 17.0517C112.062 17.1107 111.832 17.1535 111.523 17.1535V20.4527ZM113.356 20.1535C114.003 19.9079 114.574 19.4969 114.989 18.9005L112.28 17.0165C112.278 17.0198 112.277 17.0218 112.271 17.0263C112.264 17.0317 112.239 17.0485 112.186 17.0688L113.356 20.1535ZM114.961 18.939C115.437 18.2946 115.61 17.5474 115.61 16.826H112.311C112.311 16.9278 112.299 16.9807 112.294 16.9979C112.29 17.012 112.292 16.9999 112.308 16.978L114.961 18.939ZM115.61 16.826C115.61 16.2853 115.506 15.712 115.211 15.1803L112.327 16.7825C112.308 16.7488 112.304 16.7281 112.304 16.7309C112.305 16.7352 112.311 16.7645 112.311 16.826H115.61ZM115.26 15.2753C115.013 14.7539 114.637 14.3282 114.166 14.0139L112.336 16.7589C112.336 16.7591 112.333 16.7571 112.328 16.7526C112.323 16.7481 112.316 16.7418 112.309 16.7337C112.294 16.7165 112.284 16.6994 112.278 16.6876L115.26 15.2753ZM114.253 14.0761C113.824 13.7484 113.34 13.5392 112.833 13.429L112.132 16.6528C112.214 16.6705 112.242 16.6917 112.249 16.6968L114.253 14.0761ZM112.899 13.4447C112.452 13.3281 111.99 13.2762 111.523 13.2762V16.5753C111.747 16.5753 111.925 16.6002 112.066 16.637L112.899 13.4447ZM111.523 13.2762H109.066V16.5753H111.523V13.2762ZM110.716 14.9257V13.4285H107.417V14.9257H110.716ZM109.066 15.0781H111.773V11.779H109.066V15.0781ZM111.773 15.0781C112.306 15.0781 112.797 15.1355 113.251 15.244L114.018 12.0353C113.295 11.8623 112.544 11.779 111.773 11.779V15.0781ZM113.259 15.2458C113.692 15.3473 114.05 15.5013 114.349 15.6954L116.145 12.9276C115.497 12.5074 114.78 12.2136 114.01 12.0335L113.259 15.2458ZM114.376 15.7124C114.621 15.865 114.796 16.0494 114.926 16.2774L117.795 14.649C117.387 13.93 116.819 13.3466 116.118 12.9105L114.376 15.7124ZM114.942 16.3062C115.044 16.4763 115.133 16.741 115.133 17.1715H118.432C118.432 16.2712 118.24 15.397 117.778 14.6201L114.942 16.3062ZM115.133 17.1715C115.133 17.7897 114.988 18.1391 114.829 18.3508L117.469 20.3303C118.155 19.4159 118.432 18.3193 118.432 17.1715H115.133ZM114.815 18.3703C114.629 18.6255 114.34 18.8596 113.849 19.0342L114.956 22.1423C115.975 21.7795 116.85 21.1817 117.483 20.3108L114.815 18.3703ZM113.849 19.0342C113.309 19.2264 112.627 19.3418 111.773 19.3418V22.6409C112.915 22.6409 113.985 22.4876 114.956 22.1423L113.849 19.0342ZM111.773 19.3418H107.012V22.6409H111.773V19.3418ZM108.662 20.9913V7.55486H105.363V20.9913H108.662ZM107.012 9.20443H111.485V5.9053H107.012V9.20443ZM111.485 9.20443C112.227 9.20443 112.809 9.31078 113.263 9.4821L114.428 6.39543C113.526 6.05488 112.534 5.9053 111.485 5.9053V9.20443ZM113.289 9.49157C113.714 9.64383 113.967 9.84393 114.131 10.0578L116.746 8.04631C116.143 7.26207 115.334 6.71997 114.402 6.38596L113.289 9.49157ZM114.131 10.0578C114.248 10.2097 114.365 10.4664 114.365 10.9524H117.664C117.664 9.9027 117.397 8.89257 116.746 8.04631L114.131 10.0578ZM114.365 10.9524C114.365 11.297 114.276 11.5099 114.144 11.677L116.734 13.7213C117.369 12.9158 117.664 11.9641 117.664 10.9524H114.365ZM114.144 11.677C113.976 11.8906 113.709 12.1007 113.263 12.2691L114.428 15.3558C115.338 15.0122 116.134 14.4802 116.734 13.7213L114.144 11.677ZM113.289 12.2596C112.827 12.4253 112.235 12.5276 111.485 12.5276V15.8267C112.526 15.8267 113.508 15.6858 114.402 15.3652L113.289 12.2596ZM111.485 12.5276H109.066V15.8267H111.485V12.5276ZM127.299 12.1617L128.808 12.8275L129.829 10.5121H127.299V12.1617ZM121.54 25.2142V26.8638H122.615L123.049 25.8801L121.54 25.2142ZM118.987 25.2142L117.475 24.5548L116.468 26.8638H118.987V25.2142ZM121.214 20.1084L122.726 20.7678L123.022 20.0894L122.712 19.4173L121.214 20.1084ZM117.548 12.1617V10.5121H114.97L116.05 12.8527L117.548 12.1617ZM120.312 12.1617L121.841 11.5433L121.424 10.5121H120.312V12.1617ZM123.153 19.187L123.101 20.8358L125.631 20.9148L124.682 18.5686L123.153 19.187ZM121.924 19.1486L120.392 18.5382L119.521 20.7239L121.873 20.7974L121.924 19.1486ZM124.707 12.1617V10.5121H123.589L123.175 11.5512L124.707 12.1617ZM125.789 11.4958L120.031 24.5484L123.049 25.8801L128.808 12.8275L125.789 11.4958ZM121.54 23.5647H118.987V26.8638H121.54V23.5647ZM120.499 25.8736L122.726 20.7678L119.702 19.449L117.475 24.5548L120.499 25.8736ZM122.712 19.4173L119.045 11.4706L116.05 12.8527L119.716 20.7994L122.712 19.4173ZM117.548 13.8112H120.312V10.5121H117.548V13.8112ZM118.782 12.78L121.623 19.8054L124.682 18.5686L121.841 11.5433L118.782 12.78ZM123.204 17.5382L121.976 17.4999L121.873 20.7974L123.101 20.8358L123.204 17.5382ZM123.457 19.7591L126.24 12.7721L123.175 11.5512L120.392 18.5382L123.457 19.7591ZM124.707 13.8112H127.299V10.5121H124.707V13.8112ZM129.363 17.9393L127.731 17.6939L127.446 19.5889H129.363V17.9393ZM129.689 15.7703V14.1207H128.269L128.058 15.5249L129.689 15.7703ZM136.138 15.7703L137.77 15.5249L137.558 14.1207H136.138V15.7703ZM136.465 17.9393V19.5889H138.381L138.096 17.6939L136.465 17.9393ZM132.875 11.9121L134.39 11.2578L132.882 7.76788L131.363 11.2532L132.875 11.9121ZM130.86 16.5381L129.348 15.8792L129.178 16.2689L129.217 16.6921L130.86 16.5381ZM130.917 17.1523L132.416 17.8417L132.601 17.4393L132.56 16.9984L130.917 17.1523ZM129.151 20.9913V22.6409H130.208L130.65 21.6807L129.151 20.9913ZM126.061 20.9913L124.573 20.2786L123.442 22.6409H126.061V20.9913ZM132.875 6.76787L134.363 6.05516L132.875 2.94994L131.388 6.05516L132.875 6.76787ZM139.689 20.9913V22.6409H142.309L141.177 20.2786L139.689 20.9913ZM136.58 20.9913L135.084 21.6855L135.527 22.6409H136.58V20.9913ZM134.852 17.2675L133.205 17.176L133.182 17.5877L133.356 17.9617L134.852 17.2675ZM134.891 16.5765L136.538 16.668L136.559 16.2794L136.405 15.9222L134.891 16.5765ZM130.994 18.1847L131.32 16.0157L128.058 15.5249L127.731 17.6939L130.994 18.1847ZM129.689 17.4199H136.138V14.1207H129.689V17.4199ZM134.507 16.0157L134.834 18.1847L138.096 17.6939L137.77 15.5249L134.507 16.0157ZM136.465 16.2898H129.363V19.5889H136.465V16.2898ZM131.363 11.2532L129.348 15.8792L132.372 17.197L134.388 12.571L131.363 11.2532ZM129.217 16.6921L129.275 17.3063L132.56 16.9984L132.502 16.3841L129.217 16.6921ZM129.419 16.463L127.653 20.302L130.65 21.6807L132.416 17.8417L129.419 16.463ZM129.151 19.3418H126.061V22.6409H129.151V19.3418ZM127.549 21.704L134.363 7.48058L131.388 6.05516L124.573 20.2786L127.549 21.704ZM131.388 7.48058L138.202 21.704L141.177 20.2786L134.363 6.05516L131.388 7.48058ZM139.689 19.3418H136.58V22.6409H139.689V19.3418ZM138.076 20.2971L136.349 16.5733L133.356 17.9617L135.084 21.6855L138.076 20.2971ZM136.499 17.359L136.538 16.668L133.244 16.485L133.205 17.176L136.499 17.359ZM136.405 15.9222L134.39 11.2578L131.361 12.5664L133.376 17.2308L136.405 15.9222ZM141.243 7.74681L142.325 8.99158L142.341 8.97847L142.355 8.96499L141.243 7.74681ZM143.335 7.74681L142.196 8.94004L142.224 8.96647L142.253 8.99158L143.335 7.74681ZM143.335 9.74309L142.223 8.52491L142.21 8.53724L142.196 8.54987L143.335 9.74309ZM141.243 9.74309L140.131 10.9613L140.131 10.9613L141.243 9.74309ZM141.07 12.1617V10.5121H139.421V12.1617H141.07ZM143.489 12.1617H145.138V10.5121H143.489V12.1617ZM143.489 20.9913V22.6409H145.138V20.9913H143.489ZM141.07 20.9913H139.421V22.6409H141.07V20.9913ZM142.451 8.74495C142.451 8.74113 142.451 8.78684 142.421 8.85556C142.389 8.92635 142.348 8.97233 142.325 8.99158L140.161 6.50204C139.486 7.08864 139.152 7.88513 139.152 8.74495H142.451ZM142.355 8.96499C142.358 8.9623 142.356 8.96497 142.348 8.97007C142.339 8.97526 142.328 8.98085 142.316 8.98555C142.304 8.99023 142.294 8.99248 142.289 8.99338C142.284 8.99424 142.287 8.99329 142.299 8.99329V5.69415C141.49 5.69415 140.738 5.97408 140.131 6.52863L142.355 8.96499ZM142.299 8.99329C142.32 8.99329 142.304 8.99622 142.267 8.9819C142.25 8.97529 142.234 8.96698 142.22 8.95804C142.206 8.9492 142.199 8.94216 142.196 8.94004L144.474 6.55359C143.869 5.9755 143.108 5.69415 142.299 5.69415V8.99329ZM142.253 8.99158C142.231 8.97233 142.189 8.92635 142.158 8.85556C142.127 8.78684 142.127 8.74113 142.127 8.74495H145.426C145.426 7.88513 145.092 7.08864 144.418 6.50204L142.253 8.99158ZM142.127 8.74495C142.127 8.73447 142.13 8.68694 142.158 8.62475C142.185 8.56274 142.218 8.52988 142.223 8.52491L144.448 10.9613C145.082 10.3817 145.426 9.60763 145.426 8.74495H142.127ZM142.196 8.54987C142.199 8.54774 142.206 8.5407 142.22 8.53186C142.234 8.52292 142.25 8.51461 142.267 8.50801C142.304 8.49369 142.32 8.49662 142.299 8.49662V11.7957C143.108 11.7957 143.869 11.5144 144.474 10.9363L142.196 8.54987ZM142.299 8.49662C142.287 8.49662 142.284 8.49566 142.289 8.49652C142.294 8.49743 142.304 8.49967 142.316 8.50435C142.328 8.50906 142.339 8.51464 142.348 8.51984C142.356 8.52493 142.358 8.5276 142.355 8.52491L140.131 10.9613C140.738 11.5158 141.49 11.7957 142.299 11.7957V8.49662ZM142.355 8.52491C142.361 8.52988 142.393 8.56274 142.421 8.62475C142.448 8.68694 142.451 8.73447 142.451 8.74495H139.152C139.152 9.60763 139.496 10.3817 140.131 10.9613L142.355 8.52491ZM141.07 13.8112H143.489V10.5121H141.07V13.8112ZM141.839 12.1617V20.9913H145.138V12.1617H141.839ZM143.489 19.3418H141.07V22.6409H143.489V19.3418ZM142.72 20.9913V12.1617H139.421V20.9913H142.72Z" fill="white" mask="url(#path-1-outside-1_992_2788)"/>
<path d="M56.4612 24.939V25.5876H54.4041V27.0171H56.0079V27.6656H54.4041V29.7854H53.6091V24.939H56.4612ZM56.9329 27.8469C56.9329 27.461 57.0119 27.1193 57.17 26.8218C57.3327 26.5243 57.5512 26.2942 57.8255 26.1315C58.1044 25.9641 58.4112 25.8804 58.7459 25.8804C59.0481 25.8804 59.3107 25.9409 59.5339 26.0617C59.7617 26.1779 59.943 26.3244 60.0778 26.501V25.9432H60.8797V29.7854H60.0778V29.2136C59.943 29.3949 59.7593 29.546 59.5269 29.6669C59.2945 29.7877 59.0295 29.8482 58.732 29.8482C58.4019 29.8482 58.0997 29.7645 57.8255 29.5971C57.5512 29.4251 57.3327 29.188 57.17 28.8859C57.0119 28.579 56.9329 28.2327 56.9329 27.8469ZM60.0778 27.8608C60.0778 27.5958 60.022 27.3657 59.9104 27.1705C59.8035 26.9752 59.6617 26.8265 59.4851 26.7242C59.3084 26.6219 59.1178 26.5708 58.9133 26.5708C58.7087 26.5708 58.5181 26.6219 58.3415 26.7242C58.1648 26.8218 58.0207 26.9682 57.9091 27.1635C57.8022 27.3541 57.7487 27.5819 57.7487 27.8469C57.7487 28.1118 57.8022 28.3443 57.9091 28.5442C58.0207 28.7441 58.1648 28.8975 58.3415 29.0044C58.5228 29.1067 58.7134 29.1578 58.9133 29.1578C59.1178 29.1578 59.3084 29.1067 59.4851 29.0044C59.6617 28.9021 59.8035 28.7534 59.9104 28.5581C60.022 28.3582 60.0778 28.1258 60.0778 27.8608ZM62.7188 24.6253V29.7854H61.9238V24.6253H62.7188ZM64.5574 24.6253V29.7854H63.7625V24.6253H64.5574ZM67.8169 25.4341C67.6728 25.4341 67.5519 25.3853 67.4543 25.2877C67.3567 25.1901 67.3079 25.0692 67.3079 24.9251C67.3079 24.781 67.3567 24.6601 67.4543 24.5625C67.5519 24.4649 67.6728 24.4161 67.8169 24.4161C67.9564 24.4161 68.0749 24.4649 68.1725 24.5625C68.2702 24.6601 68.319 24.781 68.319 24.9251C68.319 25.0692 68.2702 25.1901 68.1725 25.2877C68.0749 25.3853 67.9564 25.4341 67.8169 25.4341ZM68.2074 25.9432V29.7854H67.4125V25.9432H68.2074ZM71.1896 25.8804C71.4918 25.8804 71.7614 25.9432 71.9985 26.0687C72.2403 26.1942 72.4285 26.3802 72.5634 26.6266C72.6982 26.8729 72.7656 27.1705 72.7656 27.5191V29.7854H71.9776V27.6377C71.9776 27.2937 71.8916 27.031 71.7196 26.8497C71.5476 26.6637 71.3128 26.5708 71.0153 26.5708C70.7178 26.5708 70.4807 26.6637 70.304 26.8497C70.132 27.031 70.046 27.2937 70.046 27.6377V29.7854H69.2511V25.9432H70.046V26.3825C70.1762 26.2244 70.3412 26.1012 70.5411 26.0129C70.7457 25.9246 70.9618 25.8804 71.1896 25.8804ZM98.2242 26.3825C98.2242 26.6289 98.1661 26.8613 98.0499 27.0798C97.9337 27.2983 97.7477 27.4773 97.492 27.6167C97.2364 27.7516 96.9086 27.819 96.5088 27.819H95.6302V29.7854H94.8353V24.939H96.5088C96.8807 24.939 97.1945 25.0041 97.4502 25.1343C97.7105 25.2598 97.9035 25.4318 98.029 25.6503C98.1591 25.8688 98.2242 26.1129 98.2242 26.3825ZM96.5088 27.1705C96.811 27.1705 97.0365 27.1031 97.1852 26.9682C97.334 26.8288 97.4084 26.6335 97.4084 26.3825C97.4084 25.8525 97.1085 25.5876 96.5088 25.5876H95.6302V27.1705H96.5088ZM100.649 29.8482C100.286 29.8482 99.9586 29.7668 99.6658 29.6041C99.3729 29.4367 99.1428 29.2043 98.9754 28.9068C98.8081 28.6046 98.7244 28.256 98.7244 27.8608C98.7244 27.4703 98.8104 27.124 98.9824 26.8218C99.1544 26.5196 99.3892 26.2872 99.6867 26.1245C99.9842 25.9618 100.317 25.8804 100.684 25.8804C101.051 25.8804 101.383 25.9618 101.681 26.1245C101.979 26.2872 102.213 26.5196 102.385 26.8218C102.557 27.124 102.643 27.4703 102.643 27.8608C102.643 28.2513 102.555 28.5976 102.378 28.8998C102.202 29.202 101.96 29.4367 101.653 29.6041C101.351 29.7668 101.016 29.8482 100.649 29.8482ZM100.649 29.1578C100.854 29.1578 101.044 29.109 101.221 29.0114C101.402 28.9138 101.549 28.7673 101.66 28.5721C101.772 28.3768 101.827 28.1397 101.827 27.8608C101.827 27.5819 101.774 27.3471 101.667 27.1565C101.56 26.9613 101.418 26.8148 101.242 26.7172C101.065 26.6196 100.874 26.5708 100.67 26.5708C100.465 26.5708 100.275 26.6196 100.098 26.7172C99.9261 26.8148 99.789 26.9613 99.6867 27.1565C99.5844 27.3471 99.5333 27.5819 99.5333 27.8608C99.5333 28.2745 99.6379 28.5953 99.8471 28.8231C100.061 29.0462 100.328 29.1578 100.649 29.1578ZM108.589 25.9432L107.397 29.7854H106.56L105.786 26.9473L105.012 29.7854H104.175L102.976 25.9432H103.785L104.587 29.0323L105.403 25.9432H106.232L107.013 29.0184L107.808 25.9432H108.589ZM112.705 27.7702C112.705 27.9143 112.696 28.0444 112.677 28.1607H109.741C109.764 28.4675 109.878 28.7139 110.083 28.8998C110.287 29.0858 110.538 29.1787 110.836 29.1787C111.264 29.1787 111.566 28.9998 111.743 28.6418H112.6C112.484 28.9951 112.272 29.2857 111.966 29.5134C111.663 29.7366 111.287 29.8482 110.836 29.8482C110.469 29.8482 110.139 29.7668 109.846 29.6041C109.558 29.4367 109.33 29.2043 109.162 28.9068C109 28.6046 108.918 28.256 108.918 27.8608C108.918 27.4657 108.997 27.1193 109.155 26.8218C109.318 26.5196 109.544 26.2872 109.832 26.1245C110.125 25.9618 110.459 25.8804 110.836 25.8804C111.199 25.8804 111.522 25.9595 111.805 26.1175C112.089 26.2756 112.31 26.4987 112.468 26.7869C112.626 27.0705 112.705 27.3983 112.705 27.7702ZM111.875 27.5191C111.87 27.2262 111.766 26.9915 111.561 26.8148C111.357 26.6382 111.103 26.5499 110.801 26.5499C110.527 26.5499 110.292 26.6382 110.097 26.8148C109.902 26.9868 109.785 27.2216 109.748 27.5191H111.875ZM114.282 26.501C114.398 26.3058 114.552 26.1547 114.742 26.0478C114.938 25.9362 115.168 25.8804 115.433 25.8804V26.7033H115.23C114.919 26.7033 114.682 26.7823 114.519 26.9403C114.361 27.0984 114.282 27.3727 114.282 27.7632V29.7854H113.487V25.9432H114.282V26.501ZM119.685 27.7702C119.685 27.9143 119.676 28.0444 119.657 28.1607H116.721C116.744 28.4675 116.858 28.7139 117.063 28.8998C117.267 29.0858 117.518 29.1787 117.816 29.1787C118.244 29.1787 118.546 28.9998 118.723 28.6418H119.58C119.464 28.9951 119.252 29.2857 118.946 29.5134C118.643 29.7366 118.267 29.8482 117.816 29.8482C117.449 29.8482 117.119 29.7668 116.826 29.6041C116.538 29.4367 116.31 29.2043 116.142 28.9068C115.98 28.6046 115.898 28.256 115.898 27.8608C115.898 27.4657 115.977 27.1193 116.135 26.8218C116.298 26.5196 116.524 26.2872 116.812 26.1245C117.105 25.9618 117.439 25.8804 117.816 25.8804C118.179 25.8804 118.502 25.9595 118.785 26.1175C119.069 26.2756 119.29 26.4987 119.448 26.7869C119.606 27.0705 119.685 27.3983 119.685 27.7702ZM118.855 27.5191C118.85 27.2262 118.746 26.9915 118.541 26.8148C118.337 26.6382 118.083 26.5499 117.781 26.5499C117.507 26.5499 117.272 26.6382 117.077 26.8148C116.882 26.9868 116.765 27.2216 116.728 27.5191H118.855ZM120.202 27.8469C120.202 27.461 120.281 27.1193 120.439 26.8218C120.602 26.5243 120.82 26.2942 121.095 26.1315C121.374 25.9641 121.683 25.8804 122.022 25.8804C122.273 25.8804 122.52 25.9362 122.761 26.0478C123.008 26.1547 123.203 26.2988 123.347 26.4801V24.6253H124.149V29.7854H123.347V29.2066C123.217 29.3926 123.036 29.546 122.803 29.6669C122.575 29.7877 122.313 29.8482 122.015 29.8482C121.68 29.8482 121.374 29.7645 121.095 29.5971C120.82 29.4251 120.602 29.188 120.439 28.8859C120.281 28.579 120.202 28.2327 120.202 27.8469ZM123.347 27.8608C123.347 27.5958 123.291 27.3657 123.18 27.1705C123.073 26.9752 122.931 26.8265 122.754 26.7242C122.578 26.6219 122.387 26.5708 122.183 26.5708C121.978 26.5708 121.787 26.6219 121.611 26.7242C121.434 26.8218 121.29 26.9682 121.178 27.1635C121.071 27.3541 121.018 27.5819 121.018 27.8469C121.018 28.1118 121.071 28.3443 121.178 28.5442C121.29 28.7441 121.434 28.8975 121.611 29.0044C121.792 29.1067 121.983 29.1578 122.183 29.1578C122.387 29.1578 122.578 29.1067 122.754 29.0044C122.931 28.9021 123.073 28.7534 123.18 28.5581C123.291 28.3582 123.347 28.1258 123.347 27.8608ZM127.799 26.515C127.934 26.329 128.118 26.1779 128.35 26.0617C128.587 25.9409 128.85 25.8804 129.138 25.8804C129.478 25.8804 129.784 25.9618 130.059 26.1245C130.333 26.2872 130.549 26.5196 130.707 26.8218C130.865 27.1193 130.944 27.461 130.944 27.8469C130.944 28.2327 130.865 28.579 130.707 28.8859C130.549 29.188 130.331 29.4251 130.052 29.5971C129.777 29.7645 129.473 29.8482 129.138 29.8482C128.841 29.8482 128.576 29.79 128.343 29.6738C128.116 29.5576 127.934 29.4088 127.799 29.2275V29.7854H127.004V24.6253H127.799V26.515ZM130.135 27.8469C130.135 27.5819 130.08 27.3541 129.968 27.1635C129.861 26.9682 129.717 26.8218 129.536 26.7242C129.359 26.6219 129.168 26.5708 128.964 26.5708C128.764 26.5708 128.573 26.6219 128.392 26.7242C128.215 26.8265 128.071 26.9752 127.96 27.1705C127.853 27.3657 127.799 27.5958 127.799 27.8608C127.799 28.1258 127.853 28.3582 127.96 28.5581C128.071 28.7534 128.215 28.9021 128.392 29.0044C128.573 29.1067 128.764 29.1578 128.964 29.1578C129.168 29.1578 129.359 29.1067 129.536 29.0044C129.717 28.8975 129.861 28.7441 129.968 28.5442C130.08 28.3443 130.135 28.1118 130.135 27.8469ZM135.189 25.9432L132.832 31.5915H132.009L132.79 29.7226L131.277 25.9432H132.163L133.244 28.8719L134.366 25.9432H135.189Z" fill="#0C1721"/>
<path d="M76.3859 29.1439H78.0246V29.7854H75.591V24.939H76.3859V29.1439ZM80.356 29.8482C79.9934 29.8482 79.6656 29.7668 79.3728 29.6041C79.0799 29.4367 78.8498 29.2043 78.6824 28.9068C78.5151 28.6046 78.4314 28.256 78.4314 27.8608C78.4314 27.4703 78.5174 27.124 78.6894 26.8218C78.8614 26.5196 79.0962 26.2872 79.3937 26.1245C79.6912 25.9618 80.0236 25.8804 80.3908 25.8804C80.7581 25.8804 81.0905 25.9618 81.388 26.1245C81.6855 26.2872 81.9203 26.5196 82.0923 26.8218C82.2643 27.124 82.3503 27.4703 82.3503 27.8608C82.3503 28.2513 82.262 28.5976 82.0853 28.8998C81.9087 29.202 81.6669 29.4367 81.3601 29.6041C81.0579 29.7668 80.7232 29.8482 80.356 29.8482ZM80.356 29.1578C80.5605 29.1578 80.7511 29.109 80.9278 29.0114C81.1091 28.9138 81.2555 28.7673 81.3671 28.5721C81.4787 28.3768 81.5344 28.1397 81.5344 27.8608C81.5344 27.5819 81.481 27.3471 81.3741 27.1565C81.2671 26.9613 81.1253 26.8148 80.9487 26.7172C80.772 26.6196 80.5814 26.5708 80.3769 26.5708C80.1723 26.5708 79.9817 26.6196 79.8051 26.7172C79.6331 26.8148 79.496 26.9613 79.3937 27.1565C79.2914 27.3471 79.2403 27.5819 79.2403 27.8608C79.2403 28.2745 79.3449 28.5953 79.5541 28.8231C79.7679 29.0462 80.0352 29.1578 80.356 29.1578ZM84.6214 29.0741L85.7092 25.9432H86.553L85.0886 29.7854H84.1403L82.6829 25.9432H83.5336L84.6214 29.0741ZM90.6753 27.7702C90.6753 27.9143 90.666 28.0444 90.6474 28.1607H87.7117C87.735 28.4675 87.8489 28.7139 88.0534 28.8998C88.258 29.0858 88.509 29.1787 88.8065 29.1787C89.2342 29.1787 89.5364 28.9998 89.713 28.6418H90.5707C90.4545 28.9951 90.243 29.2857 89.9362 29.5134C89.634 29.7366 89.2575 29.8482 88.8065 29.8482C88.4393 29.8482 88.1092 29.7668 87.8163 29.6041C87.5281 29.4367 87.3003 29.2043 87.133 28.9068C86.9703 28.6046 86.8889 28.256 86.8889 27.8608C86.8889 27.4657 86.9679 27.1193 87.126 26.8218C87.2887 26.5196 87.5142 26.2872 87.8024 26.1245C88.0953 25.9618 88.43 25.8804 88.8065 25.8804C89.1691 25.8804 89.4922 25.9595 89.7758 26.1175C90.0594 26.2756 90.2802 26.4987 90.4383 26.7869C90.5963 27.0705 90.6753 27.3983 90.6753 27.7702ZM89.8455 27.5191C89.8409 27.2262 89.7363 26.9915 89.5317 26.8148C89.3272 26.6382 89.0738 26.5499 88.7717 26.5499C88.4974 26.5499 88.2626 26.6382 88.0674 26.8148C87.8721 26.9868 87.7559 27.2216 87.7187 27.5191H89.8455ZM92.3293 28.8301L91.4855 30.7547H90.9695L91.4646 28.8301H92.3293ZM140.522 28.7952H138.493L138.144 29.7854H137.314L139.051 24.9321H139.971L141.708 29.7854H140.871L140.522 28.7952ZM140.299 28.1467L139.511 25.8944L138.716 28.1467H140.299ZM142.867 25.4341C142.723 25.4341 142.602 25.3853 142.504 25.2877C142.407 25.1901 142.358 25.0692 142.358 24.9251C142.358 24.781 142.407 24.6601 142.504 24.5625C142.602 24.4649 142.723 24.4161 142.867 24.4161C143.006 24.4161 143.125 24.4649 143.223 24.5625C143.32 24.6601 143.369 24.781 143.369 24.9251C143.369 25.0692 143.32 25.1901 143.223 25.2877C143.125 25.3853 143.006 25.4341 142.867 25.4341ZM143.257 25.9432V29.7854H142.463V25.9432H143.257Z" fill="#ED1C24"/>
<path d="M25.3998 27.4343L23.7798 25.9788C21.8992 24.2807 20.3444 22.8159 19.1155 21.5844C17.8865 20.3528 16.909 19.2472 16.1828 18.2676C15.4566 17.2879 14.9492 16.3876 14.6606 15.5665C14.372 14.7455 14.2277 13.9058 14.2277 13.0474C14.2277 11.2934 14.8142 9.82859 15.9873 8.65301C17.1604 7.47744 18.622 6.88965 20.3723 6.88965C21.3406 6.88965 22.2623 7.09491 23.1374 7.50543C24.0126 7.91595 24.7667 8.4944 25.3998 9.2408C26.0328 8.4944 26.787 7.91595 27.6621 7.50543C28.5372 7.09491 29.4589 6.88965 30.4272 6.88965C32.1775 6.88965 33.6392 7.47744 34.8122 8.65301C35.9853 9.82859 36.5718 11.2934 36.5718 13.0474C36.5718 13.9058 36.4275 14.7455 36.1389 15.5665C35.8503 16.3876 35.3429 17.2879 34.6167 18.2676C33.8905 19.2472 32.913 20.3528 31.684 21.5844C30.4551 22.8159 28.9003 24.2807 27.0197 25.9788L25.3998 27.4343Z" fill="#ED1C24"/>
<rect width="4.43578" height="4.43578" rx="0.449882" transform="matrix(-0.707107 -0.707107 -0.707107 0.707107 14.9269 21.5454)" fill="#ED1C24"/>
<rect width="4.43578" height="4.43578" rx="0.449882" transform="matrix(-0.707107 -0.707107 -0.707107 0.707107 25.8661 26.847)" fill="#ED1C24"/>
<rect width="3.44637" height="3.44637" rx="0.449882" transform="matrix(-0.707107 -0.707107 -0.707107 0.707107 8.49605 21.5454)" fill="#ED1C24"/>
<rect width="3.44637" height="3.44637" rx="0.449882" transform="matrix(-0.707107 -0.707107 -0.707107 0.707107 19.4352 26.847)" fill="#ED1C24"/>
<rect width="3.44637" height="3.44637" rx="0.449882" transform="matrix(-0.707107 -0.707107 -0.707107 0.707107 11.4971 17.2354)" fill="#ED1C24"/>
<rect width="3.95692" height="3.95692" rx="0.449882" transform="matrix(-0.707107 -0.707107 -0.707107 0.707107 14.7914 12.9483)" fill="#ED1C24"/>
<rect width="5.20952" height="5.20952" rx="0.449882" transform="matrix(-0.707107 -0.707107 -0.707107 0.707107 19.1352 17.2354)" fill="#ED1C24"/>
<rect width="2.36947" height="2.36947" rx="0.449882" transform="matrix(-0.707107 -0.707107 -0.707107 0.707107 8.06689 12.9483)" fill="#ED1C24"/>
<rect width="2.36947" height="2.36947" rx="0.449882" transform="matrix(-0.707107 -0.707107 -0.707107 0.707107 14.583 8.56509)" fill="#ED1C24"/>
<rect width="2.36947" height="2.36947" rx="0.449882" transform="matrix(-0.707107 -0.707107 -0.707107 0.707107 19.1386 22.9329)" fill="#ED1C24"/>
<rect width="1.91473" height="1.91473" rx="0.449882" transform="matrix(-0.707107 -0.707107 -0.707107 0.707107 2.70787 12.9483)" fill="#ED1C24"/>
<rect width="1.91473" height="1.91473" rx="0.449882" transform="matrix(-0.707107 -0.707107 -0.707107 0.707107 2.70787 21.7485)" fill="#ED1C24"/>
<rect width="1.91473" height="1.91473" rx="0.449882" transform="matrix(-0.707107 -0.707107 -0.707107 0.707107 5.49455 26.036)" fill="#ED1C24"/>
<rect width="3.21108" height="3.21108" rx="0.449882" transform="matrix(-0.707107 -0.707107 -0.707107 0.707107 6.13765 17.3542)" fill="#ED1C24"/>
<rect width="0.749803" height="3.44909" transform="matrix(-4.37114e-08 -1 -1 4.37114e-08 9.87883 21.8856)" fill="#ED1C24"/>
<rect width="0.899764" height="3.74902" transform="matrix(-4.37114e-08 -1 -1 4.37114e-08 20.9759 27.4343)" fill="#ED1C24"/>
<rect width="0.899764" height="3.44909" transform="matrix(-4.37114e-08 -1 -1 4.37114e-08 9.87883 13.4878)" fill="#ED1C24"/>
<rect width="0.749803" height="3.74902" transform="matrix(-4.37114e-08 -1 -1 4.37114e-08 13.4778 17.6866)" fill="#ED1C24"/>
<rect width="0.749803" height="3.44909" transform="matrix(-4.37114e-08 -1 -1 4.37114e-08 16.927 8.83905)" fill="#ED1C24"/>
<rect width="0.749803" height="3.59905" transform="matrix(-4.37114e-08 -1 -1 4.37114e-08 21.4261 23.2352)" fill="#ED1C24"/>
<path d="M25.0591 13.1135C28.2694 4.85866 34.2039 8.52748 36.7699 11.3937C40.3077 6.87325 44.5771 8.03612 46.2695 9.18262C51.5762 15.6031 42.1476 24.1964 36.7699 27.6905C30.0874 23.9562 26.1784 16.4165 25.0591 13.1135Z" fill="white"/>
<path d="M36.6885 29.9836L34.8598 28.3475C32.7369 26.4387 30.9818 24.7922 29.5945 23.4078C28.2072 22.0234 27.1037 20.7806 26.2839 19.6794C25.4642 18.5782 24.8914 17.5661 24.5656 16.6432C24.2398 15.7203 24.0769 14.7764 24.0769 13.8115C24.0769 11.8398 24.739 10.1933 26.0632 8.87182C27.3875 7.55037 29.0375 6.88965 31.0133 6.88965C32.1063 6.88965 33.1467 7.12038 34.1346 7.58184C35.1226 8.0433 35.9738 8.69353 36.6885 9.53255C37.4031 8.69353 38.2544 8.0433 39.2423 7.58184C40.2302 7.12038 41.2707 6.88965 42.3637 6.88965C44.3395 6.88965 45.9895 7.55037 47.3137 8.87182C48.638 10.1933 49.3001 11.8398 49.3001 13.8115C49.3001 14.7764 49.1372 15.7203 48.8114 16.6432C48.4856 17.5661 47.9128 18.5782 47.093 19.6794C46.2733 20.7806 45.1698 22.0234 43.7825 23.4078C42.3952 24.7922 40.6401 26.4387 38.5172 28.3475L36.6885 29.9836ZM36.6885 26.5855C38.7063 24.7817 40.3669 23.2347 41.6701 21.9447C42.9733 20.6548 44.0032 19.5326 44.7599 18.5782C45.5166 17.6238 46.0421 16.7743 46.3363 16.0297C46.6306 15.2851 46.7777 14.5457 46.7777 13.8115C46.7777 12.553 46.3574 11.5042 45.5166 10.6652C44.6758 9.8262 43.6249 9.4067 42.3637 9.4067C41.3758 9.4067 40.4615 9.68462 39.6207 10.2405C38.7799 10.7963 38.2019 11.5042 37.8866 12.3642H35.4904C35.1751 11.5042 34.5971 10.7963 33.7563 10.2405C32.9155 9.68462 32.0012 9.4067 31.0133 9.4067C29.7521 9.4067 28.7012 9.8262 27.8604 10.6652C27.0196 11.5042 26.5992 12.553 26.5992 13.8115C26.5992 14.5457 26.7464 15.2851 27.0406 16.0297C27.3349 16.7743 27.8604 17.6238 28.6171 18.5782C29.3738 19.5326 30.4037 20.6548 31.7069 21.9447C33.0101 23.2347 34.6706 24.7817 36.6885 26.5855Z" fill="#ED1C24"/>
</svg>
