<svg width="146" height="34" viewBox="0 0 146 34" fill="none" xmlns="http://www.w3.org/2000/svg">
<path d="M56.4612 25.8844V26.5329H54.4041V27.9624H56.0079V28.6109H54.4041V30.7307H53.6091V25.8844H56.4612ZM56.9329 28.7922C56.9329 28.4063 57.0119 28.0646 57.17 27.7671C57.3327 27.4696 57.5512 27.2395 57.8255 27.0768C58.1044 26.9094 58.4112 26.8257 58.7459 26.8257C59.0481 26.8257 59.3107 26.8862 59.5339 27.007C59.7617 27.1233 59.943 27.2697 60.0778 27.4463V26.8885H60.8797V30.7307H60.0778V30.1589C59.943 30.3402 59.7593 30.4913 59.5269 30.6122C59.2945 30.733 59.0295 30.7935 58.732 30.7935C58.4019 30.7935 58.0997 30.7098 57.8255 30.5424C57.5512 30.3704 57.3327 30.1333 57.17 29.8312C57.0119 29.5244 56.9329 29.178 56.9329 28.7922ZM60.0778 28.8061C60.0778 28.5411 60.022 28.311 59.9104 28.1158C59.8035 27.9205 59.6617 27.7718 59.4851 27.6695C59.3084 27.5672 59.1178 27.5161 58.9133 27.5161C58.7087 27.5161 58.5181 27.5672 58.3415 27.6695C58.1648 27.7671 58.0207 27.9135 57.9091 28.1088C57.8022 28.2994 57.7487 28.5272 57.7487 28.7922C57.7487 29.0571 57.8022 29.2896 57.9091 29.4895C58.0207 29.6894 58.1648 29.8428 58.3415 29.9497C58.5228 30.052 58.7134 30.1031 58.9133 30.1031C59.1178 30.1031 59.3084 30.052 59.4851 29.9497C59.6617 29.8474 59.8035 29.6987 59.9104 29.5034C60.022 29.3035 60.0778 29.0711 60.0778 28.8061ZM62.7188 25.5706V30.7307H61.9238V25.5706H62.7188ZM64.5574 25.5706V30.7307H63.7625V25.5706H64.5574ZM67.8169 26.3795C67.6728 26.3795 67.5519 26.3306 67.4543 26.233C67.3567 26.1354 67.3079 26.0145 67.3079 25.8704C67.3079 25.7263 67.3567 25.6054 67.4543 25.5078C67.5519 25.4102 67.6728 25.3614 67.8169 25.3614C67.9564 25.3614 68.0749 25.4102 68.1725 25.5078C68.2702 25.6054 68.319 25.7263 68.319 25.8704C68.319 26.0145 68.2702 26.1354 68.1725 26.233C68.0749 26.3306 67.9564 26.3795 67.8169 26.3795ZM68.2074 26.8885V30.7307H67.4125V26.8885H68.2074ZM71.1896 26.8257C71.4918 26.8257 71.7614 26.8885 71.9985 27.014C72.2403 27.1395 72.4285 27.3255 72.5634 27.5719C72.6982 27.8182 72.7656 28.1158 72.7656 28.4644V30.7307H71.9776V28.583C71.9776 28.239 71.8916 27.9763 71.7196 27.795C71.5476 27.6091 71.3128 27.5161 71.0153 27.5161C70.7178 27.5161 70.4807 27.6091 70.304 27.795C70.132 27.9763 70.046 28.239 70.046 28.583V30.7307H69.2511V26.8885H70.046V27.3278C70.1762 27.1697 70.3412 27.0466 70.5411 26.9582C70.7457 26.8699 70.9618 26.8257 71.1896 26.8257ZM98.2242 27.3278C98.2242 27.5742 98.1661 27.8066 98.0499 28.0251C97.9337 28.2436 97.7477 28.4226 97.492 28.5621C97.2364 28.6969 96.9086 28.7643 96.5088 28.7643H95.6302V30.7307H94.8353V25.8844H96.5088C96.8807 25.8844 97.1945 25.9494 97.4502 26.0796C97.7105 26.2051 97.9035 26.3771 98.029 26.5956C98.1591 26.8141 98.2242 27.0582 98.2242 27.3278ZM96.5088 28.1158C96.811 28.1158 97.0365 28.0484 97.1852 27.9135C97.334 27.7741 97.4084 27.5788 97.4084 27.3278C97.4084 26.7978 97.1085 26.5329 96.5088 26.5329H95.6302V28.1158H96.5088ZM100.649 30.7935C100.286 30.7935 99.9586 30.7121 99.6658 30.5494C99.3729 30.3821 99.1428 30.1496 98.9754 29.8521C98.8081 29.5499 98.7244 29.2013 98.7244 28.8061C98.7244 28.4156 98.8104 28.0693 98.9824 27.7671C99.1544 27.4649 99.3892 27.2325 99.6867 27.0698C99.9842 26.9071 100.317 26.8257 100.684 26.8257C101.051 26.8257 101.383 26.9071 101.681 27.0698C101.979 27.2325 102.213 27.4649 102.385 27.7671C102.557 28.0693 102.643 28.4156 102.643 28.8061C102.643 29.1966 102.555 29.5429 102.378 29.8451C102.202 30.1473 101.96 30.3821 101.653 30.5494C101.351 30.7121 101.016 30.7935 100.649 30.7935ZM100.649 30.1031C100.854 30.1031 101.044 30.0543 101.221 29.9567C101.402 29.8591 101.549 29.7126 101.66 29.5174C101.772 29.3221 101.827 29.085 101.827 28.8061C101.827 28.5272 101.774 28.2924 101.667 28.1018C101.56 27.9066 101.418 27.7601 101.242 27.6625C101.065 27.5649 100.874 27.5161 100.67 27.5161C100.465 27.5161 100.275 27.5649 100.098 27.6625C99.9261 27.7601 99.789 27.9066 99.6867 28.1018C99.5844 28.2924 99.5333 28.5272 99.5333 28.8061C99.5333 29.2199 99.6379 29.5406 99.8471 29.7684C100.061 29.9916 100.328 30.1031 100.649 30.1031ZM108.589 26.8885L107.397 30.7307H106.56L105.786 27.8926L105.012 30.7307H104.175L102.976 26.8885H103.785L104.587 29.9776L105.403 26.8885H106.232L107.013 29.9637L107.808 26.8885H108.589ZM112.705 28.7155C112.705 28.8596 112.696 28.9897 112.677 29.106H109.741C109.764 29.4128 109.878 29.6592 110.083 29.8451C110.287 30.0311 110.538 30.124 110.836 30.124C111.264 30.124 111.566 29.9451 111.743 29.5871H112.6C112.484 29.9404 112.272 30.231 111.966 30.4588C111.663 30.6819 111.287 30.7935 110.836 30.7935C110.469 30.7935 110.139 30.7121 109.846 30.5494C109.558 30.3821 109.33 30.1496 109.162 29.8521C109 29.5499 108.918 29.2013 108.918 28.8061C108.918 28.411 108.997 28.0646 109.155 27.7671C109.318 27.4649 109.544 27.2325 109.832 27.0698C110.125 26.9071 110.459 26.8257 110.836 26.8257C111.199 26.8257 111.522 26.9048 111.805 27.0628C112.089 27.2209 112.31 27.444 112.468 27.7322C112.626 28.0158 112.705 28.3436 112.705 28.7155ZM111.875 28.4644C111.87 28.1716 111.766 27.9368 111.561 27.7601C111.357 27.5835 111.103 27.4952 110.801 27.4952C110.527 27.4952 110.292 27.5835 110.097 27.7601C109.902 27.9321 109.785 28.1669 109.748 28.4644H111.875ZM114.282 27.4463C114.398 27.2511 114.552 27.1 114.742 26.9931C114.938 26.8815 115.168 26.8257 115.433 26.8257V27.6486H115.23C114.919 27.6486 114.682 27.7276 114.519 27.8857C114.361 28.0437 114.282 28.318 114.282 28.7085V30.7307H113.487V26.8885H114.282V27.4463ZM119.685 28.7155C119.685 28.8596 119.676 28.9897 119.657 29.106H116.721C116.744 29.4128 116.858 29.6592 117.063 29.8451C117.267 30.0311 117.518 30.124 117.816 30.124C118.244 30.124 118.546 29.9451 118.723 29.5871H119.58C119.464 29.9404 119.252 30.231 118.946 30.4588C118.643 30.6819 118.267 30.7935 117.816 30.7935C117.449 30.7935 117.119 30.7121 116.826 30.5494C116.538 30.3821 116.31 30.1496 116.142 29.8521C115.98 29.5499 115.898 29.2013 115.898 28.8061C115.898 28.411 115.977 28.0646 116.135 27.7671C116.298 27.4649 116.524 27.2325 116.812 27.0698C117.105 26.9071 117.439 26.8257 117.816 26.8257C118.179 26.8257 118.502 26.9048 118.785 27.0628C119.069 27.2209 119.29 27.444 119.448 27.7322C119.606 28.0158 119.685 28.3436 119.685 28.7155ZM118.855 28.4644C118.85 28.1716 118.746 27.9368 118.541 27.7601C118.337 27.5835 118.083 27.4952 117.781 27.4952C117.507 27.4952 117.272 27.5835 117.077 27.7601C116.882 27.9321 116.765 28.1669 116.728 28.4644H118.855ZM120.202 28.7922C120.202 28.4063 120.281 28.0646 120.439 27.7671C120.602 27.4696 120.82 27.2395 121.095 27.0768C121.374 26.9094 121.683 26.8257 122.022 26.8257C122.273 26.8257 122.52 26.8815 122.761 26.9931C123.008 27.1 123.203 27.2441 123.347 27.4254V25.5706H124.149V30.7307H123.347V30.1519C123.217 30.3379 123.036 30.4913 122.803 30.6122C122.575 30.733 122.313 30.7935 122.015 30.7935C121.68 30.7935 121.374 30.7098 121.095 30.5424C120.82 30.3704 120.602 30.1333 120.439 29.8312C120.281 29.5244 120.202 29.178 120.202 28.7922ZM123.347 28.8061C123.347 28.5411 123.291 28.311 123.18 28.1158C123.073 27.9205 122.931 27.7718 122.754 27.6695C122.578 27.5672 122.387 27.5161 122.183 27.5161C121.978 27.5161 121.787 27.5672 121.611 27.6695C121.434 27.7671 121.29 27.9135 121.178 28.1088C121.071 28.2994 121.018 28.5272 121.018 28.7922C121.018 29.0571 121.071 29.2896 121.178 29.4895C121.29 29.6894 121.434 29.8428 121.611 29.9497C121.792 30.052 121.983 30.1031 122.183 30.1031C122.387 30.1031 122.578 30.052 122.754 29.9497C122.931 29.8474 123.073 29.6987 123.18 29.5034C123.291 29.3035 123.347 29.0711 123.347 28.8061ZM127.799 27.4603C127.934 27.2743 128.118 27.1233 128.35 27.007C128.587 26.8862 128.85 26.8257 129.138 26.8257C129.478 26.8257 129.784 26.9071 130.059 27.0698C130.333 27.2325 130.549 27.4649 130.707 27.7671C130.865 28.0646 130.944 28.4063 130.944 28.7922C130.944 29.178 130.865 29.5244 130.707 29.8312C130.549 30.1333 130.331 30.3704 130.052 30.5424C129.777 30.7098 129.473 30.7935 129.138 30.7935C128.841 30.7935 128.576 30.7354 128.343 30.6191C128.116 30.5029 127.934 30.3542 127.799 30.1729V30.7307H127.004V25.5706H127.799V27.4603ZM130.135 28.7922C130.135 28.5272 130.08 28.2994 129.968 28.1088C129.861 27.9135 129.717 27.7671 129.536 27.6695C129.359 27.5672 129.168 27.5161 128.964 27.5161C128.764 27.5161 128.573 27.5672 128.392 27.6695C128.215 27.7718 128.071 27.9205 127.96 28.1158C127.853 28.311 127.799 28.5411 127.799 28.8061C127.799 29.0711 127.853 29.3035 127.96 29.5034C128.071 29.6987 128.215 29.8474 128.392 29.9497C128.573 30.052 128.764 30.1031 128.964 30.1031C129.168 30.1031 129.359 30.052 129.536 29.9497C129.717 29.8428 129.861 29.6894 129.968 29.4895C130.08 29.2896 130.135 29.0571 130.135 28.7922ZM135.189 26.8885L132.832 32.5368H132.009L132.79 30.668L131.277 26.8885H132.163L133.244 29.8172L134.366 26.8885H135.189Z" fill="#0C1721"/>
<path d="M76.3859 30.0892H78.0246V30.7307H75.591V25.8844H76.3859V30.0892ZM80.356 30.7935C79.9934 30.7935 79.6656 30.7121 79.3728 30.5494C79.0799 30.3821 78.8498 30.1496 78.6824 29.8521C78.5151 29.5499 78.4314 29.2013 78.4314 28.8061C78.4314 28.4156 78.5174 28.0693 78.6894 27.7671C78.8614 27.4649 79.0962 27.2325 79.3937 27.0698C79.6912 26.9071 80.0236 26.8257 80.3908 26.8257C80.7581 26.8257 81.0905 26.9071 81.388 27.0698C81.6855 27.2325 81.9203 27.4649 82.0923 27.7671C82.2643 28.0693 82.3503 28.4156 82.3503 28.8061C82.3503 29.1966 82.262 29.5429 82.0853 29.8451C81.9087 30.1473 81.6669 30.3821 81.3601 30.5494C81.0579 30.7121 80.7232 30.7935 80.356 30.7935ZM80.356 30.1031C80.5605 30.1031 80.7511 30.0543 80.9278 29.9567C81.1091 29.8591 81.2555 29.7126 81.3671 29.5174C81.4787 29.3221 81.5344 29.085 81.5344 28.8061C81.5344 28.5272 81.481 28.2924 81.3741 28.1018C81.2671 27.9066 81.1253 27.7601 80.9487 27.6625C80.772 27.5649 80.5814 27.5161 80.3769 27.5161C80.1723 27.5161 79.9817 27.5649 79.8051 27.6625C79.6331 27.7601 79.496 27.9066 79.3937 28.1018C79.2914 28.2924 79.2403 28.5272 79.2403 28.8061C79.2403 29.2199 79.3449 29.5406 79.5541 29.7684C79.7679 29.9916 80.0352 30.1031 80.356 30.1031ZM84.6214 30.0194L85.7092 26.8885H86.553L85.0886 30.7307H84.1403L82.6829 26.8885H83.5336L84.6214 30.0194ZM90.6753 28.7155C90.6753 28.8596 90.666 28.9897 90.6474 29.106H87.7117C87.735 29.4128 87.8489 29.6592 88.0534 29.8451C88.258 30.0311 88.509 30.124 88.8065 30.124C89.2342 30.124 89.5364 29.9451 89.713 29.5871H90.5707C90.4545 29.9404 90.243 30.231 89.9362 30.4588C89.634 30.6819 89.2575 30.7935 88.8065 30.7935C88.4393 30.7935 88.1092 30.7121 87.8163 30.5494C87.5281 30.3821 87.3003 30.1496 87.133 29.8521C86.9703 29.5499 86.8889 29.2013 86.8889 28.8061C86.8889 28.411 86.9679 28.0646 87.126 27.7671C87.2887 27.4649 87.5142 27.2325 87.8024 27.0698C88.0953 26.9071 88.43 26.8257 88.8065 26.8257C89.1691 26.8257 89.4922 26.9048 89.7758 27.0628C90.0594 27.2209 90.2802 27.444 90.4383 27.7322C90.5963 28.0158 90.6753 28.3436 90.6753 28.7155ZM89.8455 28.4644C89.8409 28.1716 89.7363 27.9368 89.5317 27.7601C89.3272 27.5835 89.0738 27.4952 88.7717 27.4952C88.4974 27.4952 88.2626 27.5835 88.0674 27.7601C87.8721 27.9321 87.7559 28.1669 87.7187 28.4644H89.8455ZM92.3293 29.7754L91.4855 31.7H90.9695L91.4646 29.7754H92.3293ZM140.522 29.7405H138.493L138.144 30.7307H137.314L139.051 25.8774H139.971L141.708 30.7307H140.871L140.522 29.7405ZM140.299 29.092L139.511 26.8397L138.716 29.092H140.299ZM142.867 26.3795C142.723 26.3795 142.602 26.3306 142.504 26.233C142.407 26.1354 142.358 26.0145 142.358 25.8704C142.358 25.7263 142.407 25.6054 142.504 25.5078C142.602 25.4102 142.723 25.3614 142.867 25.3614C143.006 25.3614 143.125 25.4102 143.223 25.5078C143.32 25.6054 143.369 25.7263 143.369 25.8704C143.369 26.0145 143.32 26.1354 143.223 26.233C143.125 26.3306 143.006 26.3795 142.867 26.3795ZM143.257 26.8885V30.7307H142.463V26.8885H143.257Z" fill="#ED1C24"/>
<mask id="path-2-outside-1_3_1194" maskUnits="userSpaceOnUse" x="51.236" y="2.93665" width="95" height="25" fill="black">
<rect fill="white" x="51.236" y="2.93665" width="95" height="25"/>
<path d="M57.6508 14.393L56.7871 21.9367H53.927L55.9233 7.82836L61.5474 16.5045L67.1715 7.82836L69.1678 21.9367H66.3078L65.444 14.393L61.5474 20.689L57.6508 14.393ZM72.8573 19.1918C72.8573 19.4477 72.9213 19.6716 73.0492 19.8636C73.1772 20.0428 73.35 20.1835 73.5675 20.2859C73.7978 20.3755 74.0474 20.4203 74.3161 20.4203C74.7 20.4203 75.0455 20.3435 75.3526 20.1899C75.6597 20.0236 75.9093 19.7932 76.1012 19.4989C76.2932 19.1918 76.3892 18.8271 76.3892 18.4048L76.6963 19.5565C76.6963 20.1195 76.5363 20.593 76.2164 20.9769C75.9093 21.3608 75.5062 21.6487 75.0071 21.8407C74.5208 22.0326 74.009 22.1286 73.4715 22.1286C72.9213 22.1286 72.4094 22.0198 71.9359 21.8023C71.4625 21.5847 71.0786 21.2712 70.7842 20.8617C70.5027 20.4394 70.3619 19.9276 70.3619 19.3261C70.3619 18.4688 70.6627 17.7905 71.2641 17.2915C71.8655 16.7924 72.7165 16.5429 73.817 16.5429C74.3801 16.5429 74.8728 16.6005 75.295 16.7156C75.7301 16.8308 76.0948 16.9716 76.3892 17.1379C76.6835 17.3043 76.8946 17.4642 77.0226 17.6178V18.7695C76.6771 18.5136 76.2868 18.3216 75.8517 18.1936C75.4294 18.0657 74.9815 18.0017 74.5081 18.0017C74.1242 18.0017 73.8106 18.0529 73.5675 18.1552C73.3244 18.2448 73.1452 18.3792 73.03 18.5583C72.9149 18.7247 72.8573 18.9358 72.8573 19.1918ZM71.8975 15.6023L70.9762 13.9132C71.4369 13.67 71.9999 13.4397 72.6653 13.2221C73.3308 12.9918 74.073 12.8766 74.892 12.8766C75.647 12.8766 76.3188 12.9854 76.9074 13.2029C77.4961 13.4205 77.9567 13.7404 78.2895 14.1627C78.6222 14.5722 78.7885 15.0777 78.7885 15.6791V21.9367H76.3892V16.1974C76.3892 15.9542 76.3508 15.7495 76.274 15.5831C76.1972 15.404 76.0756 15.2568 75.9093 15.1416C75.7557 15.0265 75.5702 14.9433 75.3526 14.8921C75.1351 14.8409 74.892 14.8153 74.6232 14.8153C74.2137 14.8153 73.8234 14.8601 73.4523 14.9497C73.0812 15.0393 72.7613 15.148 72.4926 15.276C72.2239 15.404 72.0255 15.5127 71.8975 15.6023ZM79.9687 13.107H85.4201V15.1992H79.9687V13.107ZM81.4851 10.0358H83.8845V21.9367H81.4851V10.0358ZM88.6246 17.5218C88.6246 18.0337 88.7398 18.4816 88.9701 18.8655C89.2004 19.2494 89.5076 19.5501 89.8915 19.7676C90.2882 19.9852 90.7232 20.0939 91.1967 20.0939C91.5806 20.0939 91.9517 20.0364 92.31 19.9212C92.6683 19.7932 92.9882 19.6269 93.2698 19.4221C93.5641 19.2046 93.788 18.955 93.9416 18.6735V21.2264C93.6345 21.508 93.2314 21.7319 92.7323 21.8983C92.246 22.0518 91.6766 22.1286 91.024 22.1286C90.0898 22.1286 89.2452 21.9367 88.4902 21.5528C87.748 21.1689 87.1594 20.6314 86.7243 19.9404C86.302 19.2366 86.0909 18.4304 86.0909 17.5218C86.0909 16.6005 86.302 15.7943 86.7243 15.1032C87.1594 14.4122 87.748 13.8748 88.4902 13.4909C89.2452 13.107 90.0898 12.915 91.024 12.915C91.6766 12.915 92.246 12.9982 92.7323 13.1646C93.2314 13.3181 93.6345 13.5293 93.9416 13.798V16.3509C93.788 16.0694 93.5577 15.8263 93.2506 15.6215C92.9563 15.404 92.6299 15.2376 92.2716 15.1224C91.9133 15.0073 91.555 14.9497 91.1967 14.9497C90.7232 14.9497 90.2882 15.0649 89.8915 15.2952C89.5076 15.5127 89.2004 15.8135 88.9701 16.1974C88.7398 16.5813 88.6246 17.0227 88.6246 17.5218ZM98.6301 6.96459V21.9367H96.1348V6.96459H98.6301ZM101.836 16.5621C101.836 15.9734 101.721 15.5255 101.49 15.2184C101.273 14.9113 100.902 14.7577 100.377 14.7577C100.031 14.7577 99.7242 14.8345 99.4555 14.9881C99.1868 15.1288 98.982 15.3336 98.8413 15.6023C98.7005 15.871 98.6301 16.191 98.6301 16.5621H98.131C98.131 15.8583 98.2462 15.2248 98.4766 14.6618C98.7197 14.0987 99.078 13.6508 99.5515 13.3181C100.025 12.9854 100.607 12.819 101.298 12.819C101.989 12.819 102.559 12.947 103.007 13.2029C103.454 13.4589 103.787 13.8428 104.005 14.3546C104.222 14.8537 104.331 15.468 104.331 16.1974V21.9367H101.836V16.5621ZM109.066 15.1224V13.8748H111.235C111.632 13.8748 111.977 13.8108 112.272 13.6828C112.566 13.5549 112.79 13.3693 112.944 13.1262C113.11 12.883 113.193 12.5951 113.193 12.2624C113.193 11.7505 113.014 11.3602 112.656 11.0915C112.31 10.8228 111.837 10.6884 111.235 10.6884H109.757V19.7484H111.523C111.984 19.7484 112.4 19.6844 112.771 19.5565C113.142 19.4157 113.43 19.1982 113.635 18.9038C113.852 18.6095 113.961 18.232 113.961 17.7713C113.961 17.4386 113.897 17.1571 113.769 16.9268C113.654 16.6836 113.481 16.4853 113.251 16.3317C113.033 16.1654 112.777 16.0502 112.483 15.9862C112.189 15.9094 111.869 15.871 111.523 15.871H109.066V14.3738H111.773C112.425 14.3738 113.046 14.4442 113.635 14.585C114.236 14.7257 114.773 14.9497 115.247 15.2568C115.72 15.5511 116.092 15.935 116.36 16.4085C116.642 16.882 116.783 17.4514 116.783 18.1169C116.783 18.9998 116.571 19.7228 116.149 20.2859C115.74 20.8489 115.157 21.2648 114.402 21.5336C113.647 21.8023 112.771 21.9367 111.773 21.9367H107.012V8.50018H111.485C112.38 8.50018 113.167 8.62815 113.846 8.88408C114.524 9.12722 115.055 9.49832 115.439 9.99739C115.823 10.4965 116.015 11.1299 116.015 11.8977C116.015 12.5759 115.823 13.1582 115.439 13.6444C115.055 14.1307 114.524 14.5018 113.846 14.7577C113.167 15.0009 112.38 15.1224 111.485 15.1224H109.066ZM127.299 13.107L121.54 26.1595H118.987L121.214 21.0537L117.548 13.107H120.312L123.153 20.1323L121.924 20.0939L124.707 13.107H127.299Z"/>
<path d="M129.363 18.8847L129.689 16.7156H136.138L136.465 18.8847H129.363ZM132.875 12.8574L130.86 17.4834L130.917 18.0977L129.151 21.9367H126.061L132.875 7.71319L139.689 21.9367H136.58L134.852 18.2128L134.891 17.5218L132.875 12.8574ZM140.802 9.69027C140.802 9.28078 140.949 8.94807 141.243 8.69213C141.537 8.4234 141.889 8.28904 142.299 8.28904C142.708 8.28904 143.054 8.4234 143.335 8.69213C143.63 8.94807 143.777 9.28078 143.777 9.69027C143.777 10.087 143.63 10.4197 143.335 10.6884C143.054 10.9571 142.708 11.0915 142.299 11.0915C141.889 11.0915 141.537 10.9571 141.243 10.6884C140.949 10.4197 140.802 10.087 140.802 9.69027ZM141.07 13.107H143.489V21.9367H141.07V13.107Z"/>
</mask>
<path d="M57.6508 14.393L56.7871 21.9367H53.927L55.9233 7.82836L61.5474 16.5045L67.1715 7.82836L69.1678 21.9367H66.3078L65.444 14.393L61.5474 20.689L57.6508 14.393ZM72.8573 19.1918C72.8573 19.4477 72.9213 19.6716 73.0492 19.8636C73.1772 20.0428 73.35 20.1835 73.5675 20.2859C73.7978 20.3755 74.0474 20.4203 74.3161 20.4203C74.7 20.4203 75.0455 20.3435 75.3526 20.1899C75.6597 20.0236 75.9093 19.7932 76.1012 19.4989C76.2932 19.1918 76.3892 18.8271 76.3892 18.4048L76.6963 19.5565C76.6963 20.1195 76.5363 20.593 76.2164 20.9769C75.9093 21.3608 75.5062 21.6487 75.0071 21.8407C74.5208 22.0326 74.009 22.1286 73.4715 22.1286C72.9213 22.1286 72.4094 22.0198 71.9359 21.8023C71.4625 21.5847 71.0786 21.2712 70.7842 20.8617C70.5027 20.4394 70.3619 19.9276 70.3619 19.3261C70.3619 18.4688 70.6627 17.7905 71.2641 17.2915C71.8655 16.7924 72.7165 16.5429 73.817 16.5429C74.3801 16.5429 74.8728 16.6005 75.295 16.7156C75.7301 16.8308 76.0948 16.9716 76.3892 17.1379C76.6835 17.3043 76.8946 17.4642 77.0226 17.6178V18.7695C76.6771 18.5136 76.2868 18.3216 75.8517 18.1936C75.4294 18.0657 74.9815 18.0017 74.5081 18.0017C74.1242 18.0017 73.8106 18.0529 73.5675 18.1552C73.3244 18.2448 73.1452 18.3792 73.03 18.5583C72.9149 18.7247 72.8573 18.9358 72.8573 19.1918ZM71.8975 15.6023L70.9762 13.9132C71.4369 13.67 71.9999 13.4397 72.6653 13.2221C73.3308 12.9918 74.073 12.8766 74.892 12.8766C75.647 12.8766 76.3188 12.9854 76.9074 13.2029C77.4961 13.4205 77.9567 13.7404 78.2895 14.1627C78.6222 14.5722 78.7885 15.0777 78.7885 15.6791V21.9367H76.3892V16.1974C76.3892 15.9542 76.3508 15.7495 76.274 15.5831C76.1972 15.404 76.0756 15.2568 75.9093 15.1416C75.7557 15.0265 75.5702 14.9433 75.3526 14.8921C75.1351 14.8409 74.892 14.8153 74.6232 14.8153C74.2137 14.8153 73.8234 14.8601 73.4523 14.9497C73.0812 15.0393 72.7613 15.148 72.4926 15.276C72.2239 15.404 72.0255 15.5127 71.8975 15.6023ZM79.9687 13.107H85.4201V15.1992H79.9687V13.107ZM81.4851 10.0358H83.8845V21.9367H81.4851V10.0358ZM88.6246 17.5218C88.6246 18.0337 88.7398 18.4816 88.9701 18.8655C89.2004 19.2494 89.5076 19.5501 89.8915 19.7676C90.2882 19.9852 90.7232 20.0939 91.1967 20.0939C91.5806 20.0939 91.9517 20.0364 92.31 19.9212C92.6683 19.7932 92.9882 19.6269 93.2698 19.4221C93.5641 19.2046 93.788 18.955 93.9416 18.6735V21.2264C93.6345 21.508 93.2314 21.7319 92.7323 21.8983C92.246 22.0518 91.6766 22.1286 91.024 22.1286C90.0898 22.1286 89.2452 21.9367 88.4902 21.5528C87.748 21.1689 87.1594 20.6314 86.7243 19.9404C86.302 19.2366 86.0909 18.4304 86.0909 17.5218C86.0909 16.6005 86.302 15.7943 86.7243 15.1032C87.1594 14.4122 87.748 13.8748 88.4902 13.4909C89.2452 13.107 90.0898 12.915 91.024 12.915C91.6766 12.915 92.246 12.9982 92.7323 13.1646C93.2314 13.3181 93.6345 13.5293 93.9416 13.798V16.3509C93.788 16.0694 93.5577 15.8263 93.2506 15.6215C92.9563 15.404 92.6299 15.2376 92.2716 15.1224C91.9133 15.0073 91.555 14.9497 91.1967 14.9497C90.7232 14.9497 90.2882 15.0649 89.8915 15.2952C89.5076 15.5127 89.2004 15.8135 88.9701 16.1974C88.7398 16.5813 88.6246 17.0227 88.6246 17.5218ZM98.6301 6.96459V21.9367H96.1348V6.96459H98.6301ZM101.836 16.5621C101.836 15.9734 101.721 15.5255 101.49 15.2184C101.273 14.9113 100.902 14.7577 100.377 14.7577C100.031 14.7577 99.7242 14.8345 99.4555 14.9881C99.1868 15.1288 98.982 15.3336 98.8413 15.6023C98.7005 15.871 98.6301 16.191 98.6301 16.5621H98.131C98.131 15.8583 98.2462 15.2248 98.4766 14.6618C98.7197 14.0987 99.078 13.6508 99.5515 13.3181C100.025 12.9854 100.607 12.819 101.298 12.819C101.989 12.819 102.559 12.947 103.007 13.2029C103.454 13.4589 103.787 13.8428 104.005 14.3546C104.222 14.8537 104.331 15.468 104.331 16.1974V21.9367H101.836V16.5621ZM109.066 15.1224V13.8748H111.235C111.632 13.8748 111.977 13.8108 112.272 13.6828C112.566 13.5549 112.79 13.3693 112.944 13.1262C113.11 12.883 113.193 12.5951 113.193 12.2624C113.193 11.7505 113.014 11.3602 112.656 11.0915C112.31 10.8228 111.837 10.6884 111.235 10.6884H109.757V19.7484H111.523C111.984 19.7484 112.4 19.6844 112.771 19.5565C113.142 19.4157 113.43 19.1982 113.635 18.9038C113.852 18.6095 113.961 18.232 113.961 17.7713C113.961 17.4386 113.897 17.1571 113.769 16.9268C113.654 16.6836 113.481 16.4853 113.251 16.3317C113.033 16.1654 112.777 16.0502 112.483 15.9862C112.189 15.9094 111.869 15.871 111.523 15.871H109.066V14.3738H111.773C112.425 14.3738 113.046 14.4442 113.635 14.585C114.236 14.7257 114.773 14.9497 115.247 15.2568C115.72 15.5511 116.092 15.935 116.36 16.4085C116.642 16.882 116.783 17.4514 116.783 18.1169C116.783 18.9998 116.571 19.7228 116.149 20.2859C115.74 20.8489 115.157 21.2648 114.402 21.5336C113.647 21.8023 112.771 21.9367 111.773 21.9367H107.012V8.50018H111.485C112.38 8.50018 113.167 8.62815 113.846 8.88408C114.524 9.12722 115.055 9.49832 115.439 9.99739C115.823 10.4965 116.015 11.1299 116.015 11.8977C116.015 12.5759 115.823 13.1582 115.439 13.6444C115.055 14.1307 114.524 14.5018 113.846 14.7577C113.167 15.0009 112.38 15.1224 111.485 15.1224H109.066ZM127.299 13.107L121.54 26.1595H118.987L121.214 21.0537L117.548 13.107H120.312L123.153 20.1323L121.924 20.0939L124.707 13.107H127.299Z" fill="#0C1721"/>
<path d="M129.363 18.8847L129.689 16.7156H136.138L136.465 18.8847H129.363ZM132.875 12.8574L130.86 17.4834L130.917 18.0977L129.151 21.9367H126.061L132.875 7.71319L139.689 21.9367H136.58L134.852 18.2128L134.891 17.5218L132.875 12.8574ZM140.802 9.69027C140.802 9.28078 140.949 8.94807 141.243 8.69213C141.537 8.4234 141.889 8.28904 142.299 8.28904C142.708 8.28904 143.054 8.4234 143.335 8.69213C143.63 8.94807 143.777 9.28078 143.777 9.69027C143.777 10.087 143.63 10.4197 143.335 10.6884C143.054 10.9571 142.708 11.0915 142.299 11.0915C141.889 11.0915 141.537 10.9571 141.243 10.6884C140.949 10.4197 140.802 10.087 140.802 9.69027ZM141.07 13.107H143.489V21.9367H141.07V13.107Z" fill="#ED1C24"/>
<path d="M57.6508 14.393L59.0535 13.5249L56.5526 9.48405L56.012 14.2054L57.6508 14.393ZM56.7871 21.9367V23.5862H58.2585L58.4259 22.1243L56.7871 21.9367ZM53.927 21.9367L52.2937 21.7055L52.0276 23.5862H53.927V21.9367ZM55.9233 7.82836L57.3075 6.93109L54.908 3.22952L54.29 7.59725L55.9233 7.82836ZM61.5474 16.5045L60.1632 17.4018L61.5474 19.5371L62.9316 17.4018L61.5474 16.5045ZM67.1715 7.82836L68.8048 7.59725L68.1868 3.22952L65.7873 6.93109L67.1715 7.82836ZM69.1678 21.9367V23.5862H71.0672L70.8011 21.7055L69.1678 21.9367ZM66.3078 21.9367L64.6689 22.1243L64.8363 23.5862H66.3078V21.9367ZM65.444 14.393L67.0828 14.2054L66.5422 9.48405L64.0413 13.5249L65.444 14.393ZM61.5474 20.689L60.1447 21.5571L61.5474 23.8235L62.9501 21.5571L61.5474 20.689ZM56.012 14.2054L55.1482 21.749L58.4259 22.1243L59.2897 14.5807L56.012 14.2054ZM56.7871 20.2871H53.927V23.5862H56.7871V20.2871ZM55.5603 22.1678L57.5566 8.05947L54.29 7.59725L52.2937 21.7055L55.5603 22.1678ZM54.5391 8.72563L60.1632 17.4018L62.9316 15.6072L57.3075 6.93109L54.5391 8.72563ZM62.9316 17.4018L68.5557 8.72563L65.7873 6.93109L60.1632 15.6072L62.9316 17.4018ZM65.5382 8.05947L67.5345 22.1678L70.8011 21.7055L68.8048 7.59725L65.5382 8.05947ZM69.1678 20.2871H66.3078V23.5862H69.1678V20.2871ZM67.9466 21.749L67.0828 14.2054L63.8051 14.5807L64.6689 22.1243L67.9466 21.749ZM64.0413 13.5249L60.1447 19.8209L62.9501 21.5571L66.8466 15.2611L64.0413 13.5249ZM62.9501 19.8209L59.0535 13.5249L56.2482 15.2611L60.1447 21.5571L62.9501 19.8209ZM73.0492 19.8636L71.6767 20.7786L71.6915 20.8007L71.7069 20.8224L73.0492 19.8636ZM73.5675 20.2859L72.8651 21.7784L72.9166 21.8027L72.9696 21.8233L73.5675 20.2859ZM75.3526 20.1899L76.0903 21.6653L76.1145 21.6532L76.1383 21.6404L75.3526 20.1899ZM76.1012 19.4989L77.4829 20.4L77.4916 20.3867L77.5001 20.3732L76.1012 19.4989ZM76.3892 18.4048L77.983 17.9797L74.7396 18.4048H76.3892ZM76.6963 19.5565H78.3458V19.3403L78.2901 19.1314L76.6963 19.5565ZM76.2164 20.9769L74.9492 19.9209L74.9386 19.9335L74.9283 19.9464L76.2164 20.9769ZM75.0071 21.8407L74.415 20.3011L74.4082 20.3037L74.4015 20.3063L75.0071 21.8407ZM71.9359 21.8023L71.2472 23.3012L71.2472 23.3012L71.9359 21.8023ZM70.7842 20.8617L69.4117 21.7768L69.4278 21.8009L69.4448 21.8245L70.7842 20.8617ZM71.2641 17.2915L72.3175 18.5609L72.3175 18.5609L71.2641 17.2915ZM75.295 16.7156L74.861 18.3071L74.8729 18.3103L75.295 16.7156ZM76.3892 17.1379L75.5775 18.574L75.5775 18.574L76.3892 17.1379ZM77.0226 17.6178H78.6722V17.0206L78.2898 16.5618L77.0226 17.6178ZM77.0226 18.7695L76.0407 20.095L78.6722 22.0442V18.7695H77.0226ZM75.8517 18.1936L75.3733 19.7724L75.3862 19.7762L75.8517 18.1936ZM73.5675 18.1552L74.1378 19.7031L74.173 19.6901L74.2076 19.6755L73.5675 18.1552ZM73.03 18.5583L74.3863 19.4973L74.4024 19.4741L74.4176 19.4504L73.03 18.5583ZM71.8975 15.6023L70.4494 16.3922L71.3326 18.0114L72.8435 16.9537L71.8975 15.6023ZM70.9762 13.9132L70.2062 12.4543L68.7272 13.2349L69.528 14.7031L70.9762 13.9132ZM72.6653 13.2221L73.1779 14.79L73.1915 14.7856L73.2049 14.781L72.6653 13.2221ZM76.9074 13.2029L76.3356 14.7502L76.3356 14.7502L76.9074 13.2029ZM78.2895 14.1627L76.9937 15.1836L77.0014 15.1933L77.0092 15.2029L78.2895 14.1627ZM78.7885 21.9367V23.5862H80.4381V21.9367H78.7885ZM76.3892 21.9367H74.7396V23.5862H76.3892V21.9367ZM76.274 15.5831L74.7578 16.2329L74.7667 16.2538L74.7762 16.2744L76.274 15.5831ZM75.9093 15.1416L74.9195 16.4613L74.9446 16.4801L74.9703 16.4979L75.9093 15.1416ZM72.4926 15.276L73.2018 16.7653L73.2018 16.7653L72.4926 15.276ZM71.2077 19.1918C71.2077 19.7364 71.3486 20.2865 71.6767 20.7786L74.4218 18.9486C74.4533 18.996 74.4769 19.048 74.4914 19.0985C74.5054 19.1477 74.5069 19.1815 74.5069 19.1918H71.2077ZM71.7069 20.8224C72.0138 21.2521 72.4162 21.5672 72.8651 21.7784L74.2699 18.7933C74.2731 18.7948 74.2912 18.8039 74.3168 18.8247C74.3429 18.846 74.3691 18.8734 74.3915 18.9048L71.7069 20.8224ZM72.9696 21.8233C73.4066 21.9932 73.8608 22.0698 74.3161 22.0698V18.7707C74.234 18.7707 74.1891 18.7577 74.1654 18.7485L72.9696 21.8233ZM74.3161 22.0698C74.9255 22.0698 75.5283 21.9463 76.0903 21.6653L74.6149 18.7145C74.5627 18.7406 74.4745 18.7707 74.3161 18.7707V22.0698ZM76.1383 21.6404C76.6882 21.3425 77.142 20.9227 77.4829 20.4L74.7195 18.5978C74.6765 18.6637 74.6313 18.7046 74.567 18.7395L76.1383 21.6404ZM77.5001 20.3732C77.8815 19.7629 78.0387 19.084 78.0387 18.4048H74.7396C74.7396 18.5701 74.7049 18.6207 74.7024 18.6246L77.5001 20.3732ZM74.7953 18.8298L75.1024 19.9815L78.2901 19.1314L77.983 17.9797L74.7953 18.8298ZM75.0467 19.5565C75.0467 19.7856 74.9907 19.871 74.9492 19.9209L77.4836 22.0329C78.0819 21.315 78.3458 20.4535 78.3458 19.5565H75.0467ZM74.9283 19.9464C74.8198 20.0821 74.6657 20.2046 74.415 20.3011L75.5993 23.3803C76.3467 23.0928 76.9988 22.6395 77.5045 22.0074L74.9283 19.9464ZM74.4015 20.3063C74.1135 20.42 73.8076 20.479 73.4715 20.479V23.7782C74.2104 23.7782 74.9282 23.6453 75.6128 23.375L74.4015 20.3063ZM73.4715 20.479C73.1454 20.479 72.87 20.4161 72.6246 20.3034L71.2472 23.3012C71.9488 23.6235 72.6971 23.7782 73.4715 23.7782V20.479ZM72.6246 20.3034C72.4019 20.201 72.2455 20.0685 72.1237 19.899L69.4448 21.8245C69.9116 22.474 70.5231 22.9685 71.2472 23.3012L72.6246 20.3034ZM72.1568 19.9467C72.0872 19.8423 72.0115 19.6633 72.0115 19.3261H68.7124C68.7124 20.1918 68.9182 21.0366 69.4117 21.7768L72.1568 19.9467ZM72.0115 19.3261C72.0115 18.9055 72.1334 18.7137 72.3175 18.5609L70.2107 16.022C69.1919 16.8674 68.7124 18.032 68.7124 19.3261H72.0115ZM72.3175 18.5609C72.5223 18.3909 72.9464 18.1924 73.817 18.1924V14.8933C72.4866 14.8933 71.2088 15.1939 70.2107 16.022L72.3175 18.5609ZM73.817 18.1924C74.273 18.1924 74.6138 18.2397 74.861 18.3071L75.7291 15.1242C75.1317 14.9613 74.4872 14.8933 73.817 14.8933V18.1924ZM74.8729 18.3103C75.2139 18.4005 75.4385 18.4954 75.5775 18.574L77.2008 15.7019C76.7512 15.4477 76.2464 15.2611 75.7172 15.121L74.8729 18.3103ZM75.5775 18.574C75.6771 18.6303 75.7387 18.6722 75.7722 18.6975C75.808 18.7247 75.7927 18.7186 75.7554 18.6738L78.2898 16.5618C77.9757 16.1848 77.5657 15.9081 77.2008 15.7019L75.5775 18.574ZM75.373 17.6178V18.7695H78.6722V17.6178H75.373ZM78.0045 17.444C77.4949 17.0665 76.9279 16.7907 76.3172 16.6111L75.3862 19.7762C75.6457 19.8525 75.8593 19.9606 76.0407 20.095L78.0045 17.444ZM76.3301 16.615C75.7418 16.4367 75.1318 16.3521 74.5081 16.3521V19.6513C74.8313 19.6513 75.117 19.6947 75.3733 19.7723L76.3301 16.615ZM74.5081 16.3521C73.996 16.3521 73.4433 16.4177 72.9274 16.6349L74.2076 19.6755C74.1877 19.6839 74.1974 19.6768 74.2508 19.6681C74.3038 19.6594 74.3874 19.6513 74.5081 19.6513V16.3521ZM72.9972 16.6074C72.4923 16.7934 71.9906 17.1248 71.6425 17.6663L74.4176 19.4504C74.3637 19.5342 74.2998 19.5984 74.2405 19.6429C74.1838 19.6854 74.1433 19.7011 74.1378 19.7031L72.9972 16.6074ZM71.6738 17.6194C71.3225 18.1267 71.2077 18.6894 71.2077 19.1918H74.5069C74.5069 19.1823 74.5072 19.3226 74.3863 19.4973L71.6738 17.6194ZM73.3457 14.8124L72.4243 13.1233L69.528 14.7031L70.4494 16.3922L73.3457 14.8124ZM71.7461 15.372C72.1017 15.1844 72.5731 14.9878 73.1779 14.79L72.1528 11.6542C71.4267 11.8916 70.772 12.1557 70.2062 12.4543L71.7461 15.372ZM73.2049 14.781C73.6711 14.6196 74.2273 14.5262 74.892 14.5262V11.2271C73.9186 11.2271 72.9904 11.364 72.1257 11.6633L73.2049 14.781ZM74.892 14.5262C75.4903 14.5262 75.963 14.6125 76.3356 14.7502L77.4792 11.6557C76.6746 11.3583 75.8036 11.2271 74.892 11.2271V14.5262ZM76.3356 14.7502C76.6875 14.8803 76.8788 15.0377 76.9937 15.1836L79.5852 13.1418C79.0347 12.4432 78.3047 11.9607 77.4792 11.6557L76.3356 14.7502ZM77.0092 15.2029C77.07 15.2777 77.139 15.4006 77.139 15.6791H80.4381C80.4381 14.7547 80.1744 13.8667 79.5697 13.1225L77.0092 15.2029ZM77.139 15.6791V21.9367H80.4381V15.6791H77.139ZM78.7885 20.2871H76.3892V23.5862H78.7885V20.2871ZM78.0387 21.9367V16.1974H74.7396V21.9367H78.0387ZM78.0387 16.1974C78.0387 15.7899 77.9756 15.3336 77.7717 14.8919L74.7762 16.2744C74.7505 16.2186 74.7416 16.1789 74.7391 16.1654C74.7366 16.1526 74.7396 16.1613 74.7396 16.1974H78.0387ZM77.7902 14.9333C77.5864 14.4579 77.2594 14.07 76.8482 13.7854L74.9703 16.4979C74.9365 16.4745 74.8947 16.4389 74.8535 16.389C74.812 16.3387 74.78 16.2848 74.7578 16.2329L77.7902 14.9333ZM76.899 13.822C76.536 13.5497 76.1335 13.3812 75.7304 13.2864L74.9748 16.4978C74.9916 16.5018 74.9918 16.5033 74.9802 16.4981C74.968 16.4927 74.9462 16.4813 74.9195 16.4613L76.899 13.822ZM75.7304 13.2864C75.3671 13.2009 74.9945 13.1658 74.6232 13.1658V16.4649C74.7895 16.4649 74.903 16.4809 74.9748 16.4978L75.7304 13.2864ZM74.6232 13.1658C74.0927 13.1658 73.5719 13.2239 73.0653 13.3462L73.8394 16.5532C74.0749 16.4963 74.3347 16.4649 74.6232 16.4649V13.1658ZM73.0653 13.3462C72.6126 13.4555 72.1794 13.5981 71.7834 13.7867L73.2018 16.7653C73.3432 16.698 73.5499 16.6231 73.8394 16.5532L73.0653 13.3462ZM71.7834 13.7867C71.4918 13.9255 71.1941 14.0811 70.9516 14.2509L72.8435 16.9537C72.8419 16.9548 72.8678 16.937 72.9354 16.8999C73 16.8645 73.0875 16.8197 73.2018 16.7653L71.7834 13.7867ZM79.9687 13.107V11.4574H78.3191V13.107H79.9687ZM85.4201 13.107H87.0697V11.4574H85.4201V13.107ZM85.4201 15.1992V16.8488H87.0697V15.1992H85.4201ZM79.9687 15.1992H78.3191V16.8488H79.9687V15.1992ZM81.4851 10.0358V8.38621H79.8356V10.0358H81.4851ZM83.8845 10.0358H85.5341V8.38621H83.8845V10.0358ZM83.8845 21.9367V23.5862H85.5341V21.9367H83.8845ZM81.4851 21.9367H79.8356V23.5862H81.4851V21.9367ZM79.9687 14.7565H85.4201V11.4574H79.9687V14.7565ZM83.7705 13.107V15.1992H87.0697V13.107H83.7705ZM85.4201 13.5497H79.9687V16.8488H85.4201V13.5497ZM81.6183 15.1992V13.107H78.3191V15.1992H81.6183ZM81.4851 11.6853H83.8845V8.38621H81.4851V11.6853ZM82.2349 10.0358V21.9367H85.5341V10.0358H82.2349ZM83.8845 20.2871H81.4851V23.5862H83.8845V20.2871ZM83.1347 21.9367V10.0358H79.8356V21.9367H83.1347ZM89.8915 19.7676L89.0782 21.2028L89.0882 21.2085L89.0983 21.214L89.8915 19.7676ZM92.31 19.9212L92.8148 21.4916L92.84 21.4835L92.8648 21.4746L92.31 19.9212ZM93.2698 19.4221L94.24 20.7562L94.2503 20.7487L93.2698 19.4221ZM93.9416 18.6735H95.5912L92.4934 17.8836L93.9416 18.6735ZM93.9416 21.2264L95.0562 22.4424L95.5912 21.9521V21.2264H93.9416ZM92.7323 21.8983L93.2291 23.4713L93.2415 23.4673L93.254 23.4632L92.7323 21.8983ZM88.4902 21.5528L87.7324 23.018L87.7426 23.0232L88.4902 21.5528ZM86.7243 19.9404L85.3098 20.7891L85.3189 20.8043L85.3284 20.8193L86.7243 19.9404ZM86.7243 15.1032L85.3284 14.2243L85.3225 14.2337L85.3167 14.2431L86.7243 15.1032ZM88.4902 13.4909L87.7426 12.0204L87.7324 12.0257L88.4902 13.4909ZM92.7323 13.1646L92.1984 14.7253L92.2227 14.7336L92.2472 14.7412L92.7323 13.1646ZM93.9416 13.798H95.5912V13.0495L95.0278 12.5566L93.9416 13.798ZM93.9416 16.3509L92.4934 17.1408L95.5912 16.3509H93.9416ZM93.2506 15.6215L92.2701 16.9481L92.3023 16.9718L92.3356 16.994L93.2506 15.6215ZM92.2716 15.1224L92.7764 13.552L92.7764 13.552L92.2716 15.1224ZM89.8915 15.2952L90.7047 16.7304L90.7123 16.7261L90.7198 16.7217L89.8915 15.2952ZM86.975 17.5218C86.975 18.289 87.1504 19.0389 87.5556 19.7142L90.3846 18.0168C90.3291 17.9243 90.2742 17.7784 90.2742 17.5218H86.975ZM87.5556 19.7142C87.9302 20.3384 88.4429 20.8428 89.0782 21.2028L90.7047 18.3325C90.5722 18.2574 90.4707 18.1603 90.3846 18.0168L87.5556 19.7142ZM89.0983 21.214C89.7496 21.5711 90.4593 21.7435 91.1967 21.7435V18.4444C90.9871 18.4444 90.8268 18.3992 90.6846 18.3213L89.0983 21.214ZM91.1967 21.7435C91.7485 21.7435 92.2901 21.6603 92.8148 21.4916L91.8052 18.3507C91.6133 18.4124 91.4127 18.4444 91.1967 18.4444V21.7435ZM92.8648 21.4746C93.3577 21.2986 93.82 21.0617 94.24 20.7562L92.2995 18.0881C92.1565 18.1921 91.979 18.2878 91.7552 18.3677L92.8648 21.4746ZM94.2503 20.7487C94.7104 20.4086 95.106 19.9836 95.3897 19.4634L92.4934 17.8836C92.4701 17.9265 92.4178 18.0006 92.2893 18.0956L94.2503 20.7487ZM92.292 18.6735V21.2264H95.5912V18.6735H92.292ZM92.8269 20.0105C92.7294 20.0999 92.5456 20.2217 92.2107 20.3333L93.254 23.4632C93.9172 23.2421 94.5395 22.9161 95.0562 22.4424L92.8269 20.0105ZM92.2356 20.3253C91.9477 20.4162 91.5528 20.479 91.024 20.479V23.7782C91.8004 23.7782 92.5444 23.6875 93.2291 23.4713L92.2356 20.3253ZM91.024 20.479C90.3225 20.479 89.7382 20.3368 89.2379 20.0824L87.7426 23.0232C88.7523 23.5366 89.8571 23.7782 91.024 23.7782V20.479ZM89.2481 20.0876C88.7606 19.8354 88.3949 19.4977 88.1202 19.0615L85.3284 20.8193C85.9239 21.7651 86.7354 22.5023 87.7324 23.0179L89.2481 20.0876ZM88.1388 19.0917C87.8864 18.671 87.7404 18.1643 87.7404 17.5218H84.4413C84.4413 18.6965 84.7176 19.8021 85.3098 20.7891L88.1388 19.0917ZM87.7404 17.5218C87.7404 16.8612 87.8887 16.3612 88.1318 15.9634L85.3167 14.2431C84.7153 15.2273 84.4413 16.3397 84.4413 17.5218H87.7404ZM88.1202 15.9822C88.3949 15.5459 88.7606 15.2082 89.2481 14.956L87.7324 12.0257C86.7354 12.5414 85.9239 13.2785 85.3284 14.2243L88.1202 15.9822ZM89.2379 14.9613C89.7382 14.7069 90.3225 14.5646 91.024 14.5646V11.2655C89.8571 11.2655 88.7523 11.5071 87.7426 12.0205L89.2379 14.9613ZM91.024 14.5646C91.5416 14.5646 91.9232 14.6312 92.1984 14.7253L93.2663 11.6038C92.5689 11.3652 91.8116 11.2655 91.024 11.2655V14.5646ZM92.2472 14.7412C92.5842 14.8449 92.7644 14.9598 92.8553 15.0394L95.0278 12.5566C94.5046 12.0987 93.8786 11.7914 93.2174 11.5879L92.2472 14.7412ZM92.292 13.798V16.3509H95.5912V13.798H92.292ZM95.3897 15.561C95.0902 15.0118 94.6612 14.5794 94.1656 14.249L92.3356 16.994C92.4542 17.0731 92.4859 17.127 92.4934 17.1408L95.3897 15.561ZM94.2311 14.295C93.7884 13.9678 93.3006 13.7205 92.7764 13.552L91.7669 16.6929C91.9593 16.7547 92.1241 16.8402 92.2701 16.9481L94.2311 14.295ZM92.7764 13.552C92.2632 13.3871 91.7348 13.3001 91.1967 13.3001V16.5993C91.3752 16.5993 91.5634 16.6275 91.7669 16.6929L92.7764 13.552ZM91.1967 13.3001C90.4421 13.3001 89.7198 13.4874 89.0632 13.8687L90.7198 16.7217C90.8565 16.6423 91.0044 16.5993 91.1967 16.5993V13.3001ZM89.0782 13.86C88.4429 14.2201 87.9302 14.7244 87.5556 15.3487L90.3846 17.0461C90.4707 16.9025 90.5722 16.8054 90.7047 16.7304L89.0782 13.86ZM87.5556 15.3487C87.1543 16.0175 86.975 16.759 86.975 17.5218H90.2742C90.2742 17.2865 90.3252 17.145 90.3846 17.0461L87.5556 15.3487ZM98.6301 6.96459H100.28V5.31502H98.6301V6.96459ZM98.6301 21.9367V23.5862H100.28V21.9367H98.6301ZM96.1348 21.9367H94.4852V23.5862H96.1348V21.9367ZM96.1348 6.96459V5.31502H94.4852V6.96459H96.1348ZM101.49 15.2184L100.144 16.1719L100.157 16.1902L100.171 16.2082L101.49 15.2184ZM99.4555 14.9881L100.221 16.4493L100.248 16.4353L100.274 16.4203L99.4555 14.9881ZM98.8413 15.6023L100.302 16.3677L100.302 16.3677L98.8413 15.6023ZM98.6301 16.5621V18.2116H100.28V16.5621H98.6301ZM98.131 16.5621H96.4815V18.2116H98.131V16.5621ZM98.4766 14.6618L96.9621 14.0078L96.9558 14.0224L96.9498 14.0372L98.4766 14.6618ZM99.5515 13.3181L98.6031 11.9685L98.6031 11.9685L99.5515 13.3181ZM103.007 13.2029L102.188 14.6352L102.188 14.6352L103.007 13.2029ZM104.005 14.3546L102.487 14.9999L102.49 15.0068L102.493 15.0138L104.005 14.3546ZM104.331 21.9367V23.5862H105.981V21.9367H104.331ZM101.836 21.9367H100.186V23.5862H101.836V21.9367ZM96.9805 6.96459V21.9367H100.28V6.96459H96.9805ZM98.6301 20.2871H96.1348V23.5862H98.6301V20.2871ZM97.7843 21.9367V6.96459H94.4852V21.9367H97.7843ZM96.1348 8.61415H98.6301V5.31502H96.1348V8.61415ZM103.485 16.5621C103.485 15.7959 103.341 14.9375 102.81 14.2287L100.171 16.2082C100.132 16.1573 100.137 16.139 100.152 16.1955C100.167 16.2546 100.186 16.3706 100.186 16.5621H103.485ZM102.836 14.2649C102.198 13.3639 101.209 13.1082 100.377 13.1082V16.4073C100.486 16.4073 100.483 16.4242 100.418 16.3971C100.383 16.3826 100.334 16.3571 100.282 16.3159C100.228 16.2742 100.182 16.2247 100.144 16.1719L102.836 14.2649ZM100.377 13.1082C99.7784 13.1082 99.1831 13.2438 98.6371 13.5559L100.274 16.4203C100.274 16.4201 100.277 16.4183 100.287 16.4156C100.299 16.4128 100.327 16.4073 100.377 16.4073V13.1082ZM98.6901 13.5268C98.124 13.8234 97.6765 14.2708 97.38 14.8369L100.302 16.3677C100.299 16.3741 100.288 16.3925 100.267 16.4136C100.246 16.4348 100.227 16.446 100.221 16.4493L98.6901 13.5268ZM97.38 14.8369C97.0909 15.3889 96.9805 15.9831 96.9805 16.5621H100.28C100.28 16.3988 100.31 16.3532 100.302 16.3677L97.38 14.8369ZM98.6301 14.9125H98.131V18.2116H98.6301V14.9125ZM99.7806 16.5621C99.7806 16.0392 99.8658 15.6226 100.003 15.2863L96.9498 14.0372C96.6267 14.8271 96.4815 15.6773 96.4815 16.5621H99.7806ZM99.991 15.3157C100.121 15.0149 100.291 14.8147 100.5 14.6678L98.6031 11.9685C97.8652 12.487 97.3185 13.1825 96.9621 14.0078L99.991 15.3157ZM100.5 14.6678C100.645 14.5657 100.879 14.4686 101.298 14.4686V11.1695C100.335 11.1695 99.4047 11.4051 98.6031 11.9685L100.5 14.6678ZM101.298 14.4686C101.796 14.4686 102.06 14.562 102.188 14.6352L103.825 11.7707C103.057 11.332 102.182 11.1695 101.298 11.1695V14.4686ZM102.188 14.6352C102.298 14.698 102.398 14.7922 102.487 14.9999L105.523 13.7094C105.176 12.8934 104.611 12.2198 103.825 11.7707L102.188 14.6352ZM102.493 15.0138C102.594 15.2471 102.681 15.6219 102.681 16.1974H105.981C105.981 15.3141 105.85 14.4603 105.517 13.6955L102.493 15.0138ZM102.681 16.1974V21.9367H105.981V16.1974H102.681ZM104.331 20.2871H101.836V23.5862H104.331V20.2871ZM103.485 21.9367V16.5621H100.186V21.9367H103.485ZM109.066 15.1224H107.417V16.772H109.066V15.1224ZM109.066 13.8748V12.2252H107.417V13.8748H109.066ZM112.272 13.6828L112.929 15.1956L112.929 15.1956L112.272 13.6828ZM112.944 13.1262L111.582 12.1947L111.565 12.2197L111.549 12.2453L112.944 13.1262ZM112.656 11.0915L111.643 12.3936L111.654 12.4025L111.666 12.4112L112.656 11.0915ZM109.757 10.6884V9.03884H108.108V10.6884H109.757ZM109.757 19.7484H108.108V21.398H109.757V19.7484ZM112.771 19.5565L113.309 21.1159L113.332 21.1077L113.356 21.0988L112.771 19.5565ZM113.635 18.9038L112.308 17.9234L112.294 17.9424L112.28 17.9618L113.635 18.9038ZM113.769 16.9268L112.278 17.6329L112.301 17.6812L112.327 17.7279L113.769 16.9268ZM113.251 16.3317L112.249 17.6421L112.291 17.6746L112.336 17.7042L113.251 16.3317ZM112.483 15.9862L112.066 17.5824L112.099 17.5909L112.132 17.5981L112.483 15.9862ZM109.066 15.871H107.417V17.5206H109.066V15.871ZM109.066 14.3738V12.7243H107.417V14.3738H109.066ZM113.635 14.585L113.251 16.1893L113.259 16.1911L113.635 14.585ZM115.247 15.2568L114.349 16.6407L114.363 16.6494L114.376 16.6578L115.247 15.2568ZM116.36 16.4085L114.926 17.2227L114.934 17.2372L114.942 17.2516L116.36 16.4085ZM116.149 20.2859L114.829 19.2961L114.822 19.3058L114.815 19.3157L116.149 20.2859ZM114.402 21.5336L113.849 19.9795L114.402 21.5336ZM107.012 21.9367H105.363V23.5862H107.012V21.9367ZM107.012 8.50018V6.85062H105.363V8.50018H107.012ZM113.846 8.88408L113.263 10.4274L113.276 10.4323L113.289 10.4369L113.846 8.88408ZM115.439 9.99739L116.746 8.99163L116.746 8.99163L115.439 9.99739ZM115.439 13.6444L116.734 14.6666L116.734 14.6666L115.439 13.6444ZM113.846 14.7577L114.402 16.3105L114.415 16.3059L114.428 16.3011L113.846 14.7577ZM110.716 15.1224V13.8748H107.417V15.1224H110.716ZM109.066 15.5243H111.235V12.2252H109.066V15.5243ZM111.235 15.5243C111.806 15.5243 112.385 15.4324 112.929 15.1956L111.614 12.1701C111.57 12.1892 111.458 12.2252 111.235 12.2252V15.5243ZM112.929 15.1956C113.491 14.9516 113.988 14.5619 114.338 14.007L111.549 12.2453C111.566 12.2182 111.588 12.1944 111.608 12.1775C111.627 12.1616 111.633 12.1616 111.614 12.1701L112.929 15.1956ZM114.305 14.0577C114.683 13.5055 114.843 12.883 114.843 12.2624H111.544C111.544 12.2907 111.54 12.2903 111.546 12.2701C111.549 12.2603 111.553 12.2479 111.56 12.2339C111.566 12.2199 111.574 12.2066 111.582 12.1947L114.305 14.0577ZM114.843 12.2624C114.843 11.316 114.482 10.3996 113.645 9.77185L111.666 12.4112C111.654 12.4023 111.634 12.3851 111.612 12.3584C111.59 12.3314 111.572 12.3021 111.56 12.2739C111.533 12.2158 111.544 12.199 111.544 12.2624H114.843ZM113.668 9.78942C112.942 9.22448 112.068 9.03884 111.235 9.03884V12.338C111.605 12.338 111.678 12.4211 111.643 12.3936L113.668 9.78942ZM111.235 9.03884H109.757V12.338H111.235V9.03884ZM108.108 10.6884V19.7484H111.407V10.6884H108.108ZM109.757 21.398H111.523V18.0989H109.757V21.398ZM111.523 21.398C112.136 21.398 112.737 21.3129 113.309 21.1159L112.233 17.997C112.062 18.056 111.832 18.0989 111.523 18.0989V21.398ZM113.356 21.0988C114.003 20.8532 114.574 20.4422 114.989 19.8459L112.28 17.9618C112.278 17.9651 112.277 17.9671 112.271 17.9716C112.264 17.977 112.239 17.9938 112.186 18.0141L113.356 21.0988ZM114.961 19.8843C115.437 19.24 115.61 18.4927 115.61 17.7713H112.311C112.311 17.8731 112.299 17.926 112.294 17.9433C112.29 17.9574 112.292 17.9453 112.308 17.9234L114.961 19.8843ZM115.61 17.7713C115.61 17.2306 115.506 16.6573 115.211 16.1257L112.327 17.7279C112.308 17.6941 112.304 17.6734 112.304 17.6762C112.305 17.6805 112.311 17.7098 112.311 17.7713H115.61ZM115.26 16.2206C115.013 15.6992 114.637 15.2736 114.166 14.9592L112.336 17.7042C112.336 17.7044 112.333 17.7025 112.328 17.6979C112.323 17.6934 112.316 17.6871 112.309 17.6791C112.294 17.6618 112.284 17.6447 112.278 17.6329L115.26 16.2206ZM114.253 15.0214C113.824 14.6937 113.34 14.4845 112.833 14.3743L112.132 17.5981C112.214 17.6159 112.242 17.637 112.249 17.6421L114.253 15.0214ZM112.899 14.3901C112.452 14.2734 111.99 14.2215 111.523 14.2215V17.5206C111.747 17.5206 111.925 17.5455 112.066 17.5824L112.899 14.3901ZM111.523 14.2215H109.066V17.5206H111.523V14.2215ZM110.716 15.871V14.3738H107.417V15.871H110.716ZM109.066 16.0234H111.773V12.7243H109.066V16.0234ZM111.773 16.0234C112.306 16.0234 112.797 16.0809 113.251 16.1893L114.018 12.9807C113.295 12.8076 112.544 12.7243 111.773 12.7243V16.0234ZM113.259 16.1911C113.692 16.2926 114.05 16.4466 114.349 16.6407L116.145 13.8729C115.497 13.4528 114.78 13.1589 114.01 12.9788L113.259 16.1911ZM114.376 16.6578C114.621 16.8103 114.796 16.9948 114.926 17.2227L117.795 15.5943C117.387 14.8753 116.819 14.292 116.118 13.8559L114.376 16.6578ZM114.942 17.2516C115.044 17.4216 115.133 17.6864 115.133 18.1169H118.432C118.432 17.2165 118.24 16.3423 117.778 15.5655L114.942 17.2516ZM115.133 18.1169C115.133 18.735 114.988 19.0844 114.829 19.2961L117.469 21.2756C118.155 20.3612 118.432 19.2646 118.432 18.1169H115.133ZM114.815 19.3157C114.629 19.5708 114.34 19.8049 113.849 19.9795L114.956 23.0876C115.975 22.7248 116.85 22.1271 117.483 21.2561L114.815 19.3157ZM113.849 19.9795C113.309 20.1717 112.627 20.2871 111.773 20.2871V23.5862C112.915 23.5862 113.985 23.4329 114.956 23.0876L113.849 19.9795ZM111.773 20.2871H107.012V23.5862H111.773V20.2871ZM108.662 21.9367V8.50018H105.363V21.9367H108.662ZM107.012 10.1497H111.485V6.85062H107.012V10.1497ZM111.485 10.1497C112.227 10.1497 112.809 10.2561 113.263 10.4274L114.428 7.34075C113.526 7.0002 112.534 6.85062 111.485 6.85062V10.1497ZM113.289 10.4369C113.714 10.5892 113.967 10.7893 114.131 11.0031L116.746 8.99163C116.143 8.20739 115.334 7.66529 114.402 7.33128L113.289 10.4369ZM114.131 11.0031C114.248 11.155 114.365 11.4118 114.365 11.8977H117.664C117.664 10.848 117.397 9.83789 116.746 8.99163L114.131 11.0031ZM114.365 11.8977C114.365 12.2424 114.276 12.4552 114.144 12.6223L116.734 14.6666C117.369 13.8611 117.664 12.9095 117.664 11.8977H114.365ZM114.144 12.6223C113.976 12.8359 113.709 13.0461 113.263 13.2144L114.428 16.3011C115.338 15.9576 116.134 15.4255 116.734 14.6666L114.144 12.6223ZM113.289 13.2049C112.827 13.3706 112.235 13.4729 111.485 13.4729V16.772C112.526 16.772 113.508 16.6311 114.402 16.3105L113.289 13.2049ZM111.485 13.4729H109.066V16.772H111.485V13.4729ZM127.299 13.107L128.808 13.7728L129.829 11.4574H127.299V13.107ZM121.54 26.1595V27.8091H122.615L123.049 26.8254L121.54 26.1595ZM118.987 26.1595L117.475 25.5002L116.468 27.8091H118.987V26.1595ZM121.214 21.0537L122.726 21.7131L123.022 21.0347L122.712 20.3627L121.214 21.0537ZM117.548 13.107V11.4574H114.97L116.05 13.798L117.548 13.107ZM120.312 13.107L121.841 12.4886L121.424 11.4574H120.312V13.107ZM123.153 20.1323L123.101 21.7811L125.631 21.8601L124.682 19.5139L123.153 20.1323ZM121.924 20.0939L120.392 19.4835L119.521 21.6692L121.873 21.7427L121.924 20.0939ZM124.707 13.107V11.4574H123.589L123.175 12.4965L124.707 13.107ZM125.789 12.4411L120.031 25.4937L123.049 26.8254L128.808 13.7728L125.789 12.4411ZM121.54 24.51H118.987V27.8091H121.54V24.51ZM120.499 26.8189L122.726 21.7131L119.702 20.3943L117.475 25.5002L120.499 26.8189ZM122.712 20.3627L119.045 12.4159L116.05 13.798L119.716 21.7447L122.712 20.3627ZM117.548 14.7565H120.312V11.4574H117.548V14.7565ZM118.782 13.7254L121.623 20.7507L124.682 19.5139L121.841 12.4886L118.782 13.7254ZM123.204 18.4836L121.976 18.4452L121.873 21.7427L123.101 21.7811L123.204 18.4836ZM123.457 20.7044L126.24 13.7174L123.175 12.4965L120.392 19.4835L123.457 20.7044ZM124.707 14.7565H127.299V11.4574H124.707V14.7565ZM129.363 18.8847L127.731 18.6393L127.446 20.5342H129.363V18.8847ZM129.689 16.7156V15.0661H128.269L128.058 16.4702L129.689 16.7156ZM136.138 16.7156L137.77 16.4702L137.558 15.0661H136.138V16.7156ZM136.465 18.8847V20.5342H138.381L138.096 18.6393L136.465 18.8847ZM132.875 12.8574L134.39 12.2031L132.882 8.7132L131.363 12.1986L132.875 12.8574ZM130.86 17.4834L129.348 16.8246L129.178 17.2142L129.217 17.6374L130.86 17.4834ZM130.917 18.0977L132.416 18.787L132.601 18.3847L132.56 17.9437L130.917 18.0977ZM129.151 21.9367V23.5862H130.208L130.65 22.626L129.151 21.9367ZM126.061 21.9367L124.573 21.2239L123.442 23.5862H126.061V21.9367ZM132.875 7.71319L134.363 7.00048L132.875 3.89526L131.388 7.00048L132.875 7.71319ZM139.689 21.9367V23.5862H142.309L141.177 21.2239L139.689 21.9367ZM136.58 21.9367L135.084 22.6309L135.527 23.5862H136.58V21.9367ZM134.852 18.2128L133.205 18.1213L133.182 18.533L133.356 18.907L134.852 18.2128ZM134.891 17.5218L136.538 17.6133L136.559 17.2247L136.405 16.8675L134.891 17.5218ZM130.994 19.1301L131.32 16.961L128.058 16.4702L127.731 18.6393L130.994 19.1301ZM129.689 18.3652H136.138V15.0661H129.689V18.3652ZM134.507 16.961L134.834 19.1301L138.096 18.6393L137.77 16.4702L134.507 16.961ZM136.465 17.2351H129.363V20.5342H136.465V17.2351ZM131.363 12.1986L129.348 16.8246L132.372 18.1423L134.388 13.5163L131.363 12.1986ZM129.217 17.6374L129.275 18.2516L132.56 17.9437L132.502 17.3295L129.217 17.6374ZM129.419 17.4083L127.653 21.2473L130.65 22.626L132.416 18.787L129.419 17.4083ZM129.151 20.2871H126.061V23.5862H129.151V20.2871ZM127.549 22.6494L134.363 8.4259L131.388 7.00048L124.573 21.2239L127.549 22.6494ZM131.388 8.4259L138.202 22.6494L141.177 21.2239L134.363 7.00048L131.388 8.4259ZM139.689 20.2871H136.58V23.5862H139.689V20.2871ZM138.076 21.2425L136.349 17.5186L133.356 18.907L135.084 22.6309L138.076 21.2425ZM136.499 18.3043L136.538 17.6133L133.244 17.4303L133.205 18.1213L136.499 18.3043ZM136.405 16.8675L134.39 12.2031L131.361 13.5117L133.376 18.1761L136.405 16.8675ZM141.243 8.69213L142.325 9.9369L142.341 9.92379L142.355 9.91031L141.243 8.69213ZM143.335 8.69213L142.196 9.88536L142.224 9.91179L142.253 9.9369L143.335 8.69213ZM143.335 10.6884L142.223 9.47023L142.21 9.48256L142.196 9.49519L143.335 10.6884ZM141.243 10.6884L140.131 11.9066L140.131 11.9066L141.243 10.6884ZM141.07 13.107V11.4574H139.421V13.107H141.07ZM143.489 13.107H145.138V11.4574H143.489V13.107ZM143.489 21.9367V23.5862H145.138V21.9367H143.489ZM141.07 21.9367H139.421V23.5862H141.07V21.9367ZM142.451 9.69027C142.451 9.68645 142.451 9.73216 142.421 9.80088C142.389 9.87167 142.348 9.91765 142.325 9.9369L140.161 7.44736C139.486 8.03396 139.152 8.83045 139.152 9.69027H142.451ZM142.355 9.91031C142.358 9.90762 142.356 9.91029 142.348 9.91539C142.339 9.92058 142.328 9.92617 142.316 9.93087C142.304 9.93555 142.294 9.9378 142.289 9.9387C142.284 9.93956 142.287 9.93861 142.299 9.93861V6.63947C141.49 6.63947 140.738 6.9194 140.131 7.47395L142.355 9.91031ZM142.299 9.93861C142.32 9.93861 142.304 9.94154 142.267 9.92722C142.25 9.92061 142.234 9.9123 142.22 9.90336C142.206 9.89452 142.199 9.88748 142.196 9.88536L144.474 7.49891C143.869 6.92082 143.108 6.63947 142.299 6.63947V9.93861ZM142.253 9.9369C142.231 9.91765 142.189 9.87167 142.158 9.80088C142.127 9.73216 142.127 9.68645 142.127 9.69027H145.426C145.426 8.83045 145.092 8.03396 144.418 7.44736L142.253 9.9369ZM142.127 9.69027C142.127 9.67979 142.13 9.63226 142.158 9.57007C142.185 9.50806 142.218 9.4752 142.223 9.47023L144.448 11.9066C145.082 11.327 145.426 10.553 145.426 9.69027H142.127ZM142.196 9.49519C142.199 9.49306 142.206 9.48602 142.22 9.47718C142.234 9.46824 142.25 9.45993 142.267 9.45333C142.304 9.43901 142.32 9.44194 142.299 9.44194V12.7411C143.108 12.7411 143.869 12.4597 144.474 11.8816L142.196 9.49519ZM142.299 9.44194C142.287 9.44194 142.284 9.44098 142.289 9.44184C142.294 9.44275 142.304 9.44499 142.316 9.44967C142.328 9.45438 142.339 9.45996 142.348 9.46516C142.356 9.47025 142.358 9.47292 142.355 9.47023L140.131 11.9066C140.738 12.4611 141.49 12.7411 142.299 12.7411V9.44194ZM142.355 9.47023C142.361 9.4752 142.393 9.50806 142.421 9.57007C142.448 9.63226 142.451 9.67979 142.451 9.69027H139.152C139.152 10.553 139.496 11.327 140.131 11.9066L142.355 9.47023ZM141.07 14.7565H143.489V11.4574H141.07V14.7565ZM141.839 13.107V21.9367H145.138V13.107H141.839ZM143.489 20.2871H141.07V23.5862H143.489V20.2871ZM142.72 21.9367V13.107H139.421V21.9367H142.72Z" fill="white" mask="url(#path-2-outside-1_3_1194)"/>
<path d="M25.3997 28.3796L23.7798 26.9241C21.8992 25.226 20.3444 23.7612 19.1155 22.5297C17.8865 21.2981 16.909 20.1925 16.1828 19.2129C15.4566 18.2332 14.9492 17.3329 14.6606 16.5119C14.372 15.6908 14.2277 14.8511 14.2277 13.9928C14.2277 12.2387 14.8142 10.7739 15.9873 9.59834C17.1604 8.42276 18.622 7.83498 20.3723 7.83498C21.3406 7.83498 22.2623 8.04024 23.1374 8.45075C24.0126 8.86127 24.7667 9.43973 25.3997 10.1861C26.0328 9.43973 26.7869 8.86127 27.6621 8.45075C28.5372 8.04024 29.4589 7.83498 30.4272 7.83498C32.1775 7.83498 33.6391 8.42276 34.8122 9.59834C35.9853 10.7739 36.5718 12.2387 36.5718 13.9928C36.5718 14.8511 36.4275 15.6908 36.1389 16.5119C35.8503 17.3329 35.3429 18.2332 34.6167 19.2129C33.8905 20.1925 32.913 21.2981 31.684 22.5297C30.4551 23.7612 28.9003 25.226 27.0197 26.9241L25.3997 28.3796Z" fill="#ED1C24"/>
<rect width="4.43578" height="4.43578" rx="0.449882" transform="matrix(-0.707107 -0.707107 -0.707107 0.707107 14.9269 22.4908)" fill="#ED1C24"/>
<rect width="4.43578" height="4.43578" rx="0.449882" transform="matrix(-0.707107 -0.707107 -0.707107 0.707107 25.8661 27.7923)" fill="#ED1C24"/>
<rect width="3.44637" height="3.44637" rx="0.449882" transform="matrix(-0.707107 -0.707107 -0.707107 0.707107 8.49606 22.4908)" fill="#ED1C24"/>
<rect width="3.44637" height="3.44637" rx="0.449882" transform="matrix(-0.707107 -0.707107 -0.707107 0.707107 19.4352 27.7923)" fill="#ED1C24"/>
<rect width="3.44637" height="3.44637" rx="0.449882" transform="matrix(-0.707107 -0.707107 -0.707107 0.707107 11.4971 18.1807)" fill="#ED1C24"/>
<rect width="3.95692" height="3.95692" rx="0.449882" transform="matrix(-0.707107 -0.707107 -0.707107 0.707107 14.7914 13.8936)" fill="#ED1C24"/>
<rect width="5.20952" height="5.20952" rx="0.449882" transform="matrix(-0.707107 -0.707107 -0.707107 0.707107 19.1352 18.1807)" fill="#ED1C24"/>
<rect width="2.36947" height="2.36947" rx="0.449882" transform="matrix(-0.707107 -0.707107 -0.707107 0.707107 8.06689 13.8936)" fill="#ED1C24"/>
<rect width="2.36947" height="2.36947" rx="0.449882" transform="matrix(-0.707107 -0.707107 -0.707107 0.707107 14.583 9.5104)" fill="#ED1C24"/>
<rect width="2.36947" height="2.36947" rx="0.449882" transform="matrix(-0.707107 -0.707107 -0.707107 0.707107 19.1386 23.8782)" fill="#ED1C24"/>
<rect width="1.91473" height="1.91473" rx="0.449882" transform="matrix(-0.707107 -0.707107 -0.707107 0.707107 2.70786 13.8936)" fill="#ED1C24"/>
<rect width="1.91473" height="1.91473" rx="0.449882" transform="matrix(-0.707107 -0.707107 -0.707107 0.707107 2.70786 22.6938)" fill="#ED1C24"/>
<rect width="1.91473" height="1.91473" rx="0.449882" transform="matrix(-0.707107 -0.707107 -0.707107 0.707107 5.49456 26.9813)" fill="#ED1C24"/>
<rect width="3.21108" height="3.21108" rx="0.449882" transform="matrix(-0.707107 -0.707107 -0.707107 0.707107 6.13766 18.2995)" fill="#ED1C24"/>
<rect width="0.749803" height="3.44909" transform="matrix(-4.37114e-08 -1 -1 4.37114e-08 9.87882 22.8309)" fill="#ED1C24"/>
<rect width="0.899764" height="3.74902" transform="matrix(-4.37114e-08 -1 -1 4.37114e-08 20.9759 28.3796)" fill="#ED1C24"/>
<rect width="0.899764" height="3.44909" transform="matrix(-4.37114e-08 -1 -1 4.37114e-08 9.87882 14.4331)" fill="#ED1C24"/>
<rect width="0.749803" height="3.74902" transform="matrix(-4.37114e-08 -1 -1 4.37114e-08 13.4778 18.632)" fill="#ED1C24"/>
<rect width="0.749803" height="3.44909" transform="matrix(-4.37114e-08 -1 -1 4.37114e-08 16.927 9.78437)" fill="#ED1C24"/>
<rect width="0.749803" height="3.59905" transform="matrix(-4.37114e-08 -1 -1 4.37114e-08 21.4261 24.1805)" fill="#ED1C24"/>
<path d="M25.0591 14.0588C28.2694 5.804 34.2039 9.47282 36.7699 12.3391C40.3077 7.81858 44.5771 8.98145 46.2695 10.128C51.5762 16.5484 42.1476 25.1417 36.7699 28.6358C30.0874 24.9015 26.1784 17.3619 25.0591 14.0588Z" fill="white"/>
<path d="M36.6885 30.9289L34.8598 29.2928C32.7369 27.384 30.9818 25.7375 29.5945 24.3531C28.2072 22.9687 27.1037 21.7259 26.2839 20.6247C25.4642 19.5235 24.8914 18.5115 24.5656 17.5885C24.2398 16.6656 24.0769 15.7217 24.0769 14.7569C24.0769 12.7852 24.739 11.1386 26.0632 9.81715C27.3875 8.4957 29.0375 7.83498 31.0133 7.83498C32.1063 7.83498 33.1467 8.06571 34.1346 8.52716C35.1226 8.98862 35.9738 9.63886 36.6885 10.4779C37.4031 9.63886 38.2544 8.98862 39.2423 8.52716C40.2302 8.06571 41.2707 7.83498 42.3637 7.83498C44.3395 7.83498 45.9895 8.4957 47.3137 9.81715C48.638 11.1386 49.3001 12.7852 49.3001 14.7569C49.3001 15.7217 49.1372 16.6656 48.8114 17.5885C48.4856 18.5115 47.9128 19.5235 47.093 20.6247C46.2733 21.7259 45.1698 22.9687 43.7825 24.3531C42.3952 25.7375 40.6401 27.384 38.5172 29.2928L36.6885 30.9289ZM36.6885 27.5309C38.7063 25.727 40.3669 24.1801 41.6701 22.8901C42.9733 21.6001 44.0032 20.4779 44.7599 19.5235C45.5166 18.5691 46.0421 17.7196 46.3363 16.975C46.6306 16.2304 46.7777 15.491 46.7777 14.7569C46.7777 13.4983 46.3574 12.4496 45.5166 11.6105C44.6758 10.7715 43.6249 10.352 42.3637 10.352C41.3758 10.352 40.4615 10.6299 39.6207 11.1858C38.7799 11.7416 38.2019 12.4496 37.8866 13.3096H35.4904C35.1751 12.4496 34.5971 11.7416 33.7563 11.1858C32.9155 10.6299 32.0012 10.352 31.0133 10.352C29.7521 10.352 28.7012 10.7715 27.8604 11.6105C27.0196 12.4496 26.5992 13.4983 26.5992 14.7569C26.5992 15.491 26.7464 16.2304 27.0406 16.975C27.3349 17.7196 27.8604 18.5691 28.6171 19.5235C29.3738 20.4779 30.4037 21.6001 31.7069 22.8901C33.0101 24.1801 34.6706 25.727 36.6885 27.5309Z" fill="#ED1C24"/>
</svg>
