<svg width="267" height="126" viewBox="0 0 267 126" fill="none" xmlns="http://www.w3.org/2000/svg">
<path d="M137.548 111.258L128.776 103.376C118.591 94.18 110.171 86.2474 103.516 79.578C96.8611 72.9087 91.5672 66.9213 87.6346 61.6161C83.702 56.3109 80.9543 51.4352 79.3913 46.9889C77.8284 42.5427 77.0469 37.9954 77.0469 33.347C77.0469 23.8482 80.2232 15.9156 86.5759 9.54937C92.9285 3.18312 100.844 0 110.323 0C115.566 0 120.557 1.11157 125.297 3.3347C130.036 5.55783 134.12 8.69043 137.548 12.7325C140.977 8.69043 145.061 5.55783 149.8 3.3347C154.539 1.11157 159.531 0 164.774 0C174.253 0 182.168 3.18312 188.521 9.54937C194.873 15.9156 198.05 23.8482 198.05 33.347C198.05 37.9954 197.268 42.5427 195.705 46.9889C194.142 51.4352 191.395 56.3109 187.462 61.6161C183.529 66.9213 178.236 72.9087 171.58 79.578C164.925 86.2474 156.505 94.18 146.321 103.376L137.548 111.258Z" fill="white"/>
<rect width="24.0219" height="24.0219" transform="matrix(-0.707107 -0.707107 -0.707107 0.707107 80.834 79.3711)" fill="white"/>
<rect width="24.0219" height="24.0219" transform="matrix(-0.707107 -0.707107 -0.707107 0.707107 140.075 108.074)" fill="white"/>
<rect width="18.6637" height="18.6637" transform="matrix(-0.707107 -0.707107 -0.707107 0.707107 46.0088 79.3711)" fill="white"/>
<rect width="18.6637" height="18.6637" transform="matrix(-0.707107 -0.707107 -0.707107 0.707107 105.25 108.074)" fill="white"/>
<rect width="18.6637" height="18.6637" transform="matrix(-0.707107 -0.707107 -0.707107 0.707107 62.2598 56.0254)" fill="white"/>
<rect width="21.4286" height="21.4286" transform="matrix(-0.707107 -0.707107 -0.707107 0.707107 80.0986 32.8105)" fill="white"/>
<rect width="28.2121" height="28.2121" transform="matrix(-0.707107 -0.707107 -0.707107 0.707107 103.621 56.0254)" fill="white"/>
<rect width="12.8323" height="12.8323" transform="matrix(-0.707107 -0.707107 -0.707107 0.707107 43.6826 32.8105)" fill="white"/>
<rect width="12.8323" height="12.8323" transform="matrix(-0.707107 -0.707107 -0.707107 0.707107 78.9727 9.07617)" fill="white"/>
<rect width="12.8323" height="12.8323" transform="matrix(-0.707107 -0.707107 -0.707107 0.707107 103.643 86.8828)" fill="white"/>
<rect width="10.3696" height="10.3696" transform="matrix(-0.707107 -0.707107 -0.707107 0.707107 14.665 32.8105)" fill="white"/>
<rect width="10.3696" height="10.3696" transform="matrix(-0.707107 -0.707107 -0.707107 0.707107 14.665 80.4688)" fill="white"/>
<rect width="10.3696" height="10.3696" transform="matrix(-0.707107 -0.707107 -0.707107 0.707107 29.7539 103.686)" fill="white"/>
<rect width="17.3894" height="17.3894" transform="matrix(-0.707107 -0.707107 -0.707107 0.707107 33.2373 56.6738)" fill="white"/>
<rect width="4.06054" height="18.6785" transform="matrix(-4.37114e-08 -1 -1 4.37114e-08 53.4971 81.209)" fill="white"/>
<rect width="4.87265" height="20.3027" transform="matrix(-4.37114e-08 -1 -1 4.37114e-08 113.591 111.258)" fill="white"/>
<rect width="4.87265" height="18.6785" transform="matrix(-4.37114e-08 -1 -1 4.37114e-08 53.4971 35.7285)" fill="white"/>
<rect width="4.06054" height="20.3027" transform="matrix(-4.37114e-08 -1 -1 4.37114e-08 72.9844 58.4727)" fill="white"/>
<rect width="4.06054" height="18.6785" transform="matrix(-4.37114e-08 -1 -1 4.37114e-08 91.6641 10.5547)" fill="white"/>
<rect width="4.06054" height="19.4906" transform="matrix(-4.37114e-08 -1 -1 4.37114e-08 116.028 88.5195)" fill="white"/>
<path d="M135.708 33.7022C153.093 -11.0013 185.231 8.86691 199.127 24.3889C218.285 -0.0914717 241.406 6.20596 250.571 12.4147C279.309 47.1841 228.249 93.7207 199.127 112.643C162.938 92.4198 141.769 51.5895 135.708 33.7022Z" fill="#ED4E66"/>
<path d="M198.685 125.063L188.782 116.203C177.285 105.866 167.78 96.9496 160.268 89.4526C152.755 81.9557 146.779 75.2254 142.34 69.2619C137.9 63.2984 134.799 57.8176 133.034 52.8197C131.27 47.8217 130.388 42.7101 130.388 37.4849C130.388 26.8074 133.973 17.8905 141.144 10.7343C148.316 3.57811 157.251 0 167.951 0C173.87 0 179.505 1.2495 184.855 3.74849C190.204 6.24749 194.815 9.7688 198.685 14.3124C202.555 9.7688 207.165 6.24749 212.515 3.74849C217.865 1.2495 223.499 0 229.418 0C240.118 0 249.054 3.57811 256.225 10.7343C263.396 17.8905 266.982 26.8074 266.982 37.4849C266.982 42.7101 266.099 47.8217 264.335 52.8197C262.571 57.8176 259.469 63.2984 255.03 69.2619C250.59 75.2254 244.614 81.9557 237.102 89.4526C229.589 96.9496 220.084 105.866 208.588 116.203L198.685 125.063ZM198.685 106.662C209.612 96.8928 218.605 88.5155 225.662 81.5297C232.719 74.5439 238.297 68.4668 242.395 63.2984C246.493 58.13 249.338 53.5296 250.932 49.4971C252.525 45.4647 253.322 41.4606 253.322 37.4849C253.322 30.6695 251.046 24.9899 246.493 20.4463C241.939 15.9027 236.248 13.6309 229.418 13.6309C224.068 13.6309 219.117 15.136 214.564 18.1461C210.011 21.1563 206.88 24.9899 205.173 29.6472H192.196C190.489 24.9899 187.359 21.1563 182.806 18.1461C178.252 15.136 173.301 13.6309 167.951 13.6309C161.121 13.6309 155.43 15.9027 150.877 20.4463C146.324 24.9899 144.047 30.6695 144.047 37.4849C144.047 41.4606 144.844 45.4647 146.437 49.4971C148.031 53.5296 150.877 58.13 154.975 63.2984C159.072 68.4668 164.65 74.5439 171.707 81.5297C178.765 88.5155 187.757 96.8928 198.685 106.662Z" fill="white"/>
</svg>
