<svg width="20" height="19" viewBox="0 0 20 19" fill="none" xmlns="http://www.w3.org/2000/svg">
<path fill-rule="evenodd" clip-rule="evenodd" d="M7.67483 1.19771C7.92728 0.828532 8.26597 0.526498 8.66153 0.31779C9.05709 0.109082 9.49758 0 9.94483 0C10.3921 0 10.8326 0.109082 11.2281 0.31779C11.6237 0.526498 11.9624 0.828532 12.2148 1.19771L12.6468 1.82971C15.3527 5.78892 17.6777 9.99534 19.5908 14.3927L19.6808 14.6007C19.8378 14.9611 19.908 15.3534 19.8856 15.7459C19.8632 16.1384 19.749 16.5201 19.552 16.8604C19.3551 17.2006 19.081 17.4899 18.7518 17.7048C18.4226 17.9197 18.0476 18.0543 17.6568 18.0977C12.5315 18.6708 7.35819 18.6708 2.23283 18.0977C1.8421 18.0543 1.46703 17.9197 1.13784 17.7048C0.808658 17.4899 0.534556 17.2006 0.337624 16.8604C0.140693 16.5201 0.0264388 16.1384 0.00406757 15.7459C-0.0183037 15.3534 0.0518335 14.9611 0.208828 14.6007L0.298828 14.3927C2.21196 9.99534 4.53699 5.78892 7.24283 1.82971L7.67483 1.19771ZM10.9448 6.20471C10.9448 6.46993 10.8395 6.72428 10.6519 6.91182C10.4644 7.09935 10.21 7.20471 9.94483 7.20471C9.67961 7.20471 9.42526 7.09935 9.23772 6.91182C9.05019 6.72428 8.94483 6.46993 8.94483 6.20471C8.94483 5.9395 9.05019 5.68514 9.23772 5.4976C9.42526 5.31007 9.67961 5.20471 9.94483 5.20471C10.21 5.20471 10.4644 5.31007 10.6519 5.4976C10.8395 5.68514 10.9448 5.9395 10.9448 6.20471ZM9.94483 8.95471C10.1437 8.95471 10.3345 9.03373 10.4752 9.17438C10.6158 9.31503 10.6948 9.5058 10.6948 9.70471V14.7047C10.6948 14.9036 10.6158 15.0944 10.4752 15.235C10.3345 15.3757 10.1437 15.4547 9.94483 15.4547C9.74592 15.4547 9.55515 15.3757 9.4145 15.235C9.27385 15.0944 9.19483 14.9036 9.19483 14.7047V9.70471C9.19483 9.5058 9.27385 9.31503 9.4145 9.17438C9.55515 9.03373 9.74592 8.95471 9.94483 8.95471Z" fill="#FDC700"/>
</svg>
