<svg width="36" height="35" viewBox="0 0 36 35" fill="none" xmlns="http://www.w3.org/2000/svg">
<circle cx="19.5" cy="18.5" r="16.5" fill="#9879C9"/>
<circle cx="16.5" cy="16.5" r="16" fill="#409159" stroke="#F8FAFB"/>
<path d="M14.5035 23C14.0374 23 13.6801 22.7889 13.2825 22.3094L9.32969 17.29C9.12356 17.0223 9 16.6837 9 16.3739C9 15.711 9.50772 15.2038 10.1115 15.2038C10.5097 15.2038 10.8394 15.3584 11.1685 15.7958L14.449 20.1522L20.8309 9.64908C21.0921 9.21175 21.4487 9 21.8054 9C22.4097 9 23 9.40906 23 10.0858C23 10.3956 22.8214 10.7343 22.6428 11.0164L15.67 22.3094C15.3678 22.7744 14.9837 23 14.5035 23Z" fill="white"/>
</svg>
