<svg width="18" height="16" viewBox="0 0 18 16" fill="none" xmlns="http://www.w3.org/2000/svg">
<path d="M1.23741 6.95746C6.06923 4.84063 9.29121 3.44509 10.9033 2.77083C15.5063 0.845685 16.4627 0.511267 17.0861 0.500107C17.2232 0.497796 17.5298 0.531965 17.7284 0.693996C17.8961 0.830811 17.9422 1.01563 17.9643 1.14535C17.9864 1.27506 18.0139 1.57056 17.992 1.80145C17.7426 4.43683 16.6633 10.8322 16.1142 13.7839C15.8818 15.0328 15.4244 15.4516 14.9815 15.4926C14.0189 15.5816 13.288 14.8529 12.3558 14.2385C10.897 13.2769 10.0729 12.6783 8.65691 11.74C7.02048 10.6557 8.08131 10.0597 9.0139 9.08566C9.25797 8.83076 13.4988 4.95196 13.5809 4.60009C13.5912 4.55608 13.6007 4.39204 13.5038 4.30543C13.4069 4.21881 13.2639 4.24843 13.1606 4.27199C13.0143 4.30538 10.6839 5.85425 6.16938 8.91859C5.5079 9.37533 4.90875 9.59787 4.37193 9.58621C3.78013 9.57335 2.64175 9.24974 1.79548 8.97313C0.757494 8.63385 -0.0674757 8.45447 0.00436067 7.87827C0.0417775 7.57814 0.452793 7.27121 1.23741 6.95746Z" fill="white"/>
</svg>
