<svg width="44" height="44" viewBox="0 0 44 44" fill="none" xmlns="http://www.w3.org/2000/svg">
<circle cx="22" cy="22" r="22" fill="#F89EA0"/>
<path d="M21 15H24V23.4H21V15ZM22.5 26.2C22.925 26.2 23.2815 26.3344 23.5695 26.6032C23.8575 26.872 24.001 27.2043 24 27.6C23.999 27.9957 23.855 28.328 23.568 28.5968C23.281 28.8656 22.925 29 22.5 29C22.075 29 21.719 28.8656 21.432 28.5968C21.145 28.328 21.001 27.9957 21 27.6C20.999 27.2043 21.143 26.8715 21.432 26.6018C21.721 26.3321 22.077 26.1981 22.5 26.2Z" fill="white"/>
</svg>
