<svg version="1.2" xmlns="http://www.w3.org/2000/svg" viewBox="0 0 73 69" width="73" height="69">
	<title>warning</title>
	<style>
		.s0 { fill: #ed1c24 } 
	</style>
	<path fill-rule="evenodd" class="s0" d="m36.5 22.9c0.7 0 1.3 0.5 1.3 1.2l-0.1 17.3c0 0.7-0.5 1.3-1.2 1.3-0.7 0-1.3-0.6-1.3-1.3v-17.3c0-0.7 0.6-1.2 1.3-1.2z"/>
	<path fill-rule="evenodd" class="s0" d="m36.2 68.3h-20.7c-6.2 0-11-2.3-13.3-6.2-2.3-4-2-9.2 1-14.7l21-37.7c3.2-5.8 7.6-9 12.3-9 4.7 0 9.1 3.2 12.3 9l21 37.7c3 5.5 3.3 10.8 1 14.7-2.3 4-7.1 6.2-13.3 6.2h-21q-0.2 0-0.3 0zm0.3-65.1c-3.4 0-7.2 2.4-10.1 7.7l-10.2 18.3-10.8 19.4c-2.7 5-2.8 9.3-1.1 12.2 1.8 3 5.5 5 11.2 5h21q0.2 0 0.3 0h20.7c5.7 0 9.4-2 11.1-5 1.8-2.9 1.7-7.2-1-12.2l-21-37.7c-2.9-5.3-6.7-7.7-10.1-7.7z"/>
	<path fill-rule="evenodd" class="s0" d="m35.2 51.8c0-0.7 0.6-1.3 1.3-1.3 0.7 0 1.3 0.6 1.3 1.3 0 0.7-0.6 1.2-1.3 1.2-0.7 0-1.3-0.5-1.3-1.2z"/>
</svg>