<svg width="20" height="16" viewBox="0 0 20 16" fill="none" xmlns="http://www.w3.org/2000/svg">
<path d="M19.5 2.77679C19.25 1.83929 18.625 1.16964 17.75 0.901786C16.25 0.5 9.87499 0.5 9.87499 0.5C9.87499 0.5 3.62501 0.5 2.00001 0.901786C1.12501 1.16964 0.499996 1.83929 0.249996 2.77679C-3.81842e-06 4.51786 0 8 0 8C0 8 3.7998e-06 11.4821 0.375004 13.2232C0.625004 14.1607 1.25 14.8304 2.125 15.0982C3.625 15.5 10 15.5 10 15.5C10 15.5 16.25 15.5 17.875 15.0982C18.75 14.8304 19.375 14.1607 19.625 13.2232C20 11.4821 20 8 20 8C20 8 20 4.51786 19.5 2.77679ZM7.99999 11.2143V4.78572L13.25 8L7.99999 11.2143Z" fill="white"/>
</svg>
