<svg width="477" height="224" viewBox="0 0 477 224" fill="none" xmlns="http://www.w3.org/2000/svg">
<path d="M245.414 198.504L229.762 184.441C211.591 168.035 196.569 153.882 184.695 141.982C172.821 130.083 163.376 119.4 156.359 109.935C149.343 100.469 144.44 91.7702 141.652 83.8373C138.863 75.9044 137.469 67.7911 137.469 59.4976C137.469 42.55 143.136 28.3969 154.47 17.0384C165.804 5.67987 179.927 0.000610352 196.839 0.000610352C206.194 0.000610352 215.099 1.98384 223.555 5.95031C232.011 9.91678 239.297 15.5059 245.414 22.7176C251.531 15.5059 258.817 9.91678 267.273 5.95031C275.729 1.98384 284.634 0.000610352 293.99 0.000610352C310.901 0.000610352 325.024 5.67987 336.358 17.0384C347.692 28.3969 353.36 42.55 353.36 59.4976C353.36 67.7911 351.965 75.9044 349.177 83.8373C346.388 91.7702 341.486 100.469 334.469 109.935C327.453 119.4 318.007 130.083 306.133 141.982C294.259 153.882 279.237 168.035 261.066 184.441L245.414 198.504Z" fill="#ED1C24"/>
<rect width="42.8589" height="42.8589" rx="0.449882" transform="matrix(-0.707107 -0.707107 -0.707107 0.707107 144.225 141.606)" fill="#ED1C24"/>
<rect width="42.8589" height="42.8589" rx="0.449882" transform="matrix(-0.707107 -0.707107 -0.707107 0.707107 249.92 192.829)" fill="#ED1C24"/>
<rect width="33.2991" height="33.2991" rx="0.449882" transform="matrix(-0.707107 -0.707107 -0.707107 0.707107 82.0894 141.606)" fill="#ED1C24"/>
<rect width="33.2991" height="33.2991" rx="0.449882" transform="matrix(-0.707107 -0.707107 -0.707107 0.707107 187.785 192.829)" fill="#ED1C24"/>
<rect width="33.2991" height="33.2991" rx="0.449882" transform="matrix(-0.707107 -0.707107 -0.707107 0.707107 111.086 99.9614)" fill="#ED1C24"/>
<rect width="38.232" height="38.232" rx="0.449882" transform="matrix(-0.707107 -0.707107 -0.707107 0.707107 142.915 58.5397)" fill="#ED1C24"/>
<rect width="50.3348" height="50.3348" rx="0.449882" transform="matrix(-0.707107 -0.707107 -0.707107 0.707107 184.885 99.9614)" fill="#ED1C24"/>
<rect width="22.894" height="22.894" rx="0.449882" transform="matrix(-0.707107 -0.707107 -0.707107 0.707107 77.943 58.5397)" fill="#ED1C24"/>
<rect width="22.894" height="22.894" rx="0.449882" transform="matrix(-0.707107 -0.707107 -0.707107 0.707107 140.902 16.1885)" fill="#ED1C24"/>
<rect width="22.894" height="22.894" rx="0.449882" transform="matrix(-0.707107 -0.707107 -0.707107 0.707107 184.918 155.012)" fill="#ED1C24"/>
<rect width="18.5003" height="18.5003" rx="0.449882" transform="matrix(-0.707107 -0.707107 -0.707107 0.707107 26.1634 58.5397)" fill="#ED1C24"/>
<rect width="18.5003" height="18.5003" rx="0.449882" transform="matrix(-0.707107 -0.707107 -0.707107 0.707107 26.1634 143.567)" fill="#ED1C24"/>
<rect width="18.5003" height="18.5003" rx="0.449882" transform="matrix(-0.707107 -0.707107 -0.707107 0.707107 53.0885 184.994)" fill="#ED1C24"/>
<rect width="31.0257" height="31.0257" rx="0.449882" transform="matrix(-0.707107 -0.707107 -0.707107 0.707107 59.3024 101.109)" fill="#ED1C24"/>
<rect width="7.24466" height="33.3254" transform="matrix(-4.37114e-08 -1 -1 4.37114e-08 95.4496 144.892)" fill="#ED1C24"/>
<rect width="8.69359" height="36.2233" transform="matrix(-4.37114e-08 -1 -1 4.37114e-08 202.67 198.504)" fill="#ED1C24"/>
<rect width="8.69359" height="33.3254" transform="matrix(-4.37114e-08 -1 -1 4.37114e-08 95.4496 63.7523)" fill="#ED1C24"/>
<rect width="7.24466" height="36.2233" transform="matrix(-4.37114e-08 -1 -1 4.37114e-08 130.223 104.322)" fill="#ED1C24"/>
<rect width="7.24466" height="33.3254" transform="matrix(-4.37114e-08 -1 -1 4.37114e-08 163.55 18.8359)" fill="#ED1C24"/>
<rect width="7.24466" height="34.7744" transform="matrix(-4.37114e-08 -1 -1 4.37114e-08 207.02 157.932)" fill="#ED1C24"/>
<path d="M242.123 60.136C273.14 -19.623 330.48 15.8255 355.273 43.5196C389.456 -0.157891 430.707 11.0779 447.059 22.1554C498.333 84.1902 407.233 167.22 355.273 200.98C290.706 164.899 252.937 92.0501 242.123 60.136Z" fill="white"/>
<path d="M354.487 223.136L336.818 207.328C316.306 188.885 299.348 172.976 285.944 159.6C272.54 146.224 261.878 134.216 253.957 123.576C246.037 112.936 240.502 103.158 237.354 94.2403C234.207 85.323 232.633 76.203 232.633 66.8804C232.633 47.8298 239.03 31.9205 251.825 19.1526C264.619 6.38459 280.562 0.000610352 299.652 0.000610352C310.213 0.000610352 320.266 2.22994 329.811 6.68859C339.356 11.1472 347.582 17.4299 354.487 25.5365C361.392 17.4299 369.617 11.1472 379.162 6.68859C388.707 2.22994 398.76 0.000610352 409.321 0.000610352C428.411 0.000610352 444.354 6.38459 457.149 19.1526C469.943 31.9205 476.341 47.8298 476.341 66.8804C476.341 76.203 474.767 85.323 471.619 94.2403C468.471 103.158 462.937 112.936 455.016 123.576C447.096 134.216 436.433 146.224 423.03 159.6C409.626 172.976 392.668 188.885 372.155 207.328L354.487 223.136ZM354.487 190.304C373.983 172.875 390.027 157.928 402.619 145.464C415.211 133 425.162 122.158 432.473 112.936C439.784 103.715 444.862 95.507 447.705 88.3123C450.548 81.1177 451.97 73.9737 451.97 66.8804C451.97 54.7204 447.908 44.5871 439.784 36.4805C431.661 28.3739 421.506 24.3205 409.321 24.3205C399.776 24.3205 390.941 27.0059 382.818 32.3765C374.694 37.7472 369.109 44.5871 366.063 52.8964H342.91C339.864 44.5871 334.279 37.7472 326.156 32.3765C318.032 27.0059 309.198 24.3205 299.652 24.3205C287.467 24.3205 277.312 28.3739 269.189 36.4805C261.065 44.5871 257.003 54.7204 257.003 66.8804C257.003 73.9737 258.425 81.1177 261.268 88.3123C264.112 95.507 269.189 103.715 276.5 112.936C283.811 122.158 293.763 133 306.354 145.464C318.946 157.928 334.99 172.875 354.487 190.304Z" fill="#ED1C24"/>
</svg>
